<?xml version="1.0" encoding="UTF-8" standalone="no"?>
<!-- Created with Inkscape (http://www.inkscape.org/) -->
<svg
   xmlns:dc="http://purl.org/dc/elements/1.1/"
   xmlns:cc="http://creativecommons.org/ns#"
   xmlns:rdf="http://www.w3.org/1999/02/22-rdf-syntax-ns#"
   xmlns:svg="http://www.w3.org/2000/svg"
   xmlns="http://www.w3.org/2000/svg"
   xmlns:xlink="http://www.w3.org/1999/xlink"
   xmlns:sodipodi="http://sodipodi.sourceforge.net/DTD/sodipodi-0.dtd"
   xmlns:inkscape="http://www.inkscape.org/namespaces/inkscape"
   sodipodi:docname="drive-optical.svg"
   sodipodi:docbase="/home/lapo/Desktop/tango-icon-theme/32x32/devices"
   inkscape:version="0.46"
   sodipodi:version="0.32"
   id="svg2913"
   height="32"
   width="32"
   version="1.0"
   inkscape:output_extension="org.inkscape.output.svg.inkscape">
  <defs
     id="defs3">
    <inkscape:perspective
       sodipodi:type="inkscape:persp3d"
       inkscape:vp_x="0 : 16 : 1"
       inkscape:vp_y="0 : 1000 : 0"
       inkscape:vp_z="32 : 16 : 1"
       inkscape:persp3d-origin="16 : 10.666667 : 1"
       id="perspective79" />
    <linearGradient
       inkscape:collect="always"
       id="linearGradient5060">
      <stop
         style="stop-color:black;stop-opacity:1;"
         offset="0"
         id="stop5062" />
      <stop
         style="stop-color:black;stop-opacity:0;"
         offset="1"
         id="stop5064" />
    </linearGradient>
    <linearGradient
       id="linearGradient5048">
      <stop
         style="stop-color:black;stop-opacity:0;"
         offset="0"
         id="stop5050" />
      <stop
         id="stop5056"
         offset="0.5"
         style="stop-color:black;stop-opacity:1;" />
      <stop
         style="stop-color:black;stop-opacity:0;"
         offset="1"
         id="stop5052" />
    </linearGradient>
    <linearGradient
       id="linearGradient2351"
       inkscape:collect="always">
      <stop
         id="stop2353"
         offset="0"
         style="stop-color:#656565;stop-opacity:1;" />
      <stop
         id="stop2355"
         offset="1"
         style="stop-color:#656565;stop-opacity:0;" />
    </linearGradient>
    <linearGradient
       id="linearGradient2345">
      <stop
         style="stop-color:#d9d9d9;stop-opacity:1.0000000;"
         offset="0.0000000"
         id="stop2347" />
      <stop
         style="stop-color:#eeeeee;stop-opacity:0;"
         offset="1"
         id="stop2349" />
    </linearGradient>
    <linearGradient
       inkscape:collect="always"
       id="linearGradient2329">
      <stop
         style="stop-color:#000000;stop-opacity:1;"
         offset="0"
         id="stop2331" />
      <stop
         style="stop-color:#000000;stop-opacity:0;"
         offset="1"
         id="stop2333" />
    </linearGradient>
    <linearGradient
       inkscape:collect="always"
       id="linearGradient2315">
      <stop
         style="stop-color:#656565;stop-opacity:1;"
         offset="0"
         id="stop2317" />
      <stop
         style="stop-color:#656565;stop-opacity:0;"
         offset="1"
         id="stop2319" />
    </linearGradient>
    <linearGradient
       inkscape:collect="always"
       id="linearGradient2165">
      <stop
         style="stop-color:#000000;stop-opacity:1;"
         offset="0"
         id="stop2167" />
      <stop
         style="stop-color:#000000;stop-opacity:0;"
         offset="1"
         id="stop2169" />
    </linearGradient>
    <linearGradient
       id="aigrd1"
       gradientUnits="userSpaceOnUse"
       x1="14.9966"
       y1="11.1885"
       x2="32.511002"
       y2="34.307499">
      <stop
         offset="0"
         style="stop-color:#EBEBEB"
         id="stop3034" />
      <stop
         offset="0.5"
         style="stop-color:#FFFFFF"
         id="stop3036" />
      <stop
         offset="1"
         style="stop-color:#EBEBEB"
         id="stop3038" />
    </linearGradient>
    <linearGradient
       inkscape:collect="always"
       id="linearGradient6036">
      <stop
         style="stop-color:#ffffff;stop-opacity:1;"
         offset="0"
         id="stop6038" />
      <stop
         style="stop-color:#ffffff;stop-opacity:0;"
         offset="1"
         id="stop6040" />
    </linearGradient>
    <linearGradient
       id="linearGradient4254"
       inkscape:collect="always">
      <stop
         id="stop4256"
         offset="0"
         style="stop-color:#ffffff;stop-opacity:1;" />
      <stop
         id="stop4258"
         offset="1"
         style="stop-color:#ffffff;stop-opacity:0;" />
    </linearGradient>
    <linearGradient
       id="linearGradient4244">
      <stop
         id="stop4246"
         offset="0.0000000"
         style="stop-color:#e4e4e4;stop-opacity:1.0000000;" />
      <stop
         id="stop4248"
         offset="1.0000000"
         style="stop-color:#d3d3d3;stop-opacity:1.0000000;" />
    </linearGradient>
    <linearGradient
       id="linearGradient4228">
      <stop
         id="stop4230"
         offset="0.0000000"
         style="stop-color:#bbbbbb;stop-opacity:1.0000000;" />
      <stop
         id="stop4232"
         offset="1.0000000"
         style="stop-color:#9f9f9f;stop-opacity:1.0000000;" />
    </linearGradient>
    <linearGradient
       inkscape:collect="always"
       xlink:href="#linearGradient5048"
       id="linearGradient1963"
       gradientUnits="userSpaceOnUse"
       gradientTransform="matrix(2.774389,0,0,1.969706,-1892.179,-872.8854)"
       x1="302.85715"
       y1="366.64789"
       x2="302.85715"
       y2="609.50507" />
    <radialGradient
       inkscape:collect="always"
       xlink:href="#linearGradient5060"
       id="radialGradient1965"
       gradientUnits="userSpaceOnUse"
       gradientTransform="matrix(2.774389,0,0,1.969706,-1891.633,-872.8854)"
       cx="605.71429"
       cy="486.64789"
       fx="605.71429"
       fy="486.64789"
       r="117.14286" />
    <radialGradient
       inkscape:collect="always"
       xlink:href="#linearGradient5060"
       id="radialGradient1967"
       gradientUnits="userSpaceOnUse"
       gradientTransform="matrix(-2.774389,0,0,1.969706,112.7623,-872.8854)"
       cx="605.71429"
       cy="486.64789"
       fx="605.71429"
       fy="486.64789"
       r="117.14286" />
    <radialGradient
       inkscape:collect="always"
       xlink:href="#linearGradient2165"
       id="radialGradient1969"
       gradientUnits="userSpaceOnUse"
       gradientTransform="matrix(1,0,0,0.695,0,10.29969)"
       cx="24.218407"
       cy="33.769478"
       fx="24.218407"
       fy="33.769478"
       r="17.67767" />
    <linearGradient
       inkscape:collect="always"
       xlink:href="#linearGradient4254"
       id="linearGradient2007"
       gradientUnits="userSpaceOnUse"
       gradientTransform="matrix(0.661072,0,0,0.660739,1.875956e-2,-1.060589)"
       x1="12.378357"
       y1="4.433136"
       x2="44.0961"
       y2="47.620636" />
    <radialGradient
       inkscape:collect="always"
       xlink:href="#linearGradient4244"
       id="radialGradient2011"
       gradientUnits="userSpaceOnUse"
       gradientTransform="matrix(0.860178,0.52591,-0.475338,0.78685,-1.755064,-4.623781)"
       cx="15.571491"
       cy="2.958519"
       fx="15.571491"
       fy="2.958519"
       r="20.935818" />
    <linearGradient
       inkscape:collect="always"
       xlink:href="#linearGradient4228"
       id="linearGradient2014"
       gradientUnits="userSpaceOnUse"
       gradientTransform="matrix(0.668957,0,0,0.672779,-0.189894,-1.342733)"
       x1="7.6046205"
       y1="28.481176"
       x2="36.183067"
       y2="40.943935" />
    <linearGradient
       inkscape:collect="always"
       xlink:href="#linearGradient2329"
       id="linearGradient2036"
       gradientUnits="userSpaceOnUse"
       gradientTransform="matrix(0.672717,0,0,0.672779,-0.359488,-3.4489e-2)"
       x1="23.375"
       y1="28.433596"
       x2="23.375"
       y2="32.938416" />
    <linearGradient
       inkscape:collect="always"
       xlink:href="#linearGradient2329"
       id="linearGradient2038"
       gradientUnits="userSpaceOnUse"
       gradientTransform="matrix(0.672717,0,0,0.672779,-0.359488,-3.448922e-2)"
       x1="23.375"
       y1="28.433596"
       x2="23.375"
       y2="32.938416" />
    <linearGradient
       inkscape:collect="always"
       xlink:href="#linearGradient2315"
       id="linearGradient2041"
       gradientUnits="userSpaceOnUse"
       gradientTransform="matrix(0.632733,0,0,0.671124,0.620297,-2.006758)"
       x1="24.306797"
       y1="32.790924"
       x2="24.306797"
       y2="34.201233" />
    <linearGradient
       inkscape:collect="always"
       xlink:href="#linearGradient6036"
       id="linearGradient2044"
       gradientUnits="userSpaceOnUse"
       gradientTransform="matrix(0.453055,0,0,0.287804,4.905831,13.64199)"
       x1="10.50172"
       y1="3.6100161"
       x2="48.798885"
       y2="54.698483" />
    <linearGradient
       inkscape:collect="always"
       xlink:href="#linearGradient2345"
       id="linearGradient2049"
       gradientUnits="userSpaceOnUse"
       gradientTransform="matrix(0.506266,0,0,0.328681,3.610303,12.4948)"
       x1="26.332899"
       y1="34.172115"
       x2="26.193645"
       y2="21.987923" />
    <linearGradient
       inkscape:collect="always"
       xlink:href="#aigrd1"
       id="linearGradient2052"
       gradientUnits="userSpaceOnUse"
       gradientTransform="matrix(0.584017,0,0,0.370997,1.919752,12.07619)"
       x1="14.9966"
       y1="11.1885"
       x2="32.511002"
       y2="34.307499" />
    <linearGradient
       inkscape:collect="always"
       xlink:href="#linearGradient2351"
       id="linearGradient2055"
       gradientUnits="userSpaceOnUse"
       x1="24.306797"
       y1="33.693432"
       x2="24.306797"
       y2="37.609333"
       gradientTransform="matrix(0.632733,0,0,0.595816,0.620297,0.221355)" />
  </defs>
  <sodipodi:namedview
     inkscape:window-y="74"
     inkscape:window-x="236"
     inkscape:window-height="752"
     inkscape:window-width="1034"
     inkscape:document-units="px"
     inkscape:grid-bbox="true"
     showgrid="false"
     inkscape:current-layer="layer2"
     inkscape:cy="14.389513"
     inkscape:cx="-138.86674"
     inkscape:zoom="1"
     inkscape:pageshadow="2"
     inkscape:pageopacity="0.0"
     borderopacity="1"
     bordercolor="#666"
     pagecolor="#ffffff"
     id="base"
     inkscape:showpageshadow="false"
     width="32px"
     height="32px"
     showborder="false" />
  <metadata
     id="metadata4">
    <rdf:RDF>
      <cc:Work
         rdf:about="">
        <dc:format>image/svg+xml</dc:format>
        <dc:type
           rdf:resource="http://purl.org/dc/dcmitype/StillImage" />
        <dc:title>Drive - CD-ROM</dc:title>
        <dc:creator>
          <cc:Agent>
            <dc:title>Jakub Steiner</dc:title>
          </cc:Agent>
        </dc:creator>
        <dc:subject>
          <rdf:Bag>
            <rdf:li>cdrom</rdf:li>
            <rdf:li>cd-rom</rdf:li>
            <rdf:li>optical</rdf:li>
            <rdf:li>drive</rdf:li>
          </rdf:Bag>
        </dc:subject>
        <cc:license
           rdf:resource="http://creativecommons.org/licenses/publicdomain/" />
        <dc:identifier />
        <dc:source>http://jimmac.musichall.cz</dc:source>
      </cc:Work>
      <cc:License
         rdf:about="http://creativecommons.org/licenses/publicdomain/">
        <cc:permits
           rdf:resource="http://creativecommons.org/ns#Reproduction" />
        <cc:permits
           rdf:resource="http://creativecommons.org/ns#Distribution" />
        <cc:permits
           rdf:resource="http://creativecommons.org/ns#DerivativeWorks" />
      </cc:License>
    </rdf:RDF>
  </metadata>
  <g
     inkscape:label="pix"
     id="layer2"
     inkscape:groupmode="layer">
    <g
       transform="matrix(1.635161e-2,0,0,1.391173e-2,30.1185,23.21851)"
       id="g6707">
      <rect
         style="opacity:0.40206185;color:black;fill:url(#linearGradient1963);fill-opacity:1;fill-rule:nonzero;stroke:none;stroke-width:1;stroke-linecap:round;stroke-linejoin:miter;marker:none;marker-start:none;marker-mid:none;marker-end:none;stroke-miterlimit:4;stroke-dasharray:none;stroke-dashoffset:0;stroke-opacity:1;visibility:visible;display:inline;overflow:visible"
         id="rect6709"
         width="1339.6335"
         height="478.35718"
         x="-1559.2523"
         y="-150.69685" />
      <path
         style="opacity:0.40206185;color:black;fill:url(#radialGradient1965);fill-opacity:1;fill-rule:nonzero;stroke:none;stroke-width:1;stroke-linecap:round;stroke-linejoin:miter;marker:none;marker-start:none;marker-mid:none;marker-end:none;stroke-miterlimit:4;stroke-dasharray:none;stroke-dashoffset:0;stroke-opacity:1;visibility:visible;display:inline;overflow:visible"
         d="M -219.61876,-150.68038 C -219.61876,-150.68038 -219.61876,327.65041 -219.61876,327.65041 C -76.744594,328.55086 125.78146,220.48075 125.78138,88.454235 C 125.78138,-43.572302 -33.655436,-150.68036 -219.61876,-150.68038 z "
         id="path6711"
         sodipodi:nodetypes="cccc" />
      <path
         sodipodi:nodetypes="cccc"
         id="path6713"
         d="M -1559.2523,-150.68038 C -1559.2523,-150.68038 -1559.2523,327.65041 -1559.2523,327.65041 C -1702.1265,328.55086 -1904.6525,220.48075 -1904.6525,88.454235 C -1904.6525,-43.572302 -1745.2157,-150.68036 -1559.2523,-150.68038 z "
         style="opacity:0.40206185;color:black;fill:url(#radialGradient1967);fill-opacity:1;fill-rule:nonzero;stroke:none;stroke-width:1;stroke-linecap:round;stroke-linejoin:miter;marker:none;marker-start:none;marker-mid:none;marker-end:none;stroke-miterlimit:4;stroke-dasharray:none;stroke-dashoffset:0;stroke-opacity:1;visibility:visible;display:inline;overflow:visible" />
    </g>
    <path
       sodipodi:nodetypes="cccsccccccccc"
       id="path4196"
       d="M 7.3536562,4.0143505 C 6.9354018,4.0143505 6.6635372,4.2107674 6.496236,4.5854692 C 6.4962354,4.5854692 2.1673029,16.162511 2.1673029,16.162511 C 2.1673029,16.162511 2.0000012,16.617075 2.0000012,17.368201 C 2.0000012,17.368201 2.0000012,23.900061 2.0000012,23.900061 C 2.0000012,24.632859 2.4401958,24.999991 3.1083753,24.999989 L 28.91467,24.999989 C 29.573739,24.999989 29.981218,24.513869 29.981218,23.751994 L 29.981218,17.220134 C 29.981218,17.220134 30.052129,16.698651 29.91848,16.33173 L 25.422246,4.6912319 C 25.298759,4.3447329 24.996025,4.022409 24.669387,4.0143505 L 7.3536562,4.0143505 z "
       style="fill:none;fill-opacity:1;fill-rule:evenodd;stroke:#535353;stroke-width:2.00000095;stroke-linecap:round;stroke-linejoin:round;stroke-miterlimit:4;stroke-dasharray:none;stroke-opacity:1" />
    <path
       sodipodi:type="arc"
       style="opacity:0.56571428;color:black;fill:url(#radialGradient1969);fill-opacity:1;fill-rule:evenodd;stroke:none;stroke-width:1;stroke-linecap:square;stroke-linejoin:round;marker:none;marker-start:none;marker-mid:none;marker-end:none;stroke-miterlimit:4;stroke-dasharray:none;stroke-dashoffset:0;stroke-opacity:0.42372879;visibility:visible;display:inline;overflow:visible"
       id="path2163"
       sodipodi:cx="24.218407"
       sodipodi:cy="33.769478"
       sodipodi:rx="17.67767"
       sodipodi:ry="12.28598"
       d="M 41.896076 33.769478 A 17.67767 12.28598 0 1 1  6.5407372,33.769478 A 17.67767 12.28598 0 1 1  41.896076 33.769478 z"
       transform="matrix(0.666667,0,0,0.666667,0.247378,8.406284e-7)" />
    <path
       sodipodi:nodetypes="ccccccccc"
       id="path4170"
       d="M 2,16.82015 L 2.5114863,16.354443 L 27.670773,16.396491 L 29.986977,16.609963 L 29.986977,23.632785 C 29.986977,24.390044 29.580907,24.872939 28.922083,24.872939 L 3.1117003,24.872939 C 2.4437699,24.872939 2,24.508259 2,23.779899 L 2,16.82015 z "
       style="fill:url(#linearGradient2014);fill-opacity:1;fill-rule:evenodd;stroke:none;stroke-width:1.02044296px;stroke-linecap:butt;stroke-linejoin:miter;stroke-opacity:1" />
    <path
       sodipodi:nodetypes="csccccccs"
       id="path3093"
       d="M 2.1928747,16.091929 C 1.7151938,17.077069 2.192463,17.701793 2.885512,17.701793 C 2.885512,17.701793 28.966885,17.701793 28.966885,17.701793 C 29.715252,17.685773 30.200894,17.021004 29.922246,16.260123 L 25.432046,4.681126 C 25.308646,4.336726 24.994173,4.0163542 24.667758,4.0083449 L 7.3757112,4.0083449 C 6.9577404,4.0083449 6.6830741,4.2125824 6.5158864,4.5850144 C 6.5158864,4.5850144 2.1928747,16.091929 2.1928747,16.091929 z "
       style="fill:url(#radialGradient2011);fill-opacity:1;fill-rule:evenodd;stroke:none;stroke-width:1px;stroke-linecap:butt;stroke-linejoin:miter;stroke-opacity:1" />
    <path
       sodipodi:nodetypes="cccccccc"
       id="path4201"
       d="M 29.901514,15 C 29.944197,16.20083 29.623336,17.224792 29.013154,17.251603 C 29.013154,17.251603 3.4003209,17.251603 3.400321,17.251603 C 2.5340568,17.251603 2.1453467,16.939432 2,16.417676 C 2.0616566,17.324881 2.5548855,18.002139 3.400321,18.002139 C 3.4003209,18.002138 29.013154,18.002139 29.013154,18.002139 C 29.736147,17.970369 30.190903,16.634101 29.921704,15.12509 L 29.901514,15 z "
       style="fill:white;fill-opacity:1;fill-rule:evenodd;stroke:none;stroke-width:1px;stroke-linecap:butt;stroke-linejoin:miter;stroke-opacity:1" />
    <path
       style="fill:none;fill-opacity:1;fill-rule:evenodd;stroke:url(#linearGradient2007);stroke-width:1.00000119;stroke-linecap:round;stroke-linejoin:round;stroke-miterlimit:4;stroke-dasharray:none;stroke-opacity:1"
       d="M 7.7153053,4.5000028 C 7.3175432,4.5000028 7.0589985,4.6845859 6.8998951,5.0367127 C 6.8998944,5.0367127 2.6591054,15.998854 2.6591054,15.998854 C 2.6591054,15.998854 2.5000006,16.426031 2.5000006,17.131904 C 2.5000006,17.131904 2.5000006,23.270232 2.5000006,23.270232 C 2.5000006,24.165361 2.7935539,24.345188 3.5540702,24.345188 L 28.467844,24.345188 C 29.342525,24.345188 29.482138,24.136131 29.482138,23.131085 L 29.482138,16.992757 C 29.482138,16.992757 29.549575,16.502693 29.422473,16.157878 L 25.063896,5.0535109 C 24.946461,4.7278878 24.699875,4.5075757 24.389241,4.5000028 L 7.7153053,4.5000028 z "
       id="path4252"
       sodipodi:nodetypes="cccsccccccccc" />
    <rect
       style="color:black;fill:url(#linearGradient2055);fill-opacity:1;fill-rule:evenodd;stroke:none;stroke-width:1;stroke-linecap:square;stroke-linejoin:round;marker:none;marker-start:none;marker-mid:none;marker-end:none;stroke-miterlimit:4;stroke-dasharray:none;stroke-dashoffset:0;stroke-opacity:0.42372879;visibility:visible;display:inline;overflow:visible"
       id="rect2151"
       width="24.000013"
       height="2.3028519"
       x="4.0000024"
       y="19.503977" />
    <path
       id="path3040"
       d="M 5.9949475,19.188591 C 5.8263791,19.658053 5.707547,20.150877 5.707547,20.653855 C 5.7075465,24.252533 10.27404,27.132792 15.939003,27.132792 C 21.603964,27.132792 26.151299,24.252533 26.151299,20.653855 C 26.151299,20.153005 26.050243,19.656232 25.883059,19.188591 L 16.341363,19.188591 C 17.469394,19.327091 18.391486,19.900028 18.391486,20.653855 C 18.391486,21.50715 17.282241,22.207388 15.939003,22.207388 C 14.595764,22.207388 13.486519,21.50715 13.486519,20.653855 C 13.48652,19.900028 14.408612,19.327091 15.536642,19.188591 L 5.9949475,19.188591 z "
       style="fill:url(#linearGradient2052);fill-rule:nonzero;stroke:none;stroke-miterlimit:4" />
    <path
       sodipodi:nodetypes="cccccc"
       id="path3049"
       d="M 5.5783065,19.490994 C 5.4691259,19.887693 5.3805774,20.302071 5.3805774,20.719865 C 5.3805774,24.515351 10.09314,27.553129 15.939309,27.553129 C 21.785477,27.553129 26.478269,24.515351 26.478269,20.719865 C 26.478269,20.302071 26.38972,19.887693 26.28054,19.490994 L 5.5783065,19.490994 z "
       style="fill:url(#linearGradient2049);fill-rule:nonzero;stroke:gray;stroke-width:0.93365264;stroke-miterlimit:4;stroke-opacity:1" />
    <path
       sodipodi:nodetypes="ccccccccccc"
       id="path3051"
       d="M 11.255541,19.202696 C 10.781299,19.72241 10.443183,20.027096 10.443183,20.664483 C 10.443182,22.626473 12.963351,24.170593 15.980046,24.170593 C 19.068566,24.170592 21.516909,22.580845 21.516909,20.664483 C 21.516909,20.017733 21.15747,19.719342 20.683173,19.202696 L 17.386449,19.202696 C 18.415196,19.509691 18.994322,19.901468 18.994322,20.664483 C 18.994323,21.713919 17.632045,22.575116 15.980046,22.575116 C 14.328045,22.575116 12.965769,21.713919 12.965769,20.664483 C 12.965769,19.901026 13.529431,19.509451 14.559132,19.202696 L 11.255541,19.202696 z "
       style="opacity:0.10999995;fill-rule:nonzero;stroke:none;stroke-miterlimit:4" />
    <path
       id="path4214"
       d="M 12.482914,26.494453 L 14.805906,22.240125 C 14.268108,22.118278 13.856438,21.879076 13.596571,21.564305 L 7.2333068,23.591401 C 8.30622,24.938989 10.173012,25.986927 12.482914,26.494453 z "
       style="fill:white;fill-opacity:0.41807909;fill-rule:nonzero;stroke:none;stroke-miterlimit:4;stroke-opacity:1" />
    <path
       sodipodi:nodetypes="cccccc"
       id="path5264"
       d="M 6.5588337,19.446862 C 6.4063094,19.864831 6.3111081,20.395731 6.3111081,20.844139 C 6.3111081,24.002374 10.967382,26.53411 15.939004,26.53411 C 20.910626,26.534109 25.443772,24.002373 25.443772,20.844139 C 25.443771,20.395426 25.331077,19.865091 25.178353,19.446862 L 6.5588337,19.446862 z "
       style="opacity:0.54644811;fill:none;fill-rule:nonzero;stroke:url(#linearGradient2044);stroke-width:0.9336527;stroke-miterlimit:4;stroke-opacity:1" />
    <rect
       y="19"
       x="4.0000024"
       height="1"
       width="23.957659"
       id="rect4963"
       style="color:black;fill:url(#linearGradient2041);fill-opacity:1;fill-rule:evenodd;stroke:none;stroke-width:1;stroke-linecap:square;stroke-linejoin:round;marker:none;marker-start:none;marker-mid:none;marker-end:none;stroke-miterlimit:4;stroke-dasharray:none;stroke-dashoffset:0;stroke-opacity:0.42372879;visibility:visible;display:inline;overflow:visible;font-family:Bitstream Vera Sans" />
    <g
       id="g2032"
       transform="matrix(1,0,0,1.096339,-3.125e-2,-2.368145)">
      <path
         sodipodi:nodetypes="ccccc"
         id="path2325"
         d="M 17.341381,20.317069 L 26.591242,20.317069 C 26.591242,20.317069 26.955491,21.071249 26.549197,22.587697 C 26.549197,22.587697 17.593651,22.251307 17.593651,22.251307 C 18.838419,21.006425 17.341381,20.317069 17.341381,20.317069 z "
         style="opacity:0.36000001;fill:url(#linearGradient2036);fill-opacity:1;fill-rule:evenodd;stroke:none;stroke-width:1px;stroke-linecap:butt;stroke-linejoin:miter;stroke-opacity:1" />
      <path
         style="opacity:0.36000001;fill:url(#linearGradient2038);fill-opacity:1;fill-rule:evenodd;stroke:none;stroke-width:1px;stroke-linecap:butt;stroke-linejoin:miter;stroke-opacity:1"
         d="M 14.506313,20.317069 L 5.2564527,20.317069 C 5.2564527,20.317069 4.892204,21.071249 5.2984975,22.587697 C 5.2984975,22.587697 14.254045,22.251307 14.254045,22.251307 C 13.009276,21.006425 14.506313,20.317069 14.506313,20.317069 z "
         id="path2327"
         sodipodi:nodetypes="ccccc" />
    </g>
  </g>
</svg>
