<?xml version="1.0" encoding="UTF-8" standalone="no"?>
<!-- Created with Inkscape (http://www.inkscape.org/) -->
<svg
   xmlns:dc="http://purl.org/dc/elements/1.1/"
   xmlns:cc="http://creativecommons.org/ns#"
   xmlns:rdf="http://www.w3.org/1999/02/22-rdf-syntax-ns#"
   xmlns:svg="http://www.w3.org/2000/svg"
   xmlns="http://www.w3.org/2000/svg"
   xmlns:xlink="http://www.w3.org/1999/xlink"
   xmlns:sodipodi="http://sodipodi.sourceforge.net/DTD/sodipodi-0.dtd"
   xmlns:inkscape="http://www.inkscape.org/namespaces/inkscape"
   width="32"
   height="32"
   id="svg3077"
   sodipodi:version="0.32"
   inkscape:version="0.46"
   sodipodi:docbase="/home/lapo/Desktop/tango-icon-theme/32x32/devices"
   sodipodi:docname="media-optical.svg"
   version="1.0"
   inkscape:output_extension="org.inkscape.output.svg.inkscape">
  <defs
     id="defs3">
    <inkscape:perspective
       sodipodi:type="inkscape:persp3d"
       inkscape:vp_x="0 : 16 : 1"
       inkscape:vp_y="0 : 1000 : 0"
       inkscape:vp_z="32 : 16 : 1"
       inkscape:persp3d-origin="16 : 10.666667 : 1"
       id="perspective71" />
    <linearGradient
       inkscape:collect="always"
       id="linearGradient23419">
      <stop
         style="stop-color:#000000;stop-opacity:1;"
         offset="0"
         id="stop23421" />
      <stop
         style="stop-color:#000000;stop-opacity:0;"
         offset="1"
         id="stop23423" />
    </linearGradient>
    <linearGradient
       id="linearGradient3435"
       gradientUnits="userSpaceOnUse"
       x1="12.2744"
       y1="32.4165"
       x2="35.391201"
       y2="14.2033">
      <stop
         offset="0.0000000"
         style="stop-color:#ffffc8;stop-opacity:1.0000000;"
         id="stop3437" />
      <stop
         offset="1.0000000"
         style="stop-color:#9a91ef;stop-opacity:0.0000000;"
         id="stop3439" />
    </linearGradient>
    <linearGradient
       y2="14.2033"
       x2="35.391201"
       y1="32.4165"
       x1="12.2744"
       gradientUnits="userSpaceOnUse"
       id="linearGradient3421">
      <stop
         id="stop3423"
         style="stop-color:#ffffff;stop-opacity:1.0000000;"
         offset="0.0000000" />
      <stop
         id="stop3427"
         style="stop-color:#b8c04c;stop-opacity:0.0000000;"
         offset="1.0000000" />
    </linearGradient>
    <linearGradient
       id="linearGradient3406"
       gradientUnits="userSpaceOnUse"
       x1="12.2744"
       y1="32.4165"
       x2="35.391201"
       y2="14.2033">
      <stop
         offset="0.0000000"
         style="stop-color:#b307ff;stop-opacity:0.82178217;"
         id="stop3408" />
      <stop
         offset="1.0000000"
         style="stop-color:#f0ff8b;stop-opacity:0.64356434;"
         id="stop3410" />
      <stop
         offset="1.0000000"
         style="stop-color:#ffffff;stop-opacity:0.0000000;"
         id="stop3412" />
    </linearGradient>
    <linearGradient
       y2="14.2033"
       x2="35.391201"
       y1="32.4165"
       x1="12.2744"
       gradientUnits="userSpaceOnUse"
       id="linearGradient3394">
      <stop
         id="stop3396"
         style="stop-color:#fff307;stop-opacity:1.0000000;"
         offset="0.0000000" />
      <stop
         id="stop3398"
         style="stop-color:#166eff;stop-opacity:1.0000000;"
         offset="0.50000000" />
      <stop
         id="stop3400"
         style="stop-color:#ffffff;stop-opacity:0.0000000;"
         offset="1.0000000" />
    </linearGradient>
    <linearGradient
       inkscape:collect="always"
       id="linearGradient6036">
      <stop
         style="stop-color:#ffffff;stop-opacity:1;"
         offset="0"
         id="stop6038" />
      <stop
         style="stop-color:#ffffff;stop-opacity:0;"
         offset="1"
         id="stop6040" />
    </linearGradient>
    <linearGradient
       inkscape:collect="always"
       id="linearGradient6028">
      <stop
         style="stop-color:#ffffff;stop-opacity:1;"
         offset="0"
         id="stop6030" />
      <stop
         style="stop-color:#ffffff;stop-opacity:0;"
         offset="1"
         id="stop6032" />
    </linearGradient>
    <linearGradient
       id="linearGradient4236">
      <stop
         style="stop-color:#ffffff;stop-opacity:0.32673267;"
         offset="0.0000000"
         id="stop4238" />
      <stop
         style="stop-color:#ffffff;stop-opacity:0.60396039;"
         offset="1.0000000"
         id="stop4240" />
    </linearGradient>
    <linearGradient
       id="aigrd2"
       gradientUnits="userSpaceOnUse"
       x1="12.2744"
       y1="32.4165"
       x2="35.391201"
       y2="14.2033">
      <stop
         offset="0"
         style="stop-color:#FBFBFB"
         id="stop3043" />
      <stop
         offset="0.5"
         style="stop-color:#B6B6B6"
         id="stop3045" />
      <stop
         offset="1"
         style="stop-color:#E4E4E4"
         id="stop3047" />
    </linearGradient>
    <linearGradient
       id="aigrd1"
       gradientUnits="userSpaceOnUse"
       x1="14.9966"
       y1="11.1885"
       x2="32.511002"
       y2="34.307499">
      <stop
         offset="0"
         style="stop-color:#EBEBEB"
         id="stop3034" />
      <stop
         offset="0.5"
         style="stop-color:#FFFFFF"
         id="stop3036" />
      <stop
         offset="1"
         style="stop-color:#EBEBEB"
         id="stop3038" />
    </linearGradient>
    <radialGradient
       inkscape:collect="always"
       xlink:href="#linearGradient23419"
       id="radialGradient1965"
       gradientUnits="userSpaceOnUse"
       gradientTransform="matrix(1,0,0,0.25,0,31.22703)"
       cx="23.334524"
       cy="41.63604"
       fx="23.334524"
       fy="41.63604"
       r="22.627417" />
    <linearGradient
       inkscape:collect="always"
       xlink:href="#linearGradient6028"
       id="linearGradient2152"
       gradientUnits="userSpaceOnUse"
       x1="28.702885"
       y1="31.494707"
       x2="17.742729"
       y2="18.366575" />
    <radialGradient
       inkscape:collect="always"
       xlink:href="#linearGradient3435"
       id="radialGradient2167"
       gradientUnits="userSpaceOnUse"
       gradientTransform="matrix(-3.392847e-2,9.32444e-3,-8.632294e-2,-0.313892,23.9334,26.20405)"
       cx="133.84108"
       cy="23.914305"
       fx="133.84108"
       fy="23.914305"
       r="21.333334" />
    <radialGradient
       inkscape:collect="always"
       xlink:href="#linearGradient3435"
       id="radialGradient2170"
       gradientUnits="userSpaceOnUse"
       gradientTransform="matrix(7.118484e-2,-1.286109e-2,7.04274e-2,0.389551,11.65057,4.485012)"
       cx="35.511295"
       cy="21.618015"
       fx="35.511295"
       fy="21.618015"
       r="21.333334" />
    <radialGradient
       inkscape:collect="always"
       xlink:href="#linearGradient3435"
       id="radialGradient2173"
       gradientUnits="userSpaceOnUse"
       gradientTransform="matrix(3.484282e-3,-8.254517e-2,0.365984,1.543824e-2,0.776394,17.37969)"
       cx="16.885271"
       cy="33.377594"
       fx="16.885271"
       fy="33.377594"
       r="21.333334" />
    <radialGradient
       inkscape:collect="always"
       xlink:href="#linearGradient3421"
       id="radialGradient2176"
       gradientUnits="userSpaceOnUse"
       gradientTransform="matrix(0.106492,-0.106818,0.290952,0.289869,-1.697479,9.783272)"
       cx="53.556889"
       cy="48.23827"
       fx="53.556889"
       fy="48.23827"
       r="21.333334" />
    <radialGradient
       inkscape:collect="always"
       xlink:href="#linearGradient3406"
       id="radialGradient2179"
       gradientUnits="userSpaceOnUse"
       gradientTransform="matrix(0.517172,-0.834791,0.4505,0.278918,-14.50406,27.49666)"
       cx="26.137741"
       cy="38.807304"
       fx="26.137741"
       fy="38.807304"
       r="21.333334" />
    <radialGradient
       inkscape:collect="always"
       xlink:href="#linearGradient3394"
       id="radialGradient2182"
       gradientUnits="userSpaceOnUse"
       gradientTransform="matrix(0.57039,0.643659,-0.525653,0.46549,12.69536,-14.08593)"
       cx="37.751469"
       cy="27.569166"
       fx="37.751469"
       fy="27.569166"
       r="21.333334" />
    <linearGradient
       inkscape:collect="always"
       xlink:href="#linearGradient4236"
       id="linearGradient2189"
       gradientUnits="userSpaceOnUse"
       gradientTransform="matrix(0.84011,0,0,0.83983,-3.666259,-2.045048)"
       x1="21.125"
       y1="14.625"
       x2="29"
       y2="28" />
    <linearGradient
       inkscape:collect="always"
       xlink:href="#linearGradient4236"
       id="linearGradient2192"
       gradientUnits="userSpaceOnUse"
       gradientTransform="matrix(0.84011,0,0,0.83983,-3.666259,-2.045048)"
       x1="21.125"
       y1="14.625"
       x2="29"
       y2="28" />
    <linearGradient
       inkscape:collect="always"
       xlink:href="#aigrd2"
       id="linearGradient2207"
       gradientUnits="userSpaceOnUse"
       gradientTransform="matrix(0.800104,0,0,0.799838,-2.70613,-1.975064)"
       x1="12.2744"
       y1="32.4165"
       x2="35.391201"
       y2="14.2033" />
    <linearGradient
       inkscape:collect="always"
       xlink:href="#aigrd1"
       id="linearGradient3118"
       gradientUnits="userSpaceOnUse"
       gradientTransform="matrix(0.800104,0,0,0.799838,-2.70613,-1.975063)"
       x1="14.9966"
       y1="11.1885"
       x2="32.511002"
       y2="34.307499" />
    <linearGradient
       inkscape:collect="always"
       xlink:href="#linearGradient6036"
       id="linearGradient3130"
       gradientUnits="userSpaceOnUse"
       gradientTransform="matrix(0.656645,0,0,0.656644,0.512684,8.389345e-2)"
       x1="10.50172"
       y1="3.6100161"
       x2="48.798885"
       y2="54.698483" />
  </defs>
  <sodipodi:namedview
     id="base"
     pagecolor="#ffffff"
     bordercolor="#666"
     borderopacity="1"
     inkscape:pageopacity="0.0"
     inkscape:pageshadow="2"
     inkscape:zoom="1"
     inkscape:cx="-139.04404"
     inkscape:cy="28.22086"
     inkscape:current-layer="layer1"
     showgrid="false"
     inkscape:grid-bbox="true"
     inkscape:document-units="px"
     inkscape:window-width="1034"
     inkscape:window-height="804"
     inkscape:window-x="176"
     inkscape:window-y="44"
     inkscape:showpageshadow="false"
     width="32px"
     height="32px"
     showborder="false" />
  <metadata
     id="metadata4">
    <rdf:RDF>
      <cc:Work
         rdf:about="">
        <dc:format>image/svg+xml</dc:format>
        <dc:type
           rdf:resource="http://purl.org/dc/dcmitype/StillImage" />
        <dc:title>Media CD-ROM</dc:title>
        <dc:creator>
          <cc:Agent>
            <dc:title>Jakub Steiner</dc:title>
          </cc:Agent>
        </dc:creator>
        <dc:source>http://jimmac.musichall.cz</dc:source>
        <dc:subject>
          <rdf:Bag>
            <rdf:li>cdrom</rdf:li>
            <rdf:li>media</rdf:li>
            <rdf:li>removable</rdf:li>
            <rdf:li>cd</rdf:li>
            <rdf:li>audio</rdf:li>
          </rdf:Bag>
        </dc:subject>
        <cc:license
           rdf:resource="http://creativecommons.org/licenses/publicdomain/" />
      </cc:Work>
      <cc:License
         rdf:about="http://creativecommons.org/licenses/publicdomain/">
        <cc:permits
           rdf:resource="http://creativecommons.org/ns#Reproduction" />
        <cc:permits
           rdf:resource="http://creativecommons.org/ns#Distribution" />
        <cc:permits
           rdf:resource="http://creativecommons.org/ns#DerivativeWorks" />
      </cc:License>
    </rdf:RDF>
  </metadata>
  <g
     inkscape:groupmode="layer"
     id="layer2"
     inkscape:label="base"
     style="display:inline">
    <path
       sodipodi:type="arc"
       style="opacity:0.55;color:black;fill:url(#radialGradient1965);fill-opacity:1;fill-rule:evenodd;stroke:none;stroke-width:2;stroke-linecap:butt;stroke-linejoin:miter;marker:none;marker-start:none;marker-mid:none;marker-end:none;stroke-miterlimit:4;stroke-dasharray:none;stroke-dashoffset:0;stroke-opacity:1;visibility:visible;display:inline;overflow:visible"
       id="path23417"
       sodipodi:cx="23.334524"
       sodipodi:cy="41.63604"
       sodipodi:rx="22.627417"
       sodipodi:ry="5.6568542"
       d="M 45.961941 41.63604 A 22.627417 5.6568542 0 1 1  0.70710754,41.63604 A 22.627417 5.6568542 0 1 1  45.961941 41.63604 z"
       inkscape:r_cx="true"
       inkscape:r_cy="true"
       transform="matrix(0.666667,0,0,0.710861,0.666667,-1.923405)" />
    <path
       inkscape:r_cy="true"
       inkscape:r_cx="true"
       id="path3040"
       d="M 16.496371,2.5040281 C 8.735359,2.5040281 2.494545,8.7427621 2.494545,16.501188 C 2.494545,24.259614 8.735359,30.498349 16.496371,30.498349 C 24.257385,30.498349 30.498199,24.259614 30.498199,16.501188 C 30.498199,8.7427621 24.257385,2.5040281 16.496371,2.5040281 L 16.496371,2.5040281 z M 16.496371,19.860507 C 14.656132,19.860507 13.135933,18.340815 13.135933,16.501188 C 13.135933,14.661561 14.656132,13.141869 16.496371,13.141869 C 18.336611,13.141869 19.856809,14.661561 19.856809,16.501188 C 19.856809,18.340815 18.336611,19.860507 16.496371,19.860507 z "
       style="fill:url(#linearGradient3118);fill-rule:nonzero;stroke:none;stroke-miterlimit:4" />
    <path
       inkscape:r_cy="true"
       inkscape:r_cx="true"
       id="path3049"
       d="M 16.496371,2.5040279 C 8.735359,2.5040279 2.494545,8.742762 2.494545,16.501188 C 2.494545,24.259614 8.735359,30.498349 16.496371,30.498349 C 24.257385,30.498349 30.498199,24.259614 30.498199,16.501188 C 30.498199,8.742762 24.257385,2.5040279 16.496371,2.5040279 L 16.496371,2.5040279 z M 16.496371,19.860507 C 14.656132,19.860507 13.135933,18.340815 13.135933,16.501188 C 13.135933,14.661561 14.656132,13.141869 16.496371,13.141869 C 18.336611,13.141869 19.856809,14.661561 19.856809,16.501188 C 19.856809,18.340815 18.336611,19.860507 16.496371,19.860507 z "
       style="fill:url(#linearGradient2207);fill-rule:nonzero;stroke:none;stroke-width:1;stroke-miterlimit:4;stroke-dasharray:none;stroke-opacity:1" />
    <path
       inkscape:r_cy="true"
       inkscape:r_cx="true"
       id="path3107"
       d="M 16.45064,9.4656119 C 12.552177,9.4656119 9.4696699,12.663061 9.4696699,16.499999 C 9.4696699,20.428295 12.642839,23.534388 16.45064,23.534388 C 20.349104,23.534388 23.43161,20.336939 23.43161,16.499999 C 23.43161,12.571704 20.258442,9.4656119 16.45064,9.4656119 L 16.45064,9.4656119 z M 16.45064,20.336939 C 14.365417,20.336939 12.642839,18.60118 12.642839,16.499999 C 12.642839,14.39882 14.365417,12.663061 16.45064,12.663061 C 18.535864,12.663061 20.258442,14.39882 20.258442,16.499999 C 20.258442,18.60118 18.535864,20.336939 16.45064,20.336939 z "
       style="opacity:0.10999995;fill-rule:nonzero;stroke:none;stroke-miterlimit:4" />
  </g>
  <g
     id="layer1"
     inkscape:label="Layer 1"
     inkscape:groupmode="layer"
     style="display:inline">
    <path
       inkscape:r_cy="true"
       inkscape:r_cx="true"
       style="fill:url(#linearGradient2192);fill-opacity:1;fill-rule:nonzero;stroke:none;stroke-miterlimit:4;stroke-opacity:1"
       d="M 20.243331,3.5135481 L 17.826105,12.916054 C 18.582005,13.117288 19.186506,13.584874 19.597142,14.231927 L 27.9258,9.1598362 C 26.221891,6.3852309 23.487192,4.3438719 20.243331,3.5135481 z "
       id="path3916" />
    <path
       inkscape:r_cy="true"
       inkscape:r_cx="true"
       id="path4214"
       d="M 11.765424,29.10942 L 14.94793,19.937473 C 14.211145,19.674781 13.647155,19.159084 13.291139,18.480465 L 4.5734484,22.850701 C 6.0433426,25.755983 8.6008529,28.01524 11.765424,29.10942 z "
       style="fill:url(#linearGradient2189);fill-opacity:1;fill-rule:nonzero;stroke:none;stroke-miterlimit:4;stroke-opacity:1" />
    <path
       inkscape:r_cy="true"
       inkscape:r_cx="true"
       sodipodi:type="arc"
       style="opacity:1;color:black;fill:none;fill-opacity:0.31638417;fill-rule:nonzero;stroke:url(#linearGradient2152);stroke-width:1.38478029;stroke-linecap:butt;stroke-linejoin:miter;marker:none;marker-start:none;marker-mid:none;marker-end:none;stroke-miterlimit:4;stroke-dashoffset:0;stroke-opacity:1;visibility:visible;display:inline;overflow:visible"
       id="path6026"
       sodipodi:cx="24.306795"
       sodipodi:cy="24.930641"
       sodipodi:rx="6.0987959"
       sodipodi:ry="6.0987959"
       d="M 30.405591 24.930641 A 6.0987959 6.0987959 0 1 1  18.207999,24.930641 A 6.0987959 6.0987959 0 1 1  30.405591 24.930641 z"
       transform="matrix(0.672088,0,0,0.671864,0.192454,-0.236019)" />
    <path
       inkscape:r_cy="true"
       inkscape:r_cx="true"
       style="opacity:0.1142857;fill:url(#radialGradient2182);fill-opacity:1;fill-rule:nonzero;stroke:none;stroke-miterlimit:4;stroke-opacity:1"
       d="M 16.496371,2.5040279 C 8.7353585,2.5040279 2.4945447,8.7427621 2.4945447,16.501188 C 2.4945447,24.259614 8.7353585,30.498349 16.496371,30.498349 C 24.257385,30.498349 30.498199,24.259614 30.498199,16.501188 C 30.498199,8.7427621 24.257385,2.5040279 16.496371,2.5040279 L 16.496371,2.5040279 z M 16.496371,19.860507 C 14.656132,19.860507 13.135933,18.340815 13.135933,16.501188 C 13.135933,14.661561 14.656132,13.141869 16.496371,13.141869 C 18.336611,13.141869 19.856809,14.661561 19.856809,16.501188 C 19.856809,18.340815 18.336611,19.860507 16.496371,19.860507 z "
       id="path3390" />
    <path
       inkscape:r_cy="true"
       inkscape:r_cx="true"
       id="path3404"
       d="M 16.496371,2.5040279 C 8.7353585,2.5040279 2.4945447,8.7427621 2.4945447,16.501188 C 2.4945447,24.259614 8.7353585,30.498349 16.496371,30.498349 C 24.257385,30.498349 30.498199,24.259614 30.498199,16.501188 C 30.498199,8.7427621 24.257385,2.5040279 16.496371,2.5040279 L 16.496371,2.5040279 z M 16.496371,19.860507 C 14.656132,19.860507 13.135933,18.340815 13.135933,16.501188 C 13.135933,14.661561 14.656132,13.141869 16.496371,13.141869 C 18.336611,13.141869 19.856809,14.661561 19.856809,16.501188 C 19.856809,18.340815 18.336611,19.860507 16.496371,19.860507 z "
       style="opacity:0.09714284;fill:url(#radialGradient2179);fill-opacity:1;fill-rule:nonzero;stroke:none;stroke-miterlimit:4;stroke-opacity:1" />
    <path
       inkscape:r_cy="true"
       inkscape:r_cx="true"
       style="opacity:0.71428576;fill:url(#radialGradient2176);fill-opacity:1;fill-rule:nonzero;stroke:none;stroke-miterlimit:4;stroke-opacity:1"
       d="M 16.496371,2.5040279 C 8.7353585,2.5040279 2.4945447,8.7427621 2.4945447,16.501188 C 2.4945447,24.259614 8.7353585,30.498349 16.496371,30.498349 C 24.257385,30.498349 30.498199,24.259614 30.498199,16.501188 C 30.498199,8.7427621 24.257385,2.5040279 16.496371,2.5040279 L 16.496371,2.5040279 z M 16.496371,19.860507 C 14.656132,19.860507 13.135933,18.340815 13.135933,16.501188 C 13.135933,14.661561 14.656132,13.141869 16.496371,13.141869 C 18.336611,13.141869 19.856809,14.661561 19.856809,16.501188 C 19.856809,18.340815 18.336611,19.860507 16.496371,19.860507 z "
       id="path3419" />
    <path
       inkscape:r_cy="true"
       inkscape:r_cx="true"
       id="path3431"
       d="M 16.496371,2.5040279 C 8.7353585,2.5040279 2.4945447,8.7427621 2.4945447,16.501188 C 2.4945447,24.259614 8.7353585,30.498349 16.496371,30.498349 C 24.257385,30.498349 30.498199,24.259614 30.498199,16.501188 C 30.498199,8.7427621 24.257385,2.5040279 16.496371,2.5040279 L 16.496371,2.5040279 z M 16.496371,19.860507 C 14.656132,19.860507 13.135933,18.340815 13.135933,16.501188 C 13.135933,14.661561 14.656132,13.141869 16.496371,13.141869 C 18.336611,13.141869 19.856809,14.661561 19.856809,16.501188 C 19.856809,18.340815 18.336611,19.860507 16.496371,19.860507 z "
       style="opacity:0.62285713;fill:url(#radialGradient2173);fill-opacity:1;fill-rule:nonzero;stroke:none;stroke-miterlimit:4;stroke-opacity:1" />
    <path
       inkscape:r_cy="true"
       inkscape:r_cx="true"
       style="opacity:0.37142861;fill:url(#radialGradient2170);fill-opacity:1;fill-rule:nonzero;stroke:none;stroke-miterlimit:4;stroke-opacity:1"
       d="M 16.496371,2.5040279 C 8.7353585,2.5040279 2.4945447,8.7427621 2.4945447,16.501188 C 2.4945447,24.259614 8.7353585,30.498349 16.496371,30.498349 C 24.257385,30.498349 30.498199,24.259614 30.498199,16.501188 C 30.498199,8.7427621 24.257385,2.5040279 16.496371,2.5040279 L 16.496371,2.5040279 z M 16.496371,19.860507 C 14.656132,19.860507 13.135933,18.340815 13.135933,16.501188 C 13.135933,14.661561 14.656132,13.141869 16.496371,13.141869 C 18.336611,13.141869 19.856809,14.661561 19.856809,16.501188 C 19.856809,18.340815 18.336611,19.860507 16.496371,19.860507 z "
       id="path3441" />
    <path
       inkscape:r_cy="true"
       inkscape:r_cx="true"
       id="path3445"
       d="M 16.496371,2.5040279 C 8.735359,2.5040279 2.4945447,8.7427621 2.4945447,16.501188 C 2.4945447,24.259614 8.735359,30.498349 16.496371,30.498349 C 24.257385,30.498349 30.498199,24.259614 30.498199,16.501188 C 30.498199,8.7427621 24.257385,2.5040279 16.496371,2.5040279 L 16.496371,2.5040279 z M 16.496371,19.860507 C 14.656132,19.860507 13.135933,18.340815 13.135933,16.501188 C 13.135933,14.661561 14.656132,13.141869 16.496371,13.141869 C 18.336611,13.141869 19.856809,14.661561 19.856809,16.501188 C 19.856809,18.340815 18.336611,19.860507 16.496371,19.860507 z "
       style="opacity:0.23428572;fill:url(#radialGradient2167);fill-opacity:1;fill-rule:nonzero;stroke:none;stroke-miterlimit:4;stroke-opacity:1" />
    <path
       inkscape:r_cy="true"
       inkscape:r_cx="true"
       style="opacity:1;fill:none;fill-rule:nonzero;stroke:gray;stroke-width:1.10000002;stroke-miterlimit:4;stroke-dasharray:none;stroke-opacity:1"
       d="M 16.500014,13.499997 C 14.837162,13.499997 13.500024,14.837142 13.500024,16.499999 C 13.500024,18.162858 14.837162,19.500001 16.500014,19.500001 C 18.162866,19.500001 19.500004,18.162858 19.500004,16.499999 C 19.500004,14.837142 18.162866,13.499997 16.500014,13.499997 L 16.500014,13.499997 z "
       id="path2209"
       sodipodi:nodetypes="cccccc" />
    <path
       inkscape:r_cy="true"
       inkscape:r_cx="true"
       id="path3126"
       d="M 16.496371,2.5040279 C 8.735359,2.5040279 2.4945447,8.7427621 2.4945447,16.501188 C 2.4945447,24.259614 8.735359,30.498349 16.496371,30.498349 C 24.257385,30.498349 30.498199,24.259614 30.498199,16.501188 C 30.498199,8.7427621 24.257385,2.5040279 16.496371,2.5040279 L 16.496371,2.5040279 z "
       style="opacity:1;fill:none;fill-opacity:1;fill-rule:nonzero;stroke:gray;stroke-width:1;stroke-miterlimit:4;stroke-dasharray:none;stroke-opacity:1"
       sodipodi:nodetypes="cssscc" />
    <path
       inkscape:r_cy="true"
       inkscape:r_cx="true"
       style="opacity:0.65882353;fill:none;fill-rule:nonzero;stroke:url(#linearGradient3130);stroke-width:0.99999982;stroke-miterlimit:4;stroke-opacity:1"
       d="M 16.500002,3.4999977 C 9.2942874,3.4999977 3.5000013,9.294284 3.5000013,16.499996 C 3.5000013,23.705711 9.2942874,29.499994 16.500002,29.499994 C 23.705717,29.499994 29.500002,23.705711 29.500002,16.499996 C 29.500002,9.294284 23.705717,3.4999977 16.500002,3.4999977 L 16.500002,3.4999977 z "
       id="path3128"
       sodipodi:nodetypes="cccccc" />
  </g>
</svg>
