<?xml version="1.0" standalone="no"?>
<!DOCTYPE svg PUBLIC "-//W3C//DTD SVG 20010904//EN"
 "http://www.w3.org/TR/2001/REC-SVG-20010904/DTD/svg10.dtd">
<svg version="1.0" xmlns="http://www.w3.org/2000/svg"
 width="1014.000000pt" height="1014.000000pt" viewBox="0 0 1014.000000 1014.000000"
 preserveAspectRatio="xMidYMid meet">
<metadata>
Created by potrace 1.11, written by Peter Selinger 2001-2013
</metadata>
<g transform="translate(0.000000,1014.000000) scale(0.100000,-0.100000)"
fill="#000000" stroke="none">
<path d="M4658 8275 c-1 -2 -66 -6 -143 -9 -166 -8 -217 -11 -310 -20 -228
-21 -442 -48 -550 -70 -11 -2 -40 -7 -65 -11 -56 -9 -64 -11 -125 -25 -27 -6
-61 -14 -75 -16 -14 -3 -33 -7 -42 -10 -10 -3 -29 -7 -42 -10 -14 -2 -78 -20
-143 -39 -65 -19 -128 -37 -140 -40 -12 -3 -35 -10 -50 -17 -16 -6 -32 -12
-38 -14 -35 -9 -162 -58 -169 -65 -6 -5 -16 -9 -23 -9 -16 0 -277 -122 -298
-140 -8 -7 -15 -9 -15 -4 0 5 -4 5 -8 -1 -4 -5 -23 -19 -42 -29 -19 -11 -53
-31 -75 -45 -22 -14 -43 -24 -47 -23 -5 1 -8 -2 -8 -8 0 -5 -5 -10 -10 -10 -6
0 -16 -5 -23 -10 -7 -6 -52 -39 -102 -74 -106 -76 -222 -171 -322 -266 -64
-61 -74 -67 -90 -55 -49 34 -212 73 -330 78 -87 4 -263 -15 -313 -33 -14 -6
-34 -11 -45 -13 -11 -2 -29 -7 -40 -11 -11 -5 -36 -14 -55 -21 -19 -7 -56 -22
-83 -34 -26 -11 -51 -21 -55 -22 -22 -6 -194 -120 -261 -174 -104 -83 -321
-343 -321 -384 0 -6 -3 -11 -7 -11 -5 0 -19 -27 -33 -60 -14 -33 -28 -60 -31
-60 -3 0 -6 -6 -6 -12 0 -7 -7 -29 -16 -48 -35 -78 -74 -223 -95 -360 -8 -52
-8 -316 0 -375 10 -67 40 -189 49 -199 5 -6 9 -18 9 -28 0 -29 94 -218 113
-226 4 -2 7 -8 7 -13 0 -12 32 -50 100 -120 47 -49 82 -75 203 -154 13 -9 11
-23 -19 -115 -33 -99 -84 -266 -125 -407 l-18 -62 24 -35 c13 -19 21 -36 19
-39 -2 -2 5 -12 16 -22 11 -10 20 -22 20 -26 0 -9 99 -161 110 -169 4 -3 13
-15 19 -28 7 -13 19 -31 26 -40 7 -9 55 -71 106 -137 100 -129 100 -129 235
-280 108 -122 454 -464 454 -449 0 3 65 -53 102 -89 16 -15 31 -27 33 -27 3 0
40 -28 82 -62 42 -35 93 -74 113 -88 134 -94 221 -150 230 -150 5 0 10 -4 10
-10 0 -5 7 -10 15 -10 8 0 15 -4 15 -10 0 -5 6 -10 14 -10 7 0 19 -7 26 -15 7
-9 15 -13 18 -11 3 3 17 -3 31 -13 14 -10 71 -42 126 -71 55 -29 102 -56 103
-61 2 -5 12 -9 22 -9 10 0 21 -4 24 -9 9 -14 246 -128 270 -129 5 0 12 -4 15
-9 3 -5 24 -16 46 -25 22 -9 74 -29 115 -46 140 -56 212 -84 231 -87 10 -2 33
-10 51 -18 71 -31 410 -129 583 -168 50 -11 99 -23 110 -25 11 -3 45 -10 75
-15 30 -6 60 -12 65 -14 11 -2 63 -12 110 -20 17 -3 46 -8 65 -11 19 -2 46 -7
60 -9 14 -3 59 -9 100 -15 41 -5 93 -13 115 -16 22 -3 65 -7 95 -10 30 -2 71
-6 90 -8 217 -27 882 -28 1115 -2 17 2 62 7 100 10 39 4 77 8 85 11 8 2 42 6
75 10 51 5 157 22 315 50 19 3 55 11 80 16 25 6 57 13 72 16 15 2 72 15 125
29 54 14 109 27 123 30 14 3 39 9 55 14 17 6 84 26 150 45 66 20 127 39 135
42 8 4 17 7 20 8 62 17 400 144 438 165 10 5 55 25 102 45 47 20 97 41 113 48
15 7 27 15 27 19 0 5 7 8 15 8 14 0 130 58 345 173 104 55 194 109 202 121 4
6 8 7 8 3 0 -4 24 9 53 30 29 21 60 43 68 48 65 41 257 187 300 228 11 9 21
17 23 17 3 0 18 12 33 26 15 14 45 40 66 58 35 28 63 54 200 183 64 60 256
262 312 328 84 99 92 108 140 167 97 121 289 391 315 443 3 6 18 31 34 58 21
35 27 55 22 75 -9 36 -14 56 -16 60 -2 1 -3 5 -4 10 -1 4 -10 34 -20 67 -10
33 -19 65 -21 70 -1 6 -5 17 -8 25 -3 8 -20 62 -37 120 -18 58 -38 124 -46
148 -18 56 -18 59 9 68 76 24 227 161 301 273 45 68 103 184 110 221 1 3 4 10
8 15 3 6 15 55 27 110 12 55 25 114 29 130 9 36 7 260 -2 330 -16 121 -51 274
-75 330 -8 18 -21 50 -26 65 -19 54 -97 210 -105 210 -4 0 -10 8 -14 18 -10
30 -95 146 -121 164 -5 4 -7 8 -3 8 9 0 -109 116 -162 159 -25 20 -47 39 -50
42 -12 14 -160 107 -160 101 0 -4 -4 -2 -8 4 -6 10 -123 68 -130 65 -1 -1 -16
6 -32 14 -36 19 -140 51 -190 60 -19 3 -55 11 -80 16 -61 14 -250 14 -330 -1
-84 -15 -220 -60 -220 -73 0 -6 -30 19 -67 54 -68 64 -137 124 -223 193 -64
52 -60 49 -115 86 -27 19 -54 38 -60 42 -14 12 -87 58 -165 105 -70 41 -354
183 -368 183 -4 0 -26 9 -48 19 -78 38 -374 134 -512 166 -9 3 -35 9 -57 15
-57 15 -69 18 -106 24 -61 10 -92 17 -99 21 -4 2 -29 7 -56 11 -27 3 -58 8
-69 10 -11 3 -36 7 -55 9 -19 3 -44 7 -55 10 -26 5 -111 17 -155 20 -19 2 -35
4 -35 5 0 1 -13 3 -30 4 -28 3 -141 14 -210 22 -36 4 -179 14 -290 21 -93 5
-972 13 -977 8z"/>
</g>
</svg>
