<?xml version="1.0" encoding="UTF-8" standalone="no"?>
<!-- Created with Inkscape (http://www.inkscape.org/) -->
<svg
   xmlns:dc="http://purl.org/dc/elements/1.1/"
   xmlns:cc="http://creativecommons.org/ns#"
   xmlns:rdf="http://www.w3.org/1999/02/22-rdf-syntax-ns#"
   xmlns:svg="http://www.w3.org/2000/svg"
   xmlns="http://www.w3.org/2000/svg"
   xmlns:xlink="http://www.w3.org/1999/xlink"
   xmlns:sodipodi="http://sodipodi.sourceforge.net/DTD/sodipodi-0.dtd"
   xmlns:inkscape="http://www.inkscape.org/namespaces/inkscape"
   inkscape:export-ydpi="90.000000"
   inkscape:export-xdpi="90.000000"
   inkscape:export-filename="/home/jimmac/Desktop/wi-fi.png"
   width="32"
   height="32"
   id="svg11300"
   sodipodi:version="0.32"
   inkscape:version="0.46"
   sodipodi:docbase="/home/lapo/Desktop/tango-icon-theme/32x32/places"
   sodipodi:docname="start-here-alt.svg"
   version="1.0"
   inkscape:output_extension="org.inkscape.output.svg.inkscape">
  <defs
     id="defs3">
    <inkscape:perspective
       sodipodi:type="inkscape:persp3d"
       inkscape:vp_x="0 : 16 : 1"
       inkscape:vp_y="0 : 1000 : 0"
       inkscape:vp_z="32 : 16 : 1"
       inkscape:persp3d-origin="16 : 10.666667 : 1"
       id="perspective20" />
    <linearGradient
       inkscape:collect="always"
       id="linearGradient2883">
      <stop
         style="stop-color:white;stop-opacity:1;"
         offset="0"
         id="stop2885" />
      <stop
         style="stop-color:white;stop-opacity:0;"
         offset="1"
         id="stop2887" />
    </linearGradient>
    <linearGradient
       inkscape:collect="always"
       id="linearGradient2866">
      <stop
         style="stop-color:white;stop-opacity:1;"
         offset="0"
         id="stop2868" />
      <stop
         style="stop-color:white;stop-opacity:0;"
         offset="1"
         id="stop2870" />
    </linearGradient>
    <linearGradient
       inkscape:collect="always"
       xlink:href="#linearGradient2866"
       id="linearGradient2872"
       x1="22.5"
       y1="3.875"
       x2="22.5"
       y2="46.400055"
       gradientUnits="userSpaceOnUse" />
    <linearGradient
       inkscape:collect="always"
       xlink:href="#linearGradient2883"
       id="linearGradient2889"
       x1="9.1875"
       y1="9.6875"
       x2="9.1875"
       y2="52.8125"
       gradientUnits="userSpaceOnUse" />
  </defs>
  <sodipodi:namedview
     stroke="#ef2929"
     fill="#eeeeec"
     id="base"
     pagecolor="#ffffff"
     bordercolor="#666"
     borderopacity="1"
     inkscape:pageopacity="0.0"
     inkscape:pageshadow="2"
     inkscape:zoom="1"
     inkscape:cx="-146.79037"
     inkscape:cy="-2.3749148"
     inkscape:current-layer="layer1"
     showgrid="false"
     inkscape:grid-bbox="true"
     inkscape:document-units="px"
     inkscape:showpageshadow="false"
     inkscape:window-width="1036"
     inkscape:window-height="818"
     inkscape:window-x="0"
     inkscape:window-y="30"
     width="32px"
     height="32px"
     showborder="false">
    <inkscape:grid
       id="GridFromPre046Settings"
       type="xygrid"
       originx="0px"
       originy="0px"
       spacingx="1px"
       spacingy="1px"
       color="#0000ff"
       empcolor="#0000ff"
       opacity="0.2"
       empopacity="0.4"
       empspacing="4" />
  </sodipodi:namedview>
  <metadata
     id="metadata4">
    <rdf:RDF>
      <cc:Work
         rdf:about="">
        <dc:format>image/svg+xml</dc:format>
        <dc:type
           rdf:resource="http://purl.org/dc/dcmitype/StillImage" />
        <dc:creator>
          <cc:Agent>
            <dc:title>Lapo Calamandrei</dc:title>
          </cc:Agent>
        </dc:creator>
        <dc:source />
        <cc:license
           rdf:resource="http://creativecommons.org/licenses/publicdomain/" />
        <dc:title>Logo placeholder</dc:title>
        <dc:description>To be replaced by vendor/distribution branding.</dc:description>
        <dc:subject>
          <rdf:Bag>
            <rdf:li>start</rdf:li>
            <rdf:li>applications</rdf:li>
            <rdf:li>launchers</rdf:li>
          </rdf:Bag>
        </dc:subject>
        <dc:contributor>
          <cc:Agent>
            <dc:title>Jakub Steiner, Garrett LeSage</dc:title>
          </cc:Agent>
        </dc:contributor>
      </cc:Work>
      <cc:License
         rdf:about="http://creativecommons.org/licenses/publicdomain/">
        <cc:permits
           rdf:resource="http://creativecommons.org/ns#Reproduction" />
        <cc:permits
           rdf:resource="http://creativecommons.org/ns#Distribution" />
        <cc:permits
           rdf:resource="http://creativecommons.org/ns#DerivativeWorks" />
      </cc:License>
    </rdf:RDF>
  </metadata>
  <g
     id="layer1"
     inkscape:label="Layer 1"
     inkscape:groupmode="layer">
    <g
       id="g15"
       inkscape:r_cx="true"
       inkscape:r_cy="true"
       transform="matrix(0.582036,0,0,0.582076,-63.9369,-62.75444)" />
    <path
       style="fill:#729fcf;stroke:#3465a4;stroke-width:1.00000226;stroke-miterlimit:4;stroke-dasharray:none"
       d="M 24.682975,1.5419217 C 24.396571,1.4909125 24.102726,1.5171843 23.778492,1.6345361 C 21.530919,2.4479037 20.155398,5.6049645 19.516345,7.6301082 C 18.960658,9.3910481 19.523619,11.925063 19.843075,13.655236 C 19.856492,13.727894 19.862012,13.837064 19.870083,13.924038 L 26.461441,15.633891 C 26.619062,15.383674 26.77253,15.135465 26.967257,14.78337 C 27.911201,13.077679 28.67556,10.092752 28.464735,8.1515498 C 28.278927,6.4369588 27.714833,4.6792402 26.72099,3.2159562 C 26.234744,2.5001736 25.542188,1.6949493 24.682975,1.5419217 z M 18.106501,16.640823 C 17.258049,19.161352 16.648042,22.432901 19.743044,23.298486 C 23.409243,24.323819 25.667805,21.226964 26.177884,18.734607 L 18.106501,16.640823 z "
       id="path4659"
       sodipodi:nodetypes="csssccsssccscc" />
    <path
       style="fill:#3465a4;stroke:#204a87;stroke-width:1.00000262;stroke-miterlimit:4;stroke-dasharray:none"
       d="M 8.3266767,8.5408664 C 8.6138051,8.4898548 8.9083925,8.5161279 9.2334461,8.6334854 C 11.486703,9.4468922 12.865702,12.604107 13.506372,14.629348 C 14.063463,16.390373 13.499079,18.924511 13.178815,20.654767 C 13.165364,20.727429 13.15983,20.836604 13.151739,20.923582 L 6.5437127,22.633519 C 6.3856939,22.38329 6.2318367,22.135068 6.0366187,21.782956 C 5.0902872,20.077182 4.3239948,17.092111 4.5353538,15.150814 C 4.7216314,13.436141 5.2871521,11.678337 6.2835075,10.214982 C 6.7709837,9.4991648 7.4652912,8.6939015 8.3266767,8.5408664 z M 14.919781,23.640499 C 15.770378,26.161151 16.381927,29.432857 13.279099,30.298484 C 9.6036294,31.323867 7.3393559,28.226862 6.8279867,25.734385 L 14.919781,23.640499 z "
       id="path2856"
       sodipodi:nodetypes="csssccsssccscc" />
    <path
       sodipodi:type="inkscape:offset"
       inkscape:radius="-1.0149317"
       inkscape:original="M 24.6875 1.53125 C 24.401095 1.4802408 24.105484 1.5076482 23.78125 1.625 C 21.533677 2.4383676 20.170303 5.5998563 19.53125 7.625 C 18.975564 9.3859397 19.524294 11.926077 19.84375 13.65625 C 19.857167 13.728908 19.866929 13.850526 19.875 13.9375 L 26.46875 15.625 C 26.626371 15.374783 26.774023 15.133345 26.96875 14.78125 C 27.912694 13.075559 28.679575 10.097452 28.46875 8.15625 C 28.282942 6.4416595 27.712593 4.682034 26.71875 3.21875 C 26.232505 2.5029674 25.546713 1.6842776 24.6875 1.53125 z M 18.09375 16.65625 C 17.245298 19.176779 16.654998 22.446915 19.75 23.3125 C 23.416199 24.337832 25.677421 21.242357 26.1875 18.75 L 18.09375 16.65625 z "
       style="fill:none;stroke:url(#linearGradient2872);stroke-width:1.00000226;stroke-miterlimit:4;stroke-dasharray:none;stroke-opacity:1;fill-opacity:1.0;opacity:0.6"
       id="path2860"
       d="M 24.5,2.53125 C 24.39407,2.5123837 24.311156,2.5263735 24.125,2.59375 C 23.335125,2.8795954 22.541968,3.6499551 21.90625,4.6875 C 21.270532,5.7250449 20.802805,6.9779176 20.5,7.9375 C 20.110631,9.1713885 20.466732,11.396047 20.78125,13.125 L 26,14.46875 C 26.036842,14.4043 26.052553,14.35574 26.09375,14.28125 C 26.908115,12.809706 27.63902,9.8490388 27.46875,8.28125 C 27.298896,6.7138822 26.757768,5.0809928 25.875,3.78125 C 25.435873,3.1348286 24.835789,2.5910548 24.5,2.53125 z M 18.90625,17.90625 C 18.664364,18.81979 18.361362,19.790981 18.4375,20.5 C 18.541092,21.464673 18.81914,22.004757 20.03125,22.34375 C 21.557092,22.770485 22.588501,22.368683 23.46875,21.59375 C 24.102443,21.035874 24.535101,20.225433 24.84375,19.4375 L 18.90625,17.90625 z " />
    <path
       sodipodi:type="inkscape:offset"
       inkscape:radius="-0.96886593"
       inkscape:original="M 8.3125 8.53125 C 7.4511145 8.6842851 6.7687264 9.5029328 6.28125 10.21875 C 5.2848946 11.682105 4.7175277 13.441577 4.53125 15.15625 C 4.319891 17.097547 5.0849185 20.075477 6.03125 21.78125 C 6.226468 22.133362 6.3732313 22.374772 6.53125 22.625 L 13.15625 20.9375 C 13.164341 20.850522 13.174049 20.728913 13.1875 20.65625 C 13.507764 18.925994 14.057091 16.386025 13.5 14.625 C 12.85933 12.599759 11.472007 9.4384064 9.21875 8.625 C 8.8936964 8.5076425 8.5996287 8.4802379 8.3125 8.53125 z M 14.90625 23.625 L 6.8125 25.75 C 7.3238692 28.242477 9.6057799 31.337882 13.28125 30.3125 C 16.384078 29.446873 15.756847 26.145652 14.90625 23.625 z "
       style="fill:none;stroke:url(#linearGradient2889);stroke-width:1.00000262;stroke-miterlimit:4;stroke-dasharray:none;stroke-opacity:1;fill-opacity:1.0;opacity:0.44313725"
       id="path2864"
       d="M 8.46875,9.5 C 8.1065032,9.5643573 7.5378936,10.097813 7.09375,10.75 C 6.2044278,12.056155 5.67115,13.674576 5.5,15.25 C 5.3274078,16.83523 6.0532718,19.831326 6.875,21.3125 C 6.9210586,21.395575 6.959353,21.429148 7,21.5 L 12.28125,20.15625 C 12.598126,18.424129 12.961311,16.166934 12.5625,14.90625 C 12.259096,13.947151 11.770196,12.730244 11.125,11.6875 C 10.479804,10.644756 9.6843048,9.8234021 8.875,9.53125 C 8.6801837,9.4609134 8.5848636,9.4793709 8.46875,9.5 z M 14.15625,24.8125 L 8.09375,26.40625 C 8.4040316,27.219517 8.8383375,28.045964 9.5,28.625 C 10.396073,29.409175 11.486569,29.805935 13.03125,29.375 C 14.25932,29.032393 14.52649,28.486193 14.625,27.5 C 14.699302,26.756159 14.414676,25.757078 14.15625,24.8125 z " />
  </g>
</svg>
