<?xml version="1.0" encoding="utf-8"?>
<!-- Generator: Adobe Illustrator 17.1.0, SVG Export Plug-In . SVG Version: 6.00 Build 0)  -->
<!DOCTYPE svg PUBLIC "-//W3C//DTD SVG 1.1//EN" "http://www.w3.org/Graphics/SVG/1.1/DTD/svg11.dtd">
<svg version="1.1" id="Layer_1" xmlns="http://www.w3.org/2000/svg" xmlns:xlink="http://www.w3.org/1999/xlink" x="0px" y="0px"
	 width="36" height="36" viewBox="0 0 36 36" enable-background="new 0 0 36 36" xml:space="preserve">
<rect x="2" y="4" fill="#FFFFFF" width="32" height="30"/>
<path fill="#585858" d="M33,36H3c-1.7,0-3-1.3-3-3V5c0-1.7,1.3-3,3-3h30c1.7,0,3,1.3,3,3v28C36,34.7,34.7,36,33,36z M3,4
	C2.4,4,2,4.4,2,5v28c0,0.6,0.4,1,1,1h30c0.6,0,1-0.4,1-1V5c0-0.6-0.4-1-1-1H3z"/>
<path fill="#585858" d="M24,11.4l-1.7,2.5c2,1.4,3.2,3.6,3.2,6.1c0,4.1-3.4,7.5-7.5,7.5s-7.5-3.4-7.5-7.5c0-2.5,1.3-4.8,3.2-6.1
	L12,11.4c-2.7,1.9-4.5,5-4.5,8.6c0,5.8,4.7,10.5,10.5,10.5S28.5,25.8,28.5,20C28.5,16.4,26.7,13.3,24,11.4z"/>
<path fill="#585858" d="M20,18c0,0.6-0.4,1-1,1h-2c-0.6,0-1-0.4-1-1V9c0-0.6,0.4-1,1-1h2c0.6,0,1,0.4,1,1V18z"/>
</svg>
