<?xml version="1.0" encoding="utf-8"?>
<!-- Generator: Adobe Illustrator 17.1.0, SVG Export Plug-In . SVG Version: 6.00 Build 0)  -->
<!DOCTYPE svg PUBLIC "-//W3C//DTD SVG 1.1//EN" "http://www.w3.org/Graphics/SVG/1.1/DTD/svg11.dtd">
<svg version="1.1" id="Layer_1" xmlns="http://www.w3.org/2000/svg" xmlns:xlink="http://www.w3.org/1999/xlink" x="0px" y="0px"
	 width="126px" height="85px" viewBox="0 0 126 85" enable-background="new 0 0 126 85" xml:space="preserve">
<g>
	<rect x="58" y="21" fill="#FFFFFF" width="64" height="60"/>
	<path fill="#585858" d="M120,85H60c-3.309,0-6-2.691-6-6V23c0-3.309,2.691-6,6-6h60c3.309,0,6,2.691,6,6v56
		C126,82.309,123.309,85,120,85z M60,21c-1.103,0-2,0.897-2,2v56c0,1.104,0.897,2,2,2h60c1.104,0,2-0.896,2-2V23
		c0-1.103-0.896-2-2-2H60z"/>
	<path fill="#585858" d="M72,33c0,1.105-0.895,2-2,2h-4c-1.105,0-2-0.895-2-2v-4c0-1.105,0.895-2,2-2h4c1.105,0,2,0.895,2,2V33z"/>
	<path fill="#585858" d="M72,57c0,1.105-0.895,2-2,2h-4c-1.105,0-2-0.895-2-2v-4c0-1.105,0.895-2,2-2h4c1.105,0,2,0.895,2,2V57z"/>
	<path fill="#585858" d="M72,45c0,1.105-0.895,2-2,2h-4c-1.105,0-2-0.895-2-2v-4c0-1.105,0.895-2,2-2h4c1.105,0,2,0.895,2,2V45z"/>
	<path fill="#585858" d="M116,33c0,1.105-0.895,2-2,2H78c-1.105,0-2-0.895-2-2v-4c0-1.105,0.895-2,2-2h36c1.105,0,2,0.895,2,2V33z"
		/>
	<path fill="#585858" d="M116,45c0,1.105-0.895,2-2,2H78c-1.105,0-2-0.895-2-2v-4c0-1.105,0.895-2,2-2h36c1.105,0,2,0.895,2,2V45z"
		/>
	<path fill="#585858" d="M116,73c0,1.105-0.895,2-2,2H78c-1.105,0-2-0.895-2-2V53c0-1.105,0.895-2,2-2h36c1.105,0,2,0.895,2,2V73z"
		/>
	<g>
		<path fill="#FFFFFF" d="M95.314,65.828c0.781,0.781,0.781,2.047,0,2.828l-1.414,1.414c-0.781,0.781-2.047,0.781-2.828,0
			l-5.657-5.657c-0.781-0.781-0.781-2.047,0-2.828l1.414-1.414c0.781-0.781,2.047-0.781,2.828,0L95.314,65.828z"/>
		<path fill="#FFFFFF" d="M103.799,57.343c0.781,0.781,0.781,2.047,0,2.828l-9.899,9.899c-0.781,0.781-2.047,0.781-2.828,0
			l-1.414-1.414c-0.781-0.781-0.781-2.047,0-2.828l9.899-9.899c0.781-0.781,2.047-0.781,2.828,0L103.799,57.343z"/>
	</g>
</g>
<g>
	<rect x="4" y="20" fill="#FFFFFF" width="64" height="48"/>
	<g>
		<path fill="#585858" d="M48,2v8c0,1.102,0.896,2,2,2h2c1.104,0,2-0.898,2-2V2c0-1.102-0.896-2-2-2h-2C48.896,0,48,0.898,48,2z"/>
		<path fill="#585858" d="M66,6h-8v4c0,3.308-2.692,6-6,6h-2c-3.308,0-6-2.692-6-6V6H28v4c0,3.308-2.692,6-6,6h-2
			c-3.308,0-6-2.692-6-6V6H6c-3.308,0-6,2.692-6,6v54c0,3.308,2.692,6,6,6h60c3.308,0,6-2.692,6-6V12C72,8.692,69.308,6,66,6z
			 M68,66c0,1.104-0.896,2-2,2H6c-1.102,0-2-0.896-2-2V20h64V66z"/>
		<path fill="#585858" d="M18,2v8c0,1.102,0.898,2,2,2h2c1.102,0,2-0.898,2-2V2c0-1.102-0.898-2-2-2h-2C18.898,0,18,0.898,18,2z"/>
	</g>
	<path fill="#585858" d="M22,34c0,1.104-0.896,2-2,2h-4c-1.104,0-2-0.896-2-2v-4c0-1.104,0.896-2,2-2h4c1.104,0,2,0.896,2,2V34z"/>
	<path fill="#585858" d="M34,34c0,1.104-0.896,2-2,2h-4c-1.104,0-2-0.896-2-2v-4c0-1.104,0.896-2,2-2h4c1.104,0,2,0.896,2,2V34z"/>
	<path fill="#585858" d="M46,34c0,1.104-0.896,2-2,2h-4c-1.104,0-2-0.896-2-2v-4c0-1.104,0.896-2,2-2h4c1.104,0,2,0.896,2,2V34z"/>
	<path fill="#585858" d="M58,34c0,1.104-0.896,2-2,2h-4c-1.104,0-2-0.896-2-2v-4c0-1.104,0.896-2,2-2h4c1.104,0,2,0.896,2,2V34z"/>
	<path fill="#585858" d="M22,46c0,1.104-0.896,2-2,2h-4c-1.104,0-2-0.896-2-2v-4c0-1.104,0.896-2,2-2h4c1.104,0,2,0.896,2,2V46z"/>
	<path fill="#585858" d="M34,46c0,1.104-0.896,2-2,2h-4c-1.104,0-2-0.896-2-2v-4c0-1.104,0.896-2,2-2h4c1.104,0,2,0.896,2,2V46z"/>
	<path fill="#585858" d="M46,46c0,1.104-0.896,2-2,2h-4c-1.104,0-2-0.896-2-2v-4c0-1.104,0.896-2,2-2h4c1.104,0,2,0.896,2,2V46z"/>
	<path fill="#585858" d="M58,46c0,1.104-0.896,2-2,2h-4c-1.104,0-2-0.896-2-2v-4c0-1.104,0.896-2,2-2h4c1.104,0,2,0.896,2,2V46z"/>
	<path fill="#585858" d="M22,58c0,1.104-0.896,2-2,2h-4c-1.104,0-2-0.896-2-2v-4c0-1.104,0.896-2,2-2h4c1.104,0,2,0.896,2,2V58z"/>
	<path fill="#585858" d="M34,58c0,1.104-0.896,2-2,2h-4c-1.104,0-2-0.896-2-2v-4c0-1.104,0.896-2,2-2h4c1.104,0,2,0.896,2,2V58z"/>
	<path fill="#585858" d="M46,58c0,1.104-0.896,2-2,2h-4c-1.104,0-2-0.896-2-2v-4c0-1.104,0.896-2,2-2h4c1.104,0,2,0.896,2,2V58z"/>
	<path fill="#585858" d="M58,58c0,1.104-0.896,2-2,2h-4c-1.104,0-2-0.896-2-2v-4c0-1.104,0.896-2,2-2h4c1.104,0,2,0.896,2,2V58z"/>
</g>
</svg>
