<?xml version="1.0" encoding="utf-8"?>
<!-- Generator: Adobe Illustrator 15.1.0, SVG Export Plug-In  -->
<!DOCTYPE svg PUBLIC "-//W3C//DTD SVG 1.1//EN" "http://www.w3.org/Graphics/SVG/1.1/DTD/svg11.dtd" [
	<!ENTITY ns_flows "http://ns.adobe.com/Flows/1.0/">
]>
<svg version="1.1"
	 xmlns="http://www.w3.org/2000/svg" xmlns:xlink="http://www.w3.org/1999/xlink" xmlns:a="http://ns.adobe.com/AdobeSVGViewerExtensions/3.0/"
	 x="0px" y="0px" width="16px" height="16px" viewBox="0 0 16 16" overflow="visible" enable-background="new 0 0 16 16"
	 xml:space="preserve">
<defs>
</defs>
<path fill="#fff" d="M13.995,3.75C13.995,3.75,13.995,3.75,13.995,3.75c-1.037-1.793-2.702-2.997-4.556-3.494
	C7.587-0.24,5.544-0.029,3.751,1.006C1.958,2.042,0.753,3.706,0.257,5.559c-0.497,1.854-0.286,3.897,0.75,5.69
	c1.034,1.793,2.699,2.998,4.553,3.494s3.896,0.285,5.688-0.749c0.592-0.342,1.118-0.753,1.575-1.216
	c0.458-0.465,0.848-0.98,1.166-1.531L12.9,10.619L11.812,9.99c-0.213,0.369-0.467,0.715-0.77,1.025
	c-0.301,0.311-0.647,0.587-1.042,0.814c-1.195,0.69-2.558,0.83-3.794,0.5C4.97,11.998,3.86,11.195,3.171,9.999
	c-0.69-1.194-0.831-2.556-0.5-3.792c0.332-1.236,1.135-2.345,2.33-3.036c1.195-0.69,2.558-0.831,3.794-0.5S11.141,3.805,11.831,5
	l-1.732,1l2.814,1.625l2.816,1.625V6l-0.002-3.25L13.995,3.75z"/>
</svg>
