<?xml version="1.0" encoding="UTF-8" standalone="no"?>
<svg
   xmlns:dc="http://purl.org/dc/elements/1.1/"
   xmlns:cc="http://creativecommons.org/ns#"
   xmlns:rdf="http://www.w3.org/1999/02/22-rdf-syntax-ns#"
   xmlns:svg="http://www.w3.org/2000/svg"
   xmlns="http://www.w3.org/2000/svg"
   version="1.1"
   id="svg901"
   xml:space="preserve"
   width="95.41613"
   height="96.223061"
   viewBox="0 0 95.416128 96.22306"><metadata
     id="metadata907"><rdf:RDF><cc:Work
         rdf:about=""><dc:format>image/svg+xml</dc:format><dc:type
           rdf:resource="http://purl.org/dc/dcmitype/StillImage" /><dc:title></dc:title></cc:Work></rdf:RDF></metadata><defs
     id="defs905"><clipPath
       clipPathUnits="userSpaceOnUse"
       id="clipPath917"><path
         d="M 0,595.276 H 841.89 V 0 H 0 Z"
         id="path915" /></clipPath></defs><g
     id="g909"
     transform="matrix(1.3333333,0,0,-1.3333333,-372.28359,466.64786)"><g
       id="g1546"><g
         transform="translate(285.8027,277.8186)"
         id="g941"><path
           id="path943"
           style="fill:#1d1d1b;fill-opacity:1;fill-rule:nonzero;stroke:none"
           d="m 0,0 c -3.634,0 -6.59,2.955 -6.59,6.589 v 40.04 c 0,3.634 2.956,6.59 6.59,6.59 H 8.302 V 45.45 H 3.244 c -1.139,0 -2.066,-0.926 -2.066,-2.065 V 9.834 c 0,-1.14 0.927,-2.065 2.066,-2.065 h 33.065 c 1.138,0 2.064,0.925 2.064,2.065 v 33.551 c 0,1.139 -0.926,2.065 -2.064,2.065 H 24.202 v 7.769 h 15.349 c 3.635,0 6.592,-2.956 6.592,-6.59 V 6.589 C 46.143,2.955 43.186,0 39.551,0 Z" /></g><g
         transform="translate(335.8838,296.7649)"
         id="g945"><path
           id="path947"
           style="fill:#1d1d1b;fill-opacity:1;fill-rule:nonzero;stroke:none"
           d="m 0,0 v 7.77 h 5.057 c 1.139,0 2.066,0.927 2.066,2.066 v 33.551 c 0,1.139 -0.927,2.065 -2.066,2.065 h -33.064 c -1.139,0 -2.065,-0.926 -2.065,-2.065 V 9.836 c 0,-1.139 0.926,-2.066 2.065,-2.066 H -15.9 V 0.001 h -15.35 c -3.635,0 -6.591,2.956 -6.591,6.59 V 46.63 c 0,3.634 2.956,6.591 6.591,6.591 H 8.301 c 3.634,0 6.59,-2.957 6.59,-6.591 V 6.591 C 14.891,2.957 11.935,0 8.301,0 Z" /></g></g></g></svg>
