<?xml version="1.0" encoding="UTF-8" standalone="no"?>
<!-- Generator: Adobe Illustrator 9.0, SVG Export Plug-In  -->
<svg
   xmlns:dc="http://purl.org/dc/elements/1.1/"
   xmlns:cc="http://creativecommons.org/ns#"
   xmlns:rdf="http://www.w3.org/1999/02/22-rdf-syntax-ns#"
   xmlns:svg="http://www.w3.org/2000/svg"
   xmlns="http://www.w3.org/2000/svg"
   xmlns:xlink="http://www.w3.org/1999/xlink"
   xmlns:sodipodi="http://sodipodi.sourceforge.net/DTD/sodipodi-0.dtd"
   xmlns:inkscape="http://www.inkscape.org/namespaces/inkscape"
   sodipodi:docbase="/home/lapo/Desktop/tango-icon-theme/32x32/mimetypes"
   sodipodi:docname="application-certificate.svg"
   inkscape:version="0.46"
   sodipodi:version="0.32"
   id="svg5105"
   xml:space="preserve"
   viewBox="0 0 48 48"
   height="32"
   width="32"
   version="1.0"
   inkscape:output_extension="org.inkscape.output.svg.inkscape"><metadata
   id="metadata5189">
  <rdf:RDF>
    <cc:Work
   rdf:about="">
      <dc:format>image/svg+xml</dc:format>


      <dc:type
   rdf:resource="http://purl.org/dc/dcmitype/StillImage" />


    <dc:title>Certificate</dc:title><dc:creator><cc:Agent><dc:title>Jakub Steiner</dc:title></cc:Agent></dc:creator><dc:subject><rdf:Bag><rdf:li>certificate</rdf:li></rdf:Bag></dc:subject><cc:license
   rdf:resource="http://creativecommons.org/licenses/publicdomain/" /></cc:Work>


  <cc:License
   rdf:about="http://creativecommons.org/licenses/publicdomain/"><cc:permits
     rdf:resource="http://creativecommons.org/ns#Reproduction" /><cc:permits
     rdf:resource="http://creativecommons.org/ns#Distribution" /><cc:permits
     rdf:resource="http://creativecommons.org/ns#DerivativeWorks" /></cc:License></rdf:RDF>


</metadata>


<defs
   id="defs5187"><inkscape:perspective
     sodipodi:type="inkscape:persp3d"
     inkscape:vp_x="0 : 16 : 1"
     inkscape:vp_y="0 : 1000 : 0"
     inkscape:vp_z="32 : 16 : 1"
     inkscape:persp3d-origin="16 : 10.666667 : 1"
     id="perspective46" /><linearGradient
     id="linearGradient6684">
  <stop
   id="stop6686"
   offset="0.0000000"
   style="stop-color:#d5dbff;stop-opacity:1.0000000;" />
  <stop
   id="stop6688"
   offset="1"
   style="stop-color:#6579ff;stop-opacity:0;" />
</linearGradient><linearGradient
     id="linearGradient6665">
  <stop
   style="stop-color:#000000;stop-opacity:1.0000000;"
   offset="0.0000000"
   id="stop6667" />
  <stop
   style="stop-color:#000000;stop-opacity:0.0000000;"
   offset="1.0000000"
   id="stop6669" />
</linearGradient><linearGradient
     id="linearGradient6625">
  <stop
   id="stop6627"
   offset="0.0000000"
   style="stop-color:#1d2349;stop-opacity:1.0000000;" />
  <stop
   style="stop-color:#4c5279;stop-opacity:1.0000000;"
   offset="0.35315102"
   id="stop6637" />
  <stop
   style="stop-color:#b3bdff;stop-opacity:1.0000000;"
   offset="0.46551725"
   id="stop6633" />
  <stop
   id="stop6635"
   offset="0.64982164"
   style="stop-color:#727cbe;stop-opacity:1.0000000;" />
  <stop
   id="stop6629"
   offset="1.0000000"
   style="stop-color:#323c7e;stop-opacity:1.0000000;" />
</linearGradient><linearGradient
     id="linearGradient6617">
  <stop
   id="stop6619"
   offset="0.0000000"
   style="stop-color:#ffffff;stop-opacity:0.24742268;" />
  <stop
   id="stop6621"
   offset="1"
   style="stop-color:#ffffff;stop-opacity:0;" />
</linearGradient><linearGradient
     id="linearGradient6604">
  <stop
   id="stop6606"
   offset="0.0000000"
   style="stop-color:#ffa196;stop-opacity:1.0000000;" />
  <stop
   id="stop6608"
   offset="1"
   style="stop-color:#ff1f06;stop-opacity:0;" />
</linearGradient><radialGradient
     gradientUnits="userSpaceOnUse"
     fy="20.971201"
     fx="28.789101"
     r="13.2807"
     cy="20.971201"
     cx="28.789101"
     id="aigrd1">
				<stop
   id="stop5115"
   style="stop-color:#E41E08"
   offset="0" />



				<stop
   id="stop5117"
   style="stop-color:#901505"
   offset="1" />



			</radialGradient><radialGradient
     gradientUnits="userSpaceOnUse"
     fy="13.5444"
     fx="19.292"
     r="14.6944"
     cy="13.5444"
     cx="19.292"
     id="aigrd2">
				<stop
   id="stop5122"
   style="stop-color:#E41E08"
   offset="0" />



				<stop
   id="stop5124"
   style="stop-color:#901505"
   offset="1" />



			</radialGradient><linearGradient
     inkscape:collect="always"
     xlink:href="#linearGradient6617"
     id="linearGradient1940"
     gradientUnits="userSpaceOnUse"
     gradientTransform="matrix(0.980965,0,0,0.927046,-0.14372,1.908783)"
     x1="18.570419"
     y1="9.4436626"
     x2="29.957399"
     y2="22.783224" /><linearGradient
     inkscape:collect="always"
     xlink:href="#linearGradient6604"
     id="linearGradient1943"
     gradientUnits="userSpaceOnUse"
     gradientTransform="matrix(0.959783,0,0,0.913929,0.285356,2.252839)"
     x1="15.338736"
     y1="5.9244628"
     x2="43.14098"
     y2="49.895073" /><radialGradient
     inkscape:collect="always"
     xlink:href="#aigrd2"
     id="radialGradient1946"
     gradientUnits="userSpaceOnUse"
     gradientTransform="matrix(1.15676,0,0,1.15676,-5.066306,-2.444347)"
     cx="26.887432"
     cy="20.479359"
     fx="26.887432"
     fy="20.479359"
     r="14.6944" /><radialGradient
     inkscape:collect="always"
     xlink:href="#aigrd1"
     id="radialGradient1949"
     gradientUnits="userSpaceOnUse"
     gradientTransform="matrix(1.289355,0,0,1.292657,-8.095535,-4.093176)"
     cx="28.789101"
     cy="20.971201"
     fx="28.789101"
     fy="20.971201"
     r="13.2807" /><linearGradient
     inkscape:collect="always"
     xlink:href="#linearGradient6684"
     id="linearGradient1952"
     gradientUnits="userSpaceOnUse"
     gradientTransform="matrix(0.689415,0,0,1.104626,5.696245,2.470353)"
     x1="37.502811"
     y1="35.458244"
     x2="36.499001"
     y2="27.403761" /><linearGradient
     inkscape:collect="always"
     xlink:href="#linearGradient6625"
     id="linearGradient1955"
     gradientUnits="userSpaceOnUse"
     gradientTransform="matrix(0.844556,0,0,1.217029,-1.559417,0.873254)"
     x1="38.506161"
     y1="22.886259"
     x2="38.250904"
     y2="35.01786" /><radialGradient
     inkscape:collect="always"
     xlink:href="#linearGradient6665"
     id="radialGradient1958"
     gradientUnits="userSpaceOnUse"
     gradientTransform="matrix(1.011527,0,0,0.991183,1.014924,-0.563602)"
     cx="24.452202"
     cy="19.818913"
     fx="24.452202"
     fy="19.818913"
     r="33.156136" /><radialGradient
     inkscape:collect="always"
     xlink:href="#linearGradient6665"
     id="radialGradient1961"
     gradientUnits="userSpaceOnUse"
     gradientTransform="matrix(1.03676,0,0,0.976107,1.432602,-0.353552)"
     cx="24.452202"
     cy="19.818913"
     fx="24.452202"
     fy="19.818913"
     r="33.156136" /></defs>


<sodipodi:namedview
   inkscape:current-layer="svg5105"
   inkscape:window-y="30"
   inkscape:window-x="203"
   inkscape:cy="20.621675"
   inkscape:cx="-141.83909"
   inkscape:zoom="1"
   id="base"
   pagecolor="#ffffff"
   bordercolor="#666"
   borderopacity="1"
   inkscape:pageopacity="0.0"
   inkscape:pageshadow="2"
   inkscape:window-width="1034"
   inkscape:window-height="818"
   inkscape:showpageshadow="false"
   showgrid="false"
   width="32px"
   height="32px"
   showborder="false" />



	




























	


<path
   style="opacity:0.48044691;color:black;fill:url(#radialGradient1961);fill-opacity:1;fill-rule:nonzero;stroke:none;stroke-width:1;stroke-linecap:round;stroke-linejoin:round;marker:none;marker-start:none;marker-mid:none;marker-end:none;stroke-miterlimit:4;stroke-dashoffset:0;stroke-opacity:1;visibility:visible;display:inline;overflow:visible"
   d="M 25.459899,19.305038 C 25.459899,19.305038 19.484245,27.481005 19.484245,31.228324 C 19.484245,34.975642 26.379231,32.93165 29.137225,35.656973 C 31.895219,38.382295 22.701904,45.422711 22.701904,45.422711 L 31.895219,42.924499 L 35.572546,46.785372 C 35.572546,42.129613 40.973618,38.382295 38.215624,35.543418 C 35.342712,32.70454 27.183645,33.045205 26.72398,29.297887 C 26.264314,25.550569 25.574816,19.418593 25.574816,19.418593 L 25.459899,19.305038 z "
   id="path6671" /><path
   style="opacity:0.48044691;fill:url(#radialGradient1958);fill-opacity:1;fill-rule:nonzero;stroke:none;stroke-linecap:round;stroke-linejoin:round;stroke-miterlimit:4;stroke-opacity:1"
   d="M 36.536941,9.5146681 C 37.841763,12.619265 40.134019,12.461304 40.190709,16.605027 C 40.22304,18.915938 42,20.129375 42,22.490055 C 42,24.850733 38.035741,26.017174 36.685515,27.405807 C 35.335287,28.794444 36.792036,32.355518 33.12902,33.401967 C 29.500812,34.438472 27.728112,32.985378 25.432727,32.985378 C 23.13734,32.985378 17.644624,37.537301 15.619282,35.454346 C 13.593942,33.371394 13.550731,28.819471 11.795437,27.014246 C 9.9051182,25.070156 6.9184435,22.353964 6.9184435,18.882375 C 6.9184435,15.410788 8.8676918,13.578112 11.660414,10.350623 C 14.541798,7.0206701 14.630913,2.0188097 18.00648,2.0188097 C 21.382046,2.0188097 22.675877,2.9711038 25.548875,2.8964302 C 30.128576,2.7773965 30.689794,0.53722494 34.058001,2.2937637 C 37.027681,3.8424687 35.515497,7.0843208 36.536941,9.5146681 z "
   id="path6639"
   sodipodi:nodetypes="csssssssssssss" /><path
   id="path5112"
   d="M 23.360496,17.695299 C 23.360496,17.695299 17.451305,26.092802 17.451305,29.941658 C 17.451305,33.790513 24.269603,31.691137 26.996921,34.490306 C 29.72424,37.289473 20.633176,44.520656 20.633176,44.520656 L 29.72424,41.954753 L 33.360666,45.92024 C 33.360666,41.138328 38.701665,37.289473 35.974346,34.373674 C 33.133389,31.457874 25.06507,31.807769 24.610517,27.958914 C 24.155963,24.110059 23.474135,17.811931 23.474135,17.811931 L 23.360496,17.695299 z "
   style="fill:url(#linearGradient1955);fill-opacity:1;fill-rule:nonzero;stroke:#1f254f;stroke-width:1.5;stroke-miterlimit:6.5999999;stroke-dasharray:none;stroke-opacity:1" /><path
   sodipodi:nodetypes="cscccsss"
   style="fill:none;fill-opacity:1;fill-rule:nonzero;stroke:url(#linearGradient1952);stroke-width:1.50000048;stroke-miterlimit:6.5999999;stroke-dasharray:none;stroke-opacity:1"
   d="M 22.69046,31.931266 C 26.409004,32.349265 28.759247,33.083067 29.067716,35.650055 C 29.337387,37.894169 25.610463,41.926761 25.610463,41.926761 L 30.384355,40.412115 L 32.70548,43.172419 C 33.247015,39.712947 36.271108,37.372043 34.893888,35.244121 C 33.166392,32.574991 27.569492,33.152681 27.301916,30.633513 C 27.034338,28.114345 20.493793,31.68192 22.69046,31.931266 z "
   id="path6680" /><path
   sodipodi:nodetypes="csssssssssssss"
   id="path5119"
   d="M 34.783235,9.3452893 C 36.029232,12.235305 38.218148,12.088262 38.272283,15.945582 C 38.303157,18.096768 40.000007,19.226337 40.000007,21.423851 C 40.000007,23.621366 36.214466,24.707186 34.925111,25.999841 C 33.635754,27.292499 35.026829,30.607441 31.528949,31.581562 C 28.064308,32.546427 26.371526,31.193766 24.179621,31.193766 C 21.987716,31.193766 16.742622,35.431073 14.808587,33.492086 C 12.874553,31.553102 12.83329,27.315797 11.157128,25.635343 C 9.352029,23.825623 6.4999994,21.297167 6.4999994,18.065526 C 6.4999994,14.833885 8.3613716,13.127879 11.028193,10.123465 C 13.779678,7.0236707 13.864776,2.3675255 17.088164,2.3675255 C 20.311553,2.3675255 21.547056,3.2539996 24.290533,3.1844872 C 28.663772,3.0736807 29.199689,0.98834386 32.41605,2.6234754 C 35.251851,4.0651381 33.807839,7.0829221 34.783235,9.3452893 z "
   style="fill:url(#radialGradient1949);fill-rule:nonzero;stroke:#4c0901;stroke-width:1.00000107;stroke-linecap:round;stroke-linejoin:round;stroke-miterlimit:4;stroke-opacity:1" /><path
   id="path5126"
   d="M 35.188939,17.567599 C 35.188939,23.929779 29.983519,29.135198 23.62134,29.135198 C 17.25916,29.135198 12.053741,23.929779 12.053741,17.567599 C 12.053741,11.20542 17.25916,6 23.62134,6 C 29.983519,6 35.188939,11.20542 35.188939,17.567599 z "
   style="fill:url(#radialGradient1946);fill-rule:nonzero;stroke:none;stroke-miterlimit:4" /><path
   style="fill:none;fill-rule:nonzero;stroke:url(#linearGradient1943);stroke-width:1.00000012;stroke-linecap:round;stroke-linejoin:round;stroke-miterlimit:4;stroke-opacity:1"
   d="M 33.750394,10.156657 C 34.884809,12.77573 36.877703,12.642473 36.92699,16.138165 C 36.955098,18.087676 38.49999,19.111346 38.49999,21.102841 C 38.49999,23.094337 35.053455,24.078359 33.879565,25.249826 C 32.705674,26.421297 33.972175,29.425459 30.787539,30.308255 C 27.633166,31.182662 26.091977,29.956817 24.096363,29.956817 C 22.100749,29.956817 17.325367,33.79687 15.564529,32.039665 C 13.803694,30.282463 13.766126,26.442409 12.240068,24.9195 C 10.596621,23.279444 7.9999984,20.988034 7.9999984,18.059363 C 7.9999984,15.130691 9.6946801,13.584625 12.122679,10.861878 C 14.627762,8.0526931 14.705239,3.8330667 17.639965,3.8330667 C 20.574691,3.8330667 21.699552,4.6364329 24.197343,4.5734372 C 28.178946,4.4730191 28.66687,2.5831847 31.595197,4.0650209 C 34.177045,5.3715261 32.862348,8.1063897 33.750394,10.156657 z "
   id="path6600"
   sodipodi:nodetypes="csssssssssssss" /><path
   id="path6612"
   d="M 23.643098,7.5 C 18.047403,7.5 13.490558,12.022311 13.490558,17.618008 C 13.490558,21.118758 15.382268,24.084183 18.083374,25.905796 C 24.988067,22.189556 23.761069,15.6017 32.96686,13.750371 C 31.442008,10.079772 27.863453,7.5 23.643098,7.5 z "
   style="color:black;fill:url(#linearGradient1940);fill-opacity:1;fill-rule:nonzero;stroke:none;stroke-width:1;stroke-linecap:round;stroke-linejoin:round;marker:none;marker-start:none;marker-mid:none;marker-end:none;stroke-miterlimit:4;stroke-dashoffset:0;stroke-opacity:1;visibility:visible;display:inline;overflow:visible" /></svg>