<?xml version="1.0" encoding="UTF-8" standalone="no"?>
<!-- Created with Inkscape (http://www.inkscape.org/) -->
<svg
   xmlns:dc="http://purl.org/dc/elements/1.1/"
   xmlns:cc="http://creativecommons.org/ns#"
   xmlns:rdf="http://www.w3.org/1999/02/22-rdf-syntax-ns#"
   xmlns:svg="http://www.w3.org/2000/svg"
   xmlns="http://www.w3.org/2000/svg"
   xmlns:xlink="http://www.w3.org/1999/xlink"
   xmlns:sodipodi="http://sodipodi.sourceforge.net/DTD/sodipodi-0.dtd"
   xmlns:inkscape="http://www.inkscape.org/namespaces/inkscape"
   width="32"
   height="32"
   id="svg1306"
   sodipodi:version="0.32"
   inkscape:version="0.46"
   sodipodi:docbase="/home/lapo/Desktop/tango-icon-theme/32x32/mimetypes"
   sodipodi:docname="font-x-generic.svg"
   version="1.0"
   inkscape:output_extension="org.inkscape.output.svg.inkscape">
  <defs
     id="defs1308">
    <inkscape:perspective
       sodipodi:type="inkscape:persp3d"
       inkscape:vp_x="0 : 16 : 1"
       inkscape:vp_y="0 : 1000 : 0"
       inkscape:vp_z="32 : 16 : 1"
       inkscape:persp3d-origin="16 : 10.666667 : 1"
       id="perspective56" />
    <linearGradient
       inkscape:collect="always"
       id="linearGradient5060">
      <stop
         style="stop-color:black;stop-opacity:1;"
         offset="0"
         id="stop5062" />
      <stop
         style="stop-color:black;stop-opacity:0;"
         offset="1"
         id="stop5064" />
    </linearGradient>
    <linearGradient
       id="linearGradient5048">
      <stop
         style="stop-color:black;stop-opacity:0;"
         offset="0"
         id="stop5050" />
      <stop
         id="stop5056"
         offset="0.5"
         style="stop-color:black;stop-opacity:1;" />
      <stop
         style="stop-color:black;stop-opacity:0;"
         offset="1"
         id="stop5052" />
    </linearGradient>
    <linearGradient
       inkscape:collect="always"
       id="linearGradient4767">
      <stop
         style="stop-color:#729fcf"
         offset="0"
         id="stop4769" />
      <stop
         style="stop-color:#3465a4"
         offset="1"
         id="stop4771" />
    </linearGradient>
    <linearGradient
       inkscape:collect="always"
       id="linearGradient4755">
      <stop
         style="stop-color:#eeeeec;stop-opacity:1;"
         offset="0"
         id="stop4757" />
      <stop
         style="stop-color:#ffffff;stop-opacity:1.0000000"
         offset="1"
         id="stop4759" />
    </linearGradient>
    <linearGradient
       inkscape:collect="always"
       xlink:href="#linearGradient5048"
       id="linearGradient1976"
       gradientUnits="userSpaceOnUse"
       gradientTransform="matrix(2.774389,0,0,1.969706,-1892.179,-872.8854)"
       x1="302.85715"
       y1="366.64789"
       x2="302.85715"
       y2="609.50507" />
    <radialGradient
       inkscape:collect="always"
       xlink:href="#linearGradient5060"
       id="radialGradient1978"
       gradientUnits="userSpaceOnUse"
       gradientTransform="matrix(2.774389,0,0,1.969706,-1891.633,-872.8854)"
       cx="605.71429"
       cy="486.64789"
       fx="605.71429"
       fy="486.64789"
       r="117.14286" />
    <radialGradient
       inkscape:collect="always"
       xlink:href="#linearGradient5060"
       id="radialGradient1980"
       gradientUnits="userSpaceOnUse"
       gradientTransform="matrix(-2.774389,0,0,1.969706,112.7623,-872.8854)"
       cx="605.71429"
       cy="486.64789"
       fx="605.71429"
       fy="486.64789"
       r="117.14286" />
    <linearGradient
       inkscape:collect="always"
       xlink:href="#linearGradient4767"
       id="linearGradient2025"
       gradientUnits="userSpaceOnUse"
       x1="18.561554"
       y1="12.998214"
       x2="30.935921"
       y2="33.681091"
       gradientTransform="matrix(0.902935,0,0,0.902935,3.199189,2.016188)" />
    <linearGradient
       inkscape:collect="always"
       xlink:href="#linearGradient4755"
       id="linearGradient2028"
       gradientUnits="userSpaceOnUse"
       x1="36.668537"
       y1="36.383247"
       x2="10.303555"
       y2="7.4928832"
       gradientTransform="matrix(0.657745,0,0,0.674039,0.218006,-0.180854)" />
  </defs>
  <sodipodi:namedview
     id="base"
     pagecolor="#ffffff"
     bordercolor="#666"
     borderopacity="1"
     inkscape:pageopacity="0.0"
     inkscape:pageshadow="2"
     inkscape:zoom="1"
     inkscape:cx="-131.90004"
     inkscape:cy="11.051525"
     inkscape:current-layer="layer1"
     showgrid="false"
     inkscape:grid-bbox="true"
     inkscape:document-units="px"
     fill="#2e3436"
     stroke="#888a85"
     showguides="true"
     inkscape:guide-bbox="true"
     inkscape:window-width="1034"
     inkscape:window-height="746"
     inkscape:window-x="236"
     inkscape:window-y="41"
     inkscape:showpageshadow="false"
     width="32px"
     height="32px"
     showborder="false" />
  <metadata
     id="metadata1311">
    <rdf:RDF>
      <cc:Work
         rdf:about="">
        <dc:format>image/svg+xml</dc:format>
        <dc:type
           rdf:resource="http://purl.org/dc/dcmitype/StillImage" />
        <dc:title>Generic font</dc:title>
        <dc:creator>
          <cc:Agent>
            <dc:title>Andreas Nilsson</dc:title>
          </cc:Agent>
        </dc:creator>
        <dc:contributor>
          <cc:Agent>
            <dc:title>the oxygen guys</dc:title>
          </cc:Agent>
        </dc:contributor>
        <cc:license
           rdf:resource="http://creativecommons.org/licenses/publicdomain/" />
        <dc:source>http://tango-project.org</dc:source>
        <dc:subject>
          <rdf:Bag>
            <rdf:li>font</rdf:li>
            <rdf:li>type</rdf:li>
            <rdf:li>letter</rdf:li>
          </rdf:Bag>
        </dc:subject>
      </cc:Work>
      <cc:License
         rdf:about="http://creativecommons.org/licenses/publicdomain/">
        <cc:permits
           rdf:resource="http://creativecommons.org/ns#Reproduction" />
        <cc:permits
           rdf:resource="http://creativecommons.org/ns#Distribution" />
        <cc:permits
           rdf:resource="http://creativecommons.org/ns#DerivativeWorks" />
      </cc:License>
    </rdf:RDF>
  </metadata>
  <g
     id="layer1"
     inkscape:label="Layer 1"
     inkscape:groupmode="layer">
    <g
       style="display:inline"
       transform="matrix(1.576018e-2,0,0,1.381254e-2,30.01766,27.47418)"
       id="g6707">
      <rect
         style="opacity:0.40206185;color:black;fill:url(#linearGradient1976);fill-opacity:1;fill-rule:nonzero;stroke:none;stroke-width:1;stroke-linecap:round;stroke-linejoin:miter;marker:none;marker-start:none;marker-mid:none;marker-end:none;stroke-miterlimit:4;stroke-dasharray:none;stroke-dashoffset:0;stroke-opacity:1;visibility:visible;display:inline;overflow:visible"
         id="rect6709"
         width="1339.6335"
         height="478.35718"
         x="-1559.2523"
         y="-150.69685" />
      <path
         style="opacity:0.40206185;color:black;fill:url(#radialGradient1978);fill-opacity:1;fill-rule:nonzero;stroke:none;stroke-width:1;stroke-linecap:round;stroke-linejoin:miter;marker:none;marker-start:none;marker-mid:none;marker-end:none;stroke-miterlimit:4;stroke-dasharray:none;stroke-dashoffset:0;stroke-opacity:1;visibility:visible;display:inline;overflow:visible"
         d="M -219.61876,-150.68038 C -219.61876,-150.68038 -219.61876,327.65041 -219.61876,327.65041 C -76.744594,328.55086 125.78146,220.48075 125.78138,88.454235 C 125.78138,-43.572302 -33.655436,-150.68036 -219.61876,-150.68038 z "
         id="path6711"
         sodipodi:nodetypes="cccc" />
      <path
         sodipodi:nodetypes="cccc"
         id="path6713"
         d="M -1559.2523,-150.68038 C -1559.2523,-150.68038 -1559.2523,327.65041 -1559.2523,327.65041 C -1702.1265,328.55086 -1904.6525,220.48075 -1904.6525,88.454235 C -1904.6525,-43.572302 -1745.2157,-150.68036 -1559.2523,-150.68038 z "
         style="opacity:0.40206185;color:black;fill:url(#radialGradient1980);fill-opacity:1;fill-rule:nonzero;stroke:none;stroke-width:1;stroke-linecap:round;stroke-linejoin:miter;marker:none;marker-start:none;marker-mid:none;marker-end:none;stroke-miterlimit:4;stroke-dasharray:none;stroke-dashoffset:0;stroke-opacity:1;visibility:visible;display:inline;overflow:visible" />
    </g>
    <rect
       style="fill:url(#linearGradient2028);fill-opacity:1;stroke:#888a85;stroke-width:1.02492535;stroke-linecap:round;stroke-linejoin:round;stroke-miterlimit:4;stroke-dasharray:none;stroke-dashoffset:0;stroke-opacity:1"
       id="rect1314"
       width="26.975084"
       height="28.975075"
       x="2.5124636"
       y="1.5124624"
       rx="0.65712708"
       ry="0.67346513" />
    <path
       style="font-size:46.60050201px;font-style:italic;font-variant:normal;font-weight:normal;font-stretch:normal;text-align:start;line-height:125%;writing-mode:lr-tb;text-anchor:start;fill:url(#linearGradient2025);fill-opacity:1;stroke:none;stroke-width:1px;stroke-linecap:butt;stroke-linejoin:miter;stroke-opacity:1;font-family:Nimbus Roman No9 L"
       d="M 26.19933,25.330251 C 24.67199,25.190994 24.511215,25.192305 24.162875,23.159146 L 21.644101,7.3951898 L 21.163045,7.3951898 L 13.176737,21.320946 C 11.059898,25.025194 10.558345,25.107439 9.4865274,25.330251 L 9.4865274,26 L 14.730873,26 L 14.730873,25.330251 C 13.364307,25.190994 13.149941,25.27586 13.149941,24.579574 C 13.149941,24.050395 13.230328,23.79973 13.68585,22.852779 L 15.213191,20.041745 L 21.108192,20.041745 L 21.644101,23.354106 C 21.670897,23.60477 21.697692,23.855434 21.697692,24.078246 C 21.697692,25.136602 21.556149,25.163142 19.841242,25.330251 L 19.841242,26 L 26.19933,26 L 26.19933,25.330251 M 15.775896,18.702904 L 19.795215,11.46151 L 20.974216,18.702904 L 15.775896,18.702904"
       id="text2044"
       sodipodi:nodetypes="cccccccccsccccscccccccc" />
    <rect
       style="fill:none;fill-opacity:1;stroke:white;stroke-width:1.02499962;stroke-linecap:butt;stroke-linejoin:miter;stroke-miterlimit:4;stroke-dasharray:none;stroke-dashoffset:0;stroke-opacity:1"
       id="rect4753"
       width="24.993244"
       height="26.97501"
       x="3.4942608"
       y="2.5124998"
       rx="0"
       ry="0" />
    <path
       transform="matrix(0.452548,0,0,-0.53241,-5.519993,10.8145)"
       d="M 23.246135 9.9819622 A 1.1048543 0.93912619 0 1 1  21.036427,9.9819622 A 1.1048543 0.93912619 0 1 1  23.246135 9.9819622 z"
       sodipodi:ry="0.93912619"
       sodipodi:rx="1.1048543"
       sodipodi:cy="9.9819622"
       sodipodi:cx="22.141281"
       id="path2072"
       style="fill:#888a85;fill-opacity:1;stroke:none;stroke-width:1;stroke-linecap:round;stroke-linejoin:round;stroke-miterlimit:4;stroke-dasharray:none;stroke-dashoffset:0;stroke-opacity:1;display:inline"
       sodipodi:type="arc" />
    <path
       transform="matrix(0.452548,0,0,-0.53241,-3.519992,8.814497)"
       d="M 23.246135 9.9819622 A 1.1048543 0.93912619 0 1 1  21.036427,9.9819622 A 1.1048543 0.93912619 0 1 1  23.246135 9.9819622 z"
       sodipodi:ry="0.93912619"
       sodipodi:rx="1.1048543"
       sodipodi:cy="9.9819622"
       sodipodi:cx="22.141281"
       id="path2074"
       style="fill:#888a85;fill-opacity:1;stroke:none;stroke-width:1;stroke-linecap:round;stroke-linejoin:round;stroke-miterlimit:4;stroke-dasharray:none;stroke-dashoffset:0;stroke-opacity:1;display:inline"
       sodipodi:type="arc" />
    <path
       transform="matrix(0.452548,0,0,-0.53241,-3.519993,10.8145)"
       d="M 23.246135 9.9819622 A 1.1048543 0.93912619 0 1 1  21.036427,9.9819622 A 1.1048543 0.93912619 0 1 1  23.246135 9.9819622 z"
       sodipodi:ry="0.93912619"
       sodipodi:rx="1.1048543"
       sodipodi:cy="9.9819622"
       sodipodi:cx="22.141281"
       id="path2076"
       style="fill:#888a85;fill-opacity:1;stroke:none;stroke-width:1;stroke-linecap:round;stroke-linejoin:round;stroke-miterlimit:4;stroke-dasharray:none;stroke-dashoffset:0;stroke-opacity:1;display:inline"
       sodipodi:type="arc" />
    <path
       transform="matrix(0.452548,0,0,-0.53241,-1.519992,10.8145)"
       d="M 23.246135 9.9819622 A 1.1048543 0.93912619 0 1 1  21.036427,9.9819622 A 1.1048543 0.93912619 0 1 1  23.246135 9.9819622 z"
       sodipodi:ry="0.93912619"
       sodipodi:rx="1.1048543"
       sodipodi:cy="9.9819622"
       sodipodi:cx="22.141281"
       id="path2078"
       style="fill:#888a85;fill-opacity:1;stroke:none;stroke-width:1;stroke-linecap:round;stroke-linejoin:round;stroke-miterlimit:4;stroke-dasharray:none;stroke-dashoffset:0;stroke-opacity:1;display:inline"
       sodipodi:type="arc" />
    <path
       transform="matrix(0.452548,0,0,-0.53241,0.480008,10.8145)"
       d="M 23.246135 9.9819622 A 1.1048543 0.93912619 0 1 1  21.036427,9.9819622 A 1.1048543 0.93912619 0 1 1  23.246135 9.9819622 z"
       sodipodi:ry="0.93912619"
       sodipodi:rx="1.1048543"
       sodipodi:cy="9.9819622"
       sodipodi:cx="22.141281"
       id="path2080"
       style="fill:#888a85;fill-opacity:1;stroke:none;stroke-width:1;stroke-linecap:round;stroke-linejoin:round;stroke-miterlimit:4;stroke-dasharray:none;stroke-dashoffset:0;stroke-opacity:1;display:inline"
       sodipodi:type="arc" />
    <path
       transform="matrix(0.452548,0,0,-0.53241,2.480008,10.8145)"
       d="M 23.246135 9.9819622 A 1.1048543 0.93912619 0 1 1  21.036427,9.9819622 A 1.1048543 0.93912619 0 1 1  23.246135 9.9819622 z"
       sodipodi:ry="0.93912619"
       sodipodi:rx="1.1048543"
       sodipodi:cy="9.9819622"
       sodipodi:cx="22.141281"
       id="path2082"
       style="fill:#888a85;fill-opacity:1;stroke:none;stroke-width:1;stroke-linecap:round;stroke-linejoin:round;stroke-miterlimit:4;stroke-dasharray:none;stroke-dashoffset:0;stroke-opacity:1;display:inline"
       sodipodi:type="arc" />
    <path
       transform="matrix(0.452548,0,0,-0.53241,4.480008,10.8145)"
       d="M 23.246135 9.9819622 A 1.1048543 0.93912619 0 1 1  21.036427,9.9819622 A 1.1048543 0.93912619 0 1 1  23.246135 9.9819622 z"
       sodipodi:ry="0.93912619"
       sodipodi:rx="1.1048543"
       sodipodi:cy="9.9819622"
       sodipodi:cx="22.141281"
       id="path2084"
       style="fill:#888a85;fill-opacity:1;stroke:none;stroke-width:1;stroke-linecap:round;stroke-linejoin:round;stroke-miterlimit:4;stroke-dasharray:none;stroke-dashoffset:0;stroke-opacity:1;display:inline"
       sodipodi:type="arc" />
    <path
       transform="matrix(0.452548,0,0,-0.53241,6.480009,10.8145)"
       d="M 23.246135 9.9819622 A 1.1048543 0.93912619 0 1 1  21.036427,9.9819622 A 1.1048543 0.93912619 0 1 1  23.246135 9.9819622 z"
       sodipodi:ry="0.93912619"
       sodipodi:rx="1.1048543"
       sodipodi:cy="9.9819622"
       sodipodi:cx="22.141281"
       id="path2086"
       style="fill:#888a85;fill-opacity:1;stroke:none;stroke-width:1;stroke-linecap:round;stroke-linejoin:round;stroke-miterlimit:4;stroke-dasharray:none;stroke-dashoffset:0;stroke-opacity:1;display:inline"
       sodipodi:type="arc" />
    <path
       transform="matrix(0.452548,0,0,-0.53241,8.480009,10.8145)"
       d="M 23.246135 9.9819622 A 1.1048543 0.93912619 0 1 1  21.036427,9.9819622 A 1.1048543 0.93912619 0 1 1  23.246135 9.9819622 z"
       sodipodi:ry="0.93912619"
       sodipodi:rx="1.1048543"
       sodipodi:cy="9.9819622"
       sodipodi:cx="22.141281"
       id="path2088"
       style="fill:#888a85;fill-opacity:1;stroke:none;stroke-width:1;stroke-linecap:round;stroke-linejoin:round;stroke-miterlimit:4;stroke-dasharray:none;stroke-dashoffset:0;stroke-opacity:1;display:inline"
       sodipodi:type="arc" />
    <path
       transform="matrix(0.452548,0,0,-0.53241,10.48,10.8145)"
       d="M 23.246135 9.9819622 A 1.1048543 0.93912619 0 1 1  21.036427,9.9819622 A 1.1048543 0.93912619 0 1 1  23.246135 9.9819622 z"
       sodipodi:ry="0.93912619"
       sodipodi:rx="1.1048543"
       sodipodi:cy="9.9819622"
       sodipodi:cx="22.141281"
       id="path2090"
       style="fill:#888a85;fill-opacity:1;stroke:none;stroke-width:1;stroke-linecap:round;stroke-linejoin:round;stroke-miterlimit:4;stroke-dasharray:none;stroke-dashoffset:0;stroke-opacity:1;display:inline"
       sodipodi:type="arc" />
    <path
       transform="matrix(0.452548,0,0,-0.53241,12.48001,10.8145)"
       d="M 23.246135 9.9819622 A 1.1048543 0.93912619 0 1 1  21.036427,9.9819622 A 1.1048543 0.93912619 0 1 1  23.246135 9.9819622 z"
       sodipodi:ry="0.93912619"
       sodipodi:rx="1.1048543"
       sodipodi:cy="9.9819622"
       sodipodi:cx="22.141281"
       id="path2092"
       style="fill:#888a85;fill-opacity:1;stroke:none;stroke-width:1;stroke-linecap:round;stroke-linejoin:round;stroke-miterlimit:4;stroke-dasharray:none;stroke-dashoffset:0;stroke-opacity:1;display:inline"
       sodipodi:type="arc" />
    <path
       transform="matrix(0.452548,0,0,-0.53241,14.48001,10.8145)"
       d="M 23.246135 9.9819622 A 1.1048543 0.93912619 0 1 1  21.036427,9.9819622 A 1.1048543 0.93912619 0 1 1  23.246135 9.9819622 z"
       sodipodi:ry="0.93912619"
       sodipodi:rx="1.1048543"
       sodipodi:cy="9.9819622"
       sodipodi:cx="22.141281"
       id="path2094"
       style="fill:#888a85;fill-opacity:1;stroke:none;stroke-width:1;stroke-linecap:round;stroke-linejoin:round;stroke-miterlimit:4;stroke-dasharray:none;stroke-dashoffset:0;stroke-opacity:1;display:inline"
       sodipodi:type="arc" />
    <path
       transform="matrix(0.452548,0,0,-0.53241,16.48001,10.8145)"
       d="M 23.246135 9.9819622 A 1.1048543 0.93912619 0 1 1  21.036427,9.9819622 A 1.1048543 0.93912619 0 1 1  23.246135 9.9819622 z"
       sodipodi:ry="0.93912619"
       sodipodi:rx="1.1048543"
       sodipodi:cy="9.9819622"
       sodipodi:cx="22.141281"
       id="path2096"
       style="fill:#888a85;fill-opacity:1;stroke:none;stroke-width:1;stroke-linecap:round;stroke-linejoin:round;stroke-miterlimit:4;stroke-dasharray:none;stroke-dashoffset:0;stroke-opacity:1;display:inline"
       sodipodi:type="arc" />
    <path
       transform="matrix(0.452548,0,0,-0.53241,-3.519991,12.81449)"
       d="M 23.246135 9.9819622 A 1.1048543 0.93912619 0 1 1  21.036427,9.9819622 A 1.1048543 0.93912619 0 1 1  23.246135 9.9819622 z"
       sodipodi:ry="0.93912619"
       sodipodi:rx="1.1048543"
       sodipodi:cy="9.9819622"
       sodipodi:cx="22.141281"
       id="path2098"
       style="fill:#888a85;fill-opacity:1;stroke:none;stroke-width:1;stroke-linecap:round;stroke-linejoin:round;stroke-miterlimit:4;stroke-dasharray:none;stroke-dashoffset:0;stroke-opacity:1;display:inline"
       sodipodi:type="arc" />
    <path
       transform="matrix(0.452548,0,0,-0.53241,-3.519992,14.8145)"
       d="M 23.246135 9.9819622 A 1.1048543 0.93912619 0 1 1  21.036427,9.9819622 A 1.1048543 0.93912619 0 1 1  23.246135 9.9819622 z"
       sodipodi:ry="0.93912619"
       sodipodi:rx="1.1048543"
       sodipodi:cy="9.9819622"
       sodipodi:cx="22.141281"
       id="path2100"
       style="fill:#888a85;fill-opacity:1;stroke:none;stroke-width:1;stroke-linecap:round;stroke-linejoin:round;stroke-miterlimit:4;stroke-dasharray:none;stroke-dashoffset:0;stroke-opacity:1;display:inline"
       sodipodi:type="arc" />
    <path
       transform="matrix(0.452548,0,0,-0.53241,-3.519992,16.81449)"
       d="M 23.246135 9.9819622 A 1.1048543 0.93912619 0 1 1  21.036427,9.9819622 A 1.1048543 0.93912619 0 1 1  23.246135 9.9819622 z"
       sodipodi:ry="0.93912619"
       sodipodi:rx="1.1048543"
       sodipodi:cy="9.9819622"
       sodipodi:cx="22.141281"
       id="path2102"
       style="fill:#888a85;fill-opacity:1;stroke:none;stroke-width:1;stroke-linecap:round;stroke-linejoin:round;stroke-miterlimit:4;stroke-dasharray:none;stroke-dashoffset:0;stroke-opacity:1;display:inline"
       sodipodi:type="arc" />
    <path
       transform="matrix(0.452548,0,0,-0.53241,-3.519993,18.8145)"
       d="M 23.246135 9.9819622 A 1.1048543 0.93912619 0 1 1  21.036427,9.9819622 A 1.1048543 0.93912619 0 1 1  23.246135 9.9819622 z"
       sodipodi:ry="0.93912619"
       sodipodi:rx="1.1048543"
       sodipodi:cy="9.9819622"
       sodipodi:cx="22.141281"
       id="path2104"
       style="fill:#888a85;fill-opacity:1;stroke:none;stroke-width:1;stroke-linecap:round;stroke-linejoin:round;stroke-miterlimit:4;stroke-dasharray:none;stroke-dashoffset:0;stroke-opacity:1;display:inline"
       sodipodi:type="arc" />
    <path
       transform="matrix(0.452548,0,0,-0.53241,-3.519991,20.81449)"
       d="M 23.246135 9.9819622 A 1.1048543 0.93912619 0 1 1  21.036427,9.9819622 A 1.1048543 0.93912619 0 1 1  23.246135 9.9819622 z"
       sodipodi:ry="0.93912619"
       sodipodi:rx="1.1048543"
       sodipodi:cy="9.9819622"
       sodipodi:cx="22.141281"
       id="path2106"
       style="fill:#888a85;fill-opacity:1;stroke:none;stroke-width:1;stroke-linecap:round;stroke-linejoin:round;stroke-miterlimit:4;stroke-dasharray:none;stroke-dashoffset:0;stroke-opacity:1;display:inline"
       sodipodi:type="arc" />
    <path
       transform="matrix(0.452548,0,0,-0.53241,-3.519992,22.8145)"
       d="M 23.246135 9.9819622 A 1.1048543 0.93912619 0 1 1  21.036427,9.9819622 A 1.1048543 0.93912619 0 1 1  23.246135 9.9819622 z"
       sodipodi:ry="0.93912619"
       sodipodi:rx="1.1048543"
       sodipodi:cy="9.9819622"
       sodipodi:cx="22.141281"
       id="path2108"
       style="fill:#888a85;fill-opacity:1;stroke:none;stroke-width:1;stroke-linecap:round;stroke-linejoin:round;stroke-miterlimit:4;stroke-dasharray:none;stroke-dashoffset:0;stroke-opacity:1;display:inline"
       sodipodi:type="arc" />
    <path
       transform="matrix(0.452548,0,0,-0.53241,-3.519992,24.8145)"
       d="M 23.246135 9.9819622 A 1.1048543 0.93912619 0 1 1  21.036427,9.9819622 A 1.1048543 0.93912619 0 1 1  23.246135 9.9819622 z"
       sodipodi:ry="0.93912619"
       sodipodi:rx="1.1048543"
       sodipodi:cy="9.9819622"
       sodipodi:cx="22.141281"
       id="path2110"
       style="fill:#888a85;fill-opacity:1;stroke:none;stroke-width:1;stroke-linecap:round;stroke-linejoin:round;stroke-miterlimit:4;stroke-dasharray:none;stroke-dashoffset:0;stroke-opacity:1;display:inline"
       sodipodi:type="arc" />
    <path
       transform="matrix(0.452548,0,0,-0.53241,-3.519993,26.81451)"
       d="M 23.246135 9.9819622 A 1.1048543 0.93912619 0 1 1  21.036427,9.9819622 A 1.1048543 0.93912619 0 1 1  23.246135 9.9819622 z"
       sodipodi:ry="0.93912619"
       sodipodi:rx="1.1048543"
       sodipodi:cy="9.9819622"
       sodipodi:cx="22.141281"
       id="path2112"
       style="fill:#888a85;fill-opacity:1;stroke:none;stroke-width:1;stroke-linecap:round;stroke-linejoin:round;stroke-miterlimit:4;stroke-dasharray:none;stroke-dashoffset:0;stroke-opacity:1;display:inline"
       sodipodi:type="arc" />
    <path
       transform="matrix(0.452548,0,0,-0.53241,-3.519991,28.8145)"
       d="M 23.246135 9.9819622 A 1.1048543 0.93912619 0 1 1  21.036427,9.9819622 A 1.1048543 0.93912619 0 1 1  23.246135 9.9819622 z"
       sodipodi:ry="0.93912619"
       sodipodi:rx="1.1048543"
       sodipodi:cy="9.9819622"
       sodipodi:cx="22.141281"
       id="path2114"
       style="fill:#888a85;fill-opacity:1;stroke:none;stroke-width:1;stroke-linecap:round;stroke-linejoin:round;stroke-miterlimit:4;stroke-dasharray:none;stroke-dashoffset:0;stroke-opacity:1;display:inline"
       sodipodi:type="arc" />
    <path
       transform="matrix(0.452548,0,0,-0.53241,-3.519992,30.81451)"
       d="M 23.246135 9.9819622 A 1.1048543 0.93912619 0 1 1  21.036427,9.9819622 A 1.1048543 0.93912619 0 1 1  23.246135 9.9819622 z"
       sodipodi:ry="0.93912619"
       sodipodi:rx="1.1048543"
       sodipodi:cy="9.9819622"
       sodipodi:cx="22.141281"
       id="path2116"
       style="fill:#888a85;fill-opacity:1;stroke:none;stroke-width:1;stroke-linecap:round;stroke-linejoin:round;stroke-miterlimit:4;stroke-dasharray:none;stroke-dashoffset:0;stroke-opacity:1;display:inline"
       sodipodi:type="arc" />
    <path
       transform="matrix(0.452548,0,0,-0.53241,-3.519992,32.8145)"
       d="M 23.246135 9.9819622 A 1.1048543 0.93912619 0 1 1  21.036427,9.9819622 A 1.1048543 0.93912619 0 1 1  23.246135 9.9819622 z"
       sodipodi:ry="0.93912619"
       sodipodi:rx="1.1048543"
       sodipodi:cy="9.9819622"
       sodipodi:cx="22.141281"
       id="path2118"
       style="fill:#888a85;fill-opacity:1;stroke:none;stroke-width:1;stroke-linecap:round;stroke-linejoin:round;stroke-miterlimit:4;stroke-dasharray:none;stroke-dashoffset:0;stroke-opacity:1;display:inline"
       sodipodi:type="arc" />
  </g>
</svg>
