<?xml version="1.0" encoding="UTF-8" standalone="no"?>
<!-- Created with Inkscape (http://www.inkscape.org/) -->
<svg
   xmlns:dc="http://purl.org/dc/elements/1.1/"
   xmlns:cc="http://creativecommons.org/ns#"
   xmlns:rdf="http://www.w3.org/1999/02/22-rdf-syntax-ns#"
   xmlns:svg="http://www.w3.org/2000/svg"
   xmlns="http://www.w3.org/2000/svg"
   xmlns:xlink="http://www.w3.org/1999/xlink"
   xmlns:sodipodi="http://sodipodi.sourceforge.net/DTD/sodipodi-0.dtd"
   xmlns:inkscape="http://www.inkscape.org/namespaces/inkscape"
   width="32"
   height="32"
   id="svg249"
   sodipodi:version="0.32"
   inkscape:version="0.46"
   sodipodi:docbase="/home/lapo/Desktop/tango-icon-theme/32x32/mimetypes"
   sodipodi:docname="text-x-generic-template.svg"
   inkscape:export-filename="/home/jimmac/gfx/novell/pdes/trunk/docs/BIGmime-text.png"
   inkscape:export-xdpi="240.00000"
   inkscape:export-ydpi="240.00000"
   version="1.0"
   inkscape:output_extension="org.inkscape.output.svg.inkscape">
  <defs
     id="defs3">
    <inkscape:perspective
       sodipodi:type="inkscape:persp3d"
       inkscape:vp_x="0 : 16 : 1"
       inkscape:vp_y="0 : 1000 : 0"
       inkscape:vp_z="32 : 16 : 1"
       inkscape:persp3d-origin="16 : 10.666667 : 1"
       id="perspective104" />
    <linearGradient
       inkscape:collect="always"
       id="linearGradient5060">
      <stop
         style="stop-color:black;stop-opacity:1;"
         offset="0"
         id="stop5062" />
      <stop
         style="stop-color:black;stop-opacity:0;"
         offset="1"
         id="stop5064" />
    </linearGradient>
    <linearGradient
       id="linearGradient5048">
      <stop
         style="stop-color:black;stop-opacity:0;"
         offset="0"
         id="stop5050" />
      <stop
         id="stop5056"
         offset="0.5"
         style="stop-color:black;stop-opacity:1;" />
      <stop
         style="stop-color:black;stop-opacity:0;"
         offset="1"
         id="stop5052" />
    </linearGradient>
    <linearGradient
       id="linearGradient3531">
      <stop
         id="stop3533"
         offset="0.0000000"
         style="stop-color:#000000;stop-opacity:0.092783503;" />
      <stop
         id="stop3535"
         offset="1.0000000"
         style="stop-color:#000000;stop-opacity:0.0000000;" />
    </linearGradient>
    <linearGradient
       id="linearGradient3519">
      <stop
         style="stop-color:#ffffff;stop-opacity:1.0000000;"
         offset="0.0000000"
         id="stop3521" />
      <stop
         style="stop-color:#ffffff;stop-opacity:0.0000000;"
         offset="1.0000000"
         id="stop3523" />
    </linearGradient>
    <linearGradient
       id="linearGradient15662">
      <stop
         style="stop-color:#ffffff;stop-opacity:1.0000000;"
         offset="0.0000000"
         id="stop15664" />
      <stop
         style="stop-color:#f8f8f8;stop-opacity:1.0000000;"
         offset="1.0000000"
         id="stop15666" />
    </linearGradient>
    <linearGradient
       id="linearGradient269">
      <stop
         style="stop-color:#a3a3a3;stop-opacity:1.0000000;"
         offset="0.0000000"
         id="stop270" />
      <stop
         style="stop-color:#4c4c4c;stop-opacity:1.0000000;"
         offset="1.0000000"
         id="stop271" />
    </linearGradient>
    <linearGradient
       id="linearGradient259">
      <stop
         style="stop-color:#fafafa;stop-opacity:1.0000000;"
         offset="0.0000000"
         id="stop260" />
      <stop
         style="stop-color:#bbbbbb;stop-opacity:1.0000000;"
         offset="1.0000000"
         id="stop261" />
    </linearGradient>
    <radialGradient
       inkscape:collect="always"
       xlink:href="#linearGradient15662"
       id="radialGradient3114"
       gradientUnits="userSpaceOnUse"
       gradientTransform="matrix(0.620387,0,0,0.664961,2.73692,0.964787)"
       cx="8.1435566"
       cy="7.2678967"
       fx="8.1435566"
       fy="7.2678967"
       r="38.158695" />
    <radialGradient
       inkscape:collect="always"
       xlink:href="#linearGradient259"
       id="radialGradient3117"
       gradientUnits="userSpaceOnUse"
       gradientTransform="matrix(0.633443,0,0,0.686955,0.14497,9.4016e-2)"
       cx="33.966679"
       cy="35.736916"
       fx="33.966679"
       fy="35.736916"
       r="86.70845" />
    <radialGradient
       inkscape:collect="always"
       xlink:href="#linearGradient269"
       id="radialGradient3119"
       gradientUnits="userSpaceOnUse"
       gradientTransform="matrix(0.638574,0,0,0.681436,2.35663,0.520552)"
       cx="8.824419"
       cy="3.7561285"
       fx="8.824419"
       fy="3.7561285"
       r="37.751713" />
    <linearGradient
       inkscape:collect="always"
       xlink:href="#linearGradient5048"
       id="linearGradient3125"
       gradientUnits="userSpaceOnUse"
       gradientTransform="matrix(2.774389,0,0,1.969706,-1892.179,-872.8854)"
       x1="302.85715"
       y1="366.64789"
       x2="302.85715"
       y2="609.50507" />
    <radialGradient
       inkscape:collect="always"
       xlink:href="#linearGradient5060"
       id="radialGradient3127"
       gradientUnits="userSpaceOnUse"
       gradientTransform="matrix(2.774389,0,0,1.969706,-1891.633,-872.8854)"
       cx="605.71429"
       cy="486.64789"
       fx="605.71429"
       fy="486.64789"
       r="117.14286" />
    <radialGradient
       inkscape:collect="always"
       xlink:href="#linearGradient5060"
       id="radialGradient3129"
       gradientUnits="userSpaceOnUse"
       gradientTransform="matrix(-2.774389,0,0,1.969706,112.7623,-872.8854)"
       cx="605.71429"
       cy="486.64789"
       fx="605.71429"
       fy="486.64789"
       r="117.14286" />
    <linearGradient
       inkscape:collect="always"
       xlink:href="#linearGradient3531"
       id="linearGradient3132"
       gradientUnits="userSpaceOnUse"
       gradientTransform="matrix(-0.470786,0,0,0.972088,33.43367,0.722458)"
       x1="57.643562"
       y1="8.6012535"
       x2="39.081673"
       y2="20.9233" />
    <linearGradient
       inkscape:collect="always"
       xlink:href="#linearGradient3519"
       id="linearGradient3135"
       gradientUnits="userSpaceOnUse"
       gradientTransform="matrix(0.445697,0,0,0.97809,0,0.556499)"
       x1="57.643562"
       y1="8.6012535"
       x2="34.242393"
       y2="21.033955" />
  </defs>
  <sodipodi:namedview
     id="base"
     pagecolor="#ffffff"
     bordercolor="#666"
     borderopacity="1"
     inkscape:pageopacity="0.0"
     inkscape:pageshadow="2"
     inkscape:zoom="5.6568542"
     inkscape:cx="2.1551891"
     inkscape:cy="8.2524334"
     inkscape:current-layer="layer5"
     showgrid="false"
     inkscape:grid-bbox="true"
     inkscape:document-units="px"
     inkscape:window-width="1034"
     inkscape:window-height="768"
     inkscape:window-x="141"
     inkscape:window-y="30"
     inkscape:showpageshadow="false"
     width="32px"
     height="32px"
     showborder="false" />
  <metadata
     id="metadata4">
    <rdf:RDF>
      <cc:Work
         rdf:about="">
        <dc:format>image/svg+xml</dc:format>
        <dc:type
           rdf:resource="http://purl.org/dc/dcmitype/StillImage" />
        <dc:title>Document Template</dc:title>
        <dc:subject>
          <rdf:Bag>
            <rdf:li>template</rdf:li>
          </rdf:Bag>
        </dc:subject>
        <dc:creator>
          <cc:Agent>
            <dc:title>Jakub Steiner</dc:title>
          </cc:Agent>
        </dc:creator>
        <dc:source>http://jimmac.musichall.cz</dc:source>
        <cc:license
           rdf:resource="http://creativecommons.org/licenses/publicdomain/" />
      </cc:Work>
      <cc:License
         rdf:about="http://creativecommons.org/licenses/publicdomain/">
        <cc:permits
           rdf:resource="http://creativecommons.org/ns#Reproduction" />
        <cc:permits
           rdf:resource="http://creativecommons.org/ns#Distribution" />
        <cc:permits
           rdf:resource="http://creativecommons.org/ns#DerivativeWorks" />
      </cc:License>
    </rdf:RDF>
  </metadata>
  <g
     inkscape:label="Shadow"
     id="layer6"
     inkscape:groupmode="layer" />
  <g
     id="layer1"
     inkscape:label="Base"
     inkscape:groupmode="layer"
     style="display:inline" />
  <g
     style="display:inline"
     inkscape:label="Text"
     id="layer5"
     inkscape:groupmode="layer">
    <g
       transform="matrix(1.443435e-2,0,0,9.904958e-3,28.67175,28.45692)"
       id="g5022"
       style="display:inline">
      <rect
         style="opacity:0.40206185;color:black;fill:url(#linearGradient3125);fill-opacity:1;fill-rule:nonzero;stroke:none;stroke-width:1;stroke-linecap:round;stroke-linejoin:miter;marker:none;marker-start:none;marker-mid:none;marker-end:none;stroke-miterlimit:4;stroke-dasharray:none;stroke-dashoffset:0;stroke-opacity:1;visibility:visible;display:inline;overflow:visible"
         id="rect4173"
         width="1339.6335"
         height="478.35718"
         x="-1559.2523"
         y="-150.69685" />
      <path
         style="opacity:0.40206185;color:black;fill:url(#radialGradient3127);fill-opacity:1;fill-rule:nonzero;stroke:none;stroke-width:1;stroke-linecap:round;stroke-linejoin:miter;marker:none;marker-start:none;marker-mid:none;marker-end:none;stroke-miterlimit:4;stroke-dasharray:none;stroke-dashoffset:0;stroke-opacity:1;visibility:visible;display:inline;overflow:visible"
         d="M -219.61876,-150.68038 C -219.61876,-150.68038 -219.61876,327.65041 -219.61876,327.65041 C -76.744594,328.55086 125.78146,220.48075 125.78138,88.454235 C 125.78138,-43.572302 -33.655436,-150.68036 -219.61876,-150.68038 z "
         id="path5058"
         sodipodi:nodetypes="cccc" />
      <path
         sodipodi:nodetypes="cccc"
         id="path5018"
         d="M -1559.2523,-150.68038 C -1559.2523,-150.68038 -1559.2523,327.65041 -1559.2523,327.65041 C -1702.1265,328.55086 -1904.6525,220.48075 -1904.6525,88.454235 C -1904.6525,-43.572302 -1745.2157,-150.68036 -1559.2523,-150.68038 z "
         style="opacity:0.40206185;color:black;fill:url(#radialGradient3129);fill-opacity:1;fill-rule:nonzero;stroke:none;stroke-width:1;stroke-linecap:round;stroke-linejoin:miter;marker:none;marker-start:none;marker-mid:none;marker-end:none;stroke-miterlimit:4;stroke-dasharray:none;stroke-dashoffset:0;stroke-opacity:1;visibility:visible;display:inline;overflow:visible" />
    </g>
    <rect
       rx="1.3831608"
       style="color:black;fill:url(#radialGradient3117);fill-opacity:1;fill-rule:nonzero;stroke:url(#radialGradient3119);stroke-width:1.0000006;stroke-linecap:round;stroke-linejoin:round;marker:none;marker-start:none;marker-mid:none;marker-end:none;stroke-miterlimit:4;stroke-dashoffset:0;stroke-opacity:1;visibility:visible;display:block;overflow:visible"
       id="rect3059"
       width="22.999994"
       height="27.000002"
       x="4.5"
       y="2.5"
       ry="1.3831608" />
    <g
       id="g3405"
       transform="matrix(0.666667,0,0,0.666667,-0.76603,0)">
      <path
         d="M 26.339728 8.5787964 A 1.1490486 1.1490486 0 1 1  24.041631,8.5787964 A 1.1490486 1.1490486 0 1 1  26.339728 8.5787964 z"
         sodipodi:ry="1.1490486"
         sodipodi:rx="1.1490486"
         sodipodi:cy="8.5787964"
         sodipodi:cx="25.19068"
         id="path3401"
         style="fill:white;fill-opacity:1"
         sodipodi:type="arc" />
      <path
         transform="translate(-0.353553,-0.265165)"
         sodipodi:type="arc"
         style="fill:black;fill-opacity:0.11111109"
         id="path3403"
         sodipodi:cx="25.19068"
         sodipodi:cy="8.5787964"
         sodipodi:rx="1.1490486"
         sodipodi:ry="1.1490486"
         d="M 26.339728 8.5787964 A 1.1490486 1.1490486 0 1 1  24.041631,8.5787964 A 1.1490486 1.1490486 0 1 1  26.339728 8.5787964 z" />
    </g>
    <g
       id="g3409"
       transform="matrix(0.666667,0,0,0.666667,-0.76603,2.666668)">
      <path
         sodipodi:type="arc"
         style="fill:white;fill-opacity:1"
         id="path3411"
         sodipodi:cx="25.19068"
         sodipodi:cy="8.5787964"
         sodipodi:rx="1.1490486"
         sodipodi:ry="1.1490486"
         d="M 26.339728 8.5787964 A 1.1490486 1.1490486 0 1 1  24.041631,8.5787964 A 1.1490486 1.1490486 0 1 1  26.339728 8.5787964 z" />
      <path
         d="M 26.339728 8.5787964 A 1.1490486 1.1490486 0 1 1  24.041631,8.5787964 A 1.1490486 1.1490486 0 1 1  26.339728 8.5787964 z"
         sodipodi:ry="1.1490486"
         sodipodi:rx="1.1490486"
         sodipodi:cy="8.5787964"
         sodipodi:cx="25.19068"
         id="path3413"
         style="fill:black;fill-opacity:0.11111109"
         sodipodi:type="arc"
         transform="translate(-0.353553,-0.265165)" />
    </g>
    <g
       transform="matrix(0.666667,0,0,0.666667,-0.76603,5.333336)"
       id="g3415">
      <path
         d="M 26.339728 8.5787964 A 1.1490486 1.1490486 0 1 1  24.041631,8.5787964 A 1.1490486 1.1490486 0 1 1  26.339728 8.5787964 z"
         sodipodi:ry="1.1490486"
         sodipodi:rx="1.1490486"
         sodipodi:cy="8.5787964"
         sodipodi:cx="25.19068"
         id="path3417"
         style="fill:white;fill-opacity:1"
         sodipodi:type="arc" />
      <path
         transform="translate(-0.353553,-0.265165)"
         sodipodi:type="arc"
         style="fill:black;fill-opacity:0.11111109"
         id="path3419"
         sodipodi:cx="25.19068"
         sodipodi:cy="8.5787964"
         sodipodi:rx="1.1490486"
         sodipodi:ry="1.1490486"
         d="M 26.339728 8.5787964 A 1.1490486 1.1490486 0 1 1  24.041631,8.5787964 A 1.1490486 1.1490486 0 1 1  26.339728 8.5787964 z" />
    </g>
    <g
       id="g3421"
       transform="matrix(0.666667,0,0,0.666667,-0.76603,8.000004)">
      <path
         sodipodi:type="arc"
         style="fill:white;fill-opacity:1"
         id="path3423"
         sodipodi:cx="25.19068"
         sodipodi:cy="8.5787964"
         sodipodi:rx="1.1490486"
         sodipodi:ry="1.1490486"
         d="M 26.339728 8.5787964 A 1.1490486 1.1490486 0 1 1  24.041631,8.5787964 A 1.1490486 1.1490486 0 1 1  26.339728 8.5787964 z" />
      <path
         d="M 26.339728 8.5787964 A 1.1490486 1.1490486 0 1 1  24.041631,8.5787964 A 1.1490486 1.1490486 0 1 1  26.339728 8.5787964 z"
         sodipodi:ry="1.1490486"
         sodipodi:rx="1.1490486"
         sodipodi:cy="8.5787964"
         sodipodi:cx="25.19068"
         id="path3425"
         style="fill:black;fill-opacity:0.11111109"
         sodipodi:type="arc"
         transform="translate(-0.353553,-0.265165)" />
    </g>
    <g
       transform="matrix(0.666667,0,0,0.666667,-0.76603,10.66667)"
       id="g3427">
      <path
         d="M 26.339728 8.5787964 A 1.1490486 1.1490486 0 1 1  24.041631,8.5787964 A 1.1490486 1.1490486 0 1 1  26.339728 8.5787964 z"
         sodipodi:ry="1.1490486"
         sodipodi:rx="1.1490486"
         sodipodi:cy="8.5787964"
         sodipodi:cx="25.19068"
         id="path3429"
         style="fill:white;fill-opacity:1"
         sodipodi:type="arc" />
      <path
         transform="translate(-0.353553,-0.265165)"
         sodipodi:type="arc"
         style="fill:black;fill-opacity:0.11111109"
         id="path3431"
         sodipodi:cx="25.19068"
         sodipodi:cy="8.5787964"
         sodipodi:rx="1.1490486"
         sodipodi:ry="1.1490486"
         d="M 26.339728 8.5787964 A 1.1490486 1.1490486 0 1 1  24.041631,8.5787964 A 1.1490486 1.1490486 0 1 1  26.339728 8.5787964 z" />
    </g>
    <g
       id="g3433"
       transform="matrix(0.666667,0,0,0.666667,-0.76603,13.33334)">
      <path
         sodipodi:type="arc"
         style="fill:white;fill-opacity:1"
         id="path3435"
         sodipodi:cx="25.19068"
         sodipodi:cy="8.5787964"
         sodipodi:rx="1.1490486"
         sodipodi:ry="1.1490486"
         d="M 26.339728 8.5787964 A 1.1490486 1.1490486 0 1 1  24.041631,8.5787964 A 1.1490486 1.1490486 0 1 1  26.339728 8.5787964 z" />
      <path
         d="M 26.339728 8.5787964 A 1.1490486 1.1490486 0 1 1  24.041631,8.5787964 A 1.1490486 1.1490486 0 1 1  26.339728 8.5787964 z"
         sodipodi:ry="1.1490486"
         sodipodi:rx="1.1490486"
         sodipodi:cy="8.5787964"
         sodipodi:cx="25.19068"
         id="path3437"
         style="fill:black;fill-opacity:0.11111109"
         sodipodi:type="arc"
         transform="translate(-0.353553,-0.265165)" />
    </g>
    <g
       transform="matrix(0.666667,0,0,0.666667,-0.76603,16.00001)"
       id="g3439">
      <path
         d="M 26.339728 8.5787964 A 1.1490486 1.1490486 0 1 1  24.041631,8.5787964 A 1.1490486 1.1490486 0 1 1  26.339728 8.5787964 z"
         sodipodi:ry="1.1490486"
         sodipodi:rx="1.1490486"
         sodipodi:cy="8.5787964"
         sodipodi:cx="25.19068"
         id="path3441"
         style="fill:white;fill-opacity:1"
         sodipodi:type="arc" />
      <path
         transform="translate(-0.353553,-0.265165)"
         sodipodi:type="arc"
         style="fill:black;fill-opacity:0.11111109"
         id="path3443"
         sodipodi:cx="25.19068"
         sodipodi:cy="8.5787964"
         sodipodi:rx="1.1490486"
         sodipodi:ry="1.1490486"
         d="M 26.339728 8.5787964 A 1.1490486 1.1490486 0 1 1  24.041631,8.5787964 A 1.1490486 1.1490486 0 1 1  26.339728 8.5787964 z" />
    </g>
    <g
       id="g3445"
       transform="matrix(0.666667,0,0,0.666667,-0.76603,18.66668)">
      <path
         sodipodi:type="arc"
         style="fill:white;fill-opacity:1"
         id="path3447"
         sodipodi:cx="25.19068"
         sodipodi:cy="8.5787964"
         sodipodi:rx="1.1490486"
         sodipodi:ry="1.1490486"
         d="M 26.339728 8.5787964 A 1.1490486 1.1490486 0 1 1  24.041631,8.5787964 A 1.1490486 1.1490486 0 1 1  26.339728 8.5787964 z" />
      <path
         d="M 26.339728 8.5787964 A 1.1490486 1.1490486 0 1 1  24.041631,8.5787964 A 1.1490486 1.1490486 0 1 1  26.339728 8.5787964 z"
         sodipodi:ry="1.1490486"
         sodipodi:rx="1.1490486"
         sodipodi:cy="8.5787964"
         sodipodi:cx="25.19068"
         id="path3449"
         style="fill:black;fill-opacity:0.11111109"
         sodipodi:type="arc"
         transform="translate(-0.353553,-0.265165)" />
    </g>
    <g
       transform="matrix(0.666667,0,0,0.666667,-0.76603,21.33334)"
       id="g3451">
      <path
         d="M 26.339728 8.5787964 A 1.1490486 1.1490486 0 1 1  24.041631,8.5787964 A 1.1490486 1.1490486 0 1 1  26.339728 8.5787964 z"
         sodipodi:ry="1.1490486"
         sodipodi:rx="1.1490486"
         sodipodi:cy="8.5787964"
         sodipodi:cx="25.19068"
         id="path3453"
         style="fill:white;fill-opacity:1"
         sodipodi:type="arc" />
      <path
         transform="translate(-0.353553,-0.265165)"
         sodipodi:type="arc"
         style="fill:black;fill-opacity:0.11111109"
         id="path3455"
         sodipodi:cx="25.19068"
         sodipodi:cy="8.5787964"
         sodipodi:rx="1.1490486"
         sodipodi:ry="1.1490486"
         d="M 26.339728 8.5787964 A 1.1490486 1.1490486 0 1 1  24.041631,8.5787964 A 1.1490486 1.1490486 0 1 1  26.339728 8.5787964 z" />
    </g>
    <g
       id="g3457"
       transform="matrix(0.666667,0,0,0.666667,-2.335065,4.000002)">
      <path
         sodipodi:type="arc"
         style="fill:white;fill-opacity:1"
         id="path3459"
         sodipodi:cx="25.19068"
         sodipodi:cy="8.5787964"
         sodipodi:rx="1.1490486"
         sodipodi:ry="1.1490486"
         d="M 26.339728 8.5787964 A 1.1490486 1.1490486 0 1 1  24.041631,8.5787964 A 1.1490486 1.1490486 0 1 1  26.339728 8.5787964 z" />
      <path
         d="M 26.339728 8.5787964 A 1.1490486 1.1490486 0 1 1  24.041631,8.5787964 A 1.1490486 1.1490486 0 1 1  26.339728 8.5787964 z"
         sodipodi:ry="1.1490486"
         sodipodi:rx="1.1490486"
         sodipodi:cy="8.5787964"
         sodipodi:cx="25.19068"
         id="path3461"
         style="fill:black;fill-opacity:0.11111109"
         sodipodi:type="arc"
         transform="translate(-0.353553,-0.265165)" />
    </g>
    <g
       transform="matrix(0.666667,0,0,0.666667,0.803006,4.000002)"
       id="g3463">
      <path
         d="M 26.339728 8.5787964 A 1.1490486 1.1490486 0 1 1  24.041631,8.5787964 A 1.1490486 1.1490486 0 1 1  26.339728 8.5787964 z"
         sodipodi:ry="1.1490486"
         sodipodi:rx="1.1490486"
         sodipodi:cy="8.5787964"
         sodipodi:cx="25.19068"
         id="path3465"
         style="fill:white;fill-opacity:1"
         sodipodi:type="arc" />
      <path
         transform="translate(-0.353553,-0.265165)"
         sodipodi:type="arc"
         style="fill:black;fill-opacity:0.11111109"
         id="path3467"
         sodipodi:cx="25.19068"
         sodipodi:cy="8.5787964"
         sodipodi:rx="1.1490486"
         sodipodi:ry="1.1490486"
         d="M 26.339728 8.5787964 A 1.1490486 1.1490486 0 1 1  24.041631,8.5787964 A 1.1490486 1.1490486 0 1 1  26.339728 8.5787964 z" />
    </g>
    <g
       id="g3469"
       transform="matrix(0.666667,0,0,0.666667,2.13634,8.000004)">
      <path
         sodipodi:type="arc"
         style="fill:white;fill-opacity:1"
         id="path3471"
         sodipodi:cx="25.19068"
         sodipodi:cy="8.5787964"
         sodipodi:rx="1.1490486"
         sodipodi:ry="1.1490486"
         d="M 26.339728 8.5787964 A 1.1490486 1.1490486 0 1 1  24.041631,8.5787964 A 1.1490486 1.1490486 0 1 1  26.339728 8.5787964 z" />
      <path
         d="M 26.339728 8.5787964 A 1.1490486 1.1490486 0 1 1  24.041631,8.5787964 A 1.1490486 1.1490486 0 1 1  26.339728 8.5787964 z"
         sodipodi:ry="1.1490486"
         sodipodi:rx="1.1490486"
         sodipodi:cy="8.5787964"
         sodipodi:cx="25.19068"
         id="path3473"
         style="fill:black;fill-opacity:0.11111109"
         sodipodi:type="arc"
         transform="translate(-0.353553,-0.265165)" />
    </g>
    <g
       transform="matrix(0.666667,0,0,0.666667,3.469674,12.00001)"
       id="g3475">
      <path
         d="M 26.339728 8.5787964 A 1.1490486 1.1490486 0 1 1  24.041631,8.5787964 A 1.1490486 1.1490486 0 1 1  26.339728 8.5787964 z"
         sodipodi:ry="1.1490486"
         sodipodi:rx="1.1490486"
         sodipodi:cy="8.5787964"
         sodipodi:cx="25.19068"
         id="path3477"
         style="fill:white;fill-opacity:1"
         sodipodi:type="arc" />
      <path
         transform="translate(-0.353553,-0.265165)"
         sodipodi:type="arc"
         style="fill:black;fill-opacity:0.11111109"
         id="path3479"
         sodipodi:cx="25.19068"
         sodipodi:cy="8.5787964"
         sodipodi:rx="1.1490486"
         sodipodi:ry="1.1490486"
         d="M 26.339728 8.5787964 A 1.1490486 1.1490486 0 1 1  24.041631,8.5787964 A 1.1490486 1.1490486 0 1 1  26.339728 8.5787964 z" />
    </g>
    <g
       id="g3481"
       transform="matrix(0.666667,0,0,0.666667,4.803008,16.00001)">
      <path
         sodipodi:type="arc"
         style="fill:white;fill-opacity:1"
         id="path3483"
         sodipodi:cx="25.19068"
         sodipodi:cy="8.5787964"
         sodipodi:rx="1.1490486"
         sodipodi:ry="1.1490486"
         d="M 26.339728 8.5787964 A 1.1490486 1.1490486 0 1 1  24.041631,8.5787964 A 1.1490486 1.1490486 0 1 1  26.339728 8.5787964 z" />
      <path
         d="M 26.339728 8.5787964 A 1.1490486 1.1490486 0 1 1  24.041631,8.5787964 A 1.1490486 1.1490486 0 1 1  26.339728 8.5787964 z"
         sodipodi:ry="1.1490486"
         sodipodi:rx="1.1490486"
         sodipodi:cy="8.5787964"
         sodipodi:cx="25.19068"
         id="path3485"
         style="fill:black;fill-opacity:0.11111109"
         sodipodi:type="arc"
         transform="translate(-0.353553,-0.265165)" />
    </g>
    <g
       transform="matrix(0.666667,0,0,0.666667,6.136324,20.00001)"
       id="g3487">
      <path
         d="M 26.339728 8.5787964 A 1.1490486 1.1490486 0 1 1  24.041631,8.5787964 A 1.1490486 1.1490486 0 1 1  26.339728 8.5787964 z"
         sodipodi:ry="1.1490486"
         sodipodi:rx="1.1490486"
         sodipodi:cy="8.5787964"
         sodipodi:cx="25.19068"
         id="path3489"
         style="fill:white;fill-opacity:1"
         sodipodi:type="arc" />
      <path
         transform="translate(-0.353553,-0.265165)"
         sodipodi:type="arc"
         style="fill:black;fill-opacity:0.11111109"
         id="path3491"
         sodipodi:cx="25.19068"
         sodipodi:cy="8.5787964"
         sodipodi:rx="1.1490486"
         sodipodi:ry="1.1490486"
         d="M 26.339728 8.5787964 A 1.1490486 1.1490486 0 1 1  24.041631,8.5787964 A 1.1490486 1.1490486 0 1 1  26.339728 8.5787964 z" />
    </g>
    <g
       transform="matrix(0.666667,0,0,0.666667,-3.668414,8.000004)"
       id="g3493">
      <path
         d="M 26.339728 8.5787964 A 1.1490486 1.1490486 0 1 1  24.041631,8.5787964 A 1.1490486 1.1490486 0 1 1  26.339728 8.5787964 z"
         sodipodi:ry="1.1490486"
         sodipodi:rx="1.1490486"
         sodipodi:cy="8.5787964"
         sodipodi:cx="25.19068"
         id="path3495"
         style="fill:white;fill-opacity:1"
         sodipodi:type="arc" />
      <path
         transform="translate(-0.353553,-0.265165)"
         sodipodi:type="arc"
         style="fill:black;fill-opacity:0.11111109"
         id="path3497"
         sodipodi:cx="25.19068"
         sodipodi:cy="8.5787964"
         sodipodi:rx="1.1490486"
         sodipodi:ry="1.1490486"
         d="M 26.339728 8.5787964 A 1.1490486 1.1490486 0 1 1  24.041631,8.5787964 A 1.1490486 1.1490486 0 1 1  26.339728 8.5787964 z" />
    </g>
    <g
       id="g3499"
       transform="matrix(0.666667,0,0,0.666667,-5.001748,12.00001)">
      <path
         sodipodi:type="arc"
         style="fill:white;fill-opacity:1"
         id="path3501"
         sodipodi:cx="25.19068"
         sodipodi:cy="8.5787964"
         sodipodi:rx="1.1490486"
         sodipodi:ry="1.1490486"
         d="M 26.339728 8.5787964 A 1.1490486 1.1490486 0 1 1  24.041631,8.5787964 A 1.1490486 1.1490486 0 1 1  26.339728 8.5787964 z" />
      <path
         d="M 26.339728 8.5787964 A 1.1490486 1.1490486 0 1 1  24.041631,8.5787964 A 1.1490486 1.1490486 0 1 1  26.339728 8.5787964 z"
         sodipodi:ry="1.1490486"
         sodipodi:rx="1.1490486"
         sodipodi:cy="8.5787964"
         sodipodi:cx="25.19068"
         id="path3503"
         style="fill:black;fill-opacity:0.11111109"
         sodipodi:type="arc"
         transform="translate(-0.353553,-0.265165)" />
    </g>
    <g
       transform="matrix(0.666667,0,0,0.666667,-6.335085,16.00001)"
       id="g3505">
      <path
         d="M 26.339728 8.5787964 A 1.1490486 1.1490486 0 1 1  24.041631,8.5787964 A 1.1490486 1.1490486 0 1 1  26.339728 8.5787964 z"
         sodipodi:ry="1.1490486"
         sodipodi:rx="1.1490486"
         sodipodi:cy="8.5787964"
         sodipodi:cx="25.19068"
         id="path3507"
         style="fill:white;fill-opacity:1"
         sodipodi:type="arc" />
      <path
         transform="translate(-0.353553,-0.265165)"
         sodipodi:type="arc"
         style="fill:black;fill-opacity:0.11111109"
         id="path3509"
         sodipodi:cx="25.19068"
         sodipodi:cy="8.5787964"
         sodipodi:rx="1.1490486"
         sodipodi:ry="1.1490486"
         d="M 26.339728 8.5787964 A 1.1490486 1.1490486 0 1 1  24.041631,8.5787964 A 1.1490486 1.1490486 0 1 1  26.339728 8.5787964 z" />
    </g>
    <g
       id="g3511"
       transform="matrix(0.666667,0,0,0.666667,-7.668424,20.00001)">
      <path
         sodipodi:type="arc"
         style="fill:white;fill-opacity:1"
         id="path3513"
         sodipodi:cx="25.19068"
         sodipodi:cy="8.5787964"
         sodipodi:rx="1.1490486"
         sodipodi:ry="1.1490486"
         d="M 26.339728 8.5787964 A 1.1490486 1.1490486 0 1 1  24.041631,8.5787964 A 1.1490486 1.1490486 0 1 1  26.339728 8.5787964 z" />
      <path
         d="M 26.339728 8.5787964 A 1.1490486 1.1490486 0 1 1  24.041631,8.5787964 A 1.1490486 1.1490486 0 1 1  26.339728 8.5787964 z"
         sodipodi:ry="1.1490486"
         sodipodi:rx="1.1490486"
         sodipodi:cy="8.5787964"
         sodipodi:cx="25.19068"
         id="path3515"
         style="fill:black;fill-opacity:0.11111109"
         sodipodi:type="arc"
         transform="translate(-0.353553,-0.265165)" />
    </g>
    <path
       style="fill:url(#linearGradient3135);fill-opacity:1;fill-rule:evenodd;stroke:none;stroke-width:1px;stroke-linecap:butt;stroke-linejoin:miter;stroke-opacity:1"
       d="M 15.261729,3.7386825 L 23.982717,29.053737 L 26.928997,28.995939 L 26.870071,3.4496978 L 15.261729,3.7386825 z "
       id="path3517" />
    <path
       id="path3527"
       d="M 16.50366,4.0000001 L 7.167265,28.700183 L 5.3622291,28.700182 L 5.3622288,4 L 16.50366,4.0000001 z "
       style="fill:url(#linearGradient3132);fill-opacity:1;fill-rule:evenodd;stroke:none;stroke-width:1px;stroke-linecap:butt;stroke-linejoin:miter;stroke-opacity:1"
       sodipodi:nodetypes="ccccc" />
    <rect
       style="color:black;fill:none;fill-opacity:1;fill-rule:nonzero;stroke:url(#radialGradient3114);stroke-width:1.00000072;stroke-linecap:round;stroke-linejoin:round;marker:none;marker-start:none;marker-mid:none;marker-end:none;stroke-miterlimit:4;stroke-dashoffset:0;stroke-opacity:1;visibility:visible;display:block;overflow:visible"
       id="rect3061"
       width="20.999998"
       height="25.076162"
       x="5.5000019"
       y="3.5"
       ry="0.095966958"
       rx="0.095497638" />
  </g>
</svg>
