<?xml version="1.0" encoding="UTF-8" standalone="no"?>
<!-- Created with Inkscape (http://www.inkscape.org/) -->
<svg
   xmlns:dc="http://purl.org/dc/elements/1.1/"
   xmlns:cc="http://creativecommons.org/ns#"
   xmlns:rdf="http://www.w3.org/1999/02/22-rdf-syntax-ns#"
   xmlns:svg="http://www.w3.org/2000/svg"
   xmlns="http://www.w3.org/2000/svg"
   xmlns:xlink="http://www.w3.org/1999/xlink"
   xmlns:sodipodi="http://sodipodi.sourceforge.net/DTD/sodipodi-0.dtd"
   xmlns:inkscape="http://www.inkscape.org/namespaces/inkscape"
   width="32"
   height="32"
   id="svg249"
   sodipodi:version="0.32"
   inkscape:version="0.46"
   sodipodi:docbase="/home/lapo/Desktop/tango-icon-theme/32x32/mimetypes"
   sodipodi:docname="x-office-document.svg"
   inkscape:export-filename="/home/jimmac/gfx/novell/pdes/trunk/docs/BIGmime-text.png"
   inkscape:export-xdpi="240.00000"
   inkscape:export-ydpi="240.00000"
   version="1.0"
   inkscape:output_extension="org.inkscape.output.svg.inkscape">
  <defs
     id="defs3">
    <inkscape:perspective
       sodipodi:type="inkscape:persp3d"
       inkscape:vp_x="0 : 16 : 1"
       inkscape:vp_y="0 : 1000 : 0"
       inkscape:vp_z="32 : 16 : 1"
       inkscape:persp3d-origin="16 : 10.666667 : 1"
       id="perspective78" />
    <radialGradient
       inkscape:collect="always"
       xlink:href="#linearGradient5060"
       id="radialGradient5031"
       gradientUnits="userSpaceOnUse"
       gradientTransform="matrix(-2.774389,0,0,1.969706,112.7623,-872.8854)"
       cx="605.71429"
       cy="486.64789"
       fx="605.71429"
       fy="486.64789"
       r="117.14286" />
    <linearGradient
       inkscape:collect="always"
       id="linearGradient5060">
      <stop
         style="stop-color:black;stop-opacity:1;"
         offset="0"
         id="stop5062" />
      <stop
         style="stop-color:black;stop-opacity:0;"
         offset="1"
         id="stop5064" />
    </linearGradient>
    <radialGradient
       inkscape:collect="always"
       xlink:href="#linearGradient5060"
       id="radialGradient5029"
       gradientUnits="userSpaceOnUse"
       gradientTransform="matrix(2.774389,0,0,1.969706,-1891.633,-872.8854)"
       cx="605.71429"
       cy="486.64789"
       fx="605.71429"
       fy="486.64789"
       r="117.14286" />
    <linearGradient
       id="linearGradient5048">
      <stop
         style="stop-color:black;stop-opacity:0;"
         offset="0"
         id="stop5050" />
      <stop
         id="stop5056"
         offset="0.5"
         style="stop-color:black;stop-opacity:1;" />
      <stop
         style="stop-color:black;stop-opacity:0;"
         offset="1"
         id="stop5052" />
    </linearGradient>
    <linearGradient
       inkscape:collect="always"
       xlink:href="#linearGradient5048"
       id="linearGradient5027"
       gradientUnits="userSpaceOnUse"
       gradientTransform="matrix(2.774389,0,0,1.969706,-1892.179,-872.8854)"
       x1="302.85715"
       y1="366.64789"
       x2="302.85715"
       y2="609.50507" />
    <linearGradient
       id="linearGradient15662">
      <stop
         style="stop-color:#ffffff;stop-opacity:1.0000000;"
         offset="0.0000000"
         id="stop15664" />
      <stop
         style="stop-color:#f8f8f8;stop-opacity:1.0000000;"
         offset="1.0000000"
         id="stop15666" />
    </linearGradient>
    <radialGradient
       gradientUnits="userSpaceOnUse"
       fy="64.567902"
       fx="20.892099"
       r="5.257"
       cy="64.567902"
       cx="20.892099"
       id="aigrd3">
      <stop
         id="stop15573"
         style="stop-color:#F0F0F0"
         offset="0" />
      <stop
         id="stop15575"
         style="stop-color:#9a9a9a;stop-opacity:1.0000000;"
         offset="1.0000000" />
    </radialGradient>
    <radialGradient
       gradientUnits="userSpaceOnUse"
       fy="114.5684"
       fx="20.892099"
       r="5.256"
       cy="114.5684"
       cx="20.892099"
       id="aigrd2">
      <stop
         id="stop15566"
         style="stop-color:#F0F0F0"
         offset="0" />
      <stop
         id="stop15568"
         style="stop-color:#9a9a9a;stop-opacity:1.0000000;"
         offset="1.0000000" />
    </radialGradient>
    <linearGradient
       id="linearGradient269">
      <stop
         style="stop-color:#a3a3a3;stop-opacity:1.0000000;"
         offset="0.0000000"
         id="stop270" />
      <stop
         style="stop-color:#4c4c4c;stop-opacity:1.0000000;"
         offset="1.0000000"
         id="stop271" />
    </linearGradient>
    <linearGradient
       id="linearGradient259">
      <stop
         style="stop-color:#fafafa;stop-opacity:1.0000000;"
         offset="0.0000000"
         id="stop260" />
      <stop
         style="stop-color:#bbbbbb;stop-opacity:1.0000000;"
         offset="1.0000000"
         id="stop261" />
    </linearGradient>
    <radialGradient
       inkscape:collect="always"
       xlink:href="#linearGradient15662"
       id="radialGradient2875"
       gradientUnits="userSpaceOnUse"
       gradientTransform="matrix(0.620387,0,0,0.664961,2.736919,0.964787)"
       cx="8.1435566"
       cy="7.2678967"
       fx="8.1435566"
       fy="7.2678967"
       r="38.158695" />
    <radialGradient
       inkscape:collect="always"
       xlink:href="#linearGradient259"
       id="radialGradient2878"
       gradientUnits="userSpaceOnUse"
       gradientTransform="matrix(0.633443,0,0,0.686955,0.144969,9.40158e-2)"
       cx="33.966679"
       cy="35.736916"
       fx="33.966679"
       fy="35.736916"
       r="86.70845" />
    <radialGradient
       inkscape:collect="always"
       xlink:href="#linearGradient269"
       id="radialGradient2880"
       gradientUnits="userSpaceOnUse"
       gradientTransform="matrix(0.638574,0,0,0.681436,2.35663,0.520552)"
       cx="8.824419"
       cy="3.7561285"
       fx="8.824419"
       fy="3.7561285"
       r="37.751713" />
    <radialGradient
       inkscape:collect="always"
       xlink:href="#aigrd3"
       id="radialGradient2925"
       gradientUnits="userSpaceOnUse"
       gradientTransform="matrix(0.139938,0,0,0.139938,4.721523,2.674087)"
       cx="20.892099"
       cy="64.567902"
       fx="20.892099"
       fy="64.567902"
       r="5.257" />
    <radialGradient
       inkscape:collect="always"
       xlink:href="#aigrd2"
       id="radialGradient2928"
       gradientUnits="userSpaceOnUse"
       gradientTransform="matrix(0.139938,0,0,0.139958,4.721523,4.675025)"
       cx="20.892099"
       cy="114.5684"
       fx="20.892099"
       fy="114.5684"
       r="5.256" />
    <linearGradient
       style="stroke-dasharray:none;stroke-miterlimit:4.0000000;stroke-width:1.2166667"
       y2="7.1091"
       x2="21.9326"
       y1="24.6274"
       x1="21.9326"
       gradientUnits="userSpaceOnUse"
       id="linearGradient7648">
      <stop
         id="stop7650"
         style="stop-color:#8595bc;stop-opacity:1;"
         offset="0" />
      <stop
         id="stop7652"
         style="stop-color:#041a3b;stop-opacity:1;"
         offset="1" />
    </linearGradient>
    <linearGradient
       inkscape:collect="always"
       xlink:href="#linearGradient7648"
       id="linearGradient2173"
       gradientUnits="userSpaceOnUse"
       gradientTransform="matrix(1.098989,0,0,-0.797757,-1.953865,37.324)"
       x1="21.9326"
       y1="24.627399"
       x2="21.9326"
       y2="7.1090999" />
  </defs>
  <sodipodi:namedview
     id="base"
     pagecolor="#ffffff"
     bordercolor="#666"
     borderopacity="1"
     inkscape:pageopacity="0.0"
     inkscape:pageshadow="2"
     inkscape:zoom="8"
     inkscape:cx="6.846095"
     inkscape:cy="8.7588298"
     inkscape:current-layer="layer4"
     showgrid="false"
     inkscape:grid-bbox="true"
     inkscape:document-units="px"
     inkscape:window-width="1036"
     inkscape:window-height="688"
     inkscape:window-x="173"
     inkscape:window-y="160"
     inkscape:showpageshadow="false"
     width="32px"
     height="32px"
     showguides="true"
     inkscape:guide-bbox="true"
     showborder="false" />
  <metadata
     id="metadata4">
    <rdf:RDF>
      <cc:Work
         rdf:about="">
        <dc:format>image/svg+xml</dc:format>
        <dc:type
           rdf:resource="http://purl.org/dc/dcmitype/StillImage" />
        <dc:title>New Document</dc:title>
        <dc:creator>
          <cc:Agent>
            <dc:title>Jakub Steiner</dc:title>
          </cc:Agent>
        </dc:creator>
        <dc:source>http://jimmac.musichall.cz</dc:source>
        <cc:license
           rdf:resource="http://creativecommons.org/licenses/publicdomain/" />
      </cc:Work>
      <cc:License
         rdf:about="http://creativecommons.org/licenses/publicdomain/">
        <cc:permits
           rdf:resource="http://creativecommons.org/ns#Reproduction" />
        <cc:permits
           rdf:resource="http://creativecommons.org/ns#Distribution" />
        <cc:permits
           rdf:resource="http://creativecommons.org/ns#DerivativeWorks" />
      </cc:License>
    </rdf:RDF>
  </metadata>
  <g
     inkscape:label="Shadow"
     id="layer6"
     inkscape:groupmode="layer" />
  <g
     id="layer1"
     inkscape:label="Base"
     inkscape:groupmode="layer"
     style="display:inline" />
  <g
     inkscape:groupmode="layer"
     id="layer4"
     inkscape:label="new"
     style="display:inline">
    <g
       style="display:inline"
       id="g5022"
       transform="matrix(1.443435e-2,0,0,9.904958e-3,28.67175,28.45692)">
      <rect
         y="-150.69685"
         x="-1559.2523"
         height="478.35718"
         width="1339.6335"
         id="rect4173"
         style="opacity:0.40206185;color:black;fill:url(#linearGradient5027);fill-opacity:1;fill-rule:nonzero;stroke:none;stroke-width:1;stroke-linecap:round;stroke-linejoin:miter;marker:none;marker-start:none;marker-mid:none;marker-end:none;stroke-miterlimit:4;stroke-dasharray:none;stroke-dashoffset:0;stroke-opacity:1;visibility:visible;display:inline;overflow:visible" />
      <path
         sodipodi:nodetypes="cccc"
         id="path5058"
         d="M -219.61876,-150.68038 C -219.61876,-150.68038 -219.61876,327.65041 -219.61876,327.65041 C -76.744594,328.55086 125.78146,220.48075 125.78138,88.454235 C 125.78138,-43.572302 -33.655436,-150.68036 -219.61876,-150.68038 z "
         style="opacity:0.40206185;color:black;fill:url(#radialGradient5029);fill-opacity:1;fill-rule:nonzero;stroke:none;stroke-width:1;stroke-linecap:round;stroke-linejoin:miter;marker:none;marker-start:none;marker-mid:none;marker-end:none;stroke-miterlimit:4;stroke-dasharray:none;stroke-dashoffset:0;stroke-opacity:1;visibility:visible;display:inline;overflow:visible" />
      <path
         style="opacity:0.40206185;color:black;fill:url(#radialGradient5031);fill-opacity:1;fill-rule:nonzero;stroke:none;stroke-width:1;stroke-linecap:round;stroke-linejoin:miter;marker:none;marker-start:none;marker-mid:none;marker-end:none;stroke-miterlimit:4;stroke-dasharray:none;stroke-dashoffset:0;stroke-opacity:1;visibility:visible;display:inline;overflow:visible"
         d="M -1559.2523,-150.68038 C -1559.2523,-150.68038 -1559.2523,327.65041 -1559.2523,327.65041 C -1702.1265,328.55086 -1904.6525,220.48075 -1904.6525,88.454235 C -1904.6525,-43.572302 -1745.2157,-150.68036 -1559.2523,-150.68038 z "
         id="path5018"
         sodipodi:nodetypes="cccc" />
    </g>
    <rect
       ry="1.3831608"
       y="2.5"
       x="4.4999995"
       height="27.000002"
       width="22.999994"
       id="rect15391"
       style="color:black;fill:url(#radialGradient2878);fill-opacity:1;fill-rule:nonzero;stroke:url(#radialGradient2880);stroke-width:1.0000006;stroke-linecap:round;stroke-linejoin:round;marker:none;marker-start:none;marker-mid:none;marker-end:none;stroke-miterlimit:4;stroke-dashoffset:0;stroke-opacity:1;visibility:visible;display:block;overflow:visible"
       rx="1.3831608" />
    <rect
       rx="0.095497638"
       ry="0.095966958"
       y="3.5"
       x="5.5000024"
       height="25.076162"
       width="20.999998"
       id="rect15660"
       style="color:black;fill:none;fill-opacity:1;fill-rule:nonzero;stroke:url(#radialGradient2875);stroke-width:1.00000072;stroke-linecap:round;stroke-linejoin:round;marker:none;marker-start:none;marker-mid:none;marker-end:none;stroke-miterlimit:4;stroke-dashoffset:0;stroke-opacity:1;visibility:visible;display:block;overflow:visible" />
    <path
       style="fill:white;fill-opacity:1;fill-rule:nonzero;stroke:none;stroke-miterlimit:4"
       d="M 8.1875,20.734445 C 8.1875,21.010582 7.9635986,21.234375 7.6875,21.234375 C 7.4112615,21.234375 7.1875,21.010443 7.1875,20.734445 C 7.1875,20.458168 7.4114014,20.234375 7.6875,20.234375 C 7.9635986,20.234375 8.1875,20.458308 8.1875,20.734445 z "
       id="path2912" />
    <path
       style="fill:white;fill-opacity:1;fill-rule:nonzero;stroke:none;stroke-miterlimit:4"
       d="M 8.1875,11.734375 C 8.1875,12.010473 7.9635986,12.234375 7.6875,12.234375 C 7.4112615,12.234375 7.1875,12.010473 7.1875,11.734375 C 7.1875,11.458136 7.4114014,11.234375 7.6875,11.234375 C 7.9635986,11.234375 8.1875,11.458277 8.1875,11.734375 z "
       id="path2914" />
    <path
       style="fill:url(#radialGradient2928);fill-rule:nonzero;stroke:none;stroke-miterlimit:4"
       d="M 8,20.50007 C 8,20.776207 7.7760986,21 7.5,21 C 7.2237615,21 7,20.776068 7,20.50007 C 7,20.223793 7.2239014,20 7.5,20 C 7.7760986,20 8,20.223933 8,20.50007 z "
       id="path15570" />
    <path
       style="fill:url(#radialGradient2925);fill-rule:nonzero;stroke:none;stroke-miterlimit:4"
       d="M 8,11.5 C 8,11.776098 7.7760986,12 7.5,12 C 7.2237615,12 7,11.776098 7,11.5 C 7,11.223761 7.2239014,11 7.5,11 C 7.7760986,11 8,11.223902 8,11.5 z "
       id="path15577" />
    <path
       sodipodi:nodetypes="cc"
       id="path15672"
       d="M 8.5057232,3.234649 L 8.5057232,28.505723"
       style="fill:none;fill-opacity:0.75;fill-rule:evenodd;stroke:black;stroke-width:0.98855364;stroke-linecap:butt;stroke-linejoin:miter;stroke-miterlimit:4;stroke-opacity:0.01960784;display:inline" />
    <path
       sodipodi:nodetypes="cc"
       id="path15674"
       d="M 9.5,3.154846 L 9.5,28.5"
       style="fill:none;fill-opacity:0.75;fill-rule:evenodd;stroke:white;stroke-width:1.0000006;stroke-linecap:butt;stroke-linejoin:miter;stroke-miterlimit:4;stroke-opacity:0.20467828;display:inline" />
    <rect
       style="opacity:1;fill:#9b9b9b;fill-opacity:0.54901961;stroke:none;stroke-width:1.5;stroke-linecap:round;stroke-linejoin:round;stroke-miterlimit:4;stroke-dasharray:none;stroke-opacity:0.01960784"
       id="rect2248"
       width="13"
       height="1"
       x="11"
       y="6"
       rx="0.55020243"
       ry="0.2064524" />
    <rect
       style="opacity:1;fill:#9b9b9b;fill-opacity:0.54901961;stroke:none;stroke-width:1.5;stroke-linecap:round;stroke-linejoin:round;stroke-miterlimit:4;stroke-dasharray:none;stroke-opacity:0.01960784;display:inline"
       id="rect3174"
       width="9"
       height="1"
       x="11"
       y="8"
       rx="0.38090938"
       ry="0.2064524" />
    <rect
       style="opacity:1;fill:#9b9b9b;fill-opacity:0.54901961;stroke:none;stroke-width:1.5;stroke-linecap:round;stroke-linejoin:round;stroke-miterlimit:4;stroke-dasharray:none;stroke-opacity:0.01960784;display:inline"
       id="rect3186"
       width="13"
       height="1"
       x="11"
       y="21"
       rx="0.55020243"
       ry="0.2064524" />
    <rect
       style="opacity:1;fill:#9b9b9b;fill-opacity:0.54901961;stroke:none;stroke-width:1.5;stroke-linecap:round;stroke-linejoin:round;stroke-miterlimit:4;stroke-dasharray:none;stroke-opacity:0.01960784;display:inline"
       id="rect3188"
       width="13"
       height="1"
       x="11"
       y="23"
       rx="0.55020243"
       ry="0.2064524" />
    <rect
       style="opacity:1;fill:#9b9b9b;fill-opacity:0.54901961;stroke:none;stroke-width:1.5;stroke-linecap:round;stroke-linejoin:round;stroke-miterlimit:4;stroke-dasharray:none;stroke-opacity:0.01960784;display:inline"
       id="rect3190"
       width="9"
       height="1"
       x="11"
       y="25"
       rx="0.55020243"
       ry="0.2064524" />
    <g
       style="opacity:0.66477272"
       id="g5376"
       transform="matrix(0.601445,0,0,0.64013,1.55443,1.242332)">
      <g
         id="g7654"
         transform="matrix(0.608982,0,0,0.606219,12.8233,10.5572)">
        <path
           id="path7644"
           d="M 5.512695,30 L 39.643234,30 L 39.643234,19.627375 L 5.512695,19.627375 L 5.512695,30 z "
           style="fill:url(#linearGradient2173);fill-opacity:1;fill-rule:nonzero;stroke:none;stroke-width:1.2166667;stroke-miterlimit:4" />
        <path
           style="fill:#729fcf;fill-opacity:1;fill-rule:nonzero;stroke:none;stroke-width:1.2166667;stroke-miterlimit:4"
           d="M 5.512695,5.6791358 L 39.643234,5.6791358 L 39.643234,19.627375 L 5.512695,19.627375 L 5.512695,5.6791358 z "
           id="path16203" />
        <g
           id="g16205"
           style="fill-rule:nonzero;stroke:black;stroke-width:3.22717547;stroke-miterlimit:4"
           transform="matrix(1.189217,0,0,1.189217,-3.525355,-6.535408)">
          <g
             id="g16207"
             style="stroke-width:3.22717547">
            <path
               style="opacity:0.04999994;fill:#e8f52f;stroke:none"
               d="M 18.4,15.4 C 18.4,17.6 16.6,19.5 14.3,19.5 C 12.1,19.5 10.2,17.7 10.2,15.4 C 10.2,13.2 12,11.3 14.3,11.3 C 16.5,11.3 18.4,13.1 18.4,15.4 z "
               id="path16209" />
            <path
               style="opacity:0.20829994;fill:#ecf751;stroke:none"
               d="M 18,15.4 C 18,17.4 16.4,19.1 14.3,19.1 C 12.3,19.1 10.6,17.5 10.6,15.4 C 10.6,13.4 12.2,11.7 14.3,11.7 C 16.3,11.7 18,13.3 18,15.4 L 18,15.4 z "
               id="path16211" />
            <path
               style="opacity:0.36669994;fill:#f0f972;stroke:none"
               d="M 17.6,15.4 C 17.6,17.2 16.1,18.7 14.3,18.7 C 12.5,18.7 11,17.2 11,15.4 C 11,13.6 12.5,12.1 14.3,12.1 C 16.1,12.1 17.6,13.6 17.6,15.4 L 17.6,15.4 z "
               id="path16213" />
            <path
               style="opacity:0.525;fill:#f4fa95;stroke:none"
               d="M 17.2,15.4 C 17.2,17 15.9,18.3 14.3,18.3 C 12.7,18.3 11.4,17 11.4,15.4 C 11.4,13.8 12.7,12.5 14.3,12.5 C 15.9,12.5 17.2,13.8 17.2,15.4 z "
               id="path16215" />
            <path
               style="opacity:0.6833;fill:#f7fcb7;stroke:none"
               d="M 16.8,15.4 C 16.8,16.8 15.7,17.9 14.3,17.9 C 12.9,17.9 11.8,16.8 11.8,15.4 C 11.8,14 12.9,12.9 14.3,12.9 C 15.7,12.9 16.8,14 16.8,15.4 L 16.8,15.4 z "
               id="path16217" />
            <path
               style="opacity:0.8417;fill:#fbfddb;stroke:none"
               d="M 16.4,15.4 C 16.4,16.6 15.4,17.5 14.3,17.5 C 13.2,17.5 12.2,16.5 12.2,15.4 C 12.2,14.3 13.2,13.3 14.3,13.3 C 15.4,13.3 16.4,14.3 16.4,15.4 z "
               id="path16219" />
            <path
               style="fill:white;stroke:none"
               d="M 16,15.4 C 16,16.4 15.2,17.2 14.2,17.2 C 13.2,17.2 12.4,16.4 12.4,15.4 C 12.4,14.4 13.2,13.6 14.2,13.6 C 15.2,13.6 16,14.4 16,15.4 L 16,15.4 z "
               id="path16221" />
          </g>
        </g>
        <path
           style="opacity:0.3;fill-rule:nonzero;stroke:none;stroke-width:1.2166667;stroke-miterlimit:4"
           d="M 25.015859,21.649044 L 33.697148,21.649044 L 35.362052,22.124732 L 32.507931,22.124732 C 32.507931,22.124732 35.362052,22.362574 36.789115,24.146401 C 38.216174,25.811305 35.12421,27.832976 35.12421,27.832976 C 35.12421,27.832976 35.12421,27.832976 35.12421,27.832976 C 35.005288,27.47621 34.291756,24.622087 32.864696,23.43287 C 31.794399,22.481496 30.605182,22.243652 30.605182,22.243652 L 25.015859,22.243652 L 25.015859,21.767966 L 25.015859,21.649044 z "
           id="path16223" />
        <path
           style="opacity:0.3;fill-rule:nonzero;stroke:none;stroke-width:1.2166667;stroke-miterlimit:4"
           d="M 30.724106,22.362574 L 25.729391,22.362574 L 35.005288,27.595131 L 30.724106,22.362574 L 30.724106,22.362574 z "
           id="path16225" />
        <path
           style="fill:#515151;fill-rule:nonzero;stroke:none;stroke-width:1.2166667;stroke-miterlimit:4"
           d="M 25.015859,21.767966 L 33.697148,21.767966 L 35.005288,20.935513 L 32.151167,20.935513 C 32.151167,20.935513 34.767443,20.459827 35.12421,17.486782 C 35.480973,14.513739 31.080869,11.183931 31.080869,11.183931 C 31.080869,11.183931 31.080869,11.183931 31.080869,11.302853 C 31.19979,12.016383 32.389007,17.011096 31.556557,18.913846 C 31.19979,20.578747 30.129495,20.935513 30.129495,20.935513 L 24.659094,20.935513 L 24.896938,21.767966 L 25.015859,21.767966 z "
           id="path16227" />
        <path
           style="fill:#515151;fill-rule:nonzero;stroke:none;stroke-width:1.2166667;stroke-miterlimit:4"
           d="M 30.248418,20.459827 L 25.253704,20.459827 L 31.19979,11.421773 L 30.248418,20.459827 z "
           id="path16229" />
      </g>
      <rect
         style="opacity:1;color:black;fill:none;fill-opacity:1;fill-rule:nonzero;stroke:#9e9e9e;stroke-width:1.61163783;stroke-linecap:butt;stroke-linejoin:miter;marker:none;marker-start:none;marker-mid:none;marker-end:none;stroke-miterlimit:4;stroke-dasharray:none;stroke-dashoffset:0;stroke-opacity:1;visibility:visible;display:inline;overflow:visible"
         id="rect8163"
         width="19.995502"
         height="13.997463"
         x="16.508501"
         y="14.485752" />
    </g>
  </g>
</svg>
