<?xml version="1.0" encoding="UTF-8" standalone="no"?>
<!-- Created with Inkscape (http://www.inkscape.org/) -->
<svg
   xmlns:dc="http://purl.org/dc/elements/1.1/"
   xmlns:cc="http://creativecommons.org/ns#"
   xmlns:rdf="http://www.w3.org/1999/02/22-rdf-syntax-ns#"
   xmlns:svg="http://www.w3.org/2000/svg"
   xmlns="http://www.w3.org/2000/svg"
   xmlns:xlink="http://www.w3.org/1999/xlink"
   xmlns:sodipodi="http://sodipodi.sourceforge.net/DTD/sodipodi-0.dtd"
   xmlns:inkscape="http://www.inkscape.org/namespaces/inkscape"
   width="32"
   height="32"
   id="svg1306"
   sodipodi:version="0.32"
   inkscape:version="0.46"
   sodipodi:docbase="/home/lapo/Desktop/tango-icon-theme/32x32/status"
   sodipodi:docname="weather-overcast.svg"
   version="1.0"
   inkscape:output_extension="org.inkscape.output.svg.inkscape">
  <defs
     id="defs1308">
    <inkscape:perspective
       sodipodi:type="inkscape:persp3d"
       inkscape:vp_x="0 : 16 : 1"
       inkscape:vp_y="0 : 1000 : 0"
       inkscape:vp_z="32 : 16 : 1"
       inkscape:persp3d-origin="16 : 10.666667 : 1"
       id="perspective126" />
    <linearGradient
       inkscape:collect="always"
       id="linearGradient6549">
      <stop
         style="stop-color:#ffffff;stop-opacity:1;"
         offset="0"
         id="stop6551" />
      <stop
         style="stop-color:#ffffff;stop-opacity:0;"
         offset="1"
         id="stop6553" />
    </linearGradient>
    <linearGradient
       inkscape:collect="always"
       id="linearGradient6527">
      <stop
         style="stop-color:#ffffff;stop-opacity:1;"
         offset="0"
         id="stop6530" />
      <stop
         style="stop-color:#ffffff;stop-opacity:0;"
         offset="1"
         id="stop6532" />
    </linearGradient>
    <linearGradient
       inkscape:collect="always"
       id="linearGradient6538">
      <stop
         style="stop-color:#ffffff;stop-opacity:1;"
         offset="0"
         id="stop6540" />
      <stop
         style="stop-color:#ffffff;stop-opacity:0;"
         offset="1"
         id="stop6542" />
    </linearGradient>
    <linearGradient
       inkscape:collect="always"
       id="linearGradient6513">
      <stop
         style="stop-color:#ffffff;stop-opacity:1;"
         offset="0"
         id="stop6515" />
      <stop
         style="stop-color:#ffffff;stop-opacity:0;"
         offset="1"
         id="stop6517" />
    </linearGradient>
    <linearGradient
       inkscape:collect="always"
       id="linearGradient6497">
      <stop
         style="stop-color:#ffffff;stop-opacity:1;"
         offset="0"
         id="stop6499" />
      <stop
         style="stop-color:#ffffff;stop-opacity:0;"
         offset="1"
         id="stop6501" />
    </linearGradient>
    <linearGradient
       inkscape:collect="always"
       id="linearGradient6470">
      <stop
         style="stop-color:#ffffff;stop-opacity:1;"
         offset="0"
         id="stop6472" />
      <stop
         style="stop-color:#ffffff;stop-opacity:0;"
         offset="1"
         id="stop6474" />
    </linearGradient>
    <linearGradient
       inkscape:collect="always"
       id="linearGradient7834">
      <stop
         style="stop-color:#ffffff;stop-opacity:1;"
         offset="0"
         id="stop7836" />
      <stop
         style="stop-color:#ffffff;stop-opacity:0;"
         offset="1"
         id="stop7838" />
    </linearGradient>
    <linearGradient
       inkscape:collect="always"
       id="linearGradient8397">
      <stop
         style="stop-color:#ffffff;stop-opacity:1;"
         offset="0"
         id="stop8400" />
      <stop
         style="stop-color:#ffffff;stop-opacity:0;"
         offset="1"
         id="stop8402" />
    </linearGradient>
    <linearGradient
       inkscape:collect="always"
       id="linearGradient8315">
      <stop
         style="stop-color:#ffffff;stop-opacity:1;"
         offset="0"
         id="stop8317" />
      <stop
         style="stop-color:#ffffff;stop-opacity:0;"
         offset="1"
         id="stop8319" />
    </linearGradient>
    <linearGradient
       inkscape:collect="always"
       id="linearGradient8381">
      <stop
         style="stop-color:#ffffff;stop-opacity:1;"
         offset="0"
         id="stop8383" />
      <stop
         style="stop-color:#ffffff;stop-opacity:0;"
         offset="1"
         id="stop8385" />
    </linearGradient>
    <linearGradient
       inkscape:collect="always"
       id="linearGradient8331">
      <stop
         style="stop-color:#ffffff;stop-opacity:1;"
         offset="0"
         id="stop8333" />
      <stop
         style="stop-color:#ffffff;stop-opacity:0;"
         offset="1"
         id="stop8335" />
    </linearGradient>
    <linearGradient
       inkscape:collect="always"
       id="linearGradient8302">
      <stop
         style="stop-color:#ffffff;stop-opacity:1;"
         offset="0"
         id="stop8304" />
      <stop
         style="stop-color:#ffffff;stop-opacity:0;"
         offset="1"
         id="stop8306" />
    </linearGradient>
    <linearGradient
       inkscape:collect="always"
       xlink:href="#linearGradient8302"
       id="linearGradient2847"
       gradientUnits="userSpaceOnUse"
       gradientTransform="matrix(0.66768,0,0,0.653383,-145.5968,261.3863)"
       x1="228.50261"
       y1="-392.30591"
       x2="278.9151"
       y2="-375.37952" />
    <linearGradient
       inkscape:collect="always"
       xlink:href="#linearGradient7834"
       id="linearGradient2851"
       gradientUnits="userSpaceOnUse"
       x1="-156.29044"
       y1="-100.53421"
       x2="-153.0981"
       y2="-96.544556" />
    <linearGradient
       inkscape:collect="always"
       xlink:href="#linearGradient8397"
       id="linearGradient2853"
       gradientUnits="userSpaceOnUse"
       x1="238.00478"
       y1="-388.47476"
       x2="245.65462"
       y2="-382.64539" />
    <linearGradient
       inkscape:collect="always"
       xlink:href="#linearGradient8315"
       id="linearGradient2855"
       gradientUnits="userSpaceOnUse"
       x1="230.87598"
       y1="-390.43951"
       x2="235.25652"
       y2="-386.95901" />
    <linearGradient
       inkscape:collect="always"
       xlink:href="#linearGradient8381"
       id="linearGradient2863"
       gradientUnits="userSpaceOnUse"
       x1="246.74042"
       y1="-391.31381"
       x2="252.69785"
       y2="-385.35165" />
    <linearGradient
       inkscape:collect="always"
       xlink:href="#linearGradient8331"
       id="linearGradient2865"
       gradientUnits="userSpaceOnUse"
       x1="240.07379"
       y1="-393.4072"
       x2="245.82706"
       y2="-388.55029" />
    <linearGradient
       y2="-436.83109"
       x2="288.89954"
       y1="-441.23294"
       x1="284.80219"
       gradientUnits="userSpaceOnUse"
       id="linearGradient4380"
       xlink:href="#linearGradient6538"
       inkscape:collect="always" />
    <linearGradient
       y2="-436.70703"
       x2="289.76562"
       y1="-439.48358"
       x1="286.66589"
       gradientUnits="userSpaceOnUse"
       id="linearGradient4378"
       xlink:href="#linearGradient6549"
       inkscape:collect="always" />
    <linearGradient
       y2="-431.91833"
       x2="279.97546"
       y1="-437.10501"
       x1="275.94193"
       gradientUnits="userSpaceOnUse"
       id="linearGradient4376"
       xlink:href="#linearGradient6527"
       inkscape:collect="always" />
    <linearGradient
       y2="-436.4429"
       x2="289.39124"
       y1="-439.939"
       x1="285.94086"
       gradientUnits="userSpaceOnUse"
       id="linearGradient4374"
       xlink:href="#linearGradient6538"
       inkscape:collect="always" />
    <linearGradient
       y2="-436.14453"
       x2="289.85379"
       y1="-441.29074"
       x1="286.51172"
       gradientUnits="userSpaceOnUse"
       id="linearGradient4372"
       xlink:href="#linearGradient6513"
       inkscape:collect="always" />
    <linearGradient
       y2="-436.32199"
       x2="289.67633"
       y1="-439.75281"
       x1="287.5173"
       gradientUnits="userSpaceOnUse"
       id="linearGradient4370"
       xlink:href="#linearGradient6497"
       inkscape:collect="always" />
    <linearGradient
       y2="-431.96991"
       x2="285.02859"
       y1="-441.05182"
       x1="271.0217"
       gradientTransform="matrix(0.630958,0,0,0.640671,-155.4756,301.1529)"
       gradientUnits="userSpaceOnUse"
       id="linearGradient4368"
       xlink:href="#linearGradient6470"
       inkscape:collect="always" />
    <linearGradient
       inkscape:collect="always"
       xlink:href="#linearGradient6470"
       id="linearGradient3168"
       gradientUnits="userSpaceOnUse"
       gradientTransform="matrix(0.630958,0,0,0.640671,-155.4756,301.1529)"
       x1="271.0217"
       y1="-441.05182"
       x2="285.02859"
       y2="-431.96991" />
    <linearGradient
       inkscape:collect="always"
       xlink:href="#linearGradient6497"
       id="linearGradient3170"
       gradientUnits="userSpaceOnUse"
       x1="287.5173"
       y1="-439.75281"
       x2="289.67633"
       y2="-436.32199" />
    <linearGradient
       inkscape:collect="always"
       xlink:href="#linearGradient6513"
       id="linearGradient3172"
       gradientUnits="userSpaceOnUse"
       x1="286.51172"
       y1="-441.29074"
       x2="289.85379"
       y2="-436.14453" />
    <linearGradient
       inkscape:collect="always"
       xlink:href="#linearGradient6538"
       id="linearGradient3174"
       gradientUnits="userSpaceOnUse"
       x1="285.94086"
       y1="-439.939"
       x2="289.39124"
       y2="-436.4429" />
    <linearGradient
       inkscape:collect="always"
       xlink:href="#linearGradient6527"
       id="linearGradient3176"
       gradientUnits="userSpaceOnUse"
       x1="275.94193"
       y1="-437.10501"
       x2="279.97546"
       y2="-431.91833" />
    <linearGradient
       inkscape:collect="always"
       xlink:href="#linearGradient6549"
       id="linearGradient3178"
       gradientUnits="userSpaceOnUse"
       x1="286.66589"
       y1="-439.48358"
       x2="289.76562"
       y2="-436.70703" />
    <linearGradient
       inkscape:collect="always"
       xlink:href="#linearGradient6538"
       id="linearGradient3180"
       gradientUnits="userSpaceOnUse"
       x1="284.80219"
       y1="-441.23294"
       x2="288.89954"
       y2="-436.83109" />
  </defs>
  <sodipodi:namedview
     id="base"
     pagecolor="#ffffff"
     bordercolor="#666666"
     borderopacity="1.0"
     inkscape:pageopacity="0.0"
     inkscape:pageshadow="2"
     inkscape:zoom="1"
     inkscape:cx="-181.38543"
     inkscape:cy="3.269023"
     inkscape:current-layer="layer1"
     showgrid="false"
     inkscape:grid-bbox="true"
     inkscape:document-units="px"
     inkscape:window-width="1210"
     inkscape:window-height="704"
     inkscape:window-x="182"
     inkscape:window-y="144"
     inkscape:showpageshadow="false"
     showguides="true"
     inkscape:guide-bbox="true"
     width="32px"
     height="32px"
     showborder="false" />
  <metadata
     id="metadata1311">
    <rdf:RDF>
      <cc:Work
         rdf:about="">
        <dc:format>image/svg+xml</dc:format>
        <dc:type
           rdf:resource="http://purl.org/dc/dcmitype/StillImage" />
        <dc:title>weather-overcast</dc:title>
        <dc:date>January 2006</dc:date>
        <dc:creator>
          <cc:Agent>
            <dc:title>Ryan Collier (pseudo)</dc:title>
          </cc:Agent>
        </dc:creator>
        <dc:publisher>
          <cc:Agent>
            <dc:title>http://www.tango-project.org</dc:title>
          </cc:Agent>
        </dc:publisher>
        <dc:source>http://www.pseudocode.org</dc:source>
        <dc:subject>
          <rdf:Bag>
            <rdf:li>weather</rdf:li>
            <rdf:li>applet</rdf:li>
            <rdf:li>notify</rdf:li>
          </rdf:Bag>
        </dc:subject>
        <cc:license
           rdf:resource="http://creativecommons.org/licenses/publicdomain/" />
      </cc:Work>
      <cc:License
         rdf:about="http://creativecommons.org/licenses/publicdomain/">
        <cc:permits
           rdf:resource="http://creativecommons.org/ns#Reproduction" />
        <cc:permits
           rdf:resource="http://creativecommons.org/ns#Distribution" />
        <cc:permits
           rdf:resource="http://creativecommons.org/ns#DerivativeWorks" />
      </cc:License>
    </rdf:RDF>
  </metadata>
  <g
     id="layer1"
     inkscape:label="Layer 1"
     inkscape:groupmode="layer">
    <g
       id="g2867">
      <path
         style="fill:#888a85;fill-opacity:1;stroke:none;stroke-width:1;stroke-linecap:butt;stroke-linejoin:miter;stroke-miterlimit:2;stroke-dasharray:none;stroke-dashoffset:0;stroke-opacity:1"
         d="M 16.35333,0.99999972 C 14.458095,0.99999972 12.861329,2.0709991 11.973999,3.5946233 C 11.328431,3.2713315 10.630588,3.0416707 9.8591017,3.0416707 C 7.2176594,3.0416707 5.0738804,5.1758975 5.0738804,7.8055698 C 5.0738804,10.435242 7.2176594,12.569469 9.8591017,12.569469 C 11.513195,12.569469 12.887524,11.671596 13.747093,10.400193 C 14.522436,10.869519 15.380207,11.208355 16.35333,11.208355 C 16.977541,11.208355 17.551652,11.050452 18.105062,10.846809 C 18.45366,11.437349 18.911113,11.921898 19.472268,12.31426 C 19.46732,12.402991 19.429544,12.479513 19.429544,12.569469 C 19.429544,15.199141 21.573316,17.333368 24.214765,17.333368 C 26.856207,17.333368 28.999986,15.199141 28.999986,12.569469 C 28.999986,10.95676 28.139343,9.60337 26.906451,8.7413357 C 26.911401,8.6526047 26.949177,8.5760828 26.949177,8.4861268 C 26.949177,5.8564545 24.805405,3.7222278 22.163956,3.7222278 C 21.738276,3.7222278 21.360592,3.8734407 20.96765,3.9774366 C 20.151066,2.2360001 18.41006,0.99999972 16.35333,0.99999972 z "
         id="path2474" />
      <path
         style="fill:url(#linearGradient2847);fill-opacity:1;stroke:none;stroke-width:1;stroke-linecap:butt;stroke-linejoin:miter;stroke-miterlimit:2;stroke-dasharray:none;stroke-dashoffset:0;stroke-opacity:1"
         d="M 16.315577,1.9930567 C 14.459108,1.9930567 12.887371,3.1442202 12.26777,4.7495178 C 11.609825,4.2859816 10.844657,3.9532069 9.9726223,3.9532069 C 7.7612674,3.9532069 5.9665449,5.7095014 5.9665449,7.8735071 C 5.9665449,10.037512 7.7612674,11.793807 9.9726223,11.793807 C 11.593581,11.793807 12.972666,10.842756 13.603128,9.4865473 C 14.351438,10.086066 15.273758,10.487041 16.315577,10.487041 C 17.033026,10.487041 17.680502,10.278637 18.276885,9.9765844 C 18.54289,10.629811 19.012094,11.143736 19.570515,11.569206 C 19.450326,11.958374 19.320136,12.346504 19.320136,12.773882 C 19.320136,15.118222 21.264418,17.020874 23.660052,17.020874 C 26.055686,17.020874 27.999969,15.118222 27.999969,12.773882 C 27.999969,11.231381 27.109065,9.9446085 25.850875,9.200692 C 25.892665,8.9738177 25.996931,8.7654865 25.996931,8.5268904 C 25.996931,6.3628847 24.202208,4.6065903 21.990854,4.6065903 C 21.421337,4.6065903 20.874961,4.7233368 20.384249,4.9332819 C 19.814205,3.2384838 18.2375,1.9930633 16.315577,1.9930567 z "
         id="path2476" />
      <path
         sodipodi:type="arc"
         style="fill:#c4c5c2;fill-opacity:1;stroke:none;stroke-width:1;stroke-linecap:butt;stroke-linejoin:miter;stroke-miterlimit:2;stroke-dasharray:none;stroke-dashoffset:0;stroke-opacity:1"
         id="path2478"
         sodipodi:cx="241.80843"
         sodipodi:cy="-383.6666"
         sodipodi:rx="6.7396116"
         sodipodi:ry="6.7396116"
         d="M 248.54804 -383.6666 A 6.7396116 6.7396116 0 1 1  235.06881,-383.6666 A 6.7396116 6.7396116 0 1 1  248.54804 -383.6666 z"
         transform="matrix(0.620218,0,0,0.597275,-126.5914,241.7751)" />
      <g
         id="g2480"
         transform="matrix(0.643081,0,0,0.619293,-139.6386,248.2615)">
        <path
           transform="matrix(0.88263,0,0,0.88263,27.18078,-46.89094)"
           d="M 250.18322 -389.30136 A 6.2313786 6.2313786 0 1 1  237.72046,-389.30136 A 6.2313786 6.2313786 0 1 1  250.18322 -389.30136 z"
           sodipodi:ry="6.2313786"
           sodipodi:rx="6.2313786"
           sodipodi:cy="-389.30136"
           sodipodi:cx="243.95184"
           id="path2482"
           style="opacity:1;fill:#c4c5c2;fill-opacity:1;stroke:none;stroke-width:1;stroke-linecap:butt;stroke-linejoin:miter;stroke-miterlimit:2;stroke-dasharray:none;stroke-dashoffset:0;stroke-opacity:1"
           sodipodi:type="arc" />
        <path
           transform="matrix(0.88263,0,0,0.88263,27.18078,-46.89094)"
           d="M 250.18322 -389.30136 A 6.2313786 6.2313786 0 1 1  237.72046,-389.30136 A 6.2313786 6.2313786 0 1 1  250.18322 -389.30136 z"
           sodipodi:ry="6.2313786"
           sodipodi:rx="6.2313786"
           sodipodi:cy="-389.30136"
           sodipodi:cx="243.95184"
           id="path2484"
           style="opacity:1;fill:url(#linearGradient2865);fill-opacity:1;stroke:none;stroke-width:1;stroke-linecap:butt;stroke-linejoin:miter;stroke-miterlimit:2;stroke-dasharray:none;stroke-dashoffset:0;stroke-opacity:1"
           sodipodi:type="arc" />
      </g>
      <g
         id="g2486"
         transform="matrix(0.643081,0,0,0.619293,-139.6386,248.2615)">
        <path
           transform="matrix(0.911728,0,0,0.911728,21.45407,-34.76637)"
           d="M 257.25429 -385.7879 A 6.0325046 6.0325046 0 1 1  245.18928,-385.7879 A 6.0325046 6.0325046 0 1 1  257.25429 -385.7879 z"
           sodipodi:ry="6.0325046"
           sodipodi:rx="6.0325046"
           sodipodi:cy="-385.7879"
           sodipodi:cx="251.22179"
           id="path2488"
           style="opacity:1;fill:#c4c5c2;fill-opacity:1;stroke:none;stroke-width:1;stroke-linecap:butt;stroke-linejoin:miter;stroke-miterlimit:2;stroke-dasharray:none;stroke-dashoffset:0;stroke-opacity:1"
           sodipodi:type="arc" />
        <path
           transform="matrix(0.911728,0,0,0.911728,21.45407,-34.76637)"
           d="M 257.25429 -385.7879 A 6.0325046 6.0325046 0 1 1  245.18928,-385.7879 A 6.0325046 6.0325046 0 1 1  257.25429 -385.7879 z"
           sodipodi:ry="6.0325046"
           sodipodi:rx="6.0325046"
           sodipodi:cy="-385.7879"
           sodipodi:cx="251.22179"
           id="path2490"
           style="opacity:1;fill:url(#linearGradient2863);fill-opacity:1;stroke:none;stroke-width:1;stroke-linecap:butt;stroke-linejoin:miter;stroke-miterlimit:2;stroke-dasharray:none;stroke-dashoffset:0;stroke-opacity:1"
           sodipodi:type="arc" />
      </g>
      <g
         id="g2492"
         transform="matrix(0.643081,0,0,0.619293,-139.6386,248.2615)">
        <path
           transform="matrix(1.142799,0,0,1.142799,-33.76771,55.27704)"
           d="M 237.80885 -387.88715 A 4.3752232 4.3752232 0 1 1  229.0584,-387.88715 A 4.3752232 4.3752232 0 1 1  237.80885 -387.88715 z"
           sodipodi:ry="4.3752232"
           sodipodi:rx="4.3752232"
           sodipodi:cy="-387.88715"
           sodipodi:cx="233.43362"
           id="path2494"
           style="opacity:1;fill:#c4c5c2;fill-opacity:1;stroke:none;stroke-width:1;stroke-linecap:butt;stroke-linejoin:miter;stroke-miterlimit:2;stroke-dasharray:none;stroke-dashoffset:0;stroke-opacity:1"
           sodipodi:type="arc" />
        <path
           transform="matrix(1.142799,0,0,1.142799,-33.76771,55.27704)"
           d="M 237.80885 -387.88715 A 4.3752232 4.3752232 0 1 1  229.0584,-387.88715 A 4.3752232 4.3752232 0 1 1  237.80885 -387.88715 z"
           sodipodi:ry="4.3752232"
           sodipodi:rx="4.3752232"
           sodipodi:cy="-387.88715"
           sodipodi:cx="233.43362"
           id="path2496"
           style="opacity:1;fill:url(#linearGradient2855);fill-opacity:1;stroke:none;stroke-width:1;stroke-linecap:butt;stroke-linejoin:miter;stroke-miterlimit:2;stroke-dasharray:none;stroke-dashoffset:0;stroke-opacity:1"
           sodipodi:type="arc" />
      </g>
      <g
         id="g2498"
         transform="matrix(0.643081,0,0,0.619293,-139.6386,248.2615)">
        <path
           transform="matrix(1.038636,0,0,1.038636,-9.15094,14.48994)"
           d="M 248.54804 -383.6666 A 6.7396116 6.7396116 0 1 1  235.06881,-383.6666 A 6.7396116 6.7396116 0 1 1  248.54804 -383.6666 z"
           sodipodi:ry="6.7396116"
           sodipodi:rx="6.7396116"
           sodipodi:cy="-383.6666"
           sodipodi:cx="241.80843"
           id="path2500"
           style="opacity:1;fill:#c4c5c2;fill-opacity:1;stroke:none;stroke-width:1;stroke-linecap:butt;stroke-linejoin:miter;stroke-miterlimit:2;stroke-dasharray:none;stroke-dashoffset:0;stroke-opacity:1"
           sodipodi:type="arc" />
        <path
           transform="matrix(1.038636,0,0,1.038636,-9.150933,14.48993)"
           d="M 248.54804 -383.6666 A 6.7396116 6.7396116 0 1 1  235.06881,-383.6666 A 6.7396116 6.7396116 0 1 1  248.54804 -383.6666 z"
           sodipodi:ry="6.7396116"
           sodipodi:rx="6.7396116"
           sodipodi:cy="-383.6666"
           sodipodi:cx="241.80843"
           id="path2502"
           style="opacity:1;fill:url(#linearGradient2853);fill-opacity:1;stroke:none;stroke-width:1;stroke-linecap:butt;stroke-linejoin:miter;stroke-miterlimit:2;stroke-dasharray:none;stroke-dashoffset:0;stroke-opacity:1"
           sodipodi:type="arc" />
      </g>
      <g
         id="g2504"
         transform="matrix(0.601299,0,0,0.579056,103.3338,68.90417)"
         style="stroke:none">
        <path
           transform="matrix(1.737733,0,0,1.737733,110.8322,70.07649)"
           d="M -151.9375 -96.9375 A 3.125 3.125 0 1 1  -158.1875,-96.9375 A 3.125 3.125 0 1 1  -151.9375 -96.9375 z"
           sodipodi:ry="3.125"
           sodipodi:rx="3.125"
           sodipodi:cy="-96.9375"
           sodipodi:cx="-155.0625"
           id="path2506"
           style="opacity:1;fill:#c4c5c2;fill-opacity:1;stroke:none;stroke-width:0.33115697;stroke-linecap:butt;stroke-linejoin:miter;stroke-miterlimit:0;stroke-dasharray:none;stroke-dashoffset:0;stroke-opacity:1"
           sodipodi:type="arc" />
        <path
           transform="matrix(1.737733,0,0,1.737733,110.8948,70.01402)"
           d="M -151.9375 -96.9375 A 3.125 3.125 0 1 1  -158.1875,-96.9375 A 3.125 3.125 0 1 1  -151.9375 -96.9375 z"
           sodipodi:ry="3.125"
           sodipodi:rx="3.125"
           sodipodi:cy="-96.9375"
           sodipodi:cx="-155.0625"
           id="path2508"
           style="opacity:1;fill:url(#linearGradient2851);fill-opacity:1;stroke:none;stroke-width:0.4522453;stroke-linecap:butt;stroke-linejoin:miter;stroke-miterlimit:0;stroke-dasharray:none;stroke-dashoffset:0;stroke-opacity:1"
           sodipodi:type="arc" />
      </g>
    </g>
    <g
       id="g4222"
       transform="translate(1.11257,-5.999979)">
      <path
         sodipodi:nodetypes="ccsscsssscsscc"
         id="path6670"
         d="M 21.508174,15.499951 C 20.051064,15.499951 18.870991,16.533472 18.48032,17.916619 C 18.035499,17.674066 17.553429,17.499952 17.016522,17.499952 C 15.245529,17.499952 13.808193,18.99328 13.808199,20.833287 C 13.808199,21.219241 13.912483,21.571755 14.028772,21.916621 C 13.147464,22.430448 12.52487,23.375955 12.52487,24.499956 C 12.52487,26.155957 13.818466,27.499964 15.412361,27.499957 C 15.526019,27.499957 27.49033,27.499957 27.603988,27.499957 C 29.197876,27.499957 30.491478,26.155957 30.491478,24.499956 C 30.491478,23.375955 29.868885,22.430448 28.987577,21.916621 C 29.103872,21.571761 29.208149,21.219234 29.208149,20.833287 C 29.208149,18.993287 27.77082,17.499959 25.999826,17.499952 C 25.46292,17.499952 24.98085,17.674066 24.536029,17.916619 C 24.145358,16.533472 22.965285,15.499951 21.508174,15.499951 z "
         style="fill:#c4c5c2;fill-opacity:1;stroke:#888a85;stroke-width:1.00000024;stroke-linecap:butt;stroke-linejoin:miter;stroke-miterlimit:2;stroke-dasharray:none;stroke-dashoffset:0;stroke-opacity:1" />
      <path
         sodipodi:nodetypes="ccsscsssscsscc"
         id="path6672"
         d="M 21.508176,16.054256 C 20.126556,16.054256 19.158741,16.910046 18.734768,18.516688 C 18.312998,18.29654 17.758304,17.982785 17.249208,17.982785 C 15.535205,17.982785 14.248914,19.22493 14.24892,20.894981 C 14.24892,21.24528 14.41752,21.749277 14.527779,22.062288 C 13.692119,22.528665 12.990242,23.273477 12.990242,24.222984 C 12.990242,25.72603 13.96581,26.945893 15.728146,26.945893 C 15.83592,26.945893 27.18044,26.945893 27.288207,26.945893 C 29.036599,26.945893 30.026111,25.72603 30.026111,24.222984 C 30.026111,23.202798 29.324234,22.514513 28.488574,22.048136 C 28.59884,21.735131 28.781383,21.245273 28.781383,20.894981 C 28.781383,19.224937 27.446395,17.968632 25.767151,17.968626 C 25.258049,17.968626 24.731237,18.282387 24.309467,18.502535 C 23.90007,16.951124 22.889804,16.054256 21.508176,16.054256 z "
         style="fill:url(#linearGradient3168);fill-opacity:1;stroke:none;stroke-width:0.99999958;stroke-linecap:butt;stroke-linejoin:miter;stroke-miterlimit:2;stroke-dasharray:none;stroke-dashoffset:0;stroke-opacity:1" />
      <g
         transform="matrix(0.607494,0,0,0.59951,-148.8943,283.1861)"
         id="g6674">
        <path
           sodipodi:type="arc"
           style="opacity:1;fill:#c4c5c2;fill-opacity:1;stroke:none;stroke-width:1;stroke-linecap:butt;stroke-linejoin:miter;stroke-miterlimit:2;stroke-dasharray:none;stroke-dashoffset:0;stroke-opacity:1"
           id="path6676"
           sodipodi:cx="288.375"
           sodipodi:cy="-437.59375"
           sodipodi:rx="3.3125"
           sodipodi:ry="3.3125"
           d="M 291.6875 -437.59375 A 3.3125 3.3125 0 1 1  285.0625,-437.59375 A 3.3125 3.3125 0 1 1  291.6875 -437.59375 z"
           transform="matrix(1.056604,0,0,1.056604,-24.19818,21.86331)" />
        <path
           sodipodi:type="arc"
           style="opacity:1;fill:url(#linearGradient3170);fill-opacity:1;stroke:none;stroke-width:1;stroke-linecap:butt;stroke-linejoin:miter;stroke-miterlimit:2;stroke-dasharray:none;stroke-dashoffset:0;stroke-opacity:1"
           id="path6678"
           sodipodi:cx="288.375"
           sodipodi:cy="-437.59375"
           sodipodi:rx="3.3125"
           sodipodi:ry="3.3125"
           d="M 291.6875 -437.59375 A 3.3125 3.3125 0 1 1  285.0625,-437.59375 A 3.3125 3.3125 0 1 1  291.6875 -437.59375 z"
           transform="matrix(1.056604,0,0,1.056604,-24.19818,21.86331)" />
      </g>
      <rect
         y="20.6007"
         x="15.736475"
         height="5.3955903"
         width="12.149872"
         id="rect6680"
         style="fill:#c4c5c2;fill-opacity:1;stroke:none;stroke-width:1;stroke-linecap:butt;stroke-linejoin:miter;stroke-miterlimit:2;stroke-dasharray:none;stroke-dashoffset:0;stroke-opacity:1" />
      <path
         transform="matrix(0.550183,0,0,0.542952,-142.9226,261.7903)"
         d="M 291.6875 -437.59375 A 3.3125 3.3125 0 1 1  285.0625,-437.59375 A 3.3125 3.3125 0 1 1  291.6875 -437.59375 z"
         sodipodi:ry="3.3125"
         sodipodi:rx="3.3125"
         sodipodi:cy="-437.59375"
         sodipodi:cx="288.375"
         id="path6682"
         style="fill:#c4c5c2;fill-opacity:1;stroke:none;stroke-width:1;stroke-linecap:butt;stroke-linejoin:miter;stroke-miterlimit:2;stroke-dasharray:none;stroke-dashoffset:0;stroke-opacity:1"
         sodipodi:type="arc" />
      <g
         transform="matrix(0.607494,0,0,0.59951,-148.8943,283.1861)"
         id="g6684">
        <path
           sodipodi:type="arc"
           style="opacity:1;fill:#c4c5c2;fill-opacity:1;stroke:none;stroke-width:1;stroke-linecap:butt;stroke-linejoin:miter;stroke-miterlimit:2;stroke-dasharray:none;stroke-dashoffset:0;stroke-opacity:1"
           id="path6686"
           sodipodi:cx="288.375"
           sodipodi:cy="-437.59375"
           sodipodi:rx="3.3125"
           sodipodi:ry="3.3125"
           d="M 291.6875 -437.59375 A 3.3125 3.3125 0 1 1  285.0625,-437.59375 A 3.3125 3.3125 0 1 1  291.6875 -437.59375 z"
           transform="matrix(1.056604,0,0,1.056604,-17.19811,24.86321)" />
        <path
           sodipodi:type="arc"
           style="opacity:1;fill:url(#linearGradient3172);fill-opacity:1;stroke:none;stroke-width:1;stroke-linecap:butt;stroke-linejoin:miter;stroke-miterlimit:2;stroke-dasharray:none;stroke-dashoffset:0;stroke-opacity:1"
           id="path6688"
           sodipodi:cx="288.375"
           sodipodi:cy="-437.59375"
           sodipodi:rx="3.3125"
           sodipodi:ry="3.3125"
           d="M 291.6875 -437.59375 A 3.3125 3.3125 0 1 1  285.0625,-437.59375 A 3.3125 3.3125 0 1 1  291.6875 -437.59375 z"
           transform="matrix(1.056604,0,0,1.056604,-17.19818,24.86331)" />
      </g>
      <g
         transform="matrix(0.607494,0,0,0.59951,-148.8943,283.1861)"
         id="g6690">
        <path
           sodipodi:type="arc"
           style="opacity:1;fill:#c4c5c2;fill-opacity:1;stroke:none;stroke-width:1;stroke-linecap:butt;stroke-linejoin:miter;stroke-miterlimit:2;stroke-dasharray:none;stroke-dashoffset:0;stroke-opacity:1"
           id="path6692"
           sodipodi:cx="288.375"
           sodipodi:cy="-437.59375"
           sodipodi:rx="3.3125"
           sodipodi:ry="3.3125"
           d="M 291.6875 -437.59375 A 3.3125 3.3125 0 1 1  285.0625,-437.59375 A 3.3125 3.3125 0 1 1  291.6875 -437.59375 z"
           transform="matrix(1.056604,0,0,1.056604,-31.19818,24.86331)" />
        <path
           sodipodi:type="arc"
           style="opacity:1;fill:url(#linearGradient3174);fill-opacity:1;stroke:none;stroke-width:1;stroke-linecap:butt;stroke-linejoin:miter;stroke-miterlimit:2;stroke-dasharray:none;stroke-dashoffset:0;stroke-opacity:1"
           id="path6694"
           sodipodi:cx="288.375"
           sodipodi:cy="-437.59375"
           sodipodi:rx="3.3125"
           sodipodi:ry="3.3125"
           d="M 291.6875 -437.59375 A 3.3125 3.3125 0 1 1  285.0625,-437.59375 A 3.3125 3.3125 0 1 1  291.6875 -437.59375 z"
           transform="matrix(1.056604,0,0,1.056604,-31.19818,24.86331)" />
      </g>
      <g
         transform="matrix(0.607494,0,0,0.59951,-149.5018,283.1861)"
         id="g6696">
        <path
           style="opacity:1;fill:#c4c5c2;fill-opacity:1;stroke:none;stroke-width:1;stroke-linecap:butt;stroke-linejoin:miter;stroke-miterlimit:2;stroke-dasharray:none;stroke-dashoffset:0;stroke-opacity:1"
           d="M 280.46875,-440.96875 C 276.88937,-440.96875 274,-438.04812 274,-434.46875 C 274,-432.09807 275.34943,-430.13096 277.25,-429 L 283.71875,-429 C 285.61932,-430.13096 286.96875,-432.12931 286.96875,-434.5 C 286.96875,-438.07938 284.04812,-440.96875 280.46875,-440.96875 z "
           id="path6698" />
        <path
           style="opacity:1;fill:url(#linearGradient3176);fill-opacity:1;stroke:none;stroke-width:1;stroke-linecap:butt;stroke-linejoin:miter;stroke-miterlimit:2;stroke-dasharray:none;stroke-dashoffset:0;stroke-opacity:1"
           d="M 280.5,-441 C 276.912,-441 274,-438.08799 274,-434.5 C 274,-432.1236 275.34485,-430.13368 277.25,-429 L 283.75,-429 C 285.65515,-430.13368 287,-432.1236 287,-434.5 C 287,-438.088 284.088,-440.99999 280.5,-441 z "
           id="path6700" />
      </g>
      <path
         transform="matrix(0.550183,0,0,0.542952,-142.9,261.7939)"
         d="M 291.6875 -437.59375 A 3.3125 3.3125 0 1 1  285.0625,-437.59375 A 3.3125 3.3125 0 1 1  291.6875 -437.59375 z"
         sodipodi:ry="3.3125"
         sodipodi:rx="3.3125"
         sodipodi:cy="-437.59375"
         sodipodi:cx="288.375"
         id="path6702"
         style="fill:url(#linearGradient3178);fill-opacity:1;stroke:none;stroke-width:1;stroke-linecap:butt;stroke-linejoin:miter;stroke-miterlimit:2;stroke-dasharray:none;stroke-dashoffset:0;stroke-opacity:1"
         sodipodi:type="arc" />
      <path
         sodipodi:nodetypes="ccss"
         id="path6704"
         d="M 29.079863,21.5 C 29.078932,23.10942 27.093806,23.72655 27.093806,23.72655 C 27.093806,23.72655 28.520651,22.751777 28.513428,21.505359 C 28.513428,21.505359 29.079863,21.5 29.079863,21.5 z "
         style="fill:#888a85;fill-opacity:1;fill-rule:evenodd;stroke:none;stroke-width:1px;stroke-linecap:butt;stroke-linejoin:miter;stroke-opacity:1" />
      <g
         transform="matrix(0.694278,0,0,0.685154,-166.2512,323.3533)"
         id="g6706">
        <path
           sodipodi:type="arc"
           style="opacity:1;fill:#c4c5c2;fill-opacity:1;stroke:none;stroke-width:1;stroke-linecap:butt;stroke-linejoin:miter;stroke-miterlimit:2;stroke-dasharray:none;stroke-dashoffset:0;stroke-opacity:1"
           id="path6708"
           sodipodi:cx="288.375"
           sodipodi:cy="-437.59375"
           sodipodi:rx="3.3125"
           sodipodi:ry="3.3125"
           d="M 291.6875 -437.59375 A 3.3125 3.3125 0 1 1  285.0625,-437.59375 A 3.3125 3.3125 0 1 1  291.6875 -437.59375 z"
           transform="matrix(1.056604,0,0,1.056604,-31.19818,24.86331)" />
        <path
           sodipodi:type="arc"
           style="opacity:1;fill:url(#linearGradient3180);fill-opacity:1;stroke:none;stroke-width:1;stroke-linecap:butt;stroke-linejoin:miter;stroke-miterlimit:2;stroke-dasharray:none;stroke-dashoffset:0;stroke-opacity:1"
           id="path6710"
           sodipodi:cx="288.375"
           sodipodi:cy="-437.59375"
           sodipodi:rx="3.3125"
           sodipodi:ry="3.3125"
           d="M 291.6875 -437.59375 A 3.3125 3.3125 0 1 1  285.0625,-437.59375 A 3.3125 3.3125 0 1 1  291.6875 -437.59375 z"
           transform="matrix(1.056604,0,0,1.056604,-31.19818,24.86331)" />
      </g>
    </g>
    <g
       id="g4324"
       transform="translate(-11.87891,-8.99993)">
      <path
         sodipodi:nodetypes="ccsscsssscsscc"
         id="path4326"
         d="M 21.508174,15.499951 C 20.051064,15.499951 18.870991,16.533472 18.48032,17.916619 C 18.035499,17.674066 17.553429,17.499952 17.016522,17.499952 C 15.245529,17.499952 13.808193,18.99328 13.808199,20.833287 C 13.808199,21.219241 13.912483,21.571755 14.028772,21.916621 C 13.147464,22.430448 12.52487,23.375955 12.52487,24.499956 C 12.52487,26.155957 13.818466,27.499964 15.412361,27.499957 C 15.526019,27.499957 27.49033,27.499957 27.603988,27.499957 C 29.197876,27.499957 30.491478,26.155957 30.491478,24.499956 C 30.491478,23.375955 29.868885,22.430448 28.987577,21.916621 C 29.103872,21.571761 29.208149,21.219234 29.208149,20.833287 C 29.208149,18.993287 27.77082,17.499959 25.999826,17.499952 C 25.46292,17.499952 24.98085,17.674066 24.536029,17.916619 C 24.145358,16.533472 22.965285,15.499951 21.508174,15.499951 z "
         style="fill:#c4c5c2;fill-opacity:1;stroke:#888a85;stroke-width:1.00000024;stroke-linecap:butt;stroke-linejoin:miter;stroke-miterlimit:2;stroke-dasharray:none;stroke-dashoffset:0;stroke-opacity:1" />
      <path
         sodipodi:nodetypes="ccsscsssscsscc"
         id="path4328"
         d="M 21.508176,16.054256 C 20.126556,16.054256 19.158741,16.910046 18.734768,18.516688 C 18.312998,18.29654 17.758304,17.982785 17.249208,17.982785 C 15.535205,17.982785 14.248914,19.22493 14.24892,20.894981 C 14.24892,21.24528 14.41752,21.749277 14.527779,22.062288 C 13.692119,22.528665 12.990242,23.273477 12.990242,24.222984 C 12.990242,25.72603 13.96581,26.945893 15.728146,26.945893 C 15.83592,26.945893 27.18044,26.945893 27.288207,26.945893 C 29.036599,26.945893 30.026111,25.72603 30.026111,24.222984 C 30.026111,23.202798 29.324234,22.514513 28.488574,22.048136 C 28.59884,21.735131 28.781383,21.245273 28.781383,20.894981 C 28.781383,19.224937 27.446395,17.968632 25.767151,17.968626 C 25.258049,17.968626 24.731237,18.282387 24.309467,18.502535 C 23.90007,16.951124 22.889804,16.054256 21.508176,16.054256 z "
         style="fill:url(#linearGradient4368);fill-opacity:1;stroke:none;stroke-width:0.99999958;stroke-linecap:butt;stroke-linejoin:miter;stroke-miterlimit:2;stroke-dasharray:none;stroke-dashoffset:0;stroke-opacity:1" />
      <g
         transform="matrix(0.607494,0,0,0.59951,-148.8943,283.1861)"
         id="g4330">
        <path
           sodipodi:type="arc"
           style="opacity:1;fill:#c4c5c2;fill-opacity:1;stroke:none;stroke-width:1;stroke-linecap:butt;stroke-linejoin:miter;stroke-miterlimit:2;stroke-dasharray:none;stroke-dashoffset:0;stroke-opacity:1"
           id="path4332"
           sodipodi:cx="288.375"
           sodipodi:cy="-437.59375"
           sodipodi:rx="3.3125"
           sodipodi:ry="3.3125"
           d="M 291.6875 -437.59375 A 3.3125 3.3125 0 1 1  285.0625,-437.59375 A 3.3125 3.3125 0 1 1  291.6875 -437.59375 z"
           transform="matrix(1.056604,0,0,1.056604,-24.19818,21.86331)" />
        <path
           sodipodi:type="arc"
           style="opacity:1;fill:url(#linearGradient4370);fill-opacity:1;stroke:none;stroke-width:1;stroke-linecap:butt;stroke-linejoin:miter;stroke-miterlimit:2;stroke-dasharray:none;stroke-dashoffset:0;stroke-opacity:1"
           id="path4334"
           sodipodi:cx="288.375"
           sodipodi:cy="-437.59375"
           sodipodi:rx="3.3125"
           sodipodi:ry="3.3125"
           d="M 291.6875 -437.59375 A 3.3125 3.3125 0 1 1  285.0625,-437.59375 A 3.3125 3.3125 0 1 1  291.6875 -437.59375 z"
           transform="matrix(1.056604,0,0,1.056604,-24.19818,21.86331)" />
      </g>
      <rect
         y="20.6007"
         x="15.736475"
         height="5.3955903"
         width="12.149872"
         id="rect4336"
         style="fill:#c4c5c2;fill-opacity:1;stroke:none;stroke-width:1;stroke-linecap:butt;stroke-linejoin:miter;stroke-miterlimit:2;stroke-dasharray:none;stroke-dashoffset:0;stroke-opacity:1" />
      <path
         transform="matrix(0.550183,0,0,0.542952,-142.9226,261.7903)"
         d="M 291.6875 -437.59375 A 3.3125 3.3125 0 1 1  285.0625,-437.59375 A 3.3125 3.3125 0 1 1  291.6875 -437.59375 z"
         sodipodi:ry="3.3125"
         sodipodi:rx="3.3125"
         sodipodi:cy="-437.59375"
         sodipodi:cx="288.375"
         id="path4338"
         style="fill:#c4c5c2;fill-opacity:1;stroke:none;stroke-width:1;stroke-linecap:butt;stroke-linejoin:miter;stroke-miterlimit:2;stroke-dasharray:none;stroke-dashoffset:0;stroke-opacity:1"
         sodipodi:type="arc" />
      <g
         transform="matrix(0.607494,0,0,0.59951,-148.8943,283.1861)"
         id="g4340">
        <path
           sodipodi:type="arc"
           style="opacity:1;fill:#c4c5c2;fill-opacity:1;stroke:none;stroke-width:1;stroke-linecap:butt;stroke-linejoin:miter;stroke-miterlimit:2;stroke-dasharray:none;stroke-dashoffset:0;stroke-opacity:1"
           id="path4342"
           sodipodi:cx="288.375"
           sodipodi:cy="-437.59375"
           sodipodi:rx="3.3125"
           sodipodi:ry="3.3125"
           d="M 291.6875 -437.59375 A 3.3125 3.3125 0 1 1  285.0625,-437.59375 A 3.3125 3.3125 0 1 1  291.6875 -437.59375 z"
           transform="matrix(1.056604,0,0,1.056604,-17.19811,24.86321)" />
        <path
           sodipodi:type="arc"
           style="opacity:1;fill:url(#linearGradient4372);fill-opacity:1;stroke:none;stroke-width:1;stroke-linecap:butt;stroke-linejoin:miter;stroke-miterlimit:2;stroke-dasharray:none;stroke-dashoffset:0;stroke-opacity:1"
           id="path4344"
           sodipodi:cx="288.375"
           sodipodi:cy="-437.59375"
           sodipodi:rx="3.3125"
           sodipodi:ry="3.3125"
           d="M 291.6875 -437.59375 A 3.3125 3.3125 0 1 1  285.0625,-437.59375 A 3.3125 3.3125 0 1 1  291.6875 -437.59375 z"
           transform="matrix(1.056604,0,0,1.056604,-17.19818,24.86331)" />
      </g>
      <g
         transform="matrix(0.607494,0,0,0.59951,-148.8943,283.1861)"
         id="g4346">
        <path
           sodipodi:type="arc"
           style="opacity:1;fill:#c4c5c2;fill-opacity:1;stroke:none;stroke-width:1;stroke-linecap:butt;stroke-linejoin:miter;stroke-miterlimit:2;stroke-dasharray:none;stroke-dashoffset:0;stroke-opacity:1"
           id="path4348"
           sodipodi:cx="288.375"
           sodipodi:cy="-437.59375"
           sodipodi:rx="3.3125"
           sodipodi:ry="3.3125"
           d="M 291.6875 -437.59375 A 3.3125 3.3125 0 1 1  285.0625,-437.59375 A 3.3125 3.3125 0 1 1  291.6875 -437.59375 z"
           transform="matrix(1.056604,0,0,1.056604,-31.19818,24.86331)" />
        <path
           sodipodi:type="arc"
           style="opacity:1;fill:url(#linearGradient4374);fill-opacity:1;stroke:none;stroke-width:1;stroke-linecap:butt;stroke-linejoin:miter;stroke-miterlimit:2;stroke-dasharray:none;stroke-dashoffset:0;stroke-opacity:1"
           id="path4350"
           sodipodi:cx="288.375"
           sodipodi:cy="-437.59375"
           sodipodi:rx="3.3125"
           sodipodi:ry="3.3125"
           d="M 291.6875 -437.59375 A 3.3125 3.3125 0 1 1  285.0625,-437.59375 A 3.3125 3.3125 0 1 1  291.6875 -437.59375 z"
           transform="matrix(1.056604,0,0,1.056604,-31.19818,24.86331)" />
      </g>
      <g
         transform="matrix(0.607494,0,0,0.59951,-149.5018,283.1861)"
         id="g4352">
        <path
           style="opacity:1;fill:#c4c5c2;fill-opacity:1;stroke:none;stroke-width:1;stroke-linecap:butt;stroke-linejoin:miter;stroke-miterlimit:2;stroke-dasharray:none;stroke-dashoffset:0;stroke-opacity:1"
           d="M 280.46875,-440.96875 C 276.88937,-440.96875 274,-438.04812 274,-434.46875 C 274,-432.09807 275.34943,-430.13096 277.25,-429 L 283.71875,-429 C 285.61932,-430.13096 286.96875,-432.12931 286.96875,-434.5 C 286.96875,-438.07938 284.04812,-440.96875 280.46875,-440.96875 z "
           id="path4354" />
        <path
           style="opacity:1;fill:url(#linearGradient4376);fill-opacity:1;stroke:none;stroke-width:1;stroke-linecap:butt;stroke-linejoin:miter;stroke-miterlimit:2;stroke-dasharray:none;stroke-dashoffset:0;stroke-opacity:1"
           d="M 280.5,-441 C 276.912,-441 274,-438.08799 274,-434.5 C 274,-432.1236 275.34485,-430.13368 277.25,-429 L 283.75,-429 C 285.65515,-430.13368 287,-432.1236 287,-434.5 C 287,-438.088 284.088,-440.99999 280.5,-441 z "
           id="path4356" />
      </g>
      <path
         transform="matrix(0.550183,0,0,0.542952,-142.9,261.7939)"
         d="M 291.6875 -437.59375 A 3.3125 3.3125 0 1 1  285.0625,-437.59375 A 3.3125 3.3125 0 1 1  291.6875 -437.59375 z"
         sodipodi:ry="3.3125"
         sodipodi:rx="3.3125"
         sodipodi:cy="-437.59375"
         sodipodi:cx="288.375"
         id="path4358"
         style="fill:url(#linearGradient4378);fill-opacity:1;stroke:none;stroke-width:1;stroke-linecap:butt;stroke-linejoin:miter;stroke-miterlimit:2;stroke-dasharray:none;stroke-dashoffset:0;stroke-opacity:1"
         sodipodi:type="arc" />
      <path
         sodipodi:nodetypes="ccss"
         id="path4360"
         d="M 29.079863,21.5 C 29.078932,23.10942 27.093806,23.72655 27.093806,23.72655 C 27.093806,23.72655 28.520651,22.751777 28.513428,21.505359 C 28.513428,21.505359 29.079863,21.5 29.079863,21.5 z "
         style="fill:#888a85;fill-opacity:1;fill-rule:evenodd;stroke:none;stroke-width:1px;stroke-linecap:butt;stroke-linejoin:miter;stroke-opacity:1" />
      <g
         transform="matrix(0.694278,0,0,0.685154,-166.2512,323.3533)"
         id="g4362">
        <path
           sodipodi:type="arc"
           style="opacity:1;fill:#c4c5c2;fill-opacity:1;stroke:none;stroke-width:1;stroke-linecap:butt;stroke-linejoin:miter;stroke-miterlimit:2;stroke-dasharray:none;stroke-dashoffset:0;stroke-opacity:1"
           id="path4364"
           sodipodi:cx="288.375"
           sodipodi:cy="-437.59375"
           sodipodi:rx="3.3125"
           sodipodi:ry="3.3125"
           d="M 291.6875 -437.59375 A 3.3125 3.3125 0 1 1  285.0625,-437.59375 A 3.3125 3.3125 0 1 1  291.6875 -437.59375 z"
           transform="matrix(1.056604,0,0,1.056604,-31.19818,24.86331)" />
        <path
           sodipodi:type="arc"
           style="opacity:1;fill:url(#linearGradient4380);fill-opacity:1;stroke:none;stroke-width:1;stroke-linecap:butt;stroke-linejoin:miter;stroke-miterlimit:2;stroke-dasharray:none;stroke-dashoffset:0;stroke-opacity:1"
           id="path4366"
           sodipodi:cx="288.375"
           sodipodi:cy="-437.59375"
           sodipodi:rx="3.3125"
           sodipodi:ry="3.3125"
           d="M 291.6875 -437.59375 A 3.3125 3.3125 0 1 1  285.0625,-437.59375 A 3.3125 3.3125 0 1 1  291.6875 -437.59375 z"
           transform="matrix(1.056604,0,0,1.056604,-31.19818,24.86331)" />
      </g>
    </g>
  </g>
</svg>
