<?xml version="1.0" encoding="UTF-8" standalone="no"?>
<!-- Created with Inkscape (http://www.inkscape.org/) -->
<svg
   xmlns:dc="http://purl.org/dc/elements/1.1/"
   xmlns:cc="http://creativecommons.org/ns#"
   xmlns:rdf="http://www.w3.org/1999/02/22-rdf-syntax-ns#"
   xmlns:svg="http://www.w3.org/2000/svg"
   xmlns="http://www.w3.org/2000/svg"
   xmlns:xlink="http://www.w3.org/1999/xlink"
   xmlns:sodipodi="http://sodipodi.sourceforge.net/DTD/sodipodi-0.dtd"
   xmlns:inkscape="http://www.inkscape.org/namespaces/inkscape"
   inkscape:export-ydpi="90.000000"
   inkscape:export-xdpi="90.000000"
   inkscape:export-filename="/home/jimmac/src/cvs/tango-icon-theme/22x22/places/start-here.png"
   width="22"
   height="22"
   id="svg11300"
   sodipodi:version="0.32"
   inkscape:version="0.46"
   sodipodi:docbase="/home/jimmac/src/cvs/tango-icon-theme/22x22/places"
   sodipodi:docname="start-here.svg"
   version="1.0"
   inkscape:r_cx="true"
   inkscape:r_cy="true"
   inkscape:output_extension="org.inkscape.output.svg.inkscape">
  <defs
     id="defs3">
    <inkscape:perspective
       sodipodi:type="inkscape:persp3d"
       inkscape:vp_x="0 : 11 : 1"
       inkscape:vp_y="0 : 1000 : 0"
       inkscape:vp_z="22 : 11 : 1"
       inkscape:persp3d-origin="11 : 7.3333333 : 1"
       id="perspective58" />
    <linearGradient
       inkscape:collect="always"
       id="linearGradient4711">
      <stop
         style="stop-color:#000000;stop-opacity:1;"
         offset="0"
         id="stop4713" />
      <stop
         style="stop-color:#000000;stop-opacity:0;"
         offset="1"
         id="stop4715" />
    </linearGradient>
    <linearGradient
       inkscape:collect="always"
       id="linearGradient4697">
      <stop
         style="stop-color:#ffffff;stop-opacity:1;"
         offset="0"
         id="stop4699" />
      <stop
         style="stop-color:#ffffff;stop-opacity:0;"
         offset="1"
         id="stop4701" />
    </linearGradient>
    <linearGradient
       id="linearGradient11520">
      <stop
         id="stop11522"
         offset="0.0000000"
         style="stop-color:#ffffff;stop-opacity:1.0000000;" />
      <stop
         id="stop11524"
         offset="1.0000000"
         style="stop-color:#dcdcdc;stop-opacity:1.0000000;" />
    </linearGradient>
    <linearGradient
       id="linearGradient11508"
       inkscape:collect="always">
      <stop
         id="stop11510"
         offset="0"
         style="stop-color:#000000;stop-opacity:1;" />
      <stop
         id="stop11512"
         offset="1"
         style="stop-color:#000000;stop-opacity:0;" />
    </linearGradient>
    <linearGradient
       id="linearGradient11494"
       inkscape:collect="always">
      <stop
         id="stop11496"
         offset="0"
         style="stop-color:#ef2929;stop-opacity:1;" />
      <stop
         id="stop11498"
         offset="1"
         style="stop-color:#ef2929;stop-opacity:0;" />
    </linearGradient>
    <linearGradient
       id="linearGradient11415">
      <stop
         id="stop11417"
         offset="0.0000000"
         style="stop-color:#204a87;stop-opacity:0.0000000;" />
      <stop
         style="stop-color:#204a87;stop-opacity:1.0000000;"
         offset="0.50000000"
         id="stop11423" />
      <stop
         id="stop11419"
         offset="1"
         style="stop-color:#204a87;stop-opacity:0;" />
    </linearGradient>
    <linearGradient
       id="linearGradient11399"
       inkscape:collect="always">
      <stop
         id="stop11401"
         offset="0"
         style="stop-color:#000000;stop-opacity:1;" />
      <stop
         id="stop11403"
         offset="1"
         style="stop-color:#000000;stop-opacity:0;" />
    </linearGradient>
    <linearGradient
       gradientTransform="translate(-60.28571,-0.285714)"
       y2="34.462429"
       x2="43.615788"
       y1="3.774456"
       x1="15.82836"
       gradientUnits="userSpaceOnUse"
       id="linearGradient11425"
       xlink:href="#linearGradient11415"
       inkscape:collect="always" />
    <linearGradient
       gradientTransform="translate(-60.57143,0)"
       y2="39.033859"
       x2="35.679932"
       y1="9.3458843"
       x1="9.6957054"
       gradientUnits="userSpaceOnUse"
       id="linearGradient11427"
       xlink:href="#linearGradient11415"
       inkscape:collect="always" />
    <linearGradient
       y2="33.462429"
       x2="26.758644"
       y1="19.774456"
       x1="13.267134"
       gradientTransform="translate(-60.85714,0.428571)"
       gradientUnits="userSpaceOnUse"
       id="linearGradient11439"
       xlink:href="#linearGradient11415"
       inkscape:collect="always" />
    <radialGradient
       r="8.5"
       fy="39.142857"
       fx="12.071428"
       cy="39.142857"
       cx="12.071428"
       gradientTransform="matrix(1,0,0,0.487395,0,20.06483)"
       gradientUnits="userSpaceOnUse"
       id="radialGradient11441"
       xlink:href="#linearGradient11399"
       inkscape:collect="always" />
    <radialGradient
       gradientTransform="matrix(1.243453,2.106784e-16,-2.106784e-16,1.243453,-6.713754,-3.742847)"
       gradientUnits="userSpaceOnUse"
       r="3.8335035"
       fy="15.048258"
       fx="27.577173"
       cy="15.048258"
       cx="27.577173"
       id="radialGradient11500"
       xlink:href="#linearGradient11494"
       inkscape:collect="always" />
    <radialGradient
       r="3.8335035"
       fy="16.049133"
       fx="27.577173"
       cy="16.049133"
       cx="27.577173"
       gradientTransform="matrix(1.243453,2.106784e-16,-2.106784e-16,1.243453,-6.713754,-3.742847)"
       gradientUnits="userSpaceOnUse"
       id="radialGradient11504"
       xlink:href="#linearGradient11494"
       inkscape:collect="always" />
    <radialGradient
       gradientUnits="userSpaceOnUse"
       gradientTransform="matrix(1,0,0,0.338462,2.166583e-14,29.48178)"
       r="6.5659914"
       fy="44.565483"
       fx="30.203562"
       cy="44.565483"
       cx="30.203562"
       id="radialGradient11514"
       xlink:href="#linearGradient11508"
       inkscape:collect="always" />
    <radialGradient
       gradientTransform="matrix(1.995058,-1.651527e-32,0,1.995058,-24.32488,-35.70087)"
       gradientUnits="userSpaceOnUse"
       r="20.530962"
       fy="35.87817"
       fx="24.44569"
       cy="35.87817"
       cx="24.44569"
       id="radialGradient11526"
       xlink:href="#linearGradient11520"
       inkscape:collect="always" />
    <radialGradient
       r="6.5659914"
       fy="44.565483"
       fx="30.203562"
       cy="44.565483"
       cx="30.203562"
       gradientTransform="matrix(1,0,0,0.338462,3.185827e-15,29.48178)"
       gradientUnits="userSpaceOnUse"
       id="radialGradient11532"
       xlink:href="#linearGradient11508"
       inkscape:collect="always" />
    <radialGradient
       inkscape:collect="always"
       xlink:href="#linearGradient11508"
       id="radialGradient1348"
       gradientUnits="userSpaceOnUse"
       gradientTransform="matrix(1,0,0,0.338462,-1.353344e-14,29.48178)"
       cx="30.203562"
       cy="44.565483"
       fx="30.203562"
       fy="44.565483"
       r="6.5659914" />
    <radialGradient
       inkscape:collect="always"
       xlink:href="#linearGradient11520"
       id="radialGradient1350"
       gradientUnits="userSpaceOnUse"
       gradientTransform="matrix(1.995058,-1.651527e-32,0,1.995058,-24.32488,-35.70087)"
       cx="24.44569"
       cy="35.87817"
       fx="24.44569"
       fy="35.87817"
       r="20.530962" />
    <radialGradient
       inkscape:collect="always"
       xlink:href="#linearGradient11494"
       id="radialGradient1352"
       gradientUnits="userSpaceOnUse"
       gradientTransform="matrix(1.243453,2.106784e-16,-2.106784e-16,1.243453,-6.713754,-3.742847)"
       cx="27.577173"
       cy="16.049133"
       fx="27.577173"
       fy="16.049133"
       r="3.8335035" />
    <radialGradient
       inkscape:collect="always"
       xlink:href="#linearGradient11494"
       id="radialGradient1354"
       gradientUnits="userSpaceOnUse"
       gradientTransform="matrix(1.243453,2.106784e-16,-2.106784e-16,1.243453,-6.713754,-3.742847)"
       cx="27.577173"
       cy="15.048258"
       fx="27.577173"
       fy="15.048258"
       r="3.8335035" />
    <radialGradient
       inkscape:collect="always"
       xlink:href="#linearGradient11508"
       id="radialGradient1356"
       gradientUnits="userSpaceOnUse"
       gradientTransform="matrix(1,0,0,0.338462,2.220359e-14,29.48178)"
       cx="30.203562"
       cy="44.565483"
       fx="30.203562"
       fy="44.565483"
       r="6.5659914" />
    <radialGradient
       inkscape:collect="always"
       xlink:href="#linearGradient11520"
       id="radialGradient1366"
       gradientUnits="userSpaceOnUse"
       gradientTransform="matrix(2.049266,-1.696401e-32,0,2.049266,-25.65002,-37.31089)"
       cx="24.44569"
       cy="35.87817"
       fx="24.44569"
       fy="35.87817"
       r="20.530962" />
    <linearGradient
       inkscape:collect="always"
       xlink:href="#linearGradient4697"
       id="linearGradient4703"
       x1="10.871767"
       y1="15.555014"
       x2="10.871767"
       y2="54.634052"
       gradientUnits="userSpaceOnUse"
       gradientTransform="matrix(0.495353,0,0,0.499963,-0.570973,-0.884798)" />
    <linearGradient
       inkscape:collect="always"
       xlink:href="#linearGradient4697"
       id="linearGradient4707"
       gradientUnits="userSpaceOnUse"
       x1="10.871767"
       y1="15.555014"
       x2="10.871767"
       y2="54.634052"
       gradientTransform="matrix(-0.393484,0,0,0.405448,22.23,-3.048567)" />
    <radialGradient
       inkscape:collect="always"
       xlink:href="#linearGradient4711"
       id="radialGradient4717"
       cx="23.864855"
       cy="40.266018"
       fx="23.864855"
       fy="40.266018"
       r="14.672465"
       gradientTransform="matrix(1,0,0,0.340361,1.187419e-15,26.56102)"
       gradientUnits="userSpaceOnUse" />
    <radialGradient
       inkscape:collect="always"
       xlink:href="#linearGradient4711"
       id="radialGradient4721"
       gradientUnits="userSpaceOnUse"
       gradientTransform="matrix(1,0,0,0.340361,-1.298439e-15,26.56102)"
       cx="23.864855"
       cy="40.266018"
       fx="23.864855"
       fy="40.266018"
       r="14.672465" />
    <linearGradient
       inkscape:collect="always"
       xlink:href="#linearGradient4697"
       id="linearGradient4725"
       gradientUnits="userSpaceOnUse"
       gradientTransform="matrix(0.393484,0,0,0.405448,1.204095,1.768598)"
       x1="10.871767"
       y1="15.555014"
       x2="10.871767"
       y2="54.634052" />
  </defs>
  <sodipodi:namedview
     stroke="#ef2929"
     fill="#eeeeec"
     id="base"
     pagecolor="#ffffff"
     bordercolor="#666666"
     borderopacity="0.25490196"
     inkscape:pageopacity="0.0"
     inkscape:pageshadow="2"
     inkscape:zoom="5.6568542"
     inkscape:cx="17.417174"
     inkscape:cy="27.061829"
     inkscape:current-layer="layer1"
     showgrid="false"
     inkscape:grid-bbox="true"
     inkscape:document-units="px"
     inkscape:showpageshadow="false"
     inkscape:window-width="1032"
     inkscape:window-height="818"
     inkscape:window-x="402"
     inkscape:window-y="30"
     width="22px"
     height="22px" />
  <metadata
     id="metadata4">
    <rdf:RDF>
      <cc:Work
         rdf:about="">
        <dc:format>image/svg+xml</dc:format>
        <dc:type
           rdf:resource="http://purl.org/dc/dcmitype/StillImage" />
        <dc:creator>
          <cc:Agent>
            <dc:title>Jakub Steiner</dc:title>
          </cc:Agent>
        </dc:creator>
        <dc:source>http://jimmac.musichall.cz</dc:source>
        <cc:license
           rdf:resource="http://creativecommons.org/licenses/publicdomain/" />
        <dc:title>Start Here</dc:title>
        <dc:description>To be replaced by vendor/distribution branding.</dc:description>
        <dc:subject>
          <rdf:Bag>
            <rdf:li>start</rdf:li>
            <rdf:li>applications</rdf:li>
            <rdf:li>launchers</rdf:li>
          </rdf:Bag>
        </dc:subject>
      </cc:Work>
      <cc:License
         rdf:about="http://creativecommons.org/licenses/publicdomain/">
        <cc:permits
           rdf:resource="http://creativecommons.org/ns#Reproduction" />
        <cc:permits
           rdf:resource="http://creativecommons.org/ns#Distribution" />
        <cc:permits
           rdf:resource="http://creativecommons.org/ns#DerivativeWorks" />
      </cc:License>
    </rdf:RDF>
  </metadata>
  <g
     id="layer1"
     inkscape:label="Layer 1"
     inkscape:groupmode="layer"
     inkscape:r_cx="true"
     inkscape:r_cy="true">
    <g
       id="g9"
       inkscape:r_cx="true"
       inkscape:r_cy="true"
       transform="matrix(0.23182,0,0,0.234413,-23.23197,-21.98338)"
       style="fill:#3465a4;stroke:#204a87;stroke-width:4.28976536;stroke-miterlimit:4;stroke-dasharray:none">
      <path
         id="path11"
         d="M 148.52832,163.19141 C 148.26758,162.52539 147.9209,161.76758 147.49902,160.96484 L 144.86621,162.08984 C 142.99609,159.00586 142.88281,152.55859 143.23242,150.4751 C 144.07129,145.4751 146.37012,141.0542 144.79492,135.94482 C 142.9834,130.06885 139.11816,120.90479 132.90039,118.49854 C 129.3125,117.10986 126.57715,120.23877 124.8125,122.98584 C 122.10742,127.19775 120.62207,132.30615 120.15137,137.26416 C 119.61719,142.87744 120.96777,148.62744 123.6123,153.58594 C 126.15234,158.35156 130.41406,162.3457 132.11621,167.53906 L 129.81836,168.52148 C 129.98242,169.05469 130.16016,169.57031 130.35059,170.05469 C 132.2002,174.77539 138.41797,184.19141 144.86328,181 C 151.42285,177.75 150.68164,168.68945 148.52832,163.19141 z "
         inkscape:r_cx="true"
         inkscape:r_cy="true"
         style="fill:#3465a4;stroke:#204a87;stroke-width:4.28976536;stroke-miterlimit:4;stroke-dasharray:none" />
      <path
         id="path13"
         d="M 148.52832,163.19141 C 148.26758,162.52539 147.9209,161.76758 147.49902,160.96484 L 144.86621,162.08984 C 142.99609,159.00586 142.88281,152.55859 143.23242,150.4751 C 144.07129,145.4751 146.37012,141.0542 144.79492,135.94482 C 142.9834,130.06885 139.11816,120.90479 132.90039,118.49854 C 129.3125,117.10986 126.57715,120.23877 124.8125,122.98584 C 122.10742,127.19775 120.62207,132.30615 120.15137,137.26416 C 119.61719,142.87744 120.96777,148.62744 123.6123,153.58594 C 126.15234,158.35156 130.41406,162.3457 132.11621,167.53906 C 131.45735,167.7531 130.58431,168.19401 129.81836,168.52148 C 129.98242,169.05469 130.16016,169.57031 130.35059,170.05469 C 132.2002,174.77539 138.41797,184.19141 144.86328,181 C 151.42285,177.75 150.68164,168.68945 148.52832,163.19141 z "
         style="fill:#3465a4;stroke:#204a87;stroke-width:4.28976536;stroke-miterlimit:4;stroke-dasharray:none"
         inkscape:r_cx="true"
         inkscape:r_cy="true"
         sodipodi:nodetypes="cccssssssccssc" />
    </g>
    <g
       id="g15"
       inkscape:r_cx="true"
       inkscape:r_cy="true"
       transform="matrix(0.288314,0,0,0.291017,-31.74697,-32.25974)" />
    <g
       style="fill:#729fcf;stroke:#3465a4;stroke-width:4.28976699;stroke-miterlimit:4;stroke-dasharray:none"
       transform="matrix(-0.23182,0,0,0.234413,46.65023,-26.81601)"
       inkscape:r_cy="true"
       inkscape:r_cx="true"
       id="g4657">
      <path
         style="fill:#729fcf;stroke:#3465a4;stroke-width:4.28976699;stroke-miterlimit:4;stroke-dasharray:none"
         inkscape:r_cy="true"
         inkscape:r_cx="true"
         d="M 148.52832,163.19141 C 148.26758,162.52539 147.9209,161.76758 147.49902,160.96484 L 144.86621,162.08984 C 142.99609,159.00586 142.88281,152.55859 143.23242,150.4751 C 144.07129,145.4751 146.37012,141.0542 144.79492,135.94482 C 142.9834,130.06885 139.11816,120.90479 132.90039,118.49854 C 129.3125,117.10986 126.57715,120.23877 124.8125,122.98584 C 122.10742,127.19775 120.62207,132.30615 120.15137,137.26416 C 119.61719,142.87744 120.96777,148.62744 123.6123,153.58594 C 126.15234,158.35156 130.41406,162.3457 132.11621,167.53906 L 129.81836,168.52148 C 129.98242,169.05469 130.16016,169.57031 130.35059,170.05469 C 132.2002,174.77539 138.41797,184.19141 144.86328,181 C 151.42285,177.75 150.68164,168.68945 148.52832,163.19141 z "
         id="path4659" />
      <path
         inkscape:r_cy="true"
         inkscape:r_cx="true"
         style="fill:#729fcf;stroke:#3465a4;stroke-width:4.28976699;stroke-miterlimit:4;stroke-dasharray:none"
         d="M 148.52832,163.19141 C 148.26758,162.52539 147.9209,161.76758 147.49902,160.96484 L 144.86621,162.08984 C 142.99609,159.00586 142.88281,152.55859 143.23242,150.4751 C 144.07129,145.4751 146.37012,141.0542 144.79492,135.94482 C 142.9834,130.06885 139.11816,120.90479 132.90039,118.49854 C 129.3125,117.10986 126.57715,120.23877 124.8125,122.98584 C 122.10742,127.19775 120.62207,132.30615 120.15137,137.26416 C 119.61719,142.87744 120.96777,148.62744 123.6123,153.58594 C 126.15234,158.35156 130.41406,162.3457 132.11621,167.53906 L 129.81836,168.52148 C 129.98242,169.05469 130.16016,169.57031 130.35059,170.05469 C 132.2002,174.77539 138.41797,184.19141 144.86328,181 C 151.42285,177.75 150.68164,168.68945 148.52832,163.19141 z "
         id="path4661" />
    </g>
    <path
       inkscape:r_cy="true"
       inkscape:r_cx="true"
       style="opacity:0.53846154;fill:none;fill-opacity:1;stroke:url(#linearGradient4707);stroke-width:0.99999946;stroke-miterlimit:4;stroke-dasharray:none;stroke-opacity:1"
       d="M 13.007097,12.243542 L 13.483975,12.524524 C 13.760947,12.048983 14.657011,10.405437 14.502202,8.6577504 C 14.353218,6.9758295 13.769064,6.2339363 14.002357,5.446084 C 14.27065,4.5400263 15.193783,2.3624799 16.114659,1.9914429 C 16.64604,1.7773123 17.691762,3.9233148 17.808674,5.2715343 C 17.925736,6.6214773 17.381283,8.3841786 16.790743,9.2150565 C 16.312488,9.8879524 14.969071,12.230113 14.716976,13.030914 L 15.268853,13.244513 C 15.244556,13.326733 14.147733,15.070637 13.449629,14.667586 C 12.78669,14.284838 12.745741,12.875555 13.007097,12.243542 z "
       id="path4705"
       sodipodi:nodetypes="cczsszscczc" />
    <path
       sodipodi:nodetypes="cczsszscczc"
       id="path4723"
       d="M 10.426998,17.060707 L 9.9501205,17.341689 C 9.6731485,16.866148 8.7770845,15.222602 8.9318935,13.474915 C 9.0808775,11.792994 9.6650315,11.051101 9.4317385,10.263249 C 9.1634455,9.3571913 8.2403125,7.1796449 7.3194365,6.8086079 C 6.7880555,6.5944773 5.7423335,8.7404798 5.6254215,10.088699 C 5.5083595,11.438642 6.0528125,13.201344 6.6433525,14.032221 C 7.1216075,14.705117 8.4650245,17.047278 8.7171195,17.848079 L 8.1652425,18.061678 C 8.1895395,18.143898 9.2863625,19.887802 9.9844665,19.484751 C 10.647405,19.102003 10.688354,17.69272 10.426998,17.060707 z "
       style="opacity:0.23076923;fill:none;fill-opacity:1;stroke:url(#linearGradient4725);stroke-width:0.99999946;stroke-miterlimit:4;stroke-dasharray:none;stroke-opacity:1"
       inkscape:r_cx="true"
       inkscape:r_cy="true" />
  </g>
</svg>
