<?xml version="1.0" encoding="UTF-8" standalone="no"?>
<!-- Created with Inkscape (http://www.inkscape.org/) -->
<svg
   xmlns:dc="http://purl.org/dc/elements/1.1/"
   xmlns:cc="http://creativecommons.org/ns#"
   xmlns:rdf="http://www.w3.org/1999/02/22-rdf-syntax-ns#"
   xmlns:svg="http://www.w3.org/2000/svg"
   xmlns="http://www.w3.org/2000/svg"
   xmlns:xlink="http://www.w3.org/1999/xlink"
   xmlns:sodipodi="http://sodipodi.sourceforge.net/DTD/sodipodi-0.dtd"
   xmlns:inkscape="http://www.inkscape.org/namespaces/inkscape"
   inkscape:export-ydpi="90.000000"
   inkscape:export-xdpi="90.000000"
   inkscape:export-filename="/home/jimmac/Desktop/wi-fi.png"
   width="32"
   height="32"
   id="svg11300"
   sodipodi:version="0.32"
   inkscape:version="0.46"
   sodipodi:docbase="/home/lapo/Desktop/tango-icon-theme/32x32/devices"
   sodipodi:docname="audio-input-microphone.svg"
   version="1.0"
   inkscape:output_extension="org.inkscape.output.svg.inkscape">
  <defs
     id="defs3">
    <inkscape:perspective
       sodipodi:type="inkscape:persp3d"
       inkscape:vp_x="0 : 16 : 1"
       inkscape:vp_y="0 : 1000 : 0"
       inkscape:vp_z="32 : 16 : 1"
       inkscape:persp3d-origin="16 : 10.666667 : 1"
       id="perspective72" />
    <linearGradient
       id="linearGradient2407">
      <stop
         style="stop-color:#d5d5d5;stop-opacity:1;"
         offset="0"
         id="stop2409" />
      <stop
         style="stop-color:#747474;stop-opacity:1;"
         offset="1"
         id="stop2411" />
    </linearGradient>
    <linearGradient
       inkscape:collect="always"
       id="linearGradient2399">
      <stop
         style="stop-color:#ffffff;stop-opacity:1;"
         offset="0"
         id="stop2401" />
      <stop
         style="stop-color:#ffffff;stop-opacity:0;"
         offset="1"
         id="stop2403" />
    </linearGradient>
    <linearGradient
       id="linearGradient2371">
      <stop
         style="stop-color:#000000;stop-opacity:1;"
         offset="0"
         id="stop2373" />
      <stop
         style="stop-color:#000000;stop-opacity:0.48453608;"
         offset="1"
         id="stop2375" />
    </linearGradient>
    <linearGradient
       inkscape:collect="always"
       id="linearGradient2355">
      <stop
         style="stop-color:#000000;stop-opacity:1;"
         offset="0"
         id="stop2357" />
      <stop
         style="stop-color:#000000;stop-opacity:0;"
         offset="1"
         id="stop2359" />
    </linearGradient>
    <linearGradient
       id="linearGradient2345">
      <stop
         style="stop-color:#d5d5d5;stop-opacity:1;"
         offset="0"
         id="stop2347" />
      <stop
         style="stop-color:#a0a0a0;stop-opacity:1;"
         offset="1"
         id="stop2349" />
    </linearGradient>
    <linearGradient
       inkscape:collect="always"
       id="linearGradient2337">
      <stop
         style="stop-color:#ffffff;stop-opacity:1;"
         offset="0"
         id="stop2339" />
      <stop
         style="stop-color:#ffffff;stop-opacity:0;"
         offset="1"
         id="stop2341" />
    </linearGradient>
    <linearGradient
       inkscape:collect="always"
       id="linearGradient2252">
      <stop
         style="stop-color:#c6c6c6;stop-opacity:1;"
         offset="0"
         id="stop2254" />
      <stop
         style="stop-color:#c6c6c6;stop-opacity:0;"
         offset="1"
         id="stop2256" />
    </linearGradient>
    <linearGradient
       inkscape:collect="always"
       id="linearGradient2242">
      <stop
         style="stop-color:#000000;stop-opacity:1;"
         offset="0"
         id="stop2244" />
      <stop
         style="stop-color:#000000;stop-opacity:0;"
         offset="1"
         id="stop2246" />
    </linearGradient>
    <linearGradient
       id="linearGradient2232">
      <stop
         style="stop-color:#b0b0b0;stop-opacity:1;"
         offset="0"
         id="stop2234" />
      <stop
         style="stop-color:#747474;stop-opacity:1;"
         offset="1"
         id="stop2236" />
    </linearGradient>
    <radialGradient
       inkscape:collect="always"
       xlink:href="#linearGradient2242"
       id="radialGradient1951"
       gradientUnits="userSpaceOnUse"
       gradientTransform="matrix(1,0,0,0.425856,0,23.53992)"
       cx="25.1875"
       cy="41"
       fx="25.1875"
       fy="41"
       r="16.4375" />
    <radialGradient
       inkscape:collect="always"
       xlink:href="#linearGradient2232"
       id="radialGradient1953"
       gradientUnits="userSpaceOnUse"
       gradientTransform="matrix(1,0,0,0.52514,0,22.02165)"
       cx="15.4375"
       cy="42.090427"
       fx="15.4375"
       fy="42.090427"
       r="11.1875" />
    <radialGradient
       inkscape:collect="always"
       xlink:href="#linearGradient2407"
       id="radialGradient1969"
       gradientUnits="userSpaceOnUse"
       gradientTransform="matrix(0.435326,0,0,0.435326,18.91658,12.49341)"
       cx="33.499996"
       cy="20.538168"
       fx="33.499996"
       fy="20.538168"
       r="2.2697368" />
    <linearGradient
       inkscape:collect="always"
       xlink:href="#linearGradient2399"
       id="linearGradient1983"
       gradientUnits="userSpaceOnUse"
       x1="16.4375"
       y1="49.110714"
       x2="17.402376"
       y2="43.420425" />
    <linearGradient
       inkscape:collect="always"
       xlink:href="#linearGradient2371"
       id="linearGradient1988"
       gradientUnits="userSpaceOnUse"
       x1="18.328718"
       y1="15.323075"
       x2="14.40625"
       y2="14.046875"
       gradientTransform="matrix(0.743033,0,0,0.742797,-1.9663,-0.841602)" />
    <linearGradient
       inkscape:collect="always"
       xlink:href="#linearGradient2371"
       id="linearGradient1991"
       gradientUnits="userSpaceOnUse"
       x1="18.328718"
       y1="15.323075"
       x2="14.40625"
       y2="14.046875"
       gradientTransform="matrix(0.743033,0,0,0.742797,-1.9663,-0.841602)" />
    <linearGradient
       inkscape:collect="always"
       xlink:href="#linearGradient2371"
       id="linearGradient1994"
       gradientUnits="userSpaceOnUse"
       x1="18.328718"
       y1="15.323075"
       x2="14.40625"
       y2="14.046875"
       gradientTransform="matrix(0.743033,0,0,0.742797,-1.9663,-0.841602)" />
    <linearGradient
       inkscape:collect="always"
       xlink:href="#linearGradient2371"
       id="linearGradient1997"
       gradientUnits="userSpaceOnUse"
       x1="18.328718"
       y1="15.323075"
       x2="14.40625"
       y2="14.046875"
       gradientTransform="matrix(0.743033,0,0,0.742797,-1.9663,-0.841602)" />
    <linearGradient
       inkscape:collect="always"
       xlink:href="#linearGradient2371"
       id="linearGradient2000"
       gradientUnits="userSpaceOnUse"
       x1="18.328718"
       y1="15.323075"
       x2="14.40625"
       y2="14.046875"
       gradientTransform="matrix(0.743033,0,0,0.742797,-1.9663,-0.841602)" />
    <linearGradient
       inkscape:collect="always"
       xlink:href="#linearGradient2355"
       id="linearGradient2003"
       gradientUnits="userSpaceOnUse"
       x1="25.160467"
       y1="15.803662"
       x2="33.96875"
       y2="20.4375"
       gradientTransform="matrix(0.743033,0,0,0.742797,-1.9663,-0.841602)" />
    <linearGradient
       inkscape:collect="always"
       xlink:href="#linearGradient2355"
       id="linearGradient2007"
       gradientUnits="userSpaceOnUse"
       x1="25.160467"
       y1="15.803662"
       x2="33.96875"
       y2="20.4375"
       gradientTransform="matrix(0.743033,0,0,0.742797,-1.9663,-0.841602)" />
    <linearGradient
       inkscape:collect="always"
       xlink:href="#linearGradient2355"
       id="linearGradient2010"
       gradientUnits="userSpaceOnUse"
       x1="25.160467"
       y1="15.803662"
       x2="33.96875"
       y2="20.4375"
       gradientTransform="matrix(0.743033,0,0,0.742797,-1.9663,-0.841602)" />
    <linearGradient
       inkscape:collect="always"
       xlink:href="#linearGradient2355"
       id="linearGradient2013"
       gradientUnits="userSpaceOnUse"
       x1="25.160467"
       y1="15.803662"
       x2="33.96875"
       y2="20.4375"
       gradientTransform="matrix(0.743033,0,0,0.742797,-1.9663,-0.841602)" />
    <linearGradient
       inkscape:collect="always"
       xlink:href="#linearGradient2355"
       id="linearGradient2017"
       gradientUnits="userSpaceOnUse"
       x1="25.160467"
       y1="15.803662"
       x2="33.96875"
       y2="20.4375"
       gradientTransform="matrix(0.743033,0,0,0.742797,-1.9663,-0.841602)" />
    <radialGradient
       inkscape:collect="always"
       xlink:href="#linearGradient2337"
       id="radialGradient2020"
       gradientUnits="userSpaceOnUse"
       gradientTransform="matrix(1.746843,0,0,1.677995,-22.17253,-5.431962)"
       cx="20.275276"
       cy="5.7119732"
       fx="20.275276"
       fy="5.7119732"
       r="12.494026" />
    <radialGradient
       inkscape:collect="always"
       xlink:href="#linearGradient2345"
       id="radialGradient2024"
       gradientUnits="userSpaceOnUse"
       gradientTransform="matrix(1.029362,-5.789999e-2,-4.053101e-2,2.733314,-7.498386,-14.15869)"
       cx="19.557497"
       cy="6.644074"
       fx="19.557497"
       fy="6.644074"
       r="10.98921" />
    <linearGradient
       inkscape:collect="always"
       xlink:href="#linearGradient2252"
       id="linearGradient2027"
       gradientUnits="userSpaceOnUse"
       x1="41.25"
       y1="36.689548"
       x2="48.25"
       y2="35.689548"
       gradientTransform="matrix(0.666667,0,0,0.666667,0,-1.6e-5)" />
  </defs>
  <sodipodi:namedview
     stroke="#ef2929"
     fill="#eeeeec"
     id="base"
     pagecolor="#ffffff"
     bordercolor="#666"
     borderopacity="1"
     inkscape:pageopacity="0.0"
     inkscape:pageshadow="2"
     inkscape:zoom="1"
     inkscape:cx="-136.21849"
     inkscape:cy="9.9538268"
     inkscape:current-layer="layer1"
     showgrid="false"
     inkscape:grid-bbox="true"
     inkscape:document-units="px"
     inkscape:showpageshadow="false"
     inkscape:window-width="1034"
     inkscape:window-height="818"
     inkscape:window-x="0"
     inkscape:window-y="30"
     width="32px"
     height="32px"
     showborder="false" />
  <metadata
     id="metadata4">
    <rdf:RDF>
      <cc:Work
         rdf:about="">
        <dc:format>image/svg+xml</dc:format>
        <dc:type
           rdf:resource="http://purl.org/dc/dcmitype/StillImage" />
        <dc:creator>
          <cc:Agent>
            <dc:title>Jakub Steiner</dc:title>
          </cc:Agent>
        </dc:creator>
        <dc:source>http://jimmac.musichall.cz</dc:source>
        <cc:license
           rdf:resource="http://creativecommons.org/licenses/publicdomain/" />
        <dc:title>Microphone</dc:title>
        <dc:subject>
          <rdf:Bag>
            <rdf:li>mic</rdf:li>
            <rdf:li>mike</rdf:li>
            <rdf:li>microphone</rdf:li>
            <rdf:li>input</rdf:li>
            <rdf:li>audio</rdf:li>
            <rdf:li>record</rdf:li>
            <rdf:li>voice</rdf:li>
          </rdf:Bag>
        </dc:subject>
      </cc:Work>
      <cc:License
         rdf:about="http://creativecommons.org/licenses/publicdomain/">
        <cc:permits
           rdf:resource="http://creativecommons.org/ns#Reproduction" />
        <cc:permits
           rdf:resource="http://creativecommons.org/ns#Distribution" />
        <cc:permits
           rdf:resource="http://creativecommons.org/ns#DerivativeWorks" />
      </cc:License>
    </rdf:RDF>
  </metadata>
  <g
     id="layer1"
     inkscape:label="Layer 1"
     inkscape:groupmode="layer">
    <path
       sodipodi:type="arc"
       style="opacity:0.49431817;color:black;fill:url(#radialGradient1951);fill-opacity:1;fill-rule:evenodd;stroke:none;stroke-width:2;stroke-linecap:butt;stroke-linejoin:miter;marker:none;marker-start:none;marker-mid:none;marker-end:none;stroke-miterlimit:4;stroke-dasharray:none;stroke-dashoffset:0;stroke-opacity:1;visibility:visible;display:inline;overflow:visible"
       id="path2240"
       sodipodi:cx="25.1875"
       sodipodi:cy="41"
       sodipodi:rx="16.4375"
       sodipodi:ry="7"
       d="M 41.625 41 A 16.4375 7 0 1 1  8.75,41 A 16.4375 7 0 1 1  41.625 41 z"
       transform="matrix(0.737643,0,0,0.696429,-1.787706,-1.678588)" />
    <path
       sodipodi:type="arc"
       style="color:black;fill:url(#radialGradient1953);fill-opacity:1;fill-rule:evenodd;stroke:#424242;stroke-width:1.48016477;stroke-linecap:butt;stroke-linejoin:miter;marker:none;marker-start:none;marker-mid:none;marker-end:none;stroke-miterlimit:4;stroke-dasharray:none;stroke-dashoffset:0;stroke-opacity:1;visibility:visible;display:inline;overflow:visible"
       id="path2222"
       sodipodi:cx="16.4375"
       sodipodi:cy="46.375"
       sodipodi:rx="11.1875"
       sodipodi:ry="5.875"
       d="M 27.625 46.375 A 11.1875 5.875 0 1 1  5.25,46.375 A 11.1875 5.875 0 1 1  27.625 46.375 z"
       transform="matrix(0.670391,0,0,0.680851,5.980447,-5.074465)" />
    <path
       transform="matrix(1.377779,0,0,0.844445,-29.32223,6.316654)"
       d="M 35.375 22.125 A 1.875 1.875 0 1 1  31.625,22.125 A 1.875 1.875 0 1 1  35.375 22.125 z"
       sodipodi:ry="1.875"
       sodipodi:rx="1.875"
       sodipodi:cy="22.125"
       sodipodi:cx="33.5"
       id="path2260"
       style="color:black;fill:#424242;fill-opacity:1;fill-rule:evenodd;stroke:none;stroke-width:2;stroke-linecap:butt;stroke-linejoin:miter;marker:none;marker-start:none;marker-mid:none;marker-end:none;stroke-miterlimit:4;stroke-dasharray:none;stroke-dashoffset:0;stroke-opacity:1;visibility:visible;display:inline;overflow:visible"
       sodipodi:type="arc" />
    <path
       style="color:black;fill:none;fill-opacity:1;fill-rule:evenodd;stroke:url(#linearGradient2027);stroke-width:1.00000048;stroke-linecap:butt;stroke-linejoin:miter;marker:none;marker-start:none;marker-mid:none;marker-end:none;stroke-miterlimit:4;stroke-dasharray:none;stroke-dashoffset:0;stroke-opacity:1;visibility:visible;display:inline;overflow:visible"
       d="M 13.500007,20.916661 C 13.500007,20.916661 13.99059,23.184822 15.500008,22.999996 C 19.583343,22.499995 19.147584,22.673657 22.083344,23.583329 C 25.041679,24.499996 23.479178,25.979164 26.500013,26.249997 C 29.520848,26.520831 29.250015,23.833329 31.833349,23.666663"
       id="path2250"
       sodipodi:nodetypes="cszzc" />
    <rect
       style="color:black;fill:url(#radialGradient2024);fill-opacity:1;fill-rule:evenodd;stroke:none;stroke-width:1.00019825;stroke-linecap:butt;stroke-linejoin:miter;marker:none;marker-start:none;marker-mid:none;marker-end:none;stroke-miterlimit:4;stroke-dasharray:none;stroke-dashoffset:0;stroke-opacity:1;visibility:visible;display:inline;overflow:visible"
       id="rect1343"
       width="15.273471"
       height="21.042574"
       x="10.216802"
       y="-3.009614"
       rx="4.6183748"
       ry="4.5892258"
       transform="matrix(0.971136,0.238526,-0.265801,0.964028,0,0)" />
    <rect
       transform="matrix(0.970726,0.240188,-0.263987,0.964526,0,0)"
       ry="3.597367"
       rx="3.5970178"
       y="-1.9634553"
       x="11.298108"
       height="18.932737"
       width="13.181935"
       id="rect2353"
       style="opacity:0.5372549;color:black;fill:none;fill-opacity:1;fill-rule:evenodd;stroke:white;stroke-width:1.00015152;stroke-linecap:butt;stroke-linejoin:miter;marker:none;marker-start:none;marker-mid:none;marker-end:none;stroke-miterlimit:4;stroke-dasharray:none;stroke-dashoffset:0;stroke-opacity:1;visibility:visible;display:inline;overflow:visible" />
    <path
       style="opacity:0.44318183;color:black;fill:url(#radialGradient2020);fill-opacity:1;fill-rule:evenodd;stroke:none;stroke-width:1.00015175;stroke-linecap:butt;stroke-linejoin:miter;marker:none;marker-start:none;marker-mid:none;marker-end:none;stroke-miterlimit:4;stroke-dasharray:none;stroke-dashoffset:0;stroke-opacity:1;visibility:visible;display:inline;overflow:visible"
       d="M 13.119896,0.9033354 C 11.586797,1.1609205 10.255015,2.3938736 9.8196534,4.0778884 L 6.4762712,17.118679 C 8.4482689,18.144844 11.05786,17.461257 13.52973,17.461257 C 13.867957,17.461257 14.211741,17.460141 14.54353,17.438418 C 13.898052,17.272108 12.947334,17.027324 12.947334,17.027324 C 12.795575,16.983807 12.656614,16.92852 12.55907,16.844617 C 12.555804,16.841647 12.540668,16.824825 12.5375,16.821778 C 12.528302,16.812395 12.505104,16.787965 12.49436,16.776102 C 12.490455,16.772056 12.476665,16.757332 12.47279,16.753262 C 12.467114,16.741672 12.455571,16.716659 12.451219,16.707586 C 12.444543,16.689798 12.434152,16.655013 12.429649,16.639071 C 12.429785,16.636804 12.429607,16.618232 12.429649,16.616232 C 12.425625,16.608352 12.411961,16.578551 12.408079,16.570554 C 12.408128,16.566067 12.408111,16.550637 12.408079,16.547716 C 12.408238,16.534659 12.408056,16.510462 12.408079,16.502039 C 12.408006,16.49762 12.40786,16.481853 12.408079,16.479201 C 12.408004,16.476887 12.408086,16.45839 12.408079,16.456363 C 12.413684,16.429887 12.425102,16.388042 12.429649,16.365007 C 12.433278,16.357506 12.447184,16.327556 12.451219,16.319331 C 12.45122,16.317242 12.451401,16.29874 12.451219,16.296492 C 12.456476,16.278535 12.466628,16.244256 12.47279,16.227976 C 12.478362,16.215947 12.49084,16.189632 12.49436,16.1823 C 12.511454,16.149302 12.538021,16.096298 12.55907,16.068107 C 12.563502,16.063369 12.577701,16.048384 12.58064,16.045269 C 12.588405,16.041241 12.616681,16.026085 12.623781,16.02243 C 12.643491,16.009895 12.685446,15.987572 12.710061,15.976754 C 12.71757,15.976865 12.745623,15.976524 12.753202,15.976754 C 12.753078,15.975477 12.753165,15.959043 12.753202,15.953915 C 12.758042,15.953873 12.77355,15.953764 12.774773,15.953915 C 12.895451,15.930038 13.048444,15.948919 13.206176,15.976754 L 17.304517,16.981648 C 18.126114,16.768871 18.910878,16.477206 19.65567,16.136623 C 19.550474,16.073673 19.436541,16.033689 19.332117,15.999592 C 19.306323,15.991684 19.27145,15.982462 19.245836,15.976754 C 19.245836,15.976754 13.57287,14.515089 13.57287,14.515089 C 13.421111,14.471572 13.266254,14.416284 13.163037,14.332381 C 13.159583,14.329411 13.144812,14.312589 13.141466,14.309542 C 13.138346,14.306331 13.122898,14.289997 13.119896,14.286704 C 13.117014,14.283324 13.101083,14.267331 13.098326,14.263865 C 13.094586,14.256098 13.080195,14.226164 13.076755,14.218188 C 13.07282,14.214167 13.059086,14.199395 13.055185,14.19535 C 13.055402,14.193017 13.055122,14.174527 13.055185,14.17251 C 13.05123,14.164556 13.037413,14.134896 13.033615,14.126834 C 13.033733,14.124569 13.033575,14.105995 13.033615,14.103994 C 13.033594,14.096115 13.033464,14.066315 13.033615,14.058318 C 13.033112,14.042583 13.032463,14.006648 13.033615,13.989803 C 13.033644,13.98722 13.033711,13.96986 13.033615,13.966964 C 13.033127,13.957458 13.03303,13.929371 13.033615,13.921287 C 13.033516,13.918777 13.03363,13.900517 13.033615,13.898448 C 13.03758,13.890301 13.051507,13.86036 13.055185,13.852772 C 13.061252,13.832431 13.07012,13.802822 13.076755,13.784257 C 13.080416,13.776481 13.094507,13.746419 13.098326,13.738579 C 13.110145,13.712028 13.128956,13.670197 13.141466,13.647225 C 13.15142,13.631905 13.172444,13.595832 13.184606,13.578709 C 13.187766,13.575147 13.202954,13.559277 13.206176,13.555871 C 13.210606,13.551132 13.224808,13.536147 13.227747,13.533033 C 13.235541,13.529004 13.263809,13.513848 13.270887,13.510194 C 13.281857,13.50416 13.305354,13.49182 13.314028,13.487356 C 13.319904,13.484572 13.345734,13.470523 13.357168,13.464518 C 13.359347,13.464695 13.376841,13.464465 13.378738,13.464518 C 13.381692,13.461416 13.39581,13.446385 13.400308,13.441678 C 13.402228,13.441721 13.419633,13.441558 13.421879,13.441678 C 13.426817,13.436548 13.442531,13.42012 13.443449,13.41884 C 13.445696,13.418957 13.4631,13.418797 13.46502,13.41884 C 13.469409,13.41893 13.484517,13.418928 13.48659,13.41884 C 13.586088,13.414605 13.708864,13.442838 13.831713,13.464518 L 19.569389,14.880504 C 19.996917,15.00683 20.388932,15.325433 20.691041,15.634175 C 21.045663,15.434474 21.375268,15.199421 21.70484,14.971859 C 21.604309,14.829348 20.786505,13.729819 20.043933,13.487356 C 20.01814,13.479448 19.983267,13.470226 19.957653,13.464518 C 19.957653,13.464518 14.284688,12.002853 14.284688,12.002853 C 14.132927,11.959336 13.97807,11.904047 13.874853,11.820144 C 13.871399,11.817174 13.85663,11.800354 13.853283,11.797306 C 13.850163,11.794096 13.834715,11.777761 13.831713,11.774466 C 13.828831,11.771088 13.8129,11.755096 13.810143,11.751628 C 13.806404,11.743862 13.792011,11.713927 13.788573,11.705951 C 13.784636,11.701931 13.770903,11.68716 13.767002,11.683113 C 13.767218,11.680782 13.766939,11.662292 13.767002,11.660275 C 13.763047,11.652321 13.74923,11.622661 13.745432,11.614597 C 13.74555,11.612333 13.745392,11.593759 13.745432,11.591759 C 13.74541,11.583879 13.745281,11.55408 13.745432,11.546082 C 13.744929,11.530348 13.74428,11.494411 13.745432,11.477567 C 13.745461,11.474982 13.745528,11.457623 13.745432,11.454727 C 13.744943,11.445222 13.744847,11.417134 13.745432,11.409051 C 13.745333,11.406541 13.745448,11.388281 13.745432,11.386212 C 13.749396,11.378064 13.763323,11.348122 13.767002,11.340536 C 13.773069,11.320195 13.781937,11.290586 13.788573,11.27202 C 13.792234,11.264245 13.806323,11.234182 13.810143,11.226343 C 13.821961,11.199793 13.840774,11.157961 13.853283,11.134989 C 13.863236,11.11967 13.884262,11.083597 13.896423,11.066473 C 13.899583,11.062911 13.914771,11.047041 13.917994,11.043634 C 13.922423,11.038895 13.936624,11.023912 13.939564,11.020796 C 13.947359,11.016768 13.975627,11.001612 13.982705,10.997958 C 13.993673,10.991923 14.017171,10.979585 14.025844,10.975119 C 14.029634,10.970933 14.043609,10.956434 14.047415,10.95228 C 14.054959,10.952407 14.082948,10.952035 14.090556,10.95228 C 14.09351,10.949181 14.107627,10.934149 14.112126,10.929442 C 14.114044,10.929485 14.13145,10.929322 14.133696,10.929442 C 14.138633,10.924311 14.154347,10.907885 14.155267,10.906603 C 14.157513,10.906721 14.174918,10.906562 14.176836,10.906603 C 14.181225,10.906694 14.196333,10.906691 14.198406,10.906603 C 14.297904,10.902369 14.420681,10.930602 14.54353,10.95228 L 20.281206,12.368268 C 21.208725,12.64233 21.985253,13.829933 21.985253,13.829933 L 21.70484,14.971859 C 21.831961,14.884085 21.969944,14.812354 22.093104,14.720635 L 23.883432,7.7548888 C 24.464213,5.5083702 23.220537,3.2628277 21.100874,2.7075777 L 14.694521,1.0175279 C 14.280526,0.90908061 13.870887,0.87322936 13.46502,0.9033354 C 13.46257,0.90351705 13.447649,0.90339252 13.443449,0.9033354 C 13.434548,0.90314904 13.408903,0.9037751 13.400308,0.9033354 C 13.395977,0.90317579 13.383177,0.90335218 13.378738,0.9033354 C 13.376635,0.90329002 13.36173,0.90335634 13.357168,0.9033354 C 13.336454,0.90394952 13.291553,0.9024299 13.270887,0.9033354 C 13.264492,0.90361188 13.238932,0.90351157 13.227747,0.9033354 C 13.225105,0.9032978 13.20901,0.90316548 13.206176,0.9033354 C 13.198848,0.90320374 13.17036,0.90343647 13.163037,0.9033354 C 13.1557,0.90319727 13.127226,0.90344327 13.119896,0.9033354 z M 10.013786,4.7173668 L 13.400308,5.4253606 C 13.531752,5.4681829 13.670513,5.5314731 13.767002,5.6309072 C 13.770129,5.6343034 13.785539,5.6502665 13.788573,5.6537457 C 13.791509,5.6573092 13.807306,5.6729351 13.810143,5.6765842 C 13.813829,5.6843228 13.828273,5.7143221 13.831713,5.7222613 C 13.835632,5.726273 13.849392,5.7410647 13.853283,5.7450997 C 13.860247,5.7630891 13.869523,5.7972715 13.874853,5.8136153 C 13.880907,5.834483 13.891998,5.8790691 13.896423,5.9049692 C 13.896369,5.909443 13.896388,5.9248876 13.896423,5.9278079 C 13.89625,5.9407662 13.89645,5.9648966 13.896423,5.9734849 C 13.896667,5.9942118 13.897802,6.0430738 13.896423,6.0648388 C 13.896523,6.0673473 13.896412,6.0856107 13.896423,6.0876774 C 13.892472,6.0957974 13.878627,6.1254368 13.874853,6.1333544 C 13.869858,6.1534565 13.859214,6.1834051 13.853283,6.2018699 C 13.853479,6.2041189 13.85326,6.2226032 13.853283,6.2247086 C 13.849374,6.2330998 13.835447,6.263012 13.831713,6.2703854 C 13.826794,6.2809483 13.815421,6.3061734 13.810143,6.3160625 C 13.806282,6.3200717 13.792454,6.3349329 13.788573,6.3389011 C 13.784941,6.3470085 13.770715,6.3766301 13.767002,6.3845781 C 13.763867,6.3885554 13.748643,6.403594 13.745432,6.4074166 C 13.742147,6.4110859 13.72722,6.426737 13.723862,6.430255 C 13.720433,6.4336236 13.705789,6.4498727 13.702291,6.4530936 C 13.694961,6.4569994 13.666625,6.4723465 13.659152,6.4759321 C 13.655354,6.4800788 13.641393,6.4946581 13.637581,6.4987706 C 13.623039,6.5051431 13.587875,6.516412 13.57287,6.521609 C 13.556149,6.5279645 13.525556,6.5400379 13.508159,6.5444477 C 13.394104,6.5700659 13.264147,6.5587216 13.141466,6.521609 L 9.733373,5.7450997 L 10.013786,4.7173668 z M 15.406338,5.8821308 C 15.408585,5.882248 15.425989,5.8820887 15.427909,5.8821308 C 15.432298,5.882221 15.447406,5.882219 15.449479,5.8821308 C 15.548977,5.8778953 15.671754,5.9061291 15.794603,5.9278079 L 21.532278,7.3437955 C 22.459798,7.6178576 23.063763,8.6227521 23.063763,8.6227521 L 22.826491,9.7418392 C 22.72596,9.5993284 22.037577,8.7053457 21.295006,8.4628825 C 21.269213,8.454975 21.234339,8.4457541 21.208725,8.4400441 C 21.208725,8.4400441 15.53576,6.9783794 15.53576,6.9783794 C 15.384,6.9348627 15.229143,6.8795752 15.125926,6.7956712 C 15.122472,6.7927019 15.107702,6.7758803 15.104356,6.7728328 C 15.101235,6.7696231 15.085787,6.7532878 15.082785,6.7499943 C 15.079903,6.7466148 15.063972,6.7306226 15.061215,6.7271557 C 15.057476,6.7193893 15.043084,6.6894549 15.039645,6.6814787 C 15.035709,6.6774577 15.021976,6.6626858 15.018074,6.6586402 C 15.018291,6.6563084 15.018011,6.6378184 15.018074,6.6358016 C 15.014119,6.6278469 15.000302,6.5981868 14.996504,6.5901247 C 14.996622,6.58786 14.996464,6.5692867 14.996504,6.5672861 C 14.996483,6.5594062 14.996353,6.529606 14.996504,6.521609 C 14.996001,6.5058745 14.995352,6.4699391 14.996504,6.4530936 C 14.996533,6.4505099 14.996601,6.4331515 14.996504,6.430255 C 14.996016,6.4207491 14.995919,6.3926609 14.996504,6.3845781 C 14.996405,6.3820681 14.99652,6.3638081 14.996504,6.3617395 C 15.000469,6.3535917 15.014396,6.3236498 15.018074,6.3160625 C 15.024142,6.2957219 15.033009,6.266114 15.039645,6.247547 C 15.043306,6.2397727 15.057396,6.2097091 15.061215,6.2018699 C 15.073034,6.1753195 15.091846,6.1334879 15.104356,6.1105159 C 15.114309,6.095197 15.135334,6.0591239 15.147495,6.0420004 C 15.150655,6.0384381 15.165843,6.0225685 15.169066,6.0191619 C 15.173496,6.0144224 15.187697,5.9994385 15.190636,5.9963234 C 15.198431,5.9922952 15.226699,5.9771387 15.233777,5.9734849 C 15.244746,5.9674505 15.268243,5.9551122 15.276917,5.9506463 C 15.280706,5.9464604 15.294682,5.9319622 15.298488,5.9278079 C 15.306031,5.9279334 15.33402,5.9275621 15.341627,5.9278079 C 15.344582,5.9247081 15.358699,5.9096761 15.363198,5.9049692 C 15.365117,5.9050117 15.382522,5.9048491 15.384768,5.9049692 C 15.389706,5.8998385 15.405419,5.8834116 15.406338,5.8821308 z M 9.3882497,7.1839259 L 12.774773,7.8919198 C 12.906216,7.9347422 13.044977,7.9980322 13.141466,8.0974663 C 13.144593,8.1008625 13.160003,8.1168255 13.163037,8.120305 C 13.165973,8.1238684 13.18177,8.1394945 13.184606,8.1431434 C 13.188292,8.1508823 13.202737,8.1808814 13.206176,8.1888205 C 13.210096,8.1928319 13.223856,8.207624 13.227747,8.211659 C 13.227623,8.2128159 13.227707,8.2293283 13.227747,8.2344974 C 13.231652,8.2424417 13.245547,8.2721324 13.249317,8.2801745 C 13.25416,8.2968689 13.266223,8.3290474 13.270887,8.34869 C 13.271007,8.3512202 13.27086,8.368603 13.270887,8.3715286 C 13.270591,8.3845687 13.27066,8.4087842 13.270887,8.4172055 C 13.270835,8.4343823 13.272519,8.4675226 13.270887,8.4857212 C 13.267259,8.5166317 13.257743,8.5660125 13.249317,8.5999136 C 13.249377,8.6018598 13.249103,8.6207234 13.249317,8.6227521 C 13.240547,8.6447057 13.215838,8.6937497 13.206176,8.7141062 C 13.201445,8.725011 13.189707,8.7495588 13.184606,8.7597832 C 13.180946,8.7678326 13.166783,8.7975752 13.163037,8.8054603 C 13.159185,8.8094893 13.145337,8.8243099 13.141466,8.8282987 C 13.117011,8.8613711 13.084224,8.8962063 13.055185,8.9196528 C 13.051381,8.9237826 13.037434,8.9383965 13.033615,8.9424914 C 13.022673,8.9484936 12.999435,8.9605955 12.990475,8.9653298 C 12.984423,8.9682883 12.95874,8.9821871 12.947334,8.9881683 C 12.945164,8.9879775 12.927658,8.9882239 12.925764,8.9881683 C 12.918234,8.9923575 12.890194,9.0069376 12.882623,9.0110069 C 12.768569,9.0366255 12.638611,9.0252808 12.51593,8.9881683 L 9.1078369,8.211659 L 9.3882497,7.1839259 z M 14.780803,8.394367 C 14.783049,8.394484 14.800454,8.3943246 14.802373,8.394367 C 14.806762,8.3944577 14.82187,8.3944555 14.823942,8.394367 C 14.92344,8.3901319 15.046218,8.4183654 15.169066,8.4400441 L 20.906742,9.8560318 C 21.834262,10.130094 22.351946,11.066473 22.351946,11.066473 L 22.136245,12.117044 C 22.035713,11.974534 21.412041,11.217583 20.66947,10.975119 C 20.643677,10.967212 20.608803,10.95799 20.583189,10.95228 C 20.583189,10.95228 14.910224,9.4906156 14.910224,9.4906156 C 14.758464,9.4470989 14.603606,9.3918114 14.500389,9.3079076 C 14.496935,9.3049381 14.482166,9.2881165 14.47882,9.285069 C 14.475699,9.2818591 14.460251,9.2655243 14.457249,9.2622305 C 14.454367,9.2588511 14.438436,9.2428591 14.435679,9.239392 C 14.43194,9.2316255 14.417547,9.2016912 14.414109,9.1937149 C 14.410172,9.1896939 14.396439,9.1749224 14.392538,9.1708765 C 14.392754,9.1685444 14.392475,9.1500551 14.392538,9.1480378 C 14.388583,9.1400835 14.374766,9.1104228 14.370968,9.102361 C 14.371086,9.1000961 14.370928,9.0815227 14.370968,9.0795223 C 14.370946,9.0716426 14.370817,9.0418421 14.370968,9.0338453 C 14.370465,9.0181105 14.369816,8.9821756 14.370968,8.9653298 C 14.370997,8.9627463 14.371065,8.9453876 14.370968,8.9424914 C 14.37048,8.9329854 14.370383,8.9048973 14.370968,8.8968143 C 14.370869,8.8943046 14.370984,8.8760441 14.370968,8.8739758 C 14.374933,8.8658278 14.388859,8.8358862 14.392538,8.8282987 C 14.398605,8.8079582 14.407473,8.77835 14.414109,8.7597832 C 14.41777,8.7520094 14.431859,8.7219451 14.435679,8.7141062 C 14.447498,8.6875558 14.46631,8.6457244 14.47882,8.6227521 C 14.488773,8.6074332 14.509798,8.57136 14.521959,8.5542366 C 14.525119,8.5506746 14.540307,8.5348045 14.54353,8.5313981 C 14.547959,8.5266586 14.562161,8.5116751 14.5651,8.5085596 C 14.572895,8.5045313 14.601163,8.4893753 14.608241,8.4857212 C 14.619209,8.4796866 14.642707,8.4673487 14.65138,8.4628825 C 14.657257,8.4600988 14.683088,8.4460494 14.694521,8.4400441 C 14.696701,8.4402224 14.714194,8.4399922 14.716091,8.4400441 C 14.719046,8.4369446 14.733163,8.4219121 14.737662,8.4172055 C 14.739581,8.4172479 14.756986,8.4170856 14.759232,8.4172055 C 14.76417,8.4120751 14.779883,8.3956482 14.780803,8.394367 z M 8.7411434,9.6504851 L 12.127666,10.381318 C 12.22351,10.412542 12.324131,10.461378 12.408079,10.518349 C 12.415705,10.522205 12.443677,10.537236 12.451219,10.541188 C 12.455037,10.545253 12.468995,10.559936 12.47279,10.564026 C 12.476463,10.567449 12.490789,10.583336 12.49436,10.586864 C 12.503451,10.596406 12.526588,10.620711 12.5375,10.632542 C 12.541398,10.636571 12.555201,10.651327 12.55907,10.65538 C 12.558946,10.657895 12.559109,10.676138 12.55907,10.678219 C 12.562891,10.686296 12.576804,10.716295 12.58064,10.723895 C 12.584593,10.727883 12.598291,10.742722 12.602211,10.746734 C 12.609825,10.770082 12.619811,10.812177 12.623781,10.838088 C 12.623802,10.845924 12.623921,10.875821 12.623781,10.883765 C 12.624235,10.90061 12.624875,10.934427 12.623781,10.95228 C 12.623839,10.954626 12.623782,10.973071 12.623781,10.975119 C 12.618391,11.001843 12.60709,11.044625 12.602211,11.066473 C 12.602369,11.068762 12.602192,11.087296 12.602211,11.089311 C 12.592419,11.112345 12.568626,11.159646 12.55907,11.180666 C 12.553498,11.192593 12.541133,11.218386 12.5375,11.226343 C 12.533783,11.234057 12.521556,11.260245 12.51593,11.27202 C 12.512379,11.2801 12.497924,11.310203 12.49436,11.317697 C 12.476927,11.339246 12.448011,11.369302 12.429649,11.386212 C 12.425838,11.390325 12.411907,11.404975 12.408079,11.409051 C 12.404275,11.413181 12.390328,11.427795 12.386508,11.431889 C 12.375567,11.437891 12.352329,11.449994 12.343369,11.454727 C 12.337316,11.457686 12.311632,11.471586 12.300228,11.477567 C 12.298057,11.477376 12.280552,11.477622 12.278658,11.477567 C 12.154873,11.516485 12.005659,11.518961 11.868824,11.477567 L 8.4607306,10.65538 L 8.7411434,9.6504851 z M 8.1371774,12.094206 L 11.523701,12.870716 C 11.677051,12.920675 11.83784,13.014029 11.933534,13.144778 C 11.937431,13.148807 11.951235,13.163565 11.955104,13.167616 C 11.960747,13.179142 11.97207,13.20366 11.976675,13.213293 C 11.983496,13.231394 11.993402,13.265114 11.998245,13.281808 C 12.002226,13.2897 12.015982,13.319491 12.019816,13.327486 C 12.019815,13.335335 12.019973,13.365206 12.019816,13.373162 C 12.019774,13.377627 12.019771,13.393086 12.019816,13.396001 C 12.019767,13.408877 12.020099,13.432922 12.019816,13.441678 C 12.019864,13.444031 12.019824,13.462463 12.019816,13.464518 C 12.019926,13.466757 12.019798,13.485351 12.019816,13.487356 C 12.017398,13.495985 12.001578,13.523662 11.998245,13.533033 C 11.997328,13.535817 11.998945,13.553408 11.998245,13.555871 C 11.998442,13.557886 11.998207,13.576771 11.998245,13.578709 C 11.992416,13.602162 11.983595,13.645903 11.976675,13.670064 C 11.954922,13.728065 11.920963,13.788593 11.890393,13.829933 C 11.887258,13.83391 11.872034,13.84895 11.868824,13.852772 C 11.865538,13.856441 11.850611,13.872093 11.847254,13.87561 C 11.843825,13.878979 11.82918,13.895227 11.825683,13.898448 C 11.821872,13.902562 11.807941,13.917211 11.804113,13.921287 C 11.7968,13.925242 11.76842,13.940483 11.760972,13.944125 C 11.757183,13.948288 11.743206,13.962834 11.739402,13.966964 C 11.722298,13.974069 11.68948,13.984677 11.674692,13.989803 C 11.667161,13.98971 11.639122,13.990016 11.631551,13.989803 C 11.517497,14.015421 11.387538,14.004077 11.264857,13.966964 L 7.8567647,13.12194 L 8.1371774,12.094206 z M 7.4685009,14.560765 L 10.855024,15.337275 C 10.986467,15.380098 11.125227,15.443387 11.221718,15.542821 C 11.224844,15.546218 11.240255,15.56218 11.243287,15.565659 C 11.246225,15.569223 11.26202,15.58485 11.264857,15.588498 C 11.268543,15.596237 11.282989,15.626236 11.286428,15.634175 C 11.290348,15.638188 11.304108,15.65298 11.307998,15.657014 C 11.314962,15.675004 11.324238,15.709186 11.329569,15.72553 C 11.335622,15.746397 11.346713,15.790983 11.351139,15.816884 C 11.351498,15.82093 11.351067,15.833882 11.351139,15.839722 C 11.350966,15.85268 11.351165,15.876811 11.351139,15.885399 C 11.351383,15.906125 11.352518,15.954988 11.351139,15.976754 C 11.350452,15.979426 11.35203,15.996723 11.351139,15.999592 C 11.347877,16.008727 11.332124,16.036944 11.329569,16.045269 C 11.324572,16.065371 11.313929,16.09532 11.307998,16.113785 C 11.302547,16.129473 11.292845,16.164546 11.286428,16.1823 C 11.28151,16.192863 11.270136,16.218088 11.264857,16.227976 C 11.260997,16.231986 11.247169,16.246847 11.243287,16.250815 C 11.239655,16.258923 11.22543,16.288544 11.221718,16.296492 C 11.218582,16.300469 11.203358,16.315508 11.200147,16.319331 C 11.196861,16.323001 11.181934,16.338651 11.178577,16.342169 C 11.175149,16.345538 11.160504,16.361786 11.157007,16.365007 C 11.149675,16.368913 11.12134,16.384261 11.113866,16.387846 C 11.110069,16.391993 11.096107,16.406573 11.092296,16.410684 C 11.077753,16.417057 11.04259,16.428326 11.027586,16.433522 C 11.010864,16.439879 10.980271,16.451952 10.962875,16.456363 C 10.84882,16.48198 10.718861,16.470635 10.596181,16.433522 L 7.1880881,15.588498 L 7.4685009,14.560765 z "
       id="rect2302"
       sodipodi:nodetypes="cccsccsssssssssssssssssssssssscccsccssssssssssssssssssssssssssssssccccsccssssssssssssssssssssssssssssssccccccccssssssssscccsssssssssssssssssssssssssccccssccccsccssssssssssssssssssssssssssscccsssssssssssssssssssssssccccssccccsccssssssssssssssssssssssssssscccssssssssssssssssssssssssscccccssssssssssssssssssssssscccccssssssssssssssssssssssssccc" />
    <path
       style="color:black;fill:url(#linearGradient2017);fill-opacity:1;fill-rule:evenodd;stroke:none;stroke-width:1;stroke-linecap:butt;stroke-linejoin:miter;marker:none;marker-start:none;marker-mid:none;marker-end:none;stroke-miterlimit:4;stroke-dasharray:none;stroke-dashoffset:0;stroke-opacity:1;visibility:visible;display:inline;overflow:visible"
       d="M 14.589397,10.927089 L 20.765857,12.366259 C 21.764306,12.644809 22.600218,13.851854 22.600218,13.851854 L 22.29836,15.035686 C 22.29836,15.035686 21.299909,13.666154 20.417558,13.480455 C 20.417558,13.480455 14.310759,11.994861 14.310759,11.994861 C 13.95023,11.897251 13.61611,11.756583 13.753485,11.321701 C 13.892804,10.880665 14.171441,10.857452 14.589397,10.927089 z "
       id="path2284"
       sodipodi:nodetypes="cccccczc" />
    <path
       sodipodi:nodetypes="cccccczc"
       id="path2286"
       d="M 13.823144,13.480455 L 19.999603,14.919624 C 20.998053,15.198174 21.833964,16.405217 21.833964,16.405217 L 21.532108,17.589051 C 21.532108,17.589051 20.533658,16.219519 19.651307,16.03382 C 19.651307,16.03382 13.544508,14.548226 13.544508,14.548226 C 13.183976,14.450616 12.849857,14.309948 12.987232,13.875066 C 13.126551,13.43403 13.405188,13.410818 13.823144,13.480455 z "
       style="color:black;fill:url(#linearGradient2013);fill-opacity:1;fill-rule:evenodd;stroke:none;stroke-width:1;stroke-linecap:butt;stroke-linejoin:miter;marker:none;marker-start:none;marker-mid:none;marker-end:none;stroke-miterlimit:4;stroke-dasharray:none;stroke-dashoffset:0;stroke-opacity:1;visibility:visible;display:inline;overflow:visible" />
    <path
       style="color:black;fill:url(#linearGradient2010);fill-opacity:1;fill-rule:evenodd;stroke:none;stroke-width:1;stroke-linecap:butt;stroke-linejoin:miter;marker:none;marker-start:none;marker-mid:none;marker-end:none;stroke-miterlimit:4;stroke-dasharray:none;stroke-dashoffset:0;stroke-opacity:1;visibility:visible;display:inline;overflow:visible"
       d="M 15.936143,5.8203589 L 22.112602,7.2595285 C 23.111052,7.5380773 23.645107,8.3737241 23.645107,8.3737241 L 23.343251,9.5575571 C 23.343251,9.5575571 22.646657,8.5594234 21.764306,8.3737241 C 21.764306,8.3737241 15.657507,6.8881299 15.657507,6.8881299 C 15.296976,6.7905212 14.962857,6.6498525 15.100232,6.2149698 C 15.23955,5.773934 15.518187,5.7507217 15.936143,5.8203589 z "
       id="path2280"
       sodipodi:nodetypes="cccccczc" />
    <path
       sodipodi:nodetypes="cccccczc"
       id="path2282"
       d="M 15.26277,8.3737241 L 21.43923,9.8128936 C 22.437679,10.091443 22.971734,10.973514 22.971734,10.973514 L 22.646657,12.08771 C 22.646657,12.08771 21.973284,11.112789 21.090932,10.927089 C 21.090932,10.927089 14.984132,9.441495 14.984132,9.441495 C 14.623603,9.3438863 14.289484,9.2032176 14.426859,8.768335 C 14.566177,8.3272994 14.844814,8.3040868 15.26277,8.3737241 z "
       style="color:black;fill:url(#linearGradient2007);fill-opacity:1;fill-rule:evenodd;stroke:none;stroke-width:1;stroke-linecap:butt;stroke-linejoin:miter;marker:none;marker-start:none;marker-mid:none;marker-end:none;stroke-miterlimit:4;stroke-dasharray:none;stroke-dashoffset:0;stroke-opacity:1;visibility:visible;display:inline;overflow:visible" />
    <path
       style="color:black;fill:url(#linearGradient2003);fill-opacity:1;fill-rule:evenodd;stroke:none;stroke-width:1;stroke-linecap:butt;stroke-linejoin:miter;marker:none;marker-start:none;marker-mid:none;marker-end:none;stroke-miterlimit:4;stroke-dasharray:none;stroke-dashoffset:0;stroke-opacity:1;visibility:visible;display:inline;overflow:visible"
       d="M 13.149771,16.03382 L 19.32623,17.472989 C 20.32468,17.751538 21.160591,18.958584 21.160591,18.958584 L 20.858735,20.142416 C 20.858735,20.142416 19.860285,18.772884 18.977934,18.587185 C 18.977934,18.587185 12.871133,17.101591 12.871133,17.101591 C 12.510603,17.003982 12.222924,16.863314 12.313859,16.428432 C 12.405885,15.988338 12.731815,15.964183 13.149771,16.03382 z "
       id="path2288"
       sodipodi:nodetypes="cccccczc" />
    <path
       style="color:black;fill:url(#linearGradient2000);fill-opacity:1;fill-rule:evenodd;stroke:none;stroke-width:1;stroke-linecap:butt;stroke-linejoin:miter;marker:none;marker-start:none;marker-mid:none;marker-end:none;stroke-miterlimit:4;stroke-dasharray:none;stroke-dashoffset:0;stroke-opacity:1;visibility:visible;display:inline;overflow:visible"
       d="M 10.340178,16.498069 L 6.6714551,15.639209 L 6.973312,14.594651 L 10.618815,15.383872 C 10.920673,15.476722 11.24575,15.662421 11.12965,16.103457 C 11.014912,16.53932 10.665255,16.590918 10.340178,16.498069 z "
       id="path2292"
       sodipodi:nodetypes="cccczc" />
    <path
       sodipodi:nodetypes="cccczc"
       id="path2294"
       d="M 11.059992,13.996931 L 7.391268,13.138072 L 7.693125,12.093512 L 11.338628,12.882734 C 11.640485,12.975585 11.965563,13.161284 11.849464,13.602319 C 11.734726,14.038184 11.385069,14.08978 11.059992,13.996931 z "
       style="color:black;fill:url(#linearGradient1997);fill-opacity:1;fill-rule:evenodd;stroke:none;stroke-width:1;stroke-linecap:butt;stroke-linejoin:miter;marker:none;marker-start:none;marker-mid:none;marker-end:none;stroke-miterlimit:4;stroke-dasharray:none;stroke-dashoffset:0;stroke-opacity:1;visibility:visible;display:inline;overflow:visible" />
    <path
       style="color:black;fill:url(#linearGradient1994);fill-opacity:1;fill-rule:evenodd;stroke:none;stroke-width:1;stroke-linecap:butt;stroke-linejoin:miter;marker:none;marker-start:none;marker-mid:none;marker-end:none;stroke-miterlimit:4;stroke-dasharray:none;stroke-dashoffset:0;stroke-opacity:1;visibility:visible;display:inline;overflow:visible"
       d="M 11.710144,11.449369 L 8.0414216,10.636934 L 8.3432786,9.5923756 L 11.988782,10.335173 C 12.290639,10.428023 12.615716,10.613722 12.499617,11.054759 C 12.384879,11.490621 12.035221,11.542218 11.710144,11.449369 z "
       id="path2296"
       sodipodi:nodetypes="cccczc" />
    <path
       sodipodi:nodetypes="cccczc"
       id="path2298"
       d="M 12.406738,8.9250193 L 8.7380147,8.1357972 L 9.0398717,7.0912389 L 12.685375,7.8108235 C 12.987232,7.9036732 13.312309,8.0893725 13.19621,8.5304082 C 13.081472,8.9662711 12.731815,9.0178689 12.406738,8.9250193 z "
       style="color:black;fill:url(#linearGradient1991);fill-opacity:1;fill-rule:evenodd;stroke:none;stroke-width:1;stroke-linecap:butt;stroke-linejoin:miter;marker:none;marker-start:none;marker-mid:none;marker-end:none;stroke-miterlimit:4;stroke-dasharray:none;stroke-dashoffset:0;stroke-opacity:1;visibility:visible;display:inline;overflow:visible" />
    <path
       style="color:black;fill:url(#linearGradient1988);fill-opacity:1;fill-rule:evenodd;stroke:none;stroke-width:1;stroke-linecap:butt;stroke-linejoin:miter;marker:none;marker-start:none;marker-mid:none;marker-end:none;stroke-miterlimit:4;stroke-dasharray:none;stroke-dashoffset:0;stroke-opacity:1;visibility:visible;display:inline;overflow:visible"
       d="M 13.080111,6.4238817 L 9.4113875,5.6346596 L 9.7132443,4.5901012 L 13.358749,5.3096859 C 13.660605,5.4025356 13.985682,5.5882349 13.869583,6.0292708 C 13.754846,6.4651344 13.405188,6.5167313 13.080111,6.4238817 z "
       id="path2300"
       sodipodi:nodetypes="cccczc" />
    <rect
       style="color:black;fill:none;fill-opacity:1;fill-rule:evenodd;stroke:#7c7c7c;stroke-width:1.10021856;stroke-linecap:butt;stroke-linejoin:miter;marker:none;marker-start:none;marker-mid:none;marker-end:none;stroke-miterlimit:4;stroke-dasharray:none;stroke-dashoffset:0;stroke-opacity:1;visibility:visible;display:inline;overflow:visible"
       id="rect2032"
       width="15.273456"
       height="21.042589"
       x="10.216795"
       y="-3.0096159"
       rx="4.618371"
       ry="4.5892296"
       transform="matrix(0.971136,0.238526,-0.265801,0.964028,0,0)" />
    <path
       style="color:black;fill:#888a85;fill-opacity:1;fill-rule:evenodd;stroke:#424242;stroke-width:1.00000048;stroke-linecap:butt;stroke-linejoin:miter;marker:none;marker-start:none;marker-mid:none;marker-end:none;stroke-miterlimit:4;stroke-dasharray:none;stroke-dashoffset:0;stroke-opacity:1;visibility:visible;display:inline;overflow:visible"
       d="M 20.505108,12.8125 L 20.421774,22.468755 L 20.421774,22.489588 L 20.421774,22.510422 C 20.421774,24.416778 19.691261,24.268487 18.921773,24.114589 L 13.572695,23.083339 C 13.260195,23.000005 12.426861,22.666672 12.697695,21.708338 L 10.781027,21.218754 C 10.328522,22.843217 11.426861,24.333339 12.385195,24.541673 L 19.489365,26.000007 C 21.205775,26.343289 22.477884,24.777361 22.395923,23.062505 C 22.39525,23.048414 22.396805,23.034947 22.395923,23.020838 L 22.479256,12.8125 L 20.505108,12.8125 z "
       id="path1345"
       sodipodi:nodetypes="ccccccccccsccc" />
    <path
       sodipodi:type="arc"
       style="color:black;fill:url(#radialGradient1969);fill-opacity:1;fill-rule:evenodd;stroke:#424242;stroke-width:0.93749976;stroke-linecap:butt;stroke-linejoin:miter;marker:none;marker-start:none;marker-mid:none;marker-end:none;stroke-miterlimit:4;stroke-dasharray:none;stroke-dashoffset:0;stroke-opacity:1;visibility:visible;display:inline;overflow:visible"
       id="path2220"
       sodipodi:cx="33.5"
       sodipodi:cy="22.125"
       sodipodi:rx="1.875"
       sodipodi:ry="1.875"
       d="M 35.375 22.125 A 1.875 1.875 0 1 1  31.625,22.125 A 1.875 1.875 0 1 1  35.375 22.125 z"
       transform="matrix(1.066668,0,0,1.066667,-14.23336,-11.10001)" />
    <path
       transform="matrix(0.581006,0,0,0.510638,7.449719,2.819147)"
       d="M 27.625 46.375 A 11.1875 5.875 0 1 1  5.25,46.375 A 11.1875 5.875 0 1 1  27.625 46.375 z"
       sodipodi:ry="5.875"
       sodipodi:rx="11.1875"
       sodipodi:cy="46.375"
       sodipodi:cx="16.4375"
       id="path2389"
       style="opacity:0.40784314;color:black;fill:none;fill-opacity:1;fill-rule:evenodd;stroke:url(#linearGradient1983);stroke-width:1.835917;stroke-linecap:butt;stroke-linejoin:miter;marker:none;marker-start:none;marker-mid:none;marker-end:none;stroke-miterlimit:4;stroke-dasharray:none;stroke-dashoffset:0;stroke-opacity:1;visibility:visible;display:inline;overflow:visible"
       sodipodi:type="arc" />
  </g>
</svg>
