<?xml version="1.0" encoding="utf-8"?>
<!-- Generator: Adobe Illustrator 17.1.0, SVG Export Plug-In . SVG Version: 6.00 Build 0)  -->
<!DOCTYPE svg PUBLIC "-//W3C//DTD SVG 1.1//EN" "http://www.w3.org/Graphics/SVG/1.1/DTD/svg11.dtd">
<svg version="1.1" id="Calque_1" xmlns="http://www.w3.org/2000/svg" xmlns:xlink="http://www.w3.org/1999/xlink" x="0px" y="0px"
	 viewBox="0 226 480 195" enable-background="new 0 226 480 195" xml:space="preserve">
<g id="Logotype">
	<g>
		<g>
			<path fill="#757575" d="M194.2,282.4v15.5h14v12h-14v25.5c0,3.4,0.6,5.6,1.9,6.7c1.3,1.2,3,1.8,5.6,1.8c1.2,0,2.3-0.1,3.5-0.4
				c1.2-0.3,2.2-0.8,3-1.6l1.8,11.1c-1.8,1.6-3.6,2.8-5.5,3.6c-1.9,0.8-4.4,1.2-7.7,1.2c-5.8,0-10.2-1.7-13.2-4.9
				c-2.9-3.3-4.5-8.4-4.5-15.3v-27.6h-6.8v-12h6.8v-9.5L194.2,282.4z"/>
			<path fill="#757575" d="M251,308.5c-4.4,0-12.6,2.7-16.5,7v40.5h-15v-58.1h15v6.3c3.9-5,11.3-7.7,16.5-7.7V308.5z"/>
			<path fill="#757575" d="M297.8,357.2c-4.6,0-9.3-1.6-11.3-4.8c-3.4,2-6,3.5-8.1,4.1c-2,0.7-4,1-5.9,1c-4.6,0-8.5-1.6-11.6-4.8
				c-3.1-3.1-4.7-7.4-4.7-12.8c0-5,1.5-9,4.4-11.9s6.7-4.6,11.3-5.4l12.2-2v-3.8c0-2.9-0.8-4.8-2.5-5.8c-1.7-0.9-3.6-1.4-5.6-1.4
				c-2.5,0-4.9,0.4-7.6,1.3c-2.5,0.8-4.8,2-6.8,3.3l-2.4-12.8c6.4-3.4,12.8-5,19.2-5c2.2,0,4.4,0.2,6.7,0.6s4.4,1.3,6.3,2.5
				c1.9,1.3,3.4,2.8,4.6,4.9c1.2,2,1.8,4.6,1.8,7.7v27.4V357.2z M277.1,330.6c-2,0.3-3.7,1-4.9,2.4c-1.3,1.3-1.9,3.1-1.9,5.7
				c0,4.5,2,6.7,6.1,6.7c1.2,0,2.3-0.2,3.4-0.6c1-0.4,2.5-1.2,4.2-2.2v-13.2L277.1,330.6z"/>
			<path fill="#757575" d="M346.6,311.3c-3.4-2.2-6.9-3.3-10.9-3.3c-4.8,0-8.2,1.6-10.3,4.7c-2,3.1-3,7.3-3,12.7
				c0,5,0.9,9.5,2.8,13.3c1.9,3.8,5.2,5.7,10.3,5.7c2,0,4.2-0.3,6.6-0.9c2.4-0.6,4.5-1.7,6.2-3.1l2,10.7c-2,2.3-4.7,4.1-8.2,5.5
				c-3.5,1.3-7,2-10.8,2c-7.4,0-13.2-2.7-17.3-8.1c-4.1-5.4-6.2-13-6.2-22.9c0-10.5,2.3-18.3,6.9-23.5c4.6-5.2,11.2-7.9,19.6-7.9
				c5.8,0,10.5,1,14.2,3L346.6,311.3z"/>
			<path fill="#757575" d="M366.7,273.8c2.6,0,4.7,0.7,6.2,2.1c1.6,1.4,2.3,3.6,2.3,6.4c0,2.7-0.7,4.9-2.3,6.3
				c-1.6,1.5-3.6,2.2-6.2,2.2c-2.6,0-4.7-0.7-6.2-2.2c-1.6-1.5-2.3-3.6-2.3-6.3c0-2.9,0.7-5,2.3-6.4
				C362,274.4,364.1,273.8,366.7,273.8z M374.1,297.9v58.1h-15v-58.1H374.1z"/>
			<path fill="#757575" d="M400.9,297.9v5.9c2.7-2,5.7-3.7,8.8-5c3.1-1.3,6.1-2,9-2c5.6,0,9.1,2.6,10.9,7.9c2.9-2,6-3.9,9.2-5.5
				c3.3-1.6,6.5-2.4,9.7-2.4c3.8,0,6.7,1.2,8.7,3.6s3,6.4,3,11.9v43.8h-15v-40.2c0-4.2-1.5-6.3-4.4-6.3c-2.6,0-6.1,1.3-10.5,3.9
				v42.7h-14.8v-40.3c0-4.2-1.6-6.3-4.6-6.3c-2.7,0-6.2,1.3-10.3,3.9v42.7h-15v-58.1H400.9z"/>
		</g>
	</g>
	<path fill="#757575" d="M148.8,323.6c2.6,3,3.6,7.3,2.1,11.3c-1.5,4.1-4.9,6.9-9,7.8c0,0-12.1,23.8-35.6,19.4
		c0,0,16.4-3.6,23.8-22.8c-3.1-3.1-4.4-7.8-2.8-12.2c1.6-4.3,5.5-7.2,9.9-7.9c-0.3-2.8-1.2-5.6-2.5-8.4c-0.8-1.8-1-3.5-0.1-5.2
		c0,0,3.5-6.3,8.7-0.6C148.5,310.7,148.8,323.6,148.8,323.6z"/>
	<path fill="#757575" d="M107.8,382.6c-2.4,3.3-6.4,5.1-10.6,4.6c-4.3-0.5-7.8-3.4-9.5-7.1c0,0-25.9-6.6-26.8-30.4
		c0,0,7,15.2,27.5,18.3c2.3-3.8,6.6-6,11.2-5.4c4.5,0.5,8.3,3.8,9.9,8c2.6-0.9,5.2-2.3,7.7-4.2c1.6-1.3,3.1-1.8,5-1.3
		c0,0,6.9,2,2.5,8.4C120.1,379.8,107.8,382.6,107.8,382.6z"/>
	<path fill="#757575" d="M39.2,360.8c-3.7-1.8-6.2-5.4-6.5-9.5c-0.3-4.3,1.8-8.3,5.2-10.7c0,0,1.7-26.6,25-31.9
		c0,0-13.6,9.8-12.9,30.4c4.1,1.6,7,5.4,7.3,10.1c0.3,4.5-2.1,8.7-6,11c1.4,2.4,3.3,4.7,5.6,6.7c1.5,1.3,2.3,2.8,2.1,4.7
		c0,0-0.6,7.1-7.8,4C44.4,372.4,39.2,360.8,39.2,360.8z"/>
	<path fill="#757575" d="M39.3,294.2c0.1-4,2.1-7.9,5.9-10c3.8-2.1,8.3-1.9,11.9,0.1c0,0,24.9-10,39.6,8.8c0,0-14.7-8.1-32.9,1.4
		c0.3,4.4-1.8,8.7-5.9,11c-4,2.2-8.9,1.8-12.6-0.6c-1.6,2.3-2.8,4.9-3.7,7.9c-0.5,1.9-1.5,3.4-3.4,4c0,0-6.7,2.4-6.9-5.2
		C31.1,303.7,39.3,294.2,39.3,294.2z"/>
	<path fill="#757575" d="M102.4,269c3.7-1.7,8.1-1.5,11.5,1c3.5,2.5,5.2,6.7,4.9,10.8c0,0,19.6,18.3,8.8,39.6c0,0,1-16.7-15.3-29.3
		c-3.9,2.1-8.6,2.1-12.5-0.6c-3.8-2.7-5.5-7.2-4.8-11.8c-2.7-0.4-5.7-0.4-8.7,0.1c-1.9,0.3-3.7,0-5-1.4c0,0-5.1-5,1.9-8.5
		C90.1,265.5,102.4,269,102.4,269z"/>
</g>
</svg>
