<?xml version="1.0" encoding="UTF-8" standalone="no"?>
<!-- Created with Inkscape (http://www.inkscape.org/) -->
<svg
   xmlns:dc="http://purl.org/dc/elements/1.1/"
   xmlns:cc="http://creativecommons.org/ns#"
   xmlns:rdf="http://www.w3.org/1999/02/22-rdf-syntax-ns#"
   xmlns:svg="http://www.w3.org/2000/svg"
   xmlns="http://www.w3.org/2000/svg"
   xmlns:xlink="http://www.w3.org/1999/xlink"
   xmlns:sodipodi="http://sodipodi.sourceforge.net/DTD/sodipodi-0.dtd"
   xmlns:inkscape="http://www.inkscape.org/namespaces/inkscape"
   inkscape:export-ydpi="90.000000"
   inkscape:export-xdpi="90.000000"
   inkscape:export-filename="/home/jimmac/Desktop/wi-fi.png"
   width="32"
   height="32"
   id="svg11300"
   sodipodi:version="0.32"
   inkscape:version="0.46"
   sodipodi:docbase="/home/lapo/Desktop/tango-icon-theme/32x32/apps"
   sodipodi:docname="preferences-desktop-font.svg"
   version="1.0"
   inkscape:output_extension="org.inkscape.output.svg.inkscape">
  <defs
     id="defs3">
    <inkscape:perspective
       sodipodi:type="inkscape:persp3d"
       inkscape:vp_x="0 : 16 : 1"
       inkscape:vp_y="0 : 1000 : 0"
       inkscape:vp_z="32 : 16 : 1"
       inkscape:persp3d-origin="16 : 10.666667 : 1"
       id="perspective30" />
    <linearGradient
       inkscape:collect="always"
       id="linearGradient5060">
      <stop
         style="stop-color:black;stop-opacity:1;"
         offset="0"
         id="stop5062" />
      <stop
         style="stop-color:black;stop-opacity:0;"
         offset="1"
         id="stop5064" />
    </linearGradient>
    <linearGradient
       id="linearGradient5048">
      <stop
         style="stop-color:black;stop-opacity:0;"
         offset="0"
         id="stop5050" />
      <stop
         id="stop5056"
         offset="0.5"
         style="stop-color:black;stop-opacity:1;" />
      <stop
         style="stop-color:black;stop-opacity:0;"
         offset="1"
         id="stop5052" />
    </linearGradient>
    <linearGradient
       id="linearGradient11520">
      <stop
         id="stop11522"
         offset="0.0000000"
         style="stop-color:#ffffff;stop-opacity:1.0000000;" />
      <stop
         id="stop11524"
         offset="1.0000000"
         style="stop-color:#dcdcdc;stop-opacity:1.0000000;" />
    </linearGradient>
    <linearGradient
       inkscape:collect="always"
       xlink:href="#linearGradient5048"
       id="linearGradient1903"
       gradientUnits="userSpaceOnUse"
       gradientTransform="matrix(2.774389,0,0,1.969706,-1892.179,-872.8854)"
       x1="302.85715"
       y1="366.64789"
       x2="302.85715"
       y2="609.50507" />
    <radialGradient
       inkscape:collect="always"
       xlink:href="#linearGradient5060"
       id="radialGradient1905"
       gradientUnits="userSpaceOnUse"
       gradientTransform="matrix(2.774389,0,0,1.969706,-1891.633,-872.8854)"
       cx="605.71429"
       cy="486.64789"
       fx="605.71429"
       fy="486.64789"
       r="117.14286" />
    <radialGradient
       inkscape:collect="always"
       xlink:href="#linearGradient5060"
       id="radialGradient1907"
       gradientUnits="userSpaceOnUse"
       gradientTransform="matrix(-2.774389,0,0,1.969706,112.7623,-872.8854)"
       cx="605.71429"
       cy="486.64789"
       fx="605.71429"
       fy="486.64789"
       r="117.14286" />
    <radialGradient
       inkscape:collect="always"
       xlink:href="#linearGradient11520"
       id="radialGradient1937"
       gradientUnits="userSpaceOnUse"
       gradientTransform="matrix(1.344437,0,0,1.343922,-16.86169,-23.91718)"
       cx="24.44569"
       cy="35.87817"
       fx="24.44569"
       fy="35.87817"
       r="20.530962" />
  </defs>
  <sodipodi:namedview
     stroke="#ef2929"
     fill="#eeeeec"
     id="base"
     pagecolor="#ffffff"
     bordercolor="#666"
     borderopacity="1"
     inkscape:pageopacity="0.0"
     inkscape:pageshadow="2"
     inkscape:zoom="1"
     inkscape:cx="-148.78544"
     inkscape:cy="19.891049"
     inkscape:current-layer="layer1"
     showgrid="false"
     inkscape:grid-bbox="true"
     inkscape:document-units="px"
     inkscape:showpageshadow="false"
     inkscape:window-width="1034"
     inkscape:window-height="707"
     inkscape:window-x="236"
     inkscape:window-y="141"
     width="32px"
     height="32px"
     showborder="false" />
  <metadata
     id="metadata4">
    <rdf:RDF>
      <cc:Work
         rdf:about="">
        <dc:format>image/svg+xml</dc:format>
        <dc:type
           rdf:resource="http://purl.org/dc/dcmitype/StillImage" />
        <dc:creator>
          <cc:Agent>
            <dc:title>Jakub Steiner</dc:title>
          </cc:Agent>
        </dc:creator>
        <dc:source>http://jimmac.musichall.cz</dc:source>
        <cc:license
           rdf:resource="http://creativecommons.org/licenses/publicdomain/" />
        <dc:title>Wi-Fi network</dc:title>
      </cc:Work>
      <cc:License
         rdf:about="http://creativecommons.org/licenses/publicdomain/">
        <cc:permits
           rdf:resource="http://creativecommons.org/ns#Reproduction" />
        <cc:permits
           rdf:resource="http://creativecommons.org/ns#Distribution" />
        <cc:permits
           rdf:resource="http://creativecommons.org/ns#DerivativeWorks" />
      </cc:License>
    </rdf:RDF>
  </metadata>
  <g
     id="layer1"
     inkscape:label="Layer 1"
     inkscape:groupmode="layer">
    <g
       transform="matrix(1.556594e-2,0,0,1.709724e-2,30.3211,25.82053)"
       id="g6707">
      <rect
         style="opacity:0.40206185;color:black;fill:url(#linearGradient1903);fill-opacity:1;fill-rule:nonzero;stroke:none;stroke-width:1;stroke-linecap:round;stroke-linejoin:miter;marker:none;marker-start:none;marker-mid:none;marker-end:none;stroke-miterlimit:4;stroke-dasharray:none;stroke-dashoffset:0;stroke-opacity:1;visibility:visible;display:inline;overflow:visible"
         id="rect6709"
         width="1339.6335"
         height="478.35718"
         x="-1559.2523"
         y="-150.69685" />
      <path
         style="opacity:0.40206185;color:black;fill:url(#radialGradient1905);fill-opacity:1;fill-rule:nonzero;stroke:none;stroke-width:1;stroke-linecap:round;stroke-linejoin:miter;marker:none;marker-start:none;marker-mid:none;marker-end:none;stroke-miterlimit:4;stroke-dasharray:none;stroke-dashoffset:0;stroke-opacity:1;visibility:visible;display:inline;overflow:visible"
         d="M -219.61876,-150.68038 C -219.61876,-150.68038 -219.61876,327.65041 -219.61876,327.65041 C -76.744594,328.55086 125.78146,220.48075 125.78138,88.454235 C 125.78138,-43.572302 -33.655436,-150.68036 -219.61876,-150.68038 z "
         id="path6711"
         sodipodi:nodetypes="cccc" />
      <path
         sodipodi:nodetypes="cccc"
         id="path6713"
         d="M -1559.2523,-150.68038 C -1559.2523,-150.68038 -1559.2523,327.65041 -1559.2523,327.65041 C -1702.1265,328.55086 -1904.6525,220.48075 -1904.6525,88.454235 C -1904.6525,-43.572302 -1745.2157,-150.68036 -1559.2523,-150.68038 z "
         style="opacity:0.40206185;color:black;fill:url(#radialGradient1907);fill-opacity:1;fill-rule:nonzero;stroke:none;stroke-width:1;stroke-linecap:round;stroke-linejoin:miter;marker:none;marker-start:none;marker-mid:none;marker-end:none;stroke-miterlimit:4;stroke-dasharray:none;stroke-dashoffset:0;stroke-opacity:1;visibility:visible;display:inline;overflow:visible" />
    </g>
    <rect
       ry="3.6745095"
       rx="3.6759169"
       y="2.5052626"
       x="2.5054533"
       height="26.98674"
       width="26.997076"
       id="rect11518"
       style="color:black;fill:url(#radialGradient1937);fill-opacity:1;fill-rule:evenodd;stroke:#9b9b9b;stroke-width:1.00000024;stroke-linecap:butt;stroke-linejoin:bevel;marker:none;marker-start:none;marker-mid:none;marker-end:none;stroke-miterlimit:10;stroke-dasharray:none;stroke-dashoffset:0;stroke-opacity:1;visibility:visible;display:inline;overflow:visible" />
    <rect
       style="color:black;fill:none;fill-opacity:1;fill-rule:evenodd;stroke:white;stroke-width:1.00000036;stroke-linecap:butt;stroke-linejoin:bevel;marker:none;marker-start:none;marker-mid:none;marker-end:none;stroke-miterlimit:10;stroke-dasharray:none;stroke-dashoffset:0;stroke-opacity:1;visibility:visible;display:inline;overflow:visible"
       id="rect11528"
       width="25.000004"
       height="25.000006"
       x="3.4999993"
       y="3.5000007"
       rx="2.8136764"
       ry="2.8136768" />
    <path
       style="font-size:24px;font-style:italic;font-variant:normal;font-weight:normal;font-stretch:normal;text-align:start;line-height:120.00000477%;writing-mode:lr-tb;text-anchor:start;fill:black;fill-opacity:1;stroke:none;stroke-width:1pt;stroke-linecap:butt;stroke-linejoin:miter;stroke-opacity:1;font-family:Times New Roman"
       d="M 12.210028,5.6664277 L 10.670099,11.018594 L 10.496364,11.736953 C 10.480563,11.805369 10.472666,11.863259 10.472673,11.910622 C 10.472666,11.994826 10.49899,12.068504 10.551643,12.131655 C 10.593755,12.17902 10.646402,12.202702 10.709585,12.202702 C 10.77802,12.202702 10.86752,12.1606 10.978085,12.076397 C 11.183403,11.92378 11.457168,11.608018 11.79938,11.129112 L 12.067882,11.318569 C 11.704608,11.86589 11.330814,12.284274 10.946497,12.573723 C 10.562167,12.857908 10.206798,13 9.8803921,13 C 9.6540031,13 9.4829011,12.942111 9.3670818,12.826332 C 9.2565184,12.715815 9.201239,12.552671 9.2012437,12.3369 C 9.201239,12.07903 9.2591506,11.739585 9.3749791,11.318569 L 9.5408171,10.726514 C 8.8511356,11.626437 8.2167381,12.255329 7.6376227,12.613193 C 7.2217077,12.871064 6.8136928,13 6.4135764,13 C 6.0292504,13 5.6975738,12.842119 5.4185449,12.526357 C 5.1395145,12.205334 4.9999996,11.765899 5,11.208051 C 4.9999996,10.371284 5.2500734,9.4897832 5.7502221,8.5635445 C 6.2556329,7.6320517 6.8952954,6.8873802 7.669211,6.3295281 C 8.2746497,5.8874681 8.8458712,5.6664349 9.3828762,5.6664277 C 9.7040191,5.6664349 9.9698871,5.750638 10.18048,5.9190373 C 10.396328,6.0874506 10.559535,6.3663734 10.670099,6.7558068 L 10.954393,5.8558849 L 12.210028,5.6664277 M 9.3986701,6.0769184 C 9.0617242,6.0769251 8.7037235,6.234806 8.324668,6.5505615 C 7.7876642,6.9978967 7.3085754,7.6609967 6.8874008,8.5398626 C 6.4714866,9.4187366 6.2635301,10.213403 6.2635322,10.923865 C 6.2635301,11.28173 6.3530306,11.565916 6.5320323,11.776424 C 6.7110307,11.98167 6.9163542,12.084292 7.1480044,12.084291 C 7.7218554,12.084292 8.3457235,11.660645 9.0196105,10.813349 C 9.9198721,9.687134 10.370004,8.5319724 10.37001,7.3478604 C 10.370004,6.9005369 10.283137,6.5768812 10.109407,6.3768923 C 9.9356661,6.1769164 9.6987541,6.0769251 9.3986701,6.0769184"
       id="text3423" />
    <path
       style="font-size:29.01771545px;font-style:normal;font-variant:normal;font-weight:bold;font-stretch:normal;text-align:start;line-height:120.00000477%;writing-mode:lr-tb;text-anchor:start;fill:black;fill-opacity:1;stroke:none;stroke-width:1pt;stroke-linecap:butt;stroke-linejoin:miter;stroke-opacity:1;font-family:Arial Rounded CE"
       d="M 15.463417,14.019518 L 15.463417,17.999563 C 15.953551,17.490533 16.453235,17.102392 16.962474,16.835138 C 17.471701,16.56154 18.101877,16.424736 18.853003,16.424725 C 19.718691,16.424736 20.476175,16.631533 21.125456,17.045116 C 21.781085,17.452356 22.287135,18.047294 22.643608,18.829932 C 23.006427,19.606223 23.187841,20.528855 23.187852,21.597829 C 23.187841,22.386843 23.085995,23.112223 22.882313,23.773968 C 22.684973,24.429358 22.395348,24.998845 22.013433,25.482429 C 21.631498,25.966017 21.166822,26.341432 20.619406,26.608676 C 20.078338,26.869558 19.479989,27 18.824359,27 C 18.42333,27 18.044588,26.952277 17.688131,26.856833 C 17.338028,26.761388 17.038853,26.63731 16.790607,26.484599 C 16.542351,26.325524 16.32911,26.163268 16.150882,25.99783 C 15.979012,25.832393 15.749857,25.584238 15.463417,25.253362 L 15.463417,25.511063 C 15.463413,26.001013 15.345654,26.373246 15.110137,26.627766 C 14.874613,26.875922 14.575439,27 14.212612,27 C 13.843417,27 13.547425,26.875922 13.324637,26.627766 C 13.108211,26.373246 12.999999,26.001013 13,25.511063 L 13,14.134051 C 12.999999,13.605938 13.105029,13.208252 13.31509,12.940994 C 13.531511,12.667399 13.830685,12.530595 14.212612,12.530581 C 14.613632,12.530595 14.922354,12.661036 15.138782,12.921905 C 15.355202,13.176437 15.463413,13.542308 15.463417,14.019518 M 15.587544,21.760086 C 15.587539,22.797255 15.82306,23.595808 16.294104,24.155747 C 16.771506,24.709329 17.395316,24.986118 18.165537,24.986116 C 18.821169,24.986118 19.384508,24.702966 19.855556,24.136658 C 20.332954,23.563993 20.571657,22.746351 20.571665,21.683729 C 20.571657,20.996533 20.472992,20.404777 20.275673,19.908457 C 20.078338,19.412152 19.798259,19.030374 19.435438,18.763121 C 19.072602,18.489521 18.649302,18.352717 18.165537,18.352709 C 17.669028,18.352717 17.226633,18.489521 16.838347,18.763121 C 16.450052,19.030374 16.144513,19.421697 15.921728,19.937091 C 15.698933,20.446136 15.587539,21.0538 15.587544,21.760086"
       id="text3427" />
    <path
       style="font-size:19.52186584px;font-style:normal;font-variant:normal;font-weight:normal;font-stretch:normal;text-align:start;line-height:120.00000477%;writing-mode:lr-tb;text-anchor:start;fill:black;fill-opacity:1;stroke:none;stroke-width:1pt;stroke-linecap:butt;stroke-linejoin:miter;stroke-opacity:1;font-family:Carbon Block"
       d="M 25.775435,8.8324476 C 25.775429,8.9639581 25.766659,9.1568306 25.749124,9.4110664 C 25.740349,9.6565464 25.735964,9.836269 25.735969,9.9502344 L 23.894203,9.9502344 L 23.894203,8.3327311 C 23.8942,8.0171281 23.718794,7.8593232 23.367985,7.8593158 C 23.01717,7.8593232 22.841764,8.0171281 22.841767,8.3327311 L 22.841767,13.527151 C 22.841764,13.85153 23.01717,14.013718 23.367985,14.013717 C 23.718794,14.013718 23.8942,13.85153 23.894203,13.527151 L 23.894203,11.804445 L 25.735969,11.804445 L 25.735969,13.4877 C 25.735964,14.004951 25.455313,14.399463 24.894019,14.671238 C 24.446729,14.890413 23.938052,15 23.367985,15 C 22.789142,15 22.280465,14.890413 21.84195,14.671238 C 21.28065,14.399463 21,14.004951 21,13.4877 L 21,8.4247842 C 21,7.4516598 21.789328,6.9650946 23.367985,6.9650867 C 24.157309,6.9650946 24.736149,7.0834486 25.104506,7.3201485 C 25.551787,7.6094647 25.775429,8.1135644 25.775435,8.8324476"
       id="text3431" />
  </g>
</svg>
