<?xml version="1.0" encoding="utf-8"?>
<!-- Generator: Adobe Illustrator 17.1.0, SVG Export Plug-In . SVG Version: 6.00 Build 0)  -->
<!DOCTYPE svg PUBLIC "-//W3C//DTD SVG 1.1//EN" "http://www.w3.org/Graphics/SVG/1.1/DTD/svg11.dtd">
<svg version="1.1" xmlns="http://www.w3.org/2000/svg" xmlns:xlink="http://www.w3.org/1999/xlink" x="0px" y="0px"
	 viewBox="0 0 429.3 123.2" enable-background="new 0 0 429.3 123.2" xml:space="preserve">
<g id="Background">
	<rect x="-178" y="-123.2" fill="transparent" width="800" height="600"/>
</g>
<g id="Logotype">
	<g>
		<g>
			<path fill="#0F587E" d="M164.7,21.6v14.8H178v11.4h-13.3v24.3c0,3.2,0.6,5.3,1.8,6.4c1.2,1.1,2.9,1.7,5.3,1.7
				c1.1,0,2.2-0.1,3.3-0.4c1.1-0.3,2.1-0.8,2.9-1.5l1.7,10.6c-1.7,1.5-3.4,2.7-5.2,3.4c-1.8,0.8-4.2,1.1-7.3,1.1
				c-5.5,0-9.7-1.6-12.6-4.7c-2.8-3.1-4.3-8-4.3-14.6V47.8h-6.5V36.4h6.5v-9.1L164.7,21.6z"/>
			<path fill="#0F587E" d="M218.8,46.4c-4.2,0-12,2.6-15.7,6.7v38.6h-14.3V36.4h14.3v6c3.7-4.8,10.8-7.3,15.7-7.3"/>
			<path fill="#0F587E" d="M263.5,92.8c-4.4,0-8.9-1.5-10.8-4.6c-3.2,1.9-5.7,3.3-7.7,3.9c-1.9,0.7-3.8,1-5.6,1
				c-4.4,0-8.1-1.5-11.1-4.6c-3-3-4.5-7.1-4.5-12.2c0-4.8,1.4-8.6,4.2-11.3c2.8-2.7,6.4-4.4,10.8-5.1l11.6-1.9v-3.7
				c0-2.8-0.8-4.6-2.4-5.5c-1.6-0.9-3.4-1.3-5.3-1.3c-2.4,0-4.7,0.4-7.2,1.2c-2.4,0.8-4.6,1.9-6.5,3.1l-2.3-12.2
				c6.1-3.2,12.2-4.8,18.3-4.8c2.1,0,4.2,0.2,6.4,0.6c2.2,0.4,4.2,1.2,6,2.4c1.8,1.2,3.2,2.7,4.4,4.7c1.1,1.9,1.7,4.4,1.7,7.3
				l0,26.1 M243.7,67.5c-1.9,0.3-3.5,1-4.7,2.3c-1.2,1.2-1.8,3-1.8,5.4c0,4.3,1.9,6.4,5.8,6.4c1.1,0,2.2-0.2,3.2-0.6
				c1-0.4,2.4-1.1,4-2.1V66.2L243.7,67.5z"/>
			<path fill="#0F587E" d="M310,49c-3.2-2.1-6.6-3.1-10.4-3.1c-4.6,0-7.8,1.5-9.8,4.5c-1.9,3-2.9,7-2.9,12.1c0,4.8,0.9,9.1,2.7,12.7
				c1.8,3.6,5,5.4,9.8,5.4c1.9,0,4-0.3,6.3-0.9c2.3-0.6,4.3-1.6,5.9-3l1.9,10.2c-1.9,2.2-4.5,3.9-7.8,5.2c-3.3,1.2-6.7,1.9-10.3,1.9
				c-7.1,0-12.6-2.6-16.5-7.7c-3.9-5.1-5.9-12.4-5.9-21.8c0-10,2.2-17.4,6.6-22.4c4.4-5,10.7-7.5,18.7-7.5c5.5,0,10,1,13.5,2.9
				L310,49z"/>
			<path fill="#0F587E" d="M329.1,13.3c2.5,0,4.5,0.7,5.9,2c1.5,1.3,2.2,3.4,2.2,6.1c0,2.6-0.7,4.7-2.2,6c-1.5,1.4-3.4,2.1-5.9,2.1
				c-2.5,0-4.5-0.7-5.9-2.1c-1.5-1.4-2.2-3.4-2.2-6c0-2.8,0.7-4.8,2.2-6.1C324.6,14,326.6,13.3,329.1,13.3z M336.2,36.4v55.4h-14.3
				V36.4H336.2z"/>
			<path fill="#0F587E" d="M361.7,36.4V42c2.6-1.9,5.4-3.5,8.4-4.8c3-1.2,5.8-1.9,8.6-1.9c5.3,0,8.7,2.5,10.4,7.5
				c2.8-1.9,5.7-3.7,8.8-5.2c3.1-1.5,6.2-2.3,9.2-2.3c3.6,0,6.4,1.1,8.3,3.4c1.9,2.3,2.9,6.1,2.9,11.3v41.7H404V53.4
				c0-4-1.4-6-4.2-6c-2.5,0-5.8,1.2-10,3.7v40.7h-14.1V53.4c0-4-1.5-6-4.4-6c-2.6,0-5.9,1.2-9.8,3.7v40.7h-14.3V36.4H361.7z"/>
		</g>
	</g>
	<path fill-rule="evenodd" clip-rule="evenodd" fill="#0F587E" d="M123.4,57.8c2.5,2.9,3.4,7,2,10.8c-1.4,3.9-4.7,6.6-8.6,7.4
		c0,0-11.5,22.7-33.9,18.5c0,0,15.6-3.4,22.7-21.7c-3-3-4.2-7.4-2.7-11.6c1.5-4.1,5.2-6.9,9.4-7.5c-0.3-2.7-1.1-5.3-2.4-8
		c-0.8-1.7-1-3.3-0.1-5c0,0,3.3-6,8.3-0.6S123.4,57.8,123.4,57.8z"/>
	<path fill-rule="evenodd" clip-rule="evenodd" fill="#007396" d="M84.3,114c-2.3,3.1-6.1,4.9-10.1,4.4c-4.1-0.5-7.4-3.2-9.1-6.8
		c0,0-24.7-6.3-25.5-29c0,0,6.7,14.5,26.2,17.4c2.2-3.6,6.3-5.7,10.7-5.1c4.3,0.5,7.9,3.6,9.4,7.6c2.5-0.9,5-2.2,7.3-4
		c1.5-1.2,3-1.7,4.8-1.2c0,0,6.6,1.9,2.4,8C96.1,111.3,84.3,114,84.3,114z"/>
	<path fill-rule="evenodd" clip-rule="evenodd" fill="#0094BC" d="M19,93.3c-3.5-1.7-5.9-5.1-6.2-9.1c-0.3-4.1,1.7-7.9,5-10.2
		c0,0,1.6-25.4,23.8-30.4c0,0-13,9.3-12.3,29c3.9,1.5,6.7,5.1,7,9.6c0.3,4.4-2.1,8.4-5.7,10.6c1.3,2.3,3.1,4.5,5.3,6.4
		c1.4,1.2,2.2,2.7,2,4.5c0,0-0.6,6.8-7.4,3.8C23.9,104.4,19,93.3,19,93.3z"/>
	<path fill-rule="evenodd" clip-rule="evenodd" fill="#0094BC" d="M19.1,29.7c0.1-3.8,2-7.5,5.6-9.5c3.6-2,7.9-1.8,11.3,0.1
		c0,0,23.7-9.5,37.7,8.4c0,0-14-7.7-31.4,1.3c0.3,4.2-1.7,8.3-5.6,10.5c-3.8,2.1-8.5,1.7-12-0.6c-1.5,2.2-2.7,4.7-3.5,7.5
		c-0.5,1.8-1.4,3.2-3.2,3.8c0,0-6.4,2.3-6.6-5C11.2,38.8,19.1,29.7,19.1,29.7z"/>
	<path fill-rule="evenodd" clip-rule="evenodd" fill="#007396" d="M79.2,5.8c3.5-1.6,7.7-1.4,11,1c3.3,2.4,5,6.4,4.7,10.3
		c0,0,18.7,17.4,8.4,37.7c0,0,1-15.9-14.6-27.9c-3.7,2-8.2,2-11.9-0.6c-3.6-2.6-5.2-6.9-4.6-11.2c-2.6-0.4-5.4-0.4-8.3,0.1
		c-1.8,0.3-3.5,0-4.8-1.3c0,0-4.9-4.8,1.8-8.1C67.5,2.5,79.2,5.8,79.2,5.8z"/>
</g>
</svg>
