<?xml version="1.0" encoding="utf-8"?>
<!-- Generator: Adobe Illustrator 17.0.0, SVG Export Plug-In . SVG Version: 6.00 Build 0)  -->
<!DOCTYPE svg PUBLIC "-//W3C//DTD SVG 1.1//EN" "http://www.w3.org/Graphics/SVG/1.1/DTD/svg11.dtd">
<svg version="1.1" id="Layer_1" xmlns="http://www.w3.org/2000/svg" xmlns:xlink="http://www.w3.org/1999/xlink" x="0px" y="0px"
	 width="36px" height="36px" viewBox="0 0 36 36" enable-background="new 0 0 36 36" xml:space="preserve">
<rect x="2" y="4" fill="#FFFFFF" width="32" height="30"/>
<path fill="#585858" d="M33,36H3c-1.654,0-3-1.346-3-3V5c0-1.654,1.346-3,3-3h30c1.654,0,3,1.346,3,3v28C36,34.654,34.654,36,33,36z
	 M3,4C2.449,4,2,4.449,2,5v28c0,0.552,0.449,1,1,1h30c0.552,0,1-0.448,1-1V5c0-0.551-0.448-1-1-1H3z"/>
<path fill="#585858" d="M9,10c0,0.552-0.448,1-1,1H6c-0.552,0-1-0.448-1-1V8c0-0.552,0.448-1,1-1h2c0.552,0,1,0.448,1,1V10z"/>
<path fill="#585858" d="M9,22c0,0.552-0.448,1-1,1H6c-0.552,0-1-0.448-1-1v-2c0-0.552,0.448-1,1-1h2c0.552,0,1,0.448,1,1V22z"/>
<path fill="#585858" d="M9,16c0,0.552-0.448,1-1,1H6c-0.552,0-1-0.448-1-1v-2c0-0.552,0.448-1,1-1h2c0.552,0,1,0.448,1,1V16z"/>
<path fill="#585858" d="M31,10c0,0.552-0.448,1-1,1H12c-0.552,0-1-0.448-1-1V8c0-0.552,0.448-1,1-1h18c0.552,0,1,0.448,1,1V10z"/>
<path fill="#585858" d="M31,16c0,0.552-0.448,1-1,1H12c-0.552,0-1-0.448-1-1v-2c0-0.552,0.448-1,1-1h18c0.552,0,1,0.448,1,1V16z"/>
<path fill="#585858" d="M31,30c0,0.552-0.448,1-1,1H12c-0.552,0-1-0.448-1-1V20c0-0.552,0.448-1,1-1h18c0.552,0,1,0.448,1,1V30z"/>
<g>
	<path fill="#FFFFFF" d="M20.657,26.414c0.391,0.391,0.391,1.024,0,1.414l-0.707,0.707c-0.391,0.391-1.024,0.391-1.414,0
		l-2.828-2.828c-0.391-0.391-0.391-1.024,0-1.414l0.707-0.707c0.391-0.391,1.024-0.391,1.414,0L20.657,26.414z"/>
	<path fill="#FFFFFF" d="M24.899,22.172c0.391,0.391,0.391,1.024,0,1.414l-4.95,4.95c-0.391,0.391-1.024,0.391-1.414,0l-0.707-0.707
		c-0.391-0.391-0.391-1.024,0-1.414l4.95-4.95c0.391-0.391,1.024-0.391,1.414,0L24.899,22.172z"/>
</g>
</svg>
