<?xml version="1.0" encoding="utf-8"?>
<!-- Generator: Adobe Illustrator 17.0.0, SVG Export Plug-In . SVG Version: 6.00 Build 0)  -->
<!DOCTYPE svg PUBLIC "-//W3C//DTD SVG 1.1//EN" "http://www.w3.org/Graphics/SVG/1.1/DTD/svg11.dtd">
<svg version="1.1" id="Layer_1" xmlns="http://www.w3.org/2000/svg" xmlns:xlink="http://www.w3.org/1999/xlink" x="0px" y="0px"
	 width="36px" height="36px" viewBox="0 0 36 36" enable-background="new 0 0 36 36" xml:space="preserve">
<rect x="2" y="10" fill="#FFFFFF" width="32" height="24"/>
<g>
	<path fill="#585858" d="M24,1v4c0,0.551,0.448,1,1,1h1c0.552,0,1-0.449,1-1V1c0-0.551-0.448-1-1-1h-1C24.448,0,24,0.449,24,1z"/>
	<path fill="#585858" d="M33,3h-4v2c0,1.654-1.346,3-3,3h-1c-1.654,0-3-1.346-3-3V3h-8v2c0,1.654-1.346,3-3,3h-1
		C8.346,8,7,6.654,7,5V3H3C1.346,3,0,4.346,0,6v27c0,1.654,1.346,3,3,3h30c1.654,0,3-1.346,3-3V6C36,4.346,34.654,3,33,3z M34,33
		c0,0.552-0.448,1-1,1H3c-0.551,0-1-0.448-1-1V10h32V33z"/>
	<path fill="#585858" d="M9,1v4c0,0.551,0.449,1,1,1h1c0.551,0,1-0.449,1-1V1c0-0.551-0.449-1-1-1h-1C9.449,0,9,0.449,9,1z"/>
</g>
<path fill="#585858" d="M11,17c0,0.552-0.448,1-1,1H8c-0.552,0-1-0.448-1-1v-2c0-0.552,0.448-1,1-1h2c0.552,0,1,0.448,1,1V17z"/>
<path fill="#585858" d="M17,17c0,0.552-0.448,1-1,1h-2c-0.552,0-1-0.448-1-1v-2c0-0.552,0.448-1,1-1h2c0.552,0,1,0.448,1,1V17z"/>
<path fill="#585858" d="M23,17c0,0.552-0.448,1-1,1h-2c-0.552,0-1-0.448-1-1v-2c0-0.552,0.448-1,1-1h2c0.552,0,1,0.448,1,1V17z"/>
<path fill="#585858" d="M29,17c0,0.552-0.448,1-1,1h-2c-0.552,0-1-0.448-1-1v-2c0-0.552,0.448-1,1-1h2c0.552,0,1,0.448,1,1V17z"/>
<path fill="#585858" d="M11,23c0,0.552-0.448,1-1,1H8c-0.552,0-1-0.448-1-1v-2c0-0.552,0.448-1,1-1h2c0.552,0,1,0.448,1,1V23z"/>
<path fill="#585858" d="M17,23c0,0.552-0.448,1-1,1h-2c-0.552,0-1-0.448-1-1v-2c0-0.552,0.448-1,1-1h2c0.552,0,1,0.448,1,1V23z"/>
<path fill="#585858" d="M23,23c0,0.552-0.448,1-1,1h-2c-0.552,0-1-0.448-1-1v-2c0-0.552,0.448-1,1-1h2c0.552,0,1,0.448,1,1V23z"/>
<path fill="#585858" d="M29,23c0,0.552-0.448,1-1,1h-2c-0.552,0-1-0.448-1-1v-2c0-0.552,0.448-1,1-1h2c0.552,0,1,0.448,1,1V23z"/>
<path fill="#585858" d="M11,29c0,0.552-0.448,1-1,1H8c-0.552,0-1-0.448-1-1v-2c0-0.552,0.448-1,1-1h2c0.552,0,1,0.448,1,1V29z"/>
<path fill="#585858" d="M17,29c0,0.552-0.448,1-1,1h-2c-0.552,0-1-0.448-1-1v-2c0-0.552,0.448-1,1-1h2c0.552,0,1,0.448,1,1V29z"/>
<path fill="#585858" d="M23,29c0,0.552-0.448,1-1,1h-2c-0.552,0-1-0.448-1-1v-2c0-0.552,0.448-1,1-1h2c0.552,0,1,0.448,1,1V29z"/>
<path fill="#585858" d="M29,29c0,0.552-0.448,1-1,1h-2c-0.552,0-1-0.448-1-1v-2c0-0.552,0.448-1,1-1h2c0.552,0,1,0.448,1,1V29z"/>
</svg>
