<?xml version="1.0" encoding="utf-8"?>
<!-- Generator: Adobe Illustrator 17.0.0, SVG Export Plug-In . SVG Version: 6.00 Build 0)  -->
<!DOCTYPE svg PUBLIC "-//W3C//DTD SVG 1.1//EN" "http://www.w3.org/Graphics/SVG/1.1/DTD/svg11.dtd">
<svg version="1.1" id="Layer_1" xmlns="http://www.w3.org/2000/svg" xmlns:xlink="http://www.w3.org/1999/xlink" x="0px" y="0px"
	 width="13px" height="14px" viewBox="0 0 13 14" enable-background="new 0 0 13 14" xml:space="preserve">
<polygon fill="none" points="12.359,12.695 12.359,12.694 7,12.694 7,12.695 12.357,12.695 "/>
<rect x="4.32" y="10.015" fill="none" width="0.001" height="5.359"/>
<path fill="#585858" d="M2.981,3.986c0.369,0,0.669-0.3,0.669-0.669V0.638c0-0.369-0.299-0.67-0.669-0.67s-0.67,0.301-0.67,0.67
	v2.679C2.311,3.686,2.611,3.986,2.981,3.986z"/>
<path fill="#585858" d="M10.02,3.986c0.371,0,0.67-0.3,0.67-0.669V0.638c-0.002-0.369-0.299-0.67-0.67-0.67
	c-0.369,0-0.67,0.301-0.67,0.67v2.679C9.35,3.686,9.651,3.986,10.02,3.986z"/>
<path fill="#585858" d="M12.029,2.312h-0.672v1.005c0,0.737-0.603,1.339-1.34,1.339c-0.735,0-1.34-0.603-1.34-1.339V2.312H6v3.684
	h5.691h1.007V4.991V2.982C12.698,2.613,12.398,2.312,12.029,2.312z"/>
<path fill="#585858" d="M4.32,2.312v1.005c0,0.737-0.602,1.339-1.339,1.339s-1.34-0.603-1.34-1.339V2.312h-0.67
	c-0.369,0-0.67,0.3-0.67,0.67v2.009v1.005h1.004H7V2.312H4.32z"/>
<path fill="#585858" d="M0.302,13.365c0,0.369,0.301,0.668,0.67,0.668H7v-1.338H1.641v-0.001V8.006H7v-1.34H0.302V13.365z"/>
<path fill="#585858" d="M11.359,8.006v4.688v0.001h-0.002H6v1.338h6.029c0.369,0,0.669-0.299,0.669-0.668V6.666H6v1.34H11.359z"/>
<rect x="6" y="8.006" fill="#FFFFFF" stroke="#FFFFFF" stroke-miterlimit="10" width="5.359" height="4.688"/>
<rect x="1.641" y="8.006" fill="#FFFFFF" stroke="#FFFFFF" stroke-miterlimit="10" width="5.359" height="4.688"/>
</svg>
