<?xml version="1.0" encoding="utf-8"?>
<!-- Generator: Adobe Illustrator 15.1.0, SVG Export Plug-In  -->
<!DOCTYPE svg PUBLIC "-//W3C//DTD SVG 1.1//EN" "http://www.w3.org/Graphics/SVG/1.1/DTD/svg11.dtd" [
	<!ENTITY ns_flows "http://ns.adobe.com/Flows/1.0/">
]>
<svg version="1.1"
	 xmlns="http://www.w3.org/2000/svg" xmlns:xlink="http://www.w3.org/1999/xlink" xmlns:a="http://ns.adobe.com/AdobeSVGViewerExtensions/3.0/"
	 x="0px" y="0px" width="17px" height="16px" viewBox="0 0 17 16" overflow="visible" enable-background="new 0 0 17 16"
	 xml:space="preserve">
<defs>
</defs>
<polygon fill="#585858" points="17,10 14,10 14,7 11,7 11,10 8,10 8,13 11,13 11,16 14,16 14,13 17,13 "/>
<polygon fill="#585858" points="11,0 7,0 6,0 0,6 0,7 0,14 0,16 2,16 7,16 7,14.5 3.75,14.5 2,14.5 1.5,14.5 1.5,7 2,7 2,7 7,7 7,2 
	7,1.5 11.5,1.5 11.5,2 11.5,5 13,5 13,2 13,0 "/>
</svg>
