<?xml version="1.0" encoding="utf-8"?>
<!-- Generator: Adobe Illustrator 17.0.0, SVG Export Plug-In . SVG Version: 6.00 Build 0)  -->
<!DOCTYPE svg PUBLIC "-//W3C//DTD SVG 1.1//EN" "http://www.w3.org/Graphics/SVG/1.1/DTD/svg11.dtd">
<svg version="1.1" id="Layer_1" xmlns="http://www.w3.org/2000/svg" xmlns:xlink="http://www.w3.org/1999/xlink" x="0px" y="0px"
	 width="13px" height="14px" viewBox="-0.5 0 13 14" enable-background="new -0.5 0 13 14" xml:space="preserve">
<rect x="4.959" y="0.627" fill="#FFFFFF" width="1.705" height="1.496"/>
<ellipse fill="none" cx="6" cy="1.327" rx="0.648" ry="0.668"/>
<path fill="#585858" d="M3.408,3.328h5.186c0.355,0,0.646-0.301,0.646-0.667V1.994c0-0.367-0.291-0.668-0.646-0.668h-0.65
	c-0.355,0-0.646-0.3-0.646-0.667s-0.293-0.667-0.65-0.667H5.352c-0.356,0-0.648,0.301-0.648,0.667c0,0.366-0.292,0.667-0.648,0.667
	H3.408c-0.356,0-0.648,0.301-0.648,0.668v0.667C2.76,3.028,3.052,3.328,3.408,3.328z M6,0.659c0.357,0,0.648,0.299,0.648,0.667
	c0,0.37-0.29,0.668-0.648,0.668S5.352,1.696,5.352,1.326C5.352,0.958,5.643,0.659,6,0.659z"/>
<path fill="#585858" d="M11.5,1.991h-0.314H9.889c0,0.001,0,0.002,0,0.003v0.667c0,0.736-0.58,1.334-1.295,1.334H3.408
	c-0.715,0-1.296-0.598-1.296-1.334V1.994c0-0.001,0-0.002,0-0.003H0.815H0.5c-0.359,0-0.651,0.3-0.651,0.67v10.677
	c0,0.369,0.292,0.67,0.651,0.67h0.315h10.371H11.5c0.357,0,0.649-0.301,0.649-0.67V2.661C12.15,2.291,11.858,1.991,11.5,1.991z"/>
</svg>
