<?xml version="1.0" encoding="UTF-8" standalone="no"?>
<!-- Created with Inkscape (http://www.inkscape.org/) -->
<svg
   xmlns:dc="http://purl.org/dc/elements/1.1/"
   xmlns:cc="http://creativecommons.org/ns#"
   xmlns:rdf="http://www.w3.org/1999/02/22-rdf-syntax-ns#"
   xmlns:svg="http://www.w3.org/2000/svg"
   xmlns="http://www.w3.org/2000/svg"
   xmlns:xlink="http://www.w3.org/1999/xlink"
   xmlns:sodipodi="http://sodipodi.sourceforge.net/DTD/sodipodi-0.dtd"
   xmlns:inkscape="http://www.inkscape.org/namespaces/inkscape"
   width="32"
   height="32"
   id="svg1306"
   sodipodi:version="0.32"
   inkscape:version="0.46"
   sodipodi:docbase="/home/lapo/Desktop/tango-icon-theme/32x32/status"
   sodipodi:docname="weather-showers.svg"
   version="1.0"
   inkscape:output_extension="org.inkscape.output.svg.inkscape">
  <defs
     id="defs1308">
    <inkscape:perspective
       sodipodi:type="inkscape:persp3d"
       inkscape:vp_x="0 : 16 : 1"
       inkscape:vp_y="0 : 1000 : 0"
       inkscape:vp_z="32 : 16 : 1"
       inkscape:persp3d-origin="16 : 10.666667 : 1"
       id="perspective127" />
    <linearGradient
       inkscape:collect="always"
       id="linearGradient8397">
      <stop
         style="stop-color:#ffffff;stop-opacity:1;"
         offset="0"
         id="stop8400" />
      <stop
         style="stop-color:#ffffff;stop-opacity:0;"
         offset="1"
         id="stop8402" />
    </linearGradient>
    <linearGradient
       inkscape:collect="always"
       id="linearGradient8315">
      <stop
         style="stop-color:#ffffff;stop-opacity:1;"
         offset="0"
         id="stop8317" />
      <stop
         style="stop-color:#ffffff;stop-opacity:0;"
         offset="1"
         id="stop8319" />
    </linearGradient>
    <linearGradient
       inkscape:collect="always"
       id="linearGradient8381">
      <stop
         style="stop-color:#ffffff;stop-opacity:1;"
         offset="0"
         id="stop8383" />
      <stop
         style="stop-color:#ffffff;stop-opacity:0;"
         offset="1"
         id="stop8385" />
    </linearGradient>
    <linearGradient
       inkscape:collect="always"
       id="linearGradient8331">
      <stop
         style="stop-color:#ffffff;stop-opacity:1;"
         offset="0"
         id="stop8333" />
      <stop
         style="stop-color:#ffffff;stop-opacity:0;"
         offset="1"
         id="stop8335" />
    </linearGradient>
    <linearGradient
       inkscape:collect="always"
       id="linearGradient8302">
      <stop
         style="stop-color:#ffffff;stop-opacity:1;"
         offset="0"
         id="stop8304" />
      <stop
         style="stop-color:#ffffff;stop-opacity:0;"
         offset="1"
         id="stop8306" />
    </linearGradient>
    <linearGradient
       inkscape:collect="always"
       id="linearGradient6549">
      <stop
         style="stop-color:#ffffff;stop-opacity:1;"
         offset="0"
         id="stop6551" />
      <stop
         style="stop-color:#ffffff;stop-opacity:0;"
         offset="1"
         id="stop6553" />
    </linearGradient>
    <linearGradient
       inkscape:collect="always"
       id="linearGradient6527">
      <stop
         style="stop-color:#ffffff;stop-opacity:1;"
         offset="0"
         id="stop6530" />
      <stop
         style="stop-color:#ffffff;stop-opacity:0;"
         offset="1"
         id="stop6532" />
    </linearGradient>
    <linearGradient
       inkscape:collect="always"
       id="linearGradient6538">
      <stop
         style="stop-color:#ffffff;stop-opacity:1;"
         offset="0"
         id="stop6540" />
      <stop
         style="stop-color:#ffffff;stop-opacity:0;"
         offset="1"
         id="stop6542" />
    </linearGradient>
    <linearGradient
       inkscape:collect="always"
       id="linearGradient6513">
      <stop
         style="stop-color:#ffffff;stop-opacity:1;"
         offset="0"
         id="stop6515" />
      <stop
         style="stop-color:#ffffff;stop-opacity:0;"
         offset="1"
         id="stop6517" />
    </linearGradient>
    <linearGradient
       inkscape:collect="always"
       id="linearGradient6497">
      <stop
         style="stop-color:#ffffff;stop-opacity:1;"
         offset="0"
         id="stop6499" />
      <stop
         style="stop-color:#ffffff;stop-opacity:0;"
         offset="1"
         id="stop6501" />
    </linearGradient>
    <linearGradient
       inkscape:collect="always"
       id="linearGradient6470">
      <stop
         style="stop-color:#ffffff;stop-opacity:1;"
         offset="0"
         id="stop6472" />
      <stop
         style="stop-color:#ffffff;stop-opacity:0;"
         offset="1"
         id="stop6474" />
    </linearGradient>
    <linearGradient
       inkscape:collect="always"
       id="linearGradient2254">
      <stop
         style="stop-color:#ffffff;stop-opacity:1;"
         offset="0"
         id="stop2256" />
      <stop
         style="stop-color:#ffffff;stop-opacity:0;"
         offset="1"
         id="stop2258" />
    </linearGradient>
    <linearGradient
       inkscape:collect="always"
       xlink:href="#linearGradient8302"
       id="linearGradient3722"
       gradientUnits="userSpaceOnUse"
       gradientTransform="matrix(0.727273,0,0,0.695644,-160.0909,277.1706)"
       x1="228.50261"
       y1="-392.30591"
       x2="266.36395"
       y2="-379.26862" />
    <linearGradient
       inkscape:collect="always"
       xlink:href="#linearGradient8331"
       id="linearGradient3738"
       gradientUnits="userSpaceOnUse"
       x1="240.07379"
       y1="-393.4072"
       x2="245.82706"
       y2="-388.55029" />
    <linearGradient
       inkscape:collect="always"
       xlink:href="#linearGradient8381"
       id="linearGradient3740"
       gradientUnits="userSpaceOnUse"
       x1="246.74042"
       y1="-391.31381"
       x2="252.69785"
       y2="-385.35165" />
    <linearGradient
       inkscape:collect="always"
       xlink:href="#linearGradient8315"
       id="linearGradient3742"
       gradientUnits="userSpaceOnUse"
       x1="230.87598"
       y1="-390.43951"
       x2="235.25652"
       y2="-386.95901" />
    <linearGradient
       inkscape:collect="always"
       xlink:href="#linearGradient8397"
       id="linearGradient3744"
       gradientUnits="userSpaceOnUse"
       x1="238.00478"
       y1="-388.47476"
       x2="245.65462"
       y2="-382.64539" />
    <linearGradient
       inkscape:collect="always"
       xlink:href="#linearGradient6470"
       id="linearGradient3933"
       gradientUnits="userSpaceOnUse"
       gradientTransform="matrix(0.703704,0,0,0.705867,-186.8889,321.111)"
       x1="271.0217"
       y1="-441.05182"
       x2="285.02859"
       y2="-431.96991" />
    <linearGradient
       inkscape:collect="always"
       xlink:href="#linearGradient6497"
       id="linearGradient3935"
       gradientUnits="userSpaceOnUse"
       x1="287.5173"
       y1="-439.75281"
       x2="289.67633"
       y2="-436.32199" />
    <linearGradient
       inkscape:collect="always"
       xlink:href="#linearGradient6513"
       id="linearGradient3937"
       gradientUnits="userSpaceOnUse"
       x1="286.51172"
       y1="-441.29074"
       x2="289.85379"
       y2="-436.14453" />
    <linearGradient
       inkscape:collect="always"
       xlink:href="#linearGradient6538"
       id="linearGradient3939"
       gradientUnits="userSpaceOnUse"
       x1="285.94086"
       y1="-439.939"
       x2="289.39124"
       y2="-436.4429" />
    <linearGradient
       inkscape:collect="always"
       xlink:href="#linearGradient6527"
       id="linearGradient3941"
       gradientUnits="userSpaceOnUse"
       gradientTransform="matrix(0.714626,0,0,0.70455,-190.6684,320.3642)"
       x1="275.94193"
       y1="-437.10501"
       x2="279.97546"
       y2="-431.91833" />
    <linearGradient
       inkscape:collect="always"
       xlink:href="#linearGradient6549"
       id="linearGradient3943"
       gradientUnits="userSpaceOnUse"
       x1="286.66589"
       y1="-439.48358"
       x2="289.76562"
       y2="-436.70703" />
    <linearGradient
       inkscape:collect="always"
       xlink:href="#linearGradient6538"
       id="linearGradient3945"
       gradientUnits="userSpaceOnUse"
       x1="284.80219"
       y1="-441.23294"
       x2="288.89954"
       y2="-436.83109" />
    <linearGradient
       inkscape:collect="always"
       xlink:href="#linearGradient6470"
       id="linearGradient3999"
       gradientUnits="userSpaceOnUse"
       gradientTransform="matrix(0.703704,0,0,0.705867,-186.8889,321.111)"
       x1="271.0217"
       y1="-441.05182"
       x2="285.02859"
       y2="-431.96991" />
    <linearGradient
       inkscape:collect="always"
       xlink:href="#linearGradient6497"
       id="linearGradient4001"
       gradientUnits="userSpaceOnUse"
       x1="287.5173"
       y1="-439.75281"
       x2="289.67633"
       y2="-436.32199" />
    <linearGradient
       inkscape:collect="always"
       xlink:href="#linearGradient6513"
       id="linearGradient4003"
       gradientUnits="userSpaceOnUse"
       x1="286.51172"
       y1="-441.29074"
       x2="289.85379"
       y2="-436.14453" />
    <linearGradient
       inkscape:collect="always"
       xlink:href="#linearGradient6538"
       id="linearGradient4005"
       gradientUnits="userSpaceOnUse"
       x1="285.94086"
       y1="-439.939"
       x2="289.39124"
       y2="-436.4429" />
    <linearGradient
       inkscape:collect="always"
       xlink:href="#linearGradient6527"
       id="linearGradient4007"
       gradientUnits="userSpaceOnUse"
       gradientTransform="matrix(0.714626,0,0,0.70455,-190.6684,320.3642)"
       x1="275.94193"
       y1="-437.10501"
       x2="279.97546"
       y2="-431.91833" />
    <linearGradient
       inkscape:collect="always"
       xlink:href="#linearGradient6549"
       id="linearGradient4009"
       gradientUnits="userSpaceOnUse"
       x1="286.66589"
       y1="-439.48358"
       x2="289.76562"
       y2="-436.70703" />
    <linearGradient
       inkscape:collect="always"
       xlink:href="#linearGradient6538"
       id="linearGradient4011"
       gradientUnits="userSpaceOnUse"
       x1="284.80219"
       y1="-441.23294"
       x2="288.89954"
       y2="-436.83109" />
    <linearGradient
       inkscape:collect="always"
       xlink:href="#linearGradient2254"
       id="linearGradient3873"
       gradientUnits="userSpaceOnUse"
       gradientTransform="matrix(1.088439,0,-0.54422,0.674842,265.9811,77.50139)"
       x1="-137.49608"
       y1="-425.28664"
       x2="-130.60854"
       y2="-425.28665" />
    <linearGradient
       inkscape:collect="always"
       xlink:href="#linearGradient2254"
       id="linearGradient3875"
       gradientUnits="userSpaceOnUse"
       gradientTransform="matrix(1.070879,0,-0.535439,0.674857,277.514,77.5078)"
       x1="-137.49608"
       y1="-425.28664"
       x2="-130.60854"
       y2="-425.28665" />
    <linearGradient
       inkscape:collect="always"
       xlink:href="#linearGradient2254"
       id="linearGradient3877"
       gradientUnits="userSpaceOnUse"
       gradientTransform="matrix(1.070878,0,-0.535439,0.674858,287.5142,77.50802)"
       x1="-137.49608"
       y1="-425.28664"
       x2="-130.60854"
       y2="-425.28665" />
  </defs>
  <sodipodi:namedview
     id="base"
     pagecolor="#ffffff"
     bordercolor="#666666"
     borderopacity="1.0"
     inkscape:pageopacity="0.0"
     inkscape:pageshadow="2"
     inkscape:zoom="1"
     inkscape:cx="-147.04193"
     inkscape:cy="22.107789"
     inkscape:current-layer="layer1"
     showgrid="false"
     inkscape:grid-bbox="true"
     inkscape:document-units="px"
     inkscape:window-width="1200"
     inkscape:window-height="704"
     inkscape:window-x="186"
     inkscape:window-y="144"
     inkscape:showpageshadow="false"
     width="32px"
     height="32px"
     borderlayer="true"
     showborder="false"
     inkscape:grid-points="false"
     showguides="true"
     inkscape:guide-bbox="true">
    <inkscape:grid
       id="GridFromPre046Settings"
       type="xygrid"
       originx="0px"
       originy="0px"
       spacingx="0.5px"
       spacingy="0.5px"
       color="#0000ff"
       empcolor="#0000ff"
       opacity="0.2"
       empopacity="0.4"
       empspacing="2" />
  </sodipodi:namedview>
  <metadata
     id="metadata1311">
    <rdf:RDF>
      <cc:Work
         rdf:about="">
        <dc:format>image/svg+xml</dc:format>
        <dc:type
           rdf:resource="http://purl.org/dc/dcmitype/StillImage" />
        <dc:title>weather-storm</dc:title>
        <dc:date>January 2006</dc:date>
        <dc:creator>
          <cc:Agent>
            <dc:title>Ryan Collier</dc:title>
          </cc:Agent>
        </dc:creator>
        <dc:publisher>
          <cc:Agent>
            <dc:title>http://www.tango-project.org</dc:title>
          </cc:Agent>
        </dc:publisher>
        <dc:source>http://www.pseudocode.org</dc:source>
        <dc:subject>
          <rdf:Bag>
            <rdf:li>weather</rdf:li>
            <rdf:li>applet</rdf:li>
            <rdf:li>notify</rdf:li>
          </rdf:Bag>
        </dc:subject>
        <cc:license
           rdf:resource="http://creativecommons.org/licenses/publicdomain/" />
      </cc:Work>
      <cc:License
         rdf:about="http://creativecommons.org/licenses/publicdomain/">
        <cc:permits
           rdf:resource="http://creativecommons.org/ns#Reproduction" />
        <cc:permits
           rdf:resource="http://creativecommons.org/ns#Distribution" />
        <cc:permits
           rdf:resource="http://creativecommons.org/ns#DerivativeWorks" />
      </cc:License>
    </rdf:RDF>
  </metadata>
  <g
     id="layer1"
     inkscape:label="Layer 1"
     inkscape:groupmode="layer">
    <g
       id="g11337"
       transform="matrix(0.67486,0,-6.446058e-2,0.927741,-242.7717,217.3773)">
      <rect
         transform="matrix(1,0,-0.600523,0.799607,0,0)"
         ry="1.5179254"
         rx="2.3596079"
         y="-270.75461"
         x="189.68199"
         height="17.509083"
         width="32.962067"
         id="rect6086"
         style="opacity:1;fill:#729fcf;fill-opacity:1;stroke:#3465a4;stroke-width:1.36715889;stroke-linecap:butt;stroke-linejoin:miter;stroke-miterlimit:0;stroke-dasharray:none;stroke-dashoffset:0;stroke-opacity:1" />
      <g
         style="opacity:0.8"
         transform="matrix(1,0,0,0.999611,0,-7.86265e-2)"
         id="g10414">
        <path
           style="fill:url(#linearGradient3873);fill-opacity:1;stroke:none;stroke-width:1.15470111;stroke-linecap:butt;stroke-linejoin:miter;stroke-miterlimit:0;stroke-dashoffset:0;stroke-opacity:1"
           d="M 352.4779,-216 L 359.3958,-216 C 360.69054,-216 361.33008,-215.50056 360.82979,-214.88017 L 352.15249,-204.12015 C 351.65217,-203.49974 350.20707,-203.0003 348.91233,-203.0003 L 344.86943,-203.0003 C 343.57469,-203.0003 342.30979,-202.9512 343.43545,-204.12015 C 343.43545,-204.12015 352.4779,-216 352.4779,-216 z "
           id="rect6088"
           sodipodi:nodetypes="cccccccc" />
        <path
           style="fill:url(#linearGradient3875);fill-opacity:1;stroke:none;stroke-width:1.15470111;stroke-linecap:butt;stroke-linejoin:miter;stroke-miterlimit:0;stroke-dashoffset:0;stroke-opacity:1"
           d="M 362.74641,-216 L 369.42169,-216 C 370.69552,-216 371.32477,-215.50054 370.83253,-214.88014 L 362.29523,-204.11987 C 361.80299,-203.49946 360.38121,-203 359.10738,-203 L 353,-203 C 353,-203 362.74641,-216 362.74641,-216 z "
           id="path6115"
           sodipodi:nodetypes="ccccccc" />
        <path
           style="fill:url(#linearGradient3877);fill-opacity:1;stroke:none;stroke-width:1.15470111;stroke-linecap:butt;stroke-linejoin:miter;stroke-miterlimit:0;stroke-dashoffset:0;stroke-opacity:1"
           d="M 372.7464,-216 L 379.42169,-216 C 380.69553,-216 381.32477,-215.50053 380.83253,-214.88014 L 372.29523,-204.11986 C 371.80299,-203.49945 370.38122,-203 369.10738,-203 L 363,-203 C 363,-203 372.7464,-216 372.7464,-216 z "
           id="path6125"
           sodipodi:nodetypes="ccccccc" />
      </g>
    </g>
    <g
       id="g3758"
       transform="translate(0,1)">
      <path
         id="path12827"
         d="M 16.25709,-4.353388e-05 C 14.19757,-4.353388e-05 12.46239,1.1382304 11.498143,2.7575606 C 10.796616,2.4139613 10.038282,2.1698745 9.19992,2.1698745 C 6.329509,2.1698745 3.9999,4.4381621 3.9999,7.2330165 C 3.9999,10.027871 6.329509,12.296158 9.19992,12.296158 C 10.997396,12.296158 12.490857,11.341886 13.424936,9.9906206 C 14.267488,10.489427 15.199614,10.849546 16.25709,10.849546 C 16.93541,10.849546 17.559286,10.681725 18.160669,10.46529 C 18.539483,11.092924 19.03659,11.607911 19.646389,12.024919 C 19.64101,12.119223 19.59996,12.200552 19.59996,12.296158 C 19.59996,15.091013 21.929562,17.3593 24.79998,17.3593 C 27.670391,17.3593 30,15.091013 30,12.296158 C 30,10.582147 29.064754,9.143745 27.724991,8.2275622 C 27.73037,8.1332576 27.77142,8.0519291 27.77142,7.9563225 C 27.77142,5.1614681 25.441818,2.8931805 22.5714,2.8931805 C 22.108821,2.8931805 21.698398,3.0538918 21.271395,3.1644202 C 20.384026,1.3135959 18.492103,-4.353388e-05 16.25709,-4.353388e-05 z "
         style="fill:#555753;fill-opacity:1;stroke:none;stroke-width:1;stroke-linecap:butt;stroke-linejoin:miter;stroke-miterlimit:2;stroke-dasharray:none;stroke-dashoffset:0;stroke-opacity:1" />
      <path
         id="path12829"
         d="M 16.272726,1 C 14.25056,1 12.538538,2.2256202 11.863636,3.9347477 C 11.146967,3.44123 10.313506,3.0869317 9.3636371,3.0869317 C 6.9549104,3.0869317 5.0000017,4.9568224 5.0000017,7.260795 C 5.0000017,9.5647675 6.9549104,11.434658 9.3636371,11.434658 C 11.129273,11.434658 12.631447,10.422093 13.318181,8.9781659 C 14.13328,9.6164608 15.137919,10.04337 16.272726,10.04337 C 17.05421,10.04337 17.759475,9.821488 18.409089,9.4998988 C 18.698835,10.195376 19.209918,10.742542 19.81818,11.195531 C 19.687264,11.609871 19.545453,12.023103 19.545453,12.478124 C 19.545453,14.974094 21.66327,16.999809 24.272725,16.999809 C 26.882179,16.999809 28.999996,14.974094 28.999996,12.478124 C 28.999996,10.835855 28.029575,9.465854 26.659087,8.6738216 C 26.704608,8.4322732 26.818179,8.2104671 26.818179,7.9564389 C 26.818179,5.6524663 24.86327,3.7825756 22.454543,3.7825756 C 21.834194,3.7825756 21.239053,3.9068732 20.704544,4.1303975 C 20.083621,2.3259807 18.366188,1.000007 16.272726,1 z "
         style="opacity:0.83529412;fill:url(#linearGradient3722);fill-opacity:1;stroke:none;stroke-width:1;stroke-linecap:butt;stroke-linejoin:miter;stroke-miterlimit:2;stroke-dasharray:none;stroke-dashoffset:0;stroke-opacity:1" />
      <path
         transform="matrix(0.701416,0,0,0.670911,-145.3356,269.8846)"
         d="M 248.54804 -383.6666 A 6.7396116 6.7396116 0 1 1  235.06881,-383.6666 A 6.7396116 6.7396116 0 1 1  248.54804 -383.6666 z"
         sodipodi:ry="6.7396116"
         sodipodi:rx="6.7396116"
         sodipodi:cy="-383.6666"
         sodipodi:cx="241.80843"
         id="path12831"
         style="fill:#888a85;fill-opacity:1;stroke:none;stroke-width:1;stroke-linecap:butt;stroke-linejoin:miter;stroke-miterlimit:2;stroke-dasharray:none;stroke-dashoffset:0;stroke-opacity:1"
         sodipodi:type="arc" />
      <g
         transform="matrix(0.714286,0,0,0.684213,-206.143,166.8953)"
         id="g12833">
        <path
           sodipodi:type="arc"
           style="opacity:1;fill:#888a85;fill-opacity:1;stroke:none;stroke-width:1;stroke-linecap:butt;stroke-linejoin:miter;stroke-miterlimit:2;stroke-dasharray:none;stroke-dashoffset:0;stroke-opacity:1"
           id="path12835"
           sodipodi:cx="243.95184"
           sodipodi:cy="-389.30136"
           sodipodi:rx="6.2313786"
           sodipodi:ry="6.2313786"
           d="M 250.18322 -389.30136 A 6.2313786 6.2313786 0 1 1  237.72046,-389.30136 A 6.2313786 6.2313786 0 1 1  250.18322 -389.30136 z"
           transform="matrix(0.88263,0,0,0.88263,96.18078,108.1091)" />
        <path
           sodipodi:type="arc"
           style="opacity:0.49444442;fill:url(#linearGradient3738);fill-opacity:1;stroke:none;stroke-width:1;stroke-linecap:butt;stroke-linejoin:miter;stroke-miterlimit:2;stroke-dasharray:none;stroke-dashoffset:0;stroke-opacity:1"
           id="path12837"
           sodipodi:cx="243.95184"
           sodipodi:cy="-389.30136"
           sodipodi:rx="6.2313786"
           sodipodi:ry="6.2313786"
           d="M 250.18322 -389.30136 A 6.2313786 6.2313786 0 1 1  237.72046,-389.30136 A 6.2313786 6.2313786 0 1 1  250.18322 -389.30136 z"
           transform="matrix(0.88263,0,0,0.88263,96.18078,108.1091)" />
      </g>
      <g
         transform="matrix(0.714286,0,0,0.684213,-206.143,166.8953)"
         id="g12839">
        <path
           sodipodi:type="arc"
           style="opacity:1;fill:#888a85;fill-opacity:1;stroke:none;stroke-width:1;stroke-linecap:butt;stroke-linejoin:miter;stroke-miterlimit:2;stroke-dasharray:none;stroke-dashoffset:0;stroke-opacity:1"
           id="path12841"
           sodipodi:cx="251.22179"
           sodipodi:cy="-385.7879"
           sodipodi:rx="6.0325046"
           sodipodi:ry="6.0325046"
           d="M 257.25429 -385.7879 A 6.0325046 6.0325046 0 1 1  245.18928,-385.7879 A 6.0325046 6.0325046 0 1 1  257.25429 -385.7879 z"
           transform="matrix(0.911728,0,0,0.911728,90.45407,120.2336)" />
        <path
           sodipodi:type="arc"
           style="opacity:0.49444442;fill:url(#linearGradient3740);fill-opacity:1;stroke:none;stroke-width:1;stroke-linecap:butt;stroke-linejoin:miter;stroke-miterlimit:2;stroke-dasharray:none;stroke-dashoffset:0;stroke-opacity:1"
           id="path12843"
           sodipodi:cx="251.22179"
           sodipodi:cy="-385.7879"
           sodipodi:rx="6.0325046"
           sodipodi:ry="6.0325046"
           d="M 257.25429 -385.7879 A 6.0325046 6.0325046 0 1 1  245.18928,-385.7879 A 6.0325046 6.0325046 0 1 1  257.25429 -385.7879 z"
           transform="matrix(0.911728,0,0,0.911728,90.45407,120.2336)" />
      </g>
      <g
         transform="matrix(0.714286,0,0,0.684213,-206.143,166.8953)"
         id="g12845">
        <path
           sodipodi:type="arc"
           style="opacity:1;fill:#888a85;fill-opacity:1;stroke:none;stroke-width:1;stroke-linecap:butt;stroke-linejoin:miter;stroke-miterlimit:2;stroke-dasharray:none;stroke-dashoffset:0;stroke-opacity:1"
           id="path12847"
           sodipodi:cx="233.43362"
           sodipodi:cy="-387.88715"
           sodipodi:rx="4.3752232"
           sodipodi:ry="4.3752232"
           d="M 237.80885 -387.88715 A 4.3752232 4.3752232 0 1 1  229.0584,-387.88715 A 4.3752232 4.3752232 0 1 1  237.80885 -387.88715 z"
           transform="matrix(1.142799,0,0,1.142799,35.23229,210.277)" />
        <path
           sodipodi:type="arc"
           style="opacity:0.49444442;fill:url(#linearGradient3742);fill-opacity:1;stroke:none;stroke-width:1;stroke-linecap:butt;stroke-linejoin:miter;stroke-miterlimit:2;stroke-dasharray:none;stroke-dashoffset:0;stroke-opacity:1"
           id="path12849"
           sodipodi:cx="233.43362"
           sodipodi:cy="-387.88715"
           sodipodi:rx="4.3752232"
           sodipodi:ry="4.3752232"
           d="M 237.80885 -387.88715 A 4.3752232 4.3752232 0 1 1  229.0584,-387.88715 A 4.3752232 4.3752232 0 1 1  237.80885 -387.88715 z"
           transform="matrix(1.142799,0,0,1.142799,35.23229,210.277)" />
      </g>
      <g
         transform="matrix(0.714286,0,0,0.684213,-206.143,166.8953)"
         id="g12851">
        <path
           sodipodi:type="arc"
           style="opacity:1;fill:#888a85;fill-opacity:1;stroke:none;stroke-width:1;stroke-linecap:butt;stroke-linejoin:miter;stroke-miterlimit:2;stroke-dasharray:none;stroke-dashoffset:0;stroke-opacity:1"
           id="path12853"
           sodipodi:cx="241.80843"
           sodipodi:cy="-383.6666"
           sodipodi:rx="6.7396116"
           sodipodi:ry="6.7396116"
           d="M 248.54804 -383.6666 A 6.7396116 6.7396116 0 1 1  235.06881,-383.6666 A 6.7396116 6.7396116 0 1 1  248.54804 -383.6666 z"
           transform="matrix(1.038636,0,0,1.038636,59.84906,169.4899)" />
        <path
           sodipodi:type="arc"
           style="opacity:0.49444442;fill:url(#linearGradient3744);fill-opacity:1;stroke:none;stroke-width:1;stroke-linecap:butt;stroke-linejoin:miter;stroke-miterlimit:2;stroke-dasharray:none;stroke-dashoffset:0;stroke-opacity:1"
           id="path12855"
           sodipodi:cx="241.80843"
           sodipodi:cy="-383.6666"
           sodipodi:rx="6.7396116"
           sodipodi:ry="6.7396116"
           d="M 248.54804 -383.6666 A 6.7396116 6.7396116 0 1 1  235.06881,-383.6666 A 6.7396116 6.7396116 0 1 1  248.54804 -383.6666 z"
           transform="matrix(1.038636,0,0,1.038636,59.84907,169.4899)" />
      </g>
    </g>
    <g
       id="g3949"
       transform="translate(11,2)">
      <g
         transform="matrix(0.723306,0,0,0.682958,138.0974,241.9986)"
         id="g3951" />
      <g
         id="g3957">
        <path
           style="fill:#888a85;fill-opacity:1;stroke:#555753;stroke-width:1.00000036;stroke-linecap:butt;stroke-linejoin:miter;stroke-miterlimit:2;stroke-dasharray:none;stroke-dashoffset:0;stroke-opacity:1"
           d="M 10.498859,6.4871716 C 8.8760648,6.4871716 7.5618104,7.6079226 7.1267175,9.1078093 C 6.6313174,8.844784 6.0944331,8.6559752 5.496477,8.6559752 C 3.5241092,8.6559752 1.9233398,10.275341 1.923347,12.270648 C 1.923347,12.689176 2.039488,13.071442 2.1689997,13.445416 C 1.1874823,14.002611 0.49409498,15.02792 0.49409498,16.246787 C 0.49409498,18.042558 1.934781,19.5 3.709912,19.499993 C 3.8364937,19.499993 17.161224,19.499993 17.287806,19.499993 C 19.06293,19.499993 20.503623,18.042558 20.503623,16.246787 C 20.503623,15.02792 19.810236,14.002611 18.828718,13.445416 C 18.958237,13.071449 19.074371,12.689169 19.074371,12.270648 C 19.074371,10.275348 17.473609,8.6559825 15.501241,8.6559752 C 14.903285,8.6559752 14.366401,8.844784 13.871,9.1078093 C 13.435908,7.6079226 12.121653,6.4871716 10.498859,6.4871716 z "
           id="path3959"
           sodipodi:nodetypes="ccsscsssscsscc" />
        <path
           style="opacity:0.77254902;fill:url(#linearGradient3999);fill-opacity:1;stroke:none;stroke-width:0.99999958;stroke-linecap:butt;stroke-linejoin:miter;stroke-miterlimit:2;stroke-dasharray:none;stroke-dashoffset:0;stroke-opacity:1"
           d="M 10.5,7 C 8.959086,7 7.879689,7.9428765 7.406835,9.7130156 C 6.936437,9.4704655 6.31779,9.124781 5.75,9.124781 C 3.838382,9.124781 2.40379,10.493331 2.403797,12.33333 C 2.403797,12.719277 2.591834,13.274562 2.714806,13.619427 C 1.7828,14.133262 1,14.95387 1,16.000001 C 1,17.656001 2.088046,19 4.053567,19 C 4.173767,19 16.826241,19 16.946433,19 C 18.896402,19 20,17.656001 20,16.000001 C 20,14.875998 19.2172,14.117672 18.285194,13.603834 C 18.408173,13.258975 18.611761,12.71927 18.611761,12.33333 C 18.611761,10.493338 17.122859,9.1091883 15.250007,9.1091812 C 14.682209,9.1091812 14.094659,9.4548728 13.624262,9.6974229 C 13.167664,7.9881367 12.040921,7 10.5,7 z "
           id="path3961"
           sodipodi:nodetypes="ccsscsssscsscc" />
        <g
           id="g3963"
           transform="matrix(0.94267,0,0,0.946214,0.523844,0.861609)">
          <path
             transform="matrix(0.755077,0,0,0.74443,-207.2464,335.768)"
             d="M 291.6875 -437.59375 A 3.3125 3.3125 0 1 1  285.0625,-437.59375 A 3.3125 3.3125 0 1 1  291.6875 -437.59375 z"
             sodipodi:ry="3.3125"
             sodipodi:rx="3.3125"
             sodipodi:cy="-437.59375"
             sodipodi:cx="288.375"
             id="path3965"
             style="fill:#888a85;fill-opacity:1;stroke:none;stroke-width:1;stroke-linecap:butt;stroke-linejoin:miter;stroke-miterlimit:2;stroke-dasharray:none;stroke-dashoffset:0;stroke-opacity:1"
             sodipodi:type="arc" />
          <path
             transform="matrix(0.755077,0,0,0.74443,-207.2464,335.768)"
             d="M 291.6875 -437.59375 A 3.3125 3.3125 0 1 1  285.0625,-437.59375 A 3.3125 3.3125 0 1 1  291.6875 -437.59375 z"
             sodipodi:ry="3.3125"
             sodipodi:rx="3.3125"
             sodipodi:cy="-437.59375"
             sodipodi:cx="288.375"
             id="path3967"
             style="opacity:0.47777776;fill:url(#linearGradient4001);fill-opacity:1;stroke:none;stroke-width:1;stroke-linecap:butt;stroke-linejoin:miter;stroke-miterlimit:2;stroke-dasharray:none;stroke-dashoffset:0;stroke-opacity:1"
             sodipodi:type="arc" />
          <rect
             y="11.771304"
             x="3.7099185"
             height="6.34095"
             width="14.29252"
             id="rect3969"
             style="fill:#888a85;fill-opacity:1;stroke:none;stroke-width:1;stroke-linecap:butt;stroke-linejoin:miter;stroke-miterlimit:2;stroke-dasharray:none;stroke-dashoffset:0;stroke-opacity:1" />
          <path
             transform="matrix(0.647208,0,0,0.638083,-182.9288,295.2197)"
             d="M 291.6875 -437.59375 A 3.3125 3.3125 0 1 1  285.0625,-437.59375 A 3.3125 3.3125 0 1 1  291.6875 -437.59375 z"
             sodipodi:ry="3.3125"
             sodipodi:rx="3.3125"
             sodipodi:cy="-437.59375"
             sodipodi:cx="288.375"
             id="path3971"
             style="fill:#888a85;fill-opacity:1;stroke:none;stroke-width:1;stroke-linecap:butt;stroke-linejoin:miter;stroke-miterlimit:2;stroke-dasharray:none;stroke-dashoffset:0;stroke-opacity:1"
             sodipodi:type="arc" />
          <path
             transform="matrix(0.755077,0,0,0.74443,-202.244,337.8816)"
             d="M 291.6875 -437.59375 A 3.3125 3.3125 0 1 1  285.0625,-437.59375 A 3.3125 3.3125 0 1 1  291.6875 -437.59375 z"
             sodipodi:ry="3.3125"
             sodipodi:rx="3.3125"
             sodipodi:cy="-437.59375"
             sodipodi:cx="288.375"
             id="path3973"
             style="fill:#888a85;fill-opacity:1;stroke:none;stroke-width:1;stroke-linecap:butt;stroke-linejoin:miter;stroke-miterlimit:2;stroke-dasharray:none;stroke-dashoffset:0;stroke-opacity:1"
             sodipodi:type="arc" />
          <path
             transform="matrix(0.755077,0,0,0.74443,-202.244,337.8817)"
             d="M 291.6875 -437.59375 A 3.3125 3.3125 0 1 1  285.0625,-437.59375 A 3.3125 3.3125 0 1 1  291.6875 -437.59375 z"
             sodipodi:ry="3.3125"
             sodipodi:rx="3.3125"
             sodipodi:cy="-437.59375"
             sodipodi:cx="288.375"
             id="path3975"
             style="opacity:0.47777776;fill:url(#linearGradient4003);fill-opacity:1;stroke:none;stroke-width:1;stroke-linecap:butt;stroke-linejoin:miter;stroke-miterlimit:2;stroke-dasharray:none;stroke-dashoffset:0;stroke-opacity:1"
             sodipodi:type="arc" />
          <path
             transform="matrix(0.755077,0,0,0.74443,-212.2488,337.8817)"
             d="M 291.6875 -437.59375 A 3.3125 3.3125 0 1 1  285.0625,-437.59375 A 3.3125 3.3125 0 1 1  291.6875 -437.59375 z"
             sodipodi:ry="3.3125"
             sodipodi:rx="3.3125"
             sodipodi:cy="-437.59375"
             sodipodi:cx="288.375"
             id="path3977"
             style="fill:#888a85;fill-opacity:1;stroke:none;stroke-width:1;stroke-linecap:butt;stroke-linejoin:miter;stroke-miterlimit:2;stroke-dasharray:none;stroke-dashoffset:0;stroke-opacity:1"
             sodipodi:type="arc" />
          <path
             transform="matrix(0.755077,0,0,0.74443,-212.2488,337.8817)"
             d="M 291.6875 -437.59375 A 3.3125 3.3125 0 1 1  285.0625,-437.59375 A 3.3125 3.3125 0 1 1  291.6875 -437.59375 z"
             sodipodi:ry="3.3125"
             sodipodi:rx="3.3125"
             sodipodi:cy="-437.59375"
             sodipodi:cx="288.375"
             id="path3979"
             style="opacity:0.47777776;fill:url(#linearGradient4005);fill-opacity:1;stroke:none;stroke-width:1;stroke-linecap:butt;stroke-linejoin:miter;stroke-miterlimit:2;stroke-dasharray:none;stroke-dashoffset:0;stroke-opacity:1"
             sodipodi:type="arc" />
          <path
             id="path3981"
             d="M 9.7619009,9.6796665 C 7.2039829,9.6796665 5.139164,11.737396 5.139164,14.259242 C 5.139164,15.929504 6.1035017,17.315431 7.4616985,18.112249 L 12.084435,18.112249 C 13.442632,17.315431 14.40697,15.907494 14.40697,14.237224 C 14.40697,11.715372 12.319812,9.6796665 9.7619009,9.6796665 z "
             style="fill:#888a85;fill-opacity:1;stroke:none;stroke-width:1;stroke-linecap:butt;stroke-linejoin:miter;stroke-miterlimit:2;stroke-dasharray:none;stroke-dashoffset:0;stroke-opacity:1" />
          <path
             id="path3983"
             d="M 9.784233,9.6576493 C 7.2201549,9.6576493 5.139164,11.709306 5.139164,14.237224 C 5.139164,15.911517 6.1002288,17.313515 7.4616985,18.112249 L 12.106767,18.112249 C 13.468237,17.313515 14.429302,15.911517 14.429302,14.237224 C 14.429302,11.709299 12.348311,9.6576564 9.784233,9.6576493 z "
             style="opacity:0.47777776;fill:url(#linearGradient4007);fill-opacity:1;stroke:none;stroke-width:1;stroke-linecap:butt;stroke-linejoin:miter;stroke-miterlimit:2;stroke-dasharray:none;stroke-dashoffset:0;stroke-opacity:1" />
          <path
             transform="matrix(0.647208,0,0,0.638083,-182.9287,295.2197)"
             d="M 291.6875 -437.59375 A 3.3125 3.3125 0 1 1  285.0625,-437.59375 A 3.3125 3.3125 0 1 1  291.6875 -437.59375 z"
             sodipodi:ry="3.3125"
             sodipodi:rx="3.3125"
             sodipodi:cy="-437.59375"
             sodipodi:cx="288.375"
             id="path3985"
             style="opacity:0.47777776;fill:url(#linearGradient4009);fill-opacity:1;stroke:none;stroke-width:1;stroke-linecap:butt;stroke-linejoin:miter;stroke-miterlimit:2;stroke-dasharray:none;stroke-dashoffset:0;stroke-opacity:1"
             sodipodi:type="arc" />
          <path
             transform="matrix(0.862944,0,0,0.850777,-235.8516,387.5891)"
             d="M 291.6875 -437.59375 A 3.3125 3.3125 0 1 1  285.0625,-437.59375 A 3.3125 3.3125 0 1 1  291.6875 -437.59375 z"
             sodipodi:ry="3.3125"
             sodipodi:rx="3.3125"
             sodipodi:cy="-437.59375"
             sodipodi:cx="288.375"
             id="path3987"
             style="fill:#888a85;fill-opacity:1;stroke:none;stroke-width:1;stroke-linecap:butt;stroke-linejoin:miter;stroke-miterlimit:2;stroke-dasharray:none;stroke-dashoffset:0;stroke-opacity:1"
             sodipodi:type="arc" />
          <path
             transform="matrix(0.862944,0,0,0.850777,-235.8516,387.5891)"
             d="M 291.6875 -437.59375 A 3.3125 3.3125 0 1 1  285.0625,-437.59375 A 3.3125 3.3125 0 1 1  291.6875 -437.59375 z"
             sodipodi:ry="3.3125"
             sodipodi:rx="3.3125"
             sodipodi:cy="-437.59375"
             sodipodi:cx="288.375"
             id="path3989"
             style="opacity:0.47777776;fill:url(#linearGradient4011);fill-opacity:1;stroke:none;stroke-width:1;stroke-linecap:butt;stroke-linejoin:miter;stroke-miterlimit:2;stroke-dasharray:none;stroke-dashoffset:0;stroke-opacity:1"
             sodipodi:type="arc" />
        </g>
        <path
           style="fill:#555753;fill-opacity:1;fill-rule:evenodd;stroke:none;stroke-width:1px;stroke-linecap:butt;stroke-linejoin:miter;stroke-opacity:1"
           d="M 19.258173,12.227087 C 19.25708,14.118494 16.921875,14.84375 16.921875,14.84375 C 16.921875,14.84375 18.600346,13.698187 18.591849,12.233385 C 18.591849,12.233385 19.258173,12.227087 19.258173,12.227087 z "
           id="path3991"
           sodipodi:nodetypes="ccss" />
      </g>
    </g>
    <g
       id="g3905">
      <g
         transform="matrix(0.723306,0,0,0.682958,138.0974,241.9986)"
         id="g11183" />
      <g
         id="g3885">
        <path
           style="fill:#888a85;fill-opacity:1;stroke:#555753;stroke-width:1.00000036;stroke-linecap:butt;stroke-linejoin:miter;stroke-miterlimit:2;stroke-dasharray:none;stroke-dashoffset:0;stroke-opacity:1"
           d="M 10.498859,6.4871716 C 8.8760648,6.4871716 7.5618104,7.6079226 7.1267175,9.1078093 C 6.6313174,8.844784 6.0944331,8.6559752 5.496477,8.6559752 C 3.5241092,8.6559752 1.9233398,10.275341 1.923347,12.270648 C 1.923347,12.689176 2.039488,13.071442 2.1689997,13.445416 C 1.1874823,14.002611 0.49409498,15.02792 0.49409498,16.246787 C 0.49409498,18.042558 1.934781,19.5 3.709912,19.499993 C 3.8364937,19.499993 17.161224,19.499993 17.287806,19.499993 C 19.06293,19.499993 20.503623,18.042558 20.503623,16.246787 C 20.503623,15.02792 19.810236,14.002611 18.828718,13.445416 C 18.958237,13.071449 19.074371,12.689169 19.074371,12.270648 C 19.074371,10.275348 17.473609,8.6559825 15.501241,8.6559752 C 14.903285,8.6559752 14.366401,8.844784 13.871,9.1078093 C 13.435908,7.6079226 12.121653,6.4871716 10.498859,6.4871716 z "
           id="path12893"
           sodipodi:nodetypes="ccsscsssscsscc" />
        <path
           style="opacity:0.77254902;fill:url(#linearGradient3933);fill-opacity:1;stroke:none;stroke-width:0.99999958;stroke-linecap:butt;stroke-linejoin:miter;stroke-miterlimit:2;stroke-dasharray:none;stroke-dashoffset:0;stroke-opacity:1"
           d="M 10.5,7 C 8.959086,7 7.879689,7.9428765 7.406835,9.7130156 C 6.936437,9.4704655 6.31779,9.124781 5.75,9.124781 C 3.838382,9.124781 2.40379,10.493331 2.403797,12.33333 C 2.403797,12.719277 2.591834,13.274562 2.714806,13.619427 C 1.7828,14.133262 1,14.95387 1,16.000001 C 1,17.656001 2.088046,19 4.053567,19 C 4.173767,19 16.826241,19 16.946433,19 C 18.896402,19 20,17.656001 20,16.000001 C 20,14.875998 19.2172,14.117672 18.285194,13.603834 C 18.408173,13.258975 18.611761,12.71927 18.611761,12.33333 C 18.611761,10.493338 17.122859,9.1091883 15.250007,9.1091812 C 14.682209,9.1091812 14.094659,9.4548728 13.624262,9.6974229 C 13.167664,7.9881367 12.040921,7 10.5,7 z "
           id="path12895"
           sodipodi:nodetypes="ccsscsssscsscc" />
        <g
           id="g3315"
           transform="matrix(0.94267,0,0,0.946214,0.523844,0.861609)">
          <path
             transform="matrix(0.755077,0,0,0.74443,-207.2464,335.768)"
             d="M 291.6875 -437.59375 A 3.3125 3.3125 0 1 1  285.0625,-437.59375 A 3.3125 3.3125 0 1 1  291.6875 -437.59375 z"
             sodipodi:ry="3.3125"
             sodipodi:rx="3.3125"
             sodipodi:cy="-437.59375"
             sodipodi:cx="288.375"
             id="path12897"
             style="fill:#888a85;fill-opacity:1;stroke:none;stroke-width:1;stroke-linecap:butt;stroke-linejoin:miter;stroke-miterlimit:2;stroke-dasharray:none;stroke-dashoffset:0;stroke-opacity:1"
             sodipodi:type="arc" />
          <path
             transform="matrix(0.755077,0,0,0.74443,-207.2464,335.768)"
             d="M 291.6875 -437.59375 A 3.3125 3.3125 0 1 1  285.0625,-437.59375 A 3.3125 3.3125 0 1 1  291.6875 -437.59375 z"
             sodipodi:ry="3.3125"
             sodipodi:rx="3.3125"
             sodipodi:cy="-437.59375"
             sodipodi:cx="288.375"
             id="path12899"
             style="opacity:0.47777776;fill:url(#linearGradient3935);fill-opacity:1;stroke:none;stroke-width:1;stroke-linecap:butt;stroke-linejoin:miter;stroke-miterlimit:2;stroke-dasharray:none;stroke-dashoffset:0;stroke-opacity:1"
             sodipodi:type="arc" />
          <rect
             y="11.771304"
             x="3.7099185"
             height="6.34095"
             width="14.29252"
             id="rect12901"
             style="fill:#888a85;fill-opacity:1;stroke:none;stroke-width:1;stroke-linecap:butt;stroke-linejoin:miter;stroke-miterlimit:2;stroke-dasharray:none;stroke-dashoffset:0;stroke-opacity:1" />
          <path
             transform="matrix(0.647208,0,0,0.638083,-182.9288,295.2197)"
             d="M 291.6875 -437.59375 A 3.3125 3.3125 0 1 1  285.0625,-437.59375 A 3.3125 3.3125 0 1 1  291.6875 -437.59375 z"
             sodipodi:ry="3.3125"
             sodipodi:rx="3.3125"
             sodipodi:cy="-437.59375"
             sodipodi:cx="288.375"
             id="path12903"
             style="fill:#888a85;fill-opacity:1;stroke:none;stroke-width:1;stroke-linecap:butt;stroke-linejoin:miter;stroke-miterlimit:2;stroke-dasharray:none;stroke-dashoffset:0;stroke-opacity:1"
             sodipodi:type="arc" />
          <path
             transform="matrix(0.755077,0,0,0.74443,-202.244,337.8816)"
             d="M 291.6875 -437.59375 A 3.3125 3.3125 0 1 1  285.0625,-437.59375 A 3.3125 3.3125 0 1 1  291.6875 -437.59375 z"
             sodipodi:ry="3.3125"
             sodipodi:rx="3.3125"
             sodipodi:cy="-437.59375"
             sodipodi:cx="288.375"
             id="path12905"
             style="fill:#888a85;fill-opacity:1;stroke:none;stroke-width:1;stroke-linecap:butt;stroke-linejoin:miter;stroke-miterlimit:2;stroke-dasharray:none;stroke-dashoffset:0;stroke-opacity:1"
             sodipodi:type="arc" />
          <path
             transform="matrix(0.755077,0,0,0.74443,-202.244,337.8817)"
             d="M 291.6875 -437.59375 A 3.3125 3.3125 0 1 1  285.0625,-437.59375 A 3.3125 3.3125 0 1 1  291.6875 -437.59375 z"
             sodipodi:ry="3.3125"
             sodipodi:rx="3.3125"
             sodipodi:cy="-437.59375"
             sodipodi:cx="288.375"
             id="path12907"
             style="opacity:0.47777776;fill:url(#linearGradient3937);fill-opacity:1;stroke:none;stroke-width:1;stroke-linecap:butt;stroke-linejoin:miter;stroke-miterlimit:2;stroke-dasharray:none;stroke-dashoffset:0;stroke-opacity:1"
             sodipodi:type="arc" />
          <path
             transform="matrix(0.755077,0,0,0.74443,-212.2488,337.8817)"
             d="M 291.6875 -437.59375 A 3.3125 3.3125 0 1 1  285.0625,-437.59375 A 3.3125 3.3125 0 1 1  291.6875 -437.59375 z"
             sodipodi:ry="3.3125"
             sodipodi:rx="3.3125"
             sodipodi:cy="-437.59375"
             sodipodi:cx="288.375"
             id="path12909"
             style="fill:#888a85;fill-opacity:1;stroke:none;stroke-width:1;stroke-linecap:butt;stroke-linejoin:miter;stroke-miterlimit:2;stroke-dasharray:none;stroke-dashoffset:0;stroke-opacity:1"
             sodipodi:type="arc" />
          <path
             transform="matrix(0.755077,0,0,0.74443,-212.2488,337.8817)"
             d="M 291.6875 -437.59375 A 3.3125 3.3125 0 1 1  285.0625,-437.59375 A 3.3125 3.3125 0 1 1  291.6875 -437.59375 z"
             sodipodi:ry="3.3125"
             sodipodi:rx="3.3125"
             sodipodi:cy="-437.59375"
             sodipodi:cx="288.375"
             id="path12911"
             style="opacity:0.47777776;fill:url(#linearGradient3939);fill-opacity:1;stroke:none;stroke-width:1;stroke-linecap:butt;stroke-linejoin:miter;stroke-miterlimit:2;stroke-dasharray:none;stroke-dashoffset:0;stroke-opacity:1"
             sodipodi:type="arc" />
          <path
             id="path12913"
             d="M 9.7619009,9.6796665 C 7.2039829,9.6796665 5.139164,11.737396 5.139164,14.259242 C 5.139164,15.929504 6.1035017,17.315431 7.4616985,18.112249 L 12.084435,18.112249 C 13.442632,17.315431 14.40697,15.907494 14.40697,14.237224 C 14.40697,11.715372 12.319812,9.6796665 9.7619009,9.6796665 z "
             style="fill:#888a85;fill-opacity:1;stroke:none;stroke-width:1;stroke-linecap:butt;stroke-linejoin:miter;stroke-miterlimit:2;stroke-dasharray:none;stroke-dashoffset:0;stroke-opacity:1" />
          <path
             id="path12915"
             d="M 9.784233,9.6576493 C 7.2201549,9.6576493 5.139164,11.709306 5.139164,14.237224 C 5.139164,15.911517 6.1002288,17.313515 7.4616985,18.112249 L 12.106767,18.112249 C 13.468237,17.313515 14.429302,15.911517 14.429302,14.237224 C 14.429302,11.709299 12.348311,9.6576564 9.784233,9.6576493 z "
             style="opacity:0.47777776;fill:url(#linearGradient3941);fill-opacity:1;stroke:none;stroke-width:1;stroke-linecap:butt;stroke-linejoin:miter;stroke-miterlimit:2;stroke-dasharray:none;stroke-dashoffset:0;stroke-opacity:1" />
          <path
             transform="matrix(0.647208,0,0,0.638083,-182.9287,295.2197)"
             d="M 291.6875 -437.59375 A 3.3125 3.3125 0 1 1  285.0625,-437.59375 A 3.3125 3.3125 0 1 1  291.6875 -437.59375 z"
             sodipodi:ry="3.3125"
             sodipodi:rx="3.3125"
             sodipodi:cy="-437.59375"
             sodipodi:cx="288.375"
             id="path12917"
             style="opacity:0.47777776;fill:url(#linearGradient3943);fill-opacity:1;stroke:none;stroke-width:1;stroke-linecap:butt;stroke-linejoin:miter;stroke-miterlimit:2;stroke-dasharray:none;stroke-dashoffset:0;stroke-opacity:1"
             sodipodi:type="arc" />
          <path
             transform="matrix(0.862944,0,0,0.850777,-235.8516,387.5891)"
             d="M 291.6875 -437.59375 A 3.3125 3.3125 0 1 1  285.0625,-437.59375 A 3.3125 3.3125 0 1 1  291.6875 -437.59375 z"
             sodipodi:ry="3.3125"
             sodipodi:rx="3.3125"
             sodipodi:cy="-437.59375"
             sodipodi:cx="288.375"
             id="path12921"
             style="fill:#888a85;fill-opacity:1;stroke:none;stroke-width:1;stroke-linecap:butt;stroke-linejoin:miter;stroke-miterlimit:2;stroke-dasharray:none;stroke-dashoffset:0;stroke-opacity:1"
             sodipodi:type="arc" />
          <path
             transform="matrix(0.862944,0,0,0.850777,-235.8516,387.5891)"
             d="M 291.6875 -437.59375 A 3.3125 3.3125 0 1 1  285.0625,-437.59375 A 3.3125 3.3125 0 1 1  291.6875 -437.59375 z"
             sodipodi:ry="3.3125"
             sodipodi:rx="3.3125"
             sodipodi:cy="-437.59375"
             sodipodi:cx="288.375"
             id="path12923"
             style="opacity:0.47777776;fill:url(#linearGradient3945);fill-opacity:1;stroke:none;stroke-width:1;stroke-linecap:butt;stroke-linejoin:miter;stroke-miterlimit:2;stroke-dasharray:none;stroke-dashoffset:0;stroke-opacity:1"
             sodipodi:type="arc" />
        </g>
        <path
           style="fill:#555753;fill-opacity:1;fill-rule:evenodd;stroke:none;stroke-width:1px;stroke-linecap:butt;stroke-linejoin:miter;stroke-opacity:1"
           d="M 19.258173,12.227087 C 19.25708,14.118494 16.921875,14.84375 16.921875,14.84375 C 16.921875,14.84375 18.600346,13.698187 18.591849,12.233385 C 18.591849,12.233385 19.258173,12.227087 19.258173,12.227087 z "
           id="path12919"
           sodipodi:nodetypes="ccss" />
      </g>
    </g>
  </g>
</svg>
